<svg width="60" height="28" xmlns="http://www.w3.org/2000/svg"><path stroke="none" fill="#E8F0FE" d="M4.00 28.00 L4.00 4.00  L4.00 4.00 L4.87 4.11 L5.73 4.49 L6.60 4.39 L7.47 4.52 L8.33 5.87 L9.20 7.44 L10.07 8.32 L10.93 10.45 L11.80 11.68 L12.67 12.41 L13.53 13.29 L14.40 14.22 L15.27 14.26 L16.13 14.32 L17.00 13.91 L17.87 14.56 L18.73 14.73 L19.60 14.69 L20.47 14.97 L21.33 15.72 L22.20 16.17 L23.07 16.86 L23.93 16.15 L24.80 16.56 L25.67 17.31 L26.53 17.27 L27.40 17.40 L28.27 17.72 L29.13 17.57 L30.00 17.94 L30.87 17.74 L31.73 18.00 L32.60 18.34 L33.47 18.26 L34.33 18.73 L35.20 19.18 L36.07 19.18 L36.93 19.38 L37.80 18.73 L38.67 18.52 L39.53 18.65 L40.40 18.02 L41.27 17.35 L42.13 17.72 L43.00 17.68 L43.87 18.04 L44.73 14.67 L45.60 14.64 L46.47 14.34 L47.33 15.21 L48.20 15.45 L49.07 15.45 L49.93 15.45 L50.80 17.26 L51.67 17.77 L52.53 18.61 L53.40 18.61 L54.27 19.27 L55.13 19.27  L55.13 28.00 " /><path stroke="#4285F4" stroke-width="1" fill="none" d="M4.00 4.00  L4.00 4.00 L4.87 4.11 L5.73 4.49 L6.60 4.39 L7.47 4.52 L8.33 5.87 L9.20 7.44 L10.07 8.32 L10.93 10.45 L11.80 11.68 L12.67 12.41 L13.53 13.29 L14.40 14.22 L15.27 14.26 L16.13 14.32 L17.00 13.91 L17.87 14.56 L18.73 14.73 L19.60 14.69 L20.47 14.97 L21.33 15.72 L22.20 16.17 L23.07 16.86 L23.93 16.15 L24.80 16.56 L25.67 17.31 L26.53 17.27 L27.40 17.40 L28.27 17.72 L29.13 17.57 L30.00 17.94 L30.87 17.74 L31.73 18.00 L32.60 18.34 L33.47 18.26 L34.33 18.73 L35.20 19.18 L36.07 19.18 L36.93 19.38 L37.80 18.73 L38.67 18.52 L39.53 18.65 L40.40 18.02 L41.27 17.35 L42.13 17.72 L43.00 17.68 L43.87 18.04 L44.73 14.67 L45.60 14.64 L46.47 14.34 L47.33 15.21 L48.20 15.45 L49.07 15.45 L49.93 15.45 L50.80 17.26 L51.67 17.77 L52.53 18.61 L53.40 18.61 L54.27 19.27 L55.13 19.27 " /></svg>