<svg width="60" height="28" xmlns="http://www.w3.org/2000/svg"><path stroke="none" fill="#E8F0FE" d="M4.00 28.00 L4.00 4.00  L4.00 4.00 L4.87 4.66 L5.73 4.86 L6.60 5.62 L7.47 5.81 L8.33 6.74 L9.20 7.26 L10.07 7.47 L10.93 7.38 L11.80 7.64 L12.67 7.57 L13.53 8.61 L14.40 9.62 L15.27 10.64 L16.13 11.79 L17.00 12.44 L17.87 12.78 L18.73 13.04 L19.60 13.15 L20.47 13.06 L21.33 12.72 L22.20 12.43 L23.07 12.74 L23.93 13.20 L24.80 13.44 L25.67 13.69 L26.53 13.94 L27.40 14.24 L28.27 14.56 L29.13 14.72 L30.00 14.60 L30.87 14.36 L31.73 14.04 L32.60 13.96 L33.47 13.96 L34.33 13.56 L35.20 12.68 L36.07 11.70 L36.93 10.78 L37.80 10.06 L38.67 9.29 L39.53 8.81 L40.40 8.78 L41.27 9.10 L42.13 9.66 L43.00 10.24 L43.87 10.54 L44.73 10.45 L45.60 10.21 L46.47 9.94 L47.33 9.75 L48.20 9.50 L49.07 9.25 L49.93 9.22 L50.80 9.67 L51.67 10.08 L52.53 10.42 L53.40 10.75 L54.27 11.07 L55.13 11.51  L55.13 28.00 " /><path stroke="#4285F4" stroke-width="1" fill="none" d="M4.00 4.00  L4.00 4.00 L4.87 4.66 L5.73 4.86 L6.60 5.62 L7.47 5.81 L8.33 6.74 L9.20 7.26 L10.07 7.47 L10.93 7.38 L11.80 7.64 L12.67 7.57 L13.53 8.61 L14.40 9.62 L15.27 10.64 L16.13 11.79 L17.00 12.44 L17.87 12.78 L18.73 13.04 L19.60 13.15 L20.47 13.06 L21.33 12.72 L22.20 12.43 L23.07 12.74 L23.93 13.20 L24.80 13.44 L25.67 13.69 L26.53 13.94 L27.40 14.24 L28.27 14.56 L29.13 14.72 L30.00 14.60 L30.87 14.36 L31.73 14.04 L32.60 13.96 L33.47 13.96 L34.33 13.56 L35.20 12.68 L36.07 11.70 L36.93 10.78 L37.80 10.06 L38.67 9.29 L39.53 8.81 L40.40 8.78 L41.27 9.10 L42.13 9.66 L43.00 10.24 L43.87 10.54 L44.73 10.45 L45.60 10.21 L46.47 9.94 L47.33 9.75 L48.20 9.50 L49.07 9.25 L49.93 9.22 L50.80 9.67 L51.67 10.08 L52.53 10.42 L53.40 10.75 L54.27 11.07 L55.13 11.51 " /></svg>