<svg width="60" height="28" xmlns="http://www.w3.org/2000/svg"><path stroke="none" fill="#E8F0FE" d="M4.00 28.00 L4.00 18.35  L4.00 18.35 L4.87 18.32 L5.73 18.00 L6.60 17.46 L7.47 17.54 L8.33 18.01 L9.20 17.66 L10.07 16.54 L10.93 16.40 L11.80 15.84 L12.67 15.44 L13.53 14.91 L14.40 14.83 L15.27 14.49 L16.13 14.80 L17.00 14.77 L17.87 15.16 L18.73 15.50 L19.60 15.72 L20.47 15.91 L21.33 16.26 L22.20 16.11 L23.07 15.81 L23.93 15.59 L24.80 15.15 L25.67 14.71 L26.53 14.27 L27.40 14.03 L28.27 13.91 L29.13 13.63 L30.00 13.17 L30.87 12.67 L31.73 12.38 L32.60 12.40 L33.47 12.16 L34.33 11.76 L35.20 10.30 L36.07 9.20 L36.93 8.38 L37.80 7.64 L38.67 7.38 L39.53 6.13 L40.40 4.67 L41.27 4.92 L42.13 4.25 L43.00 4.00 L43.87 4.27 L44.73 4.08 L45.60 4.27 L46.47 5.19 L47.33 5.18 L48.20 6.20 L49.07 6.94 L49.93 7.56 L50.80 8.01 L51.67 8.77 L52.53 9.40 L53.40 10.39 L54.27 10.62 L55.13 11.23  L55.13 28.00 " /><path stroke="#4285F4" stroke-width="1" fill="none" d="M4.00 18.35  L4.00 18.35 L4.87 18.32 L5.73 18.00 L6.60 17.46 L7.47 17.54 L8.33 18.01 L9.20 17.66 L10.07 16.54 L10.93 16.40 L11.80 15.84 L12.67 15.44 L13.53 14.91 L14.40 14.83 L15.27 14.49 L16.13 14.80 L17.00 14.77 L17.87 15.16 L18.73 15.50 L19.60 15.72 L20.47 15.91 L21.33 16.26 L22.20 16.11 L23.07 15.81 L23.93 15.59 L24.80 15.15 L25.67 14.71 L26.53 14.27 L27.40 14.03 L28.27 13.91 L29.13 13.63 L30.00 13.17 L30.87 12.67 L31.73 12.38 L32.60 12.40 L33.47 12.16 L34.33 11.76 L35.20 10.30 L36.07 9.20 L36.93 8.38 L37.80 7.64 L38.67 7.38 L39.53 6.13 L40.40 4.67 L41.27 4.92 L42.13 4.25 L43.00 4.00 L43.87 4.27 L44.73 4.08 L45.60 4.27 L46.47 5.19 L47.33 5.18 L48.20 6.20 L49.07 6.94 L49.93 7.56 L50.80 8.01 L51.67 8.77 L52.53 9.40 L53.40 10.39 L54.27 10.62 L55.13 11.23 " /></svg>