<svg width="60" height="28" xmlns="http://www.w3.org/2000/svg"><path stroke="none" fill="#E8F0FE" d="M4.00 28.00 L4.00 23.51  L4.00 23.51 L4.87 23.22 L5.73 22.20 L6.60 21.55 L7.47 21.55 L8.33 20.41 L9.20 19.92 L10.07 19.92 L10.93 19.56 L11.80 19.39 L12.67 20.37 L13.53 20.37 L14.40 19.88 L15.27 20.47 L16.13 20.47 L17.00 19.26 L17.87 16.09 L18.73 16.09 L19.60 13.15 L20.47 11.81 L21.33 11.81 L22.20 6.88 L23.07 8.74 L23.93 6.97 L24.80 6.97 L25.67 9.92 L26.53 12.92 L27.40 12.92 L28.27 17.86 L29.13 7.30 L30.00 13.44 L30.87 13.44 L31.73 13.44 L32.60 13.44 L33.47 4.07 L34.33 4.00 L35.20 14.56 L36.07 14.56 L36.93 12.46 L37.80 12.01 L38.67 11.71 L39.53 19.07 L40.40 18.44 L41.27 17.43 L42.13 17.24 L43.00 18.77 L43.87 18.12 L44.73 17.82 L45.60 19.52 L46.47 19.42 L47.33 19.98 L48.20 19.78 L49.07 20.01 L49.93 20.93 L50.80 21.25 L51.67 20.27 L52.53 21.03 L53.40 21.48 L54.27 20.93 L55.13 21.25  L55.13 28.00 " /><path stroke="#4285F4" stroke-width="1" fill="none" d="M4.00 23.51  L4.00 23.51 L4.87 23.22 L5.73 22.20 L6.60 21.55 L7.47 21.55 L8.33 20.41 L9.20 19.92 L10.07 19.92 L10.93 19.56 L11.80 19.39 L12.67 20.37 L13.53 20.37 L14.40 19.88 L15.27 20.47 L16.13 20.47 L17.00 19.26 L17.87 16.09 L18.73 16.09 L19.60 13.15 L20.47 11.81 L21.33 11.81 L22.20 6.88 L23.07 8.74 L23.93 6.97 L24.80 6.97 L25.67 9.92 L26.53 12.92 L27.40 12.92 L28.27 17.86 L29.13 7.30 L30.00 13.44 L30.87 13.44 L31.73 13.44 L32.60 13.44 L33.47 4.07 L34.33 4.00 L35.20 14.56 L36.07 14.56 L36.93 12.46 L37.80 12.01 L38.67 11.71 L39.53 19.07 L40.40 18.44 L41.27 17.43 L42.13 17.24 L43.00 18.77 L43.87 18.12 L44.73 17.82 L45.60 19.52 L46.47 19.42 L47.33 19.98 L48.20 19.78 L49.07 20.01 L49.93 20.93 L50.80 21.25 L51.67 20.27 L52.53 21.03 L53.40 21.48 L54.27 20.93 L55.13 21.25 " /></svg>