<svg width="60" height="28" xmlns="http://www.w3.org/2000/svg"><path stroke="none" fill="#E8F0FE" d="M4.00 28.00 L4.00 23.80  L4.00 23.80 L4.87 23.71 L5.73 23.71 L6.60 23.90 L7.47 23.90 L8.33 23.90 L9.20 23.90 L10.07 23.90 L10.93 24.00 L11.80 24.00 L12.67 24.00 L13.53 23.90 L14.40 23.90 L15.27 23.90 L16.13 23.61 L17.00 23.51 L17.87 23.32 L18.73 23.22 L19.60 23.02 L20.47 23.02 L21.33 23.02 L22.20 23.12 L23.07 21.07 L23.93 20.68 L24.80 19.51 L25.67 18.63 L26.53 16.10 L27.40 14.93 L28.27 13.76 L29.13 14.54 L30.00 15.12 L30.87 12.20 L31.73 11.71 L32.60 14.24 L33.47 8.00 L34.33 9.37 L35.20 6.24 L36.07 4.78 L36.93 7.41 L37.80 8.20 L38.67 8.20 L39.53 10.83 L40.40 10.83 L41.27 13.85 L42.13 12.59 L43.00 13.17 L43.87 11.71 L44.73 9.07 L45.60 13.85 L46.47 7.22 L47.33 8.68 L48.20 5.66 L49.07 5.17 L49.93 6.15 L50.80 5.37 L51.67 5.37 L52.53 5.95 L53.40 5.95 L54.27 5.17 L55.13 4.00  L55.13 28.00 " /><path stroke="#4285F4" stroke-width="1" fill="none" d="M4.00 23.80  L4.00 23.80 L4.87 23.71 L5.73 23.71 L6.60 23.90 L7.47 23.90 L8.33 23.90 L9.20 23.90 L10.07 23.90 L10.93 24.00 L11.80 24.00 L12.67 24.00 L13.53 23.90 L14.40 23.90 L15.27 23.90 L16.13 23.61 L17.00 23.51 L17.87 23.32 L18.73 23.22 L19.60 23.02 L20.47 23.02 L21.33 23.02 L22.20 23.12 L23.07 21.07 L23.93 20.68 L24.80 19.51 L25.67 18.63 L26.53 16.10 L27.40 14.93 L28.27 13.76 L29.13 14.54 L30.00 15.12 L30.87 12.20 L31.73 11.71 L32.60 14.24 L33.47 8.00 L34.33 9.37 L35.20 6.24 L36.07 4.78 L36.93 7.41 L37.80 8.20 L38.67 8.20 L39.53 10.83 L40.40 10.83 L41.27 13.85 L42.13 12.59 L43.00 13.17 L43.87 11.71 L44.73 9.07 L45.60 13.85 L46.47 7.22 L47.33 8.68 L48.20 5.66 L49.07 5.17 L49.93 6.15 L50.80 5.37 L51.67 5.37 L52.53 5.95 L53.40 5.95 L54.27 5.17 L55.13 4.00 " /></svg>