<svg width="60" height="28" xmlns="http://www.w3.org/2000/svg"><path stroke="none" fill="#E8F0FE" d="M4.00 28.00 L4.00 23.73  L4.00 23.73 L4.87 23.73 L5.73 23.73 L6.60 24.00 L7.47 23.87 L8.33 23.73 L9.20 23.73 L10.07 23.60 L10.93 23.60 L11.80 23.60 L12.67 22.93 L13.53 22.80 L14.40 22.93 L15.27 22.67 L16.13 22.80 L17.00 22.53 L17.87 22.13 L18.73 22.80 L19.60 22.40 L20.47 22.40 L21.33 22.67 L22.20 22.67 L23.07 12.80 L23.93 13.20 L24.80 10.93 L25.67 8.27 L26.53 7.73 L27.40 7.73 L28.27 4.00 L29.13 12.00 L30.00 12.00 L30.87 8.53 L31.73 10.00 L32.60 10.53 L33.47 9.47 L34.33 9.60 L35.20 10.93 L36.07 9.33 L36.93 13.60 L37.80 13.73 L38.67 10.13 L39.53 10.67 L40.40 13.73 L41.27 13.20 L42.13 6.53 L43.00 5.87 L43.87 7.60 L44.73 9.87 L45.60 7.33 L46.47 6.13 L47.33 6.80 L48.20 12.27 L49.07 13.07 L49.93 12.27 L50.80 13.60 L51.67 15.73 L52.53 15.20 L53.40 14.00 L54.27 15.20 L55.13 15.47  L55.13 28.00 " /><path stroke="#4285F4" stroke-width="1" fill="none" d="M4.00 23.73  L4.00 23.73 L4.87 23.73 L5.73 23.73 L6.60 24.00 L7.47 23.87 L8.33 23.73 L9.20 23.73 L10.07 23.60 L10.93 23.60 L11.80 23.60 L12.67 22.93 L13.53 22.80 L14.40 22.93 L15.27 22.67 L16.13 22.80 L17.00 22.53 L17.87 22.13 L18.73 22.80 L19.60 22.40 L20.47 22.40 L21.33 22.67 L22.20 22.67 L23.07 12.80 L23.93 13.20 L24.80 10.93 L25.67 8.27 L26.53 7.73 L27.40 7.73 L28.27 4.00 L29.13 12.00 L30.00 12.00 L30.87 8.53 L31.73 10.00 L32.60 10.53 L33.47 9.47 L34.33 9.60 L35.20 10.93 L36.07 9.33 L36.93 13.60 L37.80 13.73 L38.67 10.13 L39.53 10.67 L40.40 13.73 L41.27 13.20 L42.13 6.53 L43.00 5.87 L43.87 7.60 L44.73 9.87 L45.60 7.33 L46.47 6.13 L47.33 6.80 L48.20 12.27 L49.07 13.07 L49.93 12.27 L50.80 13.60 L51.67 15.73 L52.53 15.20 L53.40 14.00 L54.27 15.20 L55.13 15.47 " /></svg>