<svg width="60" height="28" xmlns="http://www.w3.org/2000/svg"><path stroke="none" fill="#E8F0FE" d="M4.00 28.00 L4.00 22.40  L4.00 22.40 L4.87 22.61 L5.73 21.64 L6.60 17.59 L7.47 15.81 L8.33 14.34 L9.20 14.59 L10.07 14.51 L10.93 14.51 L11.80 15.60 L12.67 19.91 L13.53 21.68 L14.40 23.16 L15.27 32.02 L16.13 32.31 L17.00 32.31 L17.87 32.61 L18.73 32.61 L19.60 32.61 L20.47 30.24 L21.33 21.38 L22.20 20.71 L23.07 20.62 L23.93 20.50 L24.80 20.50 L25.67 19.91 L26.53 22.27 L27.40 21.81 L28.27 22.48 L29.13 22.57 L30.00 22.19 L30.87 22.19 L31.73 22.48 L32.60 22.48 L33.47 21.38 L34.33 19.99 L35.20 19.99 L36.07 18.56 L36.93 17.63 L37.80 17.92 L38.67 15.48 L39.53 16.49 L40.40 15.86 L41.27 14.17 L42.13 15.27 L43.00 13.96 L43.87 13.96 L44.73 11.55 L45.60 10.33 L46.47 10.58 L47.33 10.08 L48.20 6.28 L49.07 7.00 L49.93 4.00 L50.80 7.80 L51.67 7.97 L52.53 9.27 L53.40 11.47 L54.27 16.32 L55.13 17.84  L55.13 28.00 " /><path stroke="#4285F4" stroke-width="1" fill="none" d="M4.00 22.40  L4.00 22.40 L4.87 22.61 L5.73 21.64 L6.60 17.59 L7.47 15.81 L8.33 14.34 L9.20 14.59 L10.07 14.51 L10.93 14.51 L11.80 15.60 L12.67 19.91 L13.53 21.68 L14.40 23.16 L15.27 32.02 L16.13 32.31 L17.00 32.31 L17.87 32.61 L18.73 32.61 L19.60 32.61 L20.47 30.24 L21.33 21.38 L22.20 20.71 L23.07 20.62 L23.93 20.50 L24.80 20.50 L25.67 19.91 L26.53 22.27 L27.40 21.81 L28.27 22.48 L29.13 22.57 L30.00 22.19 L30.87 22.19 L31.73 22.48 L32.60 22.48 L33.47 21.38 L34.33 19.99 L35.20 19.99 L36.07 18.56 L36.93 17.63 L37.80 17.92 L38.67 15.48 L39.53 16.49 L40.40 15.86 L41.27 14.17 L42.13 15.27 L43.00 13.96 L43.87 13.96 L44.73 11.55 L45.60 10.33 L46.47 10.58 L47.33 10.08 L48.20 6.28 L49.07 7.00 L49.93 4.00 L50.80 7.80 L51.67 7.97 L52.53 9.27 L53.40 11.47 L54.27 16.32 L55.13 17.84 " /></svg>