<svg width="60" height="28" xmlns="http://www.w3.org/2000/svg"><path stroke="none" fill="#E8F0FE" d="M4.00 28.00 L4.00 8.88  L4.00 8.88 L4.87 7.32 L5.73 12.39 L6.60 11.28 L7.47 11.74 L8.33 9.81 L9.20 7.78 L10.07 8.75 L10.93 8.47 L11.80 8.61 L12.67 10.77 L13.53 10.50 L14.40 12.06 L15.27 14.37 L16.13 12.99 L17.00 13.35 L17.87 13.22 L18.73 12.80 L19.60 13.17 L20.47 11.24 L21.33 10.68 L22.20 10.41 L23.07 11.51 L23.93 10.31 L24.80 9.39 L25.67 7.46 L26.53 5.47 L27.40 4.00 L28.27 5.43 L29.13 5.89 L30.00 7.46 L30.87 10.54 L31.73 13.45 L32.60 18.01 L33.47 19.99 L34.33 19.35 L35.20 18.84 L36.07 19.21 L36.93 18.47 L37.80 18.84 L38.67 17.92 L39.53 17.13 L40.40 17.00 L41.27 16.72 L42.13 16.58 L43.00 17.23 L43.87 15.98 L44.73 16.26 L45.60 17.00 L46.47 17.36 L47.33 17.55 L48.20 17.55 L49.07 17.87 L49.93 18.56 L50.80 18.42 L51.67 18.47 L52.53 18.33 L53.40 18.38 L54.27 18.33 L55.13 18.15  L55.13 28.00 " /><path stroke="#4285F4" stroke-width="1" fill="none" d="M4.00 8.88  L4.00 8.88 L4.87 7.32 L5.73 12.39 L6.60 11.28 L7.47 11.74 L8.33 9.81 L9.20 7.78 L10.07 8.75 L10.93 8.47 L11.80 8.61 L12.67 10.77 L13.53 10.50 L14.40 12.06 L15.27 14.37 L16.13 12.99 L17.00 13.35 L17.87 13.22 L18.73 12.80 L19.60 13.17 L20.47 11.24 L21.33 10.68 L22.20 10.41 L23.07 11.51 L23.93 10.31 L24.80 9.39 L25.67 7.46 L26.53 5.47 L27.40 4.00 L28.27 5.43 L29.13 5.89 L30.00 7.46 L30.87 10.54 L31.73 13.45 L32.60 18.01 L33.47 19.99 L34.33 19.35 L35.20 18.84 L36.07 19.21 L36.93 18.47 L37.80 18.84 L38.67 17.92 L39.53 17.13 L40.40 17.00 L41.27 16.72 L42.13 16.58 L43.00 17.23 L43.87 15.98 L44.73 16.26 L45.60 17.00 L46.47 17.36 L47.33 17.55 L48.20 17.55 L49.07 17.87 L49.93 18.56 L50.80 18.42 L51.67 18.47 L52.53 18.33 L53.40 18.38 L54.27 18.33 L55.13 18.15 " /></svg>