<svg width="60" height="28" xmlns="http://www.w3.org/2000/svg"><path stroke="none" fill="#E8F0FE" d="M4.00 28.00 L4.00 15.70  L4.00 15.70 L4.87 14.76 L5.73 14.22 L6.60 13.45 L7.47 12.75 L8.33 11.88 L9.20 11.03 L10.07 9.80 L10.93 10.04 L11.80 9.41 L12.67 8.74 L13.53 8.34 L14.40 8.17 L15.27 8.02 L16.13 8.29 L17.00 7.26 L17.87 6.98 L18.73 7.18 L19.60 6.60 L20.47 6.44 L21.33 6.06 L22.20 5.44 L23.07 5.19 L23.93 4.25 L24.80 4.03 L25.67 4.37 L26.53 4.24 L27.40 4.00 L28.27 4.58 L29.13 4.95 L30.00 5.94 L30.87 6.02 L31.73 6.25 L32.60 6.41 L33.47 6.69 L34.33 6.85 L35.20 7.21 L36.07 7.02 L36.93 7.63 L37.80 7.78 L38.67 8.56 L39.53 9.50 L40.40 9.82 L41.27 10.57 L42.13 11.78 L43.00 12.24 L43.87 12.61 L44.73 12.64 L45.60 12.49 L46.47 12.80 L47.33 12.92 L48.20 13.14 L49.07 13.34 L49.93 13.85 L50.80 14.15 L51.67 14.58 L52.53 14.83 L53.40 15.12 L54.27 15.64 L55.13 15.85  L55.13 28.00 " /><path stroke="#4285F4" stroke-width="1" fill="none" d="M4.00 15.70  L4.00 15.70 L4.87 14.76 L5.73 14.22 L6.60 13.45 L7.47 12.75 L8.33 11.88 L9.20 11.03 L10.07 9.80 L10.93 10.04 L11.80 9.41 L12.67 8.74 L13.53 8.34 L14.40 8.17 L15.27 8.02 L16.13 8.29 L17.00 7.26 L17.87 6.98 L18.73 7.18 L19.60 6.60 L20.47 6.44 L21.33 6.06 L22.20 5.44 L23.07 5.19 L23.93 4.25 L24.80 4.03 L25.67 4.37 L26.53 4.24 L27.40 4.00 L28.27 4.58 L29.13 4.95 L30.00 5.94 L30.87 6.02 L31.73 6.25 L32.60 6.41 L33.47 6.69 L34.33 6.85 L35.20 7.21 L36.07 7.02 L36.93 7.63 L37.80 7.78 L38.67 8.56 L39.53 9.50 L40.40 9.82 L41.27 10.57 L42.13 11.78 L43.00 12.24 L43.87 12.61 L44.73 12.64 L45.60 12.49 L46.47 12.80 L47.33 12.92 L48.20 13.14 L49.07 13.34 L49.93 13.85 L50.80 14.15 L51.67 14.58 L52.53 14.83 L53.40 15.12 L54.27 15.64 L55.13 15.85 " /></svg>