<svg width="60" height="28" xmlns="http://www.w3.org/2000/svg"><path stroke="none" fill="#E8F0FE" d="M4.00 28.00 L4.00 20.55  L4.00 20.55 L4.87 19.60 L5.73 18.29 L6.60 18.40 L7.47 18.64 L8.33 18.52 L9.20 18.64 L10.07 19.00 L10.93 19.83 L11.80 20.90 L12.67 21.62 L13.53 21.14 L14.40 21.38 L15.27 21.86 L16.13 21.50 L17.00 21.02 L17.87 21.02 L18.73 20.43 L19.60 20.19 L20.47 19.36 L21.33 19.71 L22.20 20.07 L23.07 20.67 L23.93 20.55 L24.80 21.14 L25.67 21.02 L26.53 21.26 L27.40 20.31 L28.27 18.64 L29.13 18.05 L30.00 17.81 L30.87 16.74 L31.73 16.26 L32.60 15.55 L33.47 15.19 L34.33 15.43 L35.20 14.36 L36.07 13.40 L36.93 13.64 L37.80 11.98 L38.67 12.21 L39.53 8.76 L40.40 9.00 L41.27 9.83 L42.13 8.29 L43.00 4.95 L43.87 5.55 L44.73 4.00 L45.60 5.90 L46.47 6.98 L47.33 6.62 L48.20 7.45 L49.07 11.74 L49.93 14.12 L50.80 7.10 L51.67 9.71 L52.53 8.76 L53.40 7.10 L54.27 7.57 L55.13 6.26  L55.13 28.00 " /><path stroke="#4285F4" stroke-width="1" fill="none" d="M4.00 20.55  L4.00 20.55 L4.87 19.60 L5.73 18.29 L6.60 18.40 L7.47 18.64 L8.33 18.52 L9.20 18.64 L10.07 19.00 L10.93 19.83 L11.80 20.90 L12.67 21.62 L13.53 21.14 L14.40 21.38 L15.27 21.86 L16.13 21.50 L17.00 21.02 L17.87 21.02 L18.73 20.43 L19.60 20.19 L20.47 19.36 L21.33 19.71 L22.20 20.07 L23.07 20.67 L23.93 20.55 L24.80 21.14 L25.67 21.02 L26.53 21.26 L27.40 20.31 L28.27 18.64 L29.13 18.05 L30.00 17.81 L30.87 16.74 L31.73 16.26 L32.60 15.55 L33.47 15.19 L34.33 15.43 L35.20 14.36 L36.07 13.40 L36.93 13.64 L37.80 11.98 L38.67 12.21 L39.53 8.76 L40.40 9.00 L41.27 9.83 L42.13 8.29 L43.00 4.95 L43.87 5.55 L44.73 4.00 L45.60 5.90 L46.47 6.98 L47.33 6.62 L48.20 7.45 L49.07 11.74 L49.93 14.12 L50.80 7.10 L51.67 9.71 L52.53 8.76 L53.40 7.10 L54.27 7.57 L55.13 6.26 " /></svg>