<svg width="60" height="28" xmlns="http://www.w3.org/2000/svg"><path stroke="none" fill="#E8F0FE" d="M4.00 28.00 L4.00 21.61  L4.00 21.61 L4.87 21.45 L5.73 20.82 L6.60 19.70 L7.47 18.27 L8.33 17.00 L9.20 15.72 L10.07 14.40 L10.93 13.60 L11.80 13.55 L12.67 14.66 L13.53 15.72 L14.40 16.47 L15.27 16.15 L16.13 17.05 L17.00 17.42 L17.87 17.21 L18.73 16.57 L19.60 16.52 L20.47 16.20 L21.33 15.78 L22.20 12.22 L23.07 10.21 L23.93 9.36 L24.80 9.25 L25.67 8.24 L26.53 7.24 L27.40 6.76 L28.27 8.88 L29.13 9.89 L30.00 9.25 L30.87 7.66 L31.73 7.50 L32.60 7.50 L33.47 7.45 L34.33 7.13 L35.20 6.23 L36.07 6.39 L36.93 7.61 L37.80 7.71 L38.67 7.93 L39.53 8.30 L40.40 7.55 L41.27 7.93 L42.13 6.92 L43.00 6.18 L43.87 7.18 L44.73 6.55 L45.60 6.12 L46.47 7.77 L47.33 8.30 L48.20 9.15 L49.07 8.40 L49.93 7.08 L50.80 7.24 L51.67 7.29 L52.53 5.91 L53.40 4.64 L54.27 4.00 L55.13 4.05  L55.13 28.00 " /><path stroke="#4285F4" stroke-width="1" fill="none" d="M4.00 21.61  L4.00 21.61 L4.87 21.45 L5.73 20.82 L6.60 19.70 L7.47 18.27 L8.33 17.00 L9.20 15.72 L10.07 14.40 L10.93 13.60 L11.80 13.55 L12.67 14.66 L13.53 15.72 L14.40 16.47 L15.27 16.15 L16.13 17.05 L17.00 17.42 L17.87 17.21 L18.73 16.57 L19.60 16.52 L20.47 16.20 L21.33 15.78 L22.20 12.22 L23.07 10.21 L23.93 9.36 L24.80 9.25 L25.67 8.24 L26.53 7.24 L27.40 6.76 L28.27 8.88 L29.13 9.89 L30.00 9.25 L30.87 7.66 L31.73 7.50 L32.60 7.50 L33.47 7.45 L34.33 7.13 L35.20 6.23 L36.07 6.39 L36.93 7.61 L37.80 7.71 L38.67 7.93 L39.53 8.30 L40.40 7.55 L41.27 7.93 L42.13 6.92 L43.00 6.18 L43.87 7.18 L44.73 6.55 L45.60 6.12 L46.47 7.77 L47.33 8.30 L48.20 9.15 L49.07 8.40 L49.93 7.08 L50.80 7.24 L51.67 7.29 L52.53 5.91 L53.40 4.64 L54.27 4.00 L55.13 4.05 " /></svg>