<svg width="60" height="28" xmlns="http://www.w3.org/2000/svg"><path stroke="none" fill="#E8F0FE" d="M4.00 28.00 L4.00 19.79  L4.00 19.79 L4.87 19.85 L5.73 19.80 L6.60 20.29 L7.47 20.11 L8.33 20.18 L9.20 20.08 L10.07 20.23 L10.93 20.11 L11.80 20.28 L12.67 20.37 L13.53 20.40 L14.40 20.55 L15.27 20.63 L16.13 20.79 L17.00 20.90 L17.87 20.89 L18.73 20.49 L19.60 19.90 L20.47 19.47 L21.33 19.09 L22.20 18.56 L23.07 17.74 L23.93 16.96 L24.80 16.41 L25.67 16.11 L26.53 15.75 L27.40 15.77 L28.27 15.04 L29.13 14.94 L30.00 14.88 L30.87 14.72 L31.73 14.79 L32.60 14.62 L33.47 14.24 L34.33 13.80 L35.20 12.99 L36.07 12.35 L36.93 11.39 L37.80 10.75 L38.67 9.80 L39.53 9.30 L40.40 9.36 L41.27 9.19 L42.13 8.26 L43.00 7.95 L43.87 7.39 L44.73 7.43 L45.60 7.36 L46.47 7.11 L47.33 6.32 L48.20 6.49 L49.07 7.10 L49.93 6.42 L50.80 5.24 L51.67 4.61 L52.53 4.00 L53.40 4.72 L54.27 5.07 L55.13 4.34  L55.13 28.00 " /><path stroke="#4285F4" stroke-width="1" fill="none" d="M4.00 19.79  L4.00 19.79 L4.87 19.85 L5.73 19.80 L6.60 20.29 L7.47 20.11 L8.33 20.18 L9.20 20.08 L10.07 20.23 L10.93 20.11 L11.80 20.28 L12.67 20.37 L13.53 20.40 L14.40 20.55 L15.27 20.63 L16.13 20.79 L17.00 20.90 L17.87 20.89 L18.73 20.49 L19.60 19.90 L20.47 19.47 L21.33 19.09 L22.20 18.56 L23.07 17.74 L23.93 16.96 L24.80 16.41 L25.67 16.11 L26.53 15.75 L27.40 15.77 L28.27 15.04 L29.13 14.94 L30.00 14.88 L30.87 14.72 L31.73 14.79 L32.60 14.62 L33.47 14.24 L34.33 13.80 L35.20 12.99 L36.07 12.35 L36.93 11.39 L37.80 10.75 L38.67 9.80 L39.53 9.30 L40.40 9.36 L41.27 9.19 L42.13 8.26 L43.00 7.95 L43.87 7.39 L44.73 7.43 L45.60 7.36 L46.47 7.11 L47.33 6.32 L48.20 6.49 L49.07 7.10 L49.93 6.42 L50.80 5.24 L51.67 4.61 L52.53 4.00 L53.40 4.72 L54.27 5.07 L55.13 4.34 " /></svg>