<svg width="60" height="28" xmlns="http://www.w3.org/2000/svg"><path stroke="none" fill="#E8F0FE" d="M4.00 28.00 L4.00 11.57  L4.00 11.57 L4.87 11.73 L5.73 11.74 L6.60 11.54 L7.47 10.83 L8.33 10.46 L9.20 9.41 L10.07 8.83 L10.93 8.19 L11.80 7.55 L12.67 6.99 L13.53 7.16 L14.40 6.66 L15.27 6.37 L16.13 5.66 L17.00 5.02 L17.87 4.22 L18.73 4.16 L19.60 4.00 L20.47 4.03 L21.33 4.34 L22.20 4.53 L23.07 5.61 L23.93 6.77 L24.80 7.05 L25.67 7.44 L26.53 8.05 L27.40 8.65 L28.27 9.67 L29.13 9.36 L30.00 9.40 L30.87 9.73 L31.73 10.12 L32.60 10.34 L33.47 10.56 L34.33 10.46 L35.20 11.05 L36.07 11.41 L36.93 11.85 L37.80 12.62 L38.67 13.36 L39.53 13.95 L40.40 14.67 L41.27 14.97 L42.13 15.36 L43.00 15.70 L43.87 15.41 L44.73 15.29 L45.60 15.18 L46.47 14.96 L47.33 14.82 L48.20 14.77 L49.07 14.77 L49.93 14.63 L50.80 14.39 L51.67 14.26 L52.53 14.42 L53.40 14.51 L54.27 13.66 L55.13 12.58  L55.13 28.00 " /><path stroke="#4285F4" stroke-width="1" fill="none" d="M4.00 11.57  L4.00 11.57 L4.87 11.73 L5.73 11.74 L6.60 11.54 L7.47 10.83 L8.33 10.46 L9.20 9.41 L10.07 8.83 L10.93 8.19 L11.80 7.55 L12.67 6.99 L13.53 7.16 L14.40 6.66 L15.27 6.37 L16.13 5.66 L17.00 5.02 L17.87 4.22 L18.73 4.16 L19.60 4.00 L20.47 4.03 L21.33 4.34 L22.20 4.53 L23.07 5.61 L23.93 6.77 L24.80 7.05 L25.67 7.44 L26.53 8.05 L27.40 8.65 L28.27 9.67 L29.13 9.36 L30.00 9.40 L30.87 9.73 L31.73 10.12 L32.60 10.34 L33.47 10.56 L34.33 10.46 L35.20 11.05 L36.07 11.41 L36.93 11.85 L37.80 12.62 L38.67 13.36 L39.53 13.95 L40.40 14.67 L41.27 14.97 L42.13 15.36 L43.00 15.70 L43.87 15.41 L44.73 15.29 L45.60 15.18 L46.47 14.96 L47.33 14.82 L48.20 14.77 L49.07 14.77 L49.93 14.63 L50.80 14.39 L51.67 14.26 L52.53 14.42 L53.40 14.51 L54.27 13.66 L55.13 12.58 " /></svg>