<svg width="60" height="28" xmlns="http://www.w3.org/2000/svg"><path stroke="none" fill="#E8F0FE" d="M4.00 28.00 L4.00 22.16  L4.00 22.16 L4.87 22.16 L5.73 21.75 L6.60 21.98 L7.47 21.35 L8.33 21.16 L9.20 21.22 L10.07 21.09 L10.93 20.68 L11.80 20.07 L12.67 19.24 L13.53 19.73 L14.40 19.90 L15.27 18.35 L16.13 17.68 L17.00 18.02 L17.87 18.52 L18.73 19.01 L19.60 18.79 L20.47 18.29 L21.33 19.46 L22.20 20.07 L23.07 19.29 L23.93 19.68 L24.80 18.57 L25.67 18.40 L26.53 17.30 L27.40 15.69 L28.27 14.69 L29.13 12.69 L30.00 11.98 L30.87 12.88 L31.73 13.59 L32.60 14.82 L33.47 15.92 L34.33 15.08 L35.20 16.35 L36.07 14.97 L36.93 11.65 L37.80 10.48 L38.67 4.72 L39.53 4.00 L40.40 5.05 L41.27 6.38 L42.13 8.10 L43.00 11.98 L43.87 12.20 L44.73 17.19 L45.60 18.07 L46.47 17.74 L47.33 14.75 L48.20 14.58 L49.07 13.97 L49.93 14.19 L50.80 15.08 L51.67 14.80 L52.53 14.30 L53.40 15.97 L54.27 15.63 L55.13 15.97  L55.13 28.00 " /><path stroke="#4285F4" stroke-width="1" fill="none" d="M4.00 22.16  L4.00 22.16 L4.87 22.16 L5.73 21.75 L6.60 21.98 L7.47 21.35 L8.33 21.16 L9.20 21.22 L10.07 21.09 L10.93 20.68 L11.80 20.07 L12.67 19.24 L13.53 19.73 L14.40 19.90 L15.27 18.35 L16.13 17.68 L17.00 18.02 L17.87 18.52 L18.73 19.01 L19.60 18.79 L20.47 18.29 L21.33 19.46 L22.20 20.07 L23.07 19.29 L23.93 19.68 L24.80 18.57 L25.67 18.40 L26.53 17.30 L27.40 15.69 L28.27 14.69 L29.13 12.69 L30.00 11.98 L30.87 12.88 L31.73 13.59 L32.60 14.82 L33.47 15.92 L34.33 15.08 L35.20 16.35 L36.07 14.97 L36.93 11.65 L37.80 10.48 L38.67 4.72 L39.53 4.00 L40.40 5.05 L41.27 6.38 L42.13 8.10 L43.00 11.98 L43.87 12.20 L44.73 17.19 L45.60 18.07 L46.47 17.74 L47.33 14.75 L48.20 14.58 L49.07 13.97 L49.93 14.19 L50.80 15.08 L51.67 14.80 L52.53 14.30 L53.40 15.97 L54.27 15.63 L55.13 15.97 " /></svg>