<svg width="60" height="28" xmlns="http://www.w3.org/2000/svg"><path stroke="none" fill="#E8F0FE" d="M4.00 28.00 L4.00 5.47  L4.00 5.47 L4.87 5.07 L5.73 4.00 L6.60 4.61 L7.47 5.69 L8.33 6.76 L9.20 8.57 L10.07 9.12 L10.93 10.47 L11.80 11.27 L12.67 11.79 L13.53 11.79 L14.40 13.36 L15.27 14.15 L16.13 15.01 L17.00 16.06 L17.87 16.85 L18.73 17.10 L19.60 16.85 L20.47 16.64 L21.33 16.76 L22.20 17.28 L23.07 16.76 L23.93 16.36 L24.80 16.52 L25.67 17.10 L26.53 18.11 L27.40 18.57 L28.27 18.51 L29.13 19.18 L30.00 19.95 L30.87 19.80 L31.73 19.52 L32.60 19.52 L33.47 19.58 L34.33 20.10 L35.20 20.32 L36.07 20.44 L36.93 20.87 L37.80 21.36 L38.67 21.52 L39.53 21.91 L40.40 22.19 L41.27 22.25 L42.13 22.71 L43.00 22.80 L43.87 22.53 L44.73 22.68 L45.60 22.74 L46.47 22.25 L47.33 22.13 L48.20 22.04 L49.07 22.04 L49.93 22.19 L50.80 22.01 L51.67 21.94 L52.53 22.50 L53.40 22.68 L54.27 22.59 L55.13 22.59  L55.13 28.00 " /><path stroke="#4285F4" stroke-width="1" fill="none" d="M4.00 5.47  L4.00 5.47 L4.87 5.07 L5.73 4.00 L6.60 4.61 L7.47 5.69 L8.33 6.76 L9.20 8.57 L10.07 9.12 L10.93 10.47 L11.80 11.27 L12.67 11.79 L13.53 11.79 L14.40 13.36 L15.27 14.15 L16.13 15.01 L17.00 16.06 L17.87 16.85 L18.73 17.10 L19.60 16.85 L20.47 16.64 L21.33 16.76 L22.20 17.28 L23.07 16.76 L23.93 16.36 L24.80 16.52 L25.67 17.10 L26.53 18.11 L27.40 18.57 L28.27 18.51 L29.13 19.18 L30.00 19.95 L30.87 19.80 L31.73 19.52 L32.60 19.52 L33.47 19.58 L34.33 20.10 L35.20 20.32 L36.07 20.44 L36.93 20.87 L37.80 21.36 L38.67 21.52 L39.53 21.91 L40.40 22.19 L41.27 22.25 L42.13 22.71 L43.00 22.80 L43.87 22.53 L44.73 22.68 L45.60 22.74 L46.47 22.25 L47.33 22.13 L48.20 22.04 L49.07 22.04 L49.93 22.19 L50.80 22.01 L51.67 21.94 L52.53 22.50 L53.40 22.68 L54.27 22.59 L55.13 22.59 " /></svg>