<svg width="60" height="28" xmlns="http://www.w3.org/2000/svg"><path stroke="none" fill="#E8F0FE" d="M4.00 28.00 L4.00 18.74  L4.00 18.74 L4.87 18.11 L5.73 18.76 L6.60 19.88 L7.47 16.72 L8.33 15.73 L9.20 14.59 L10.07 17.44 L10.93 16.67 L11.80 14.62 L12.67 13.31 L13.53 15.59 L14.40 14.93 L15.27 13.88 L16.13 12.03 L17.00 11.43 L17.87 12.09 L18.73 10.95 L19.60 9.13 L20.47 8.85 L21.33 8.27 L22.20 8.05 L23.07 7.65 L23.93 7.27 L24.80 6.76 L25.67 7.01 L26.53 6.46 L27.40 6.44 L28.27 5.59 L29.13 5.64 L30.00 4.00 L30.87 4.76 L31.73 4.23 L32.60 4.54 L33.47 6.18 L34.33 5.64 L35.20 5.17 L36.07 6.76 L36.93 6.86 L37.80 7.34 L38.67 6.64 L39.53 7.39 L40.40 6.18 L41.27 7.25 L42.13 7.68 L43.00 8.20 L43.87 8.68 L44.73 10.38 L45.60 9.51 L46.47 13.58 L47.33 13.31 L48.20 15.03 L49.07 15.27 L49.93 15.96 L50.80 16.11 L51.67 17.38 L52.53 16.01 L53.40 17.04 L54.27 16.23 L55.13 16.26  L55.13 28.00 " /><path stroke="#4285F4" stroke-width="1" fill="none" d="M4.00 18.74  L4.00 18.74 L4.87 18.11 L5.73 18.76 L6.60 19.88 L7.47 16.72 L8.33 15.73 L9.20 14.59 L10.07 17.44 L10.93 16.67 L11.80 14.62 L12.67 13.31 L13.53 15.59 L14.40 14.93 L15.27 13.88 L16.13 12.03 L17.00 11.43 L17.87 12.09 L18.73 10.95 L19.60 9.13 L20.47 8.85 L21.33 8.27 L22.20 8.05 L23.07 7.65 L23.93 7.27 L24.80 6.76 L25.67 7.01 L26.53 6.46 L27.40 6.44 L28.27 5.59 L29.13 5.64 L30.00 4.00 L30.87 4.76 L31.73 4.23 L32.60 4.54 L33.47 6.18 L34.33 5.64 L35.20 5.17 L36.07 6.76 L36.93 6.86 L37.80 7.34 L38.67 6.64 L39.53 7.39 L40.40 6.18 L41.27 7.25 L42.13 7.68 L43.00 8.20 L43.87 8.68 L44.73 10.38 L45.60 9.51 L46.47 13.58 L47.33 13.31 L48.20 15.03 L49.07 15.27 L49.93 15.96 L50.80 16.11 L51.67 17.38 L52.53 16.01 L53.40 17.04 L54.27 16.23 L55.13 16.26 " /></svg>