<svg width="60" height="28" xmlns="http://www.w3.org/2000/svg"><path stroke="none" fill="#E8F0FE" d="M4.00 28.00 L4.00 4.90  L4.00 4.90 L4.87 4.59 L5.73 4.49 L6.60 4.21 L7.47 4.00 L8.33 4.14 L9.20 4.47 L10.07 4.49 L10.93 4.91 L11.80 5.25 L12.67 5.96 L13.53 6.39 L14.40 6.72 L15.27 7.01 L16.13 7.45 L17.00 7.39 L17.87 7.68 L18.73 7.67 L19.60 7.77 L20.47 7.88 L21.33 8.00 L22.20 8.08 L23.07 8.21 L23.93 8.04 L24.80 8.01 L25.67 8.03 L26.53 7.97 L27.40 7.85 L28.27 7.81 L29.13 7.84 L30.00 7.91 L30.87 7.93 L31.73 8.00 L32.60 8.03 L33.47 8.04 L34.33 7.98 L35.20 8.02 L36.07 8.05 L36.93 8.25 L37.80 8.34 L38.67 8.48 L39.53 8.74 L40.40 9.00 L41.27 9.22 L42.13 9.50 L43.00 9.67 L43.87 9.89 L44.73 10.06 L45.60 10.24 L46.47 10.54 L47.33 10.81 L48.20 11.05 L49.07 11.28 L49.93 11.47 L50.80 11.64 L51.67 11.73 L52.53 11.75 L53.40 11.81 L54.27 11.82 L55.13 11.85  L55.13 28.00 " /><path stroke="#4285F4" stroke-width="1" fill="none" d="M4.00 4.90  L4.00 4.90 L4.87 4.59 L5.73 4.49 L6.60 4.21 L7.47 4.00 L8.33 4.14 L9.20 4.47 L10.07 4.49 L10.93 4.91 L11.80 5.25 L12.67 5.96 L13.53 6.39 L14.40 6.72 L15.27 7.01 L16.13 7.45 L17.00 7.39 L17.87 7.68 L18.73 7.67 L19.60 7.77 L20.47 7.88 L21.33 8.00 L22.20 8.08 L23.07 8.21 L23.93 8.04 L24.80 8.01 L25.67 8.03 L26.53 7.97 L27.40 7.85 L28.27 7.81 L29.13 7.84 L30.00 7.91 L30.87 7.93 L31.73 8.00 L32.60 8.03 L33.47 8.04 L34.33 7.98 L35.20 8.02 L36.07 8.05 L36.93 8.25 L37.80 8.34 L38.67 8.48 L39.53 8.74 L40.40 9.00 L41.27 9.22 L42.13 9.50 L43.00 9.67 L43.87 9.89 L44.73 10.06 L45.60 10.24 L46.47 10.54 L47.33 10.81 L48.20 11.05 L49.07 11.28 L49.93 11.47 L50.80 11.64 L51.67 11.73 L52.53 11.75 L53.40 11.81 L54.27 11.82 L55.13 11.85 " /></svg>