<svg width="60" height="28" xmlns="http://www.w3.org/2000/svg"><path stroke="none" fill="#E8F0FE" d="M4.00 28.00 L4.00 24.00  L4.00 24.00 L4.87 24.00 L5.73 24.00 L6.60 21.78 L7.47 21.78 L8.33 22.33 L9.20 21.78 L10.07 21.78 L10.93 21.78 L11.80 21.78 L12.67 24.00 L13.53 24.00 L14.40 20.67 L15.27 20.67 L16.13 20.67 L17.00 20.67 L17.87 20.67 L18.73 19.56 L19.60 19.56 L20.47 20.67 L21.33 20.67 L22.20 17.33 L23.07 17.33 L23.93 17.33 L24.80 17.33 L25.67 17.33 L26.53 17.33 L27.40 17.33 L28.27 17.33 L29.13 20.67 L30.00 21.78 L30.87 24.00 L31.73 24.00 L32.60 24.00 L33.47 24.00 L34.33 24.00 L35.20 24.00 L39.53 24.00 L40.40 24.00 L41.27 24.00 L42.13 24.00 L43.00 24.00 L43.87 20.67 L44.73 19.56 L45.60 17.33 L46.47 17.33 L47.33 17.33 L48.20 17.33 L49.07 17.33 L49.93 17.33 L50.80 17.33 L51.67 17.33 L52.53 17.33 L53.40 10.67 L54.27 10.67 L55.13 4.00  L55.13 28.00 " /><path stroke="#4285F4" stroke-width="1" fill="none" d="M4.00 24.00  L4.00 24.00 L4.87 24.00 L5.73 24.00 L6.60 21.78 L7.47 21.78 L8.33 22.33 L9.20 21.78 L10.07 21.78 L10.93 21.78 L11.80 21.78 L12.67 24.00 L13.53 24.00 L14.40 20.67 L15.27 20.67 L16.13 20.67 L17.00 20.67 L17.87 20.67 L18.73 19.56 L19.60 19.56 L20.47 20.67 L21.33 20.67 L22.20 17.33 L23.07 17.33 L23.93 17.33 L24.80 17.33 L25.67 17.33 L26.53 17.33 L27.40 17.33 L28.27 17.33 L29.13 20.67 L30.00 21.78 L30.87 24.00 L31.73 24.00 L32.60 24.00 L33.47 24.00 L34.33 24.00 L35.20 24.00 L39.53 24.00 L40.40 24.00 L41.27 24.00 L42.13 24.00 L43.00 24.00 L43.87 20.67 L44.73 19.56 L45.60 17.33 L46.47 17.33 L47.33 17.33 L48.20 17.33 L49.07 17.33 L49.93 17.33 L50.80 17.33 L51.67 17.33 L52.53 17.33 L53.40 10.67 L54.27 10.67 L55.13 4.00 " /></svg>