<svg width="60" height="28" xmlns="http://www.w3.org/2000/svg"><path stroke="none" fill="#E8F0FE" d="M4.00 28.00 L4.00 19.75  L4.00 19.75 L4.87 19.28 L5.73 18.45 L6.60 17.90 L7.47 17.96 L8.33 17.98 L9.20 18.64 L10.07 18.57 L10.93 19.64 L11.80 16.23 L12.67 16.58 L13.53 14.53 L14.40 15.16 L15.27 10.71 L16.13 8.98 L17.00 6.44 L17.87 8.26 L18.73 6.17 L19.60 6.38 L20.47 4.00 L21.33 6.94 L22.20 7.45 L23.07 8.02 L23.93 8.90 L24.80 9.87 L25.67 10.70 L26.53 11.54 L27.40 12.64 L28.27 13.62 L29.13 14.45 L30.00 14.96 L30.87 15.49 L31.73 15.96 L32.60 16.55 L33.47 16.58 L34.33 16.66 L35.20 16.88 L36.07 17.22 L36.93 17.38 L37.80 17.55 L38.67 17.70 L39.53 17.93 L40.40 18.15 L41.27 18.30 L42.13 18.46 L43.00 18.57 L43.87 18.67 L44.73 18.75 L45.60 18.82 L46.47 18.93 L47.33 18.91 L48.20 18.87 L49.07 18.91 L49.93 19.02 L50.80 19.12 L51.67 19.18 L52.53 19.18 L53.40 19.33 L54.27 20.09 L55.13 20.13  L55.13 28.00 " /><path stroke="#4285F4" stroke-width="1" fill="none" d="M4.00 19.75  L4.00 19.75 L4.87 19.28 L5.73 18.45 L6.60 17.90 L7.47 17.96 L8.33 17.98 L9.20 18.64 L10.07 18.57 L10.93 19.64 L11.80 16.23 L12.67 16.58 L13.53 14.53 L14.40 15.16 L15.27 10.71 L16.13 8.98 L17.00 6.44 L17.87 8.26 L18.73 6.17 L19.60 6.38 L20.47 4.00 L21.33 6.94 L22.20 7.45 L23.07 8.02 L23.93 8.90 L24.80 9.87 L25.67 10.70 L26.53 11.54 L27.40 12.64 L28.27 13.62 L29.13 14.45 L30.00 14.96 L30.87 15.49 L31.73 15.96 L32.60 16.55 L33.47 16.58 L34.33 16.66 L35.20 16.88 L36.07 17.22 L36.93 17.38 L37.80 17.55 L38.67 17.70 L39.53 17.93 L40.40 18.15 L41.27 18.30 L42.13 18.46 L43.00 18.57 L43.87 18.67 L44.73 18.75 L45.60 18.82 L46.47 18.93 L47.33 18.91 L48.20 18.87 L49.07 18.91 L49.93 19.02 L50.80 19.12 L51.67 19.18 L52.53 19.18 L53.40 19.33 L54.27 20.09 L55.13 20.13 " /></svg>