<svg width="60" height="28" xmlns="http://www.w3.org/2000/svg"><path stroke="none" fill="#E8F0FE" d="M4.00 28.00 L4.00 21.89  L4.00 21.89 L4.87 21.87 L5.73 21.86 L6.60 21.95 L7.47 21.95 L8.33 21.95 L9.20 23.84 L10.07 23.96 L10.93 23.98 L11.80 23.99 L12.67 23.93 L13.53 23.92 L14.40 23.86 L15.27 23.79 L16.13 23.76 L17.00 23.69 L17.87 23.37 L18.73 23.49 L19.60 23.50 L20.47 23.56 L21.33 23.63 L22.20 23.63 L23.07 23.62 L23.93 23.82 L24.80 23.76 L25.67 23.75 L26.53 23.74 L27.40 23.73 L28.27 23.74 L29.13 23.76 L30.00 23.81 L30.87 23.81 L31.73 23.82 L32.60 23.83 L33.47 23.75 L34.33 23.67 L35.20 23.69 L36.07 23.75 L36.93 23.73 L37.80 23.68 L38.67 23.65 L39.53 23.61 L40.40 23.64 L41.27 23.16 L42.13 22.65 L43.00 21.88 L43.87 20.77 L44.73 20.28 L45.60 18.65 L46.47 16.82 L47.33 15.67 L48.20 15.63 L49.07 14.23 L49.93 12.66 L50.80 11.12 L51.67 10.83 L52.53 9.32 L53.40 7.52 L54.27 4.69 L55.13 4.00  L55.13 28.00 " /><path stroke="#4285F4" stroke-width="1" fill="none" d="M4.00 21.89  L4.00 21.89 L4.87 21.87 L5.73 21.86 L6.60 21.95 L7.47 21.95 L8.33 21.95 L9.20 23.84 L10.07 23.96 L10.93 23.98 L11.80 23.99 L12.67 23.93 L13.53 23.92 L14.40 23.86 L15.27 23.79 L16.13 23.76 L17.00 23.69 L17.87 23.37 L18.73 23.49 L19.60 23.50 L20.47 23.56 L21.33 23.63 L22.20 23.63 L23.07 23.62 L23.93 23.82 L24.80 23.76 L25.67 23.75 L26.53 23.74 L27.40 23.73 L28.27 23.74 L29.13 23.76 L30.00 23.81 L30.87 23.81 L31.73 23.82 L32.60 23.83 L33.47 23.75 L34.33 23.67 L35.20 23.69 L36.07 23.75 L36.93 23.73 L37.80 23.68 L38.67 23.65 L39.53 23.61 L40.40 23.64 L41.27 23.16 L42.13 22.65 L43.00 21.88 L43.87 20.77 L44.73 20.28 L45.60 18.65 L46.47 16.82 L47.33 15.67 L48.20 15.63 L49.07 14.23 L49.93 12.66 L50.80 11.12 L51.67 10.83 L52.53 9.32 L53.40 7.52 L54.27 4.69 L55.13 4.00 " /></svg>