<svg width="60" height="28" xmlns="http://www.w3.org/2000/svg"><path stroke="none" fill="#E8F0FE" d="M4.00 28.00 L4.00 4.00  L4.00 4.00 L4.87 7.90 L5.73 9.85 L6.60 15.46 L7.47 15.95 L8.33 15.71 L9.20 15.71 L10.07 16.44 L10.93 18.88 L11.80 18.88 L12.67 19.37 L13.53 19.61 L14.40 20.34 L15.27 20.83 L16.13 19.12 L17.00 17.90 L17.87 15.95 L18.73 15.95 L19.60 16.20 L20.47 15.22 L21.33 13.27 L22.20 14.24 L23.07 15.46 L23.93 16.44 L24.80 16.44 L25.67 15.71 L26.53 16.20 L27.40 17.66 L28.27 18.63 L29.13 18.63 L30.00 19.12 L30.87 20.34 L31.73 21.07 L32.60 21.32 L33.47 20.34 L34.33 20.59 L35.20 19.12 L36.07 19.37 L36.93 19.37 L37.80 19.37 L38.67 18.63 L39.53 20.10 L40.40 18.88 L41.27 17.41 L42.13 14.73 L43.00 13.76 L43.87 13.76 L44.73 13.27 L45.60 12.05 L46.47 11.32 L47.33 12.78 L48.20 15.71 L49.07 15.95 L49.93 14.98 L50.80 15.95 L51.67 16.20 L52.53 16.93 L53.40 16.44 L54.27 15.46 L55.13 14.73  L55.13 28.00 " /><path stroke="#4285F4" stroke-width="1" fill="none" d="M4.00 4.00  L4.00 4.00 L4.87 7.90 L5.73 9.85 L6.60 15.46 L7.47 15.95 L8.33 15.71 L9.20 15.71 L10.07 16.44 L10.93 18.88 L11.80 18.88 L12.67 19.37 L13.53 19.61 L14.40 20.34 L15.27 20.83 L16.13 19.12 L17.00 17.90 L17.87 15.95 L18.73 15.95 L19.60 16.20 L20.47 15.22 L21.33 13.27 L22.20 14.24 L23.07 15.46 L23.93 16.44 L24.80 16.44 L25.67 15.71 L26.53 16.20 L27.40 17.66 L28.27 18.63 L29.13 18.63 L30.00 19.12 L30.87 20.34 L31.73 21.07 L32.60 21.32 L33.47 20.34 L34.33 20.59 L35.20 19.12 L36.07 19.37 L36.93 19.37 L37.80 19.37 L38.67 18.63 L39.53 20.10 L40.40 18.88 L41.27 17.41 L42.13 14.73 L43.00 13.76 L43.87 13.76 L44.73 13.27 L45.60 12.05 L46.47 11.32 L47.33 12.78 L48.20 15.71 L49.07 15.95 L49.93 14.98 L50.80 15.95 L51.67 16.20 L52.53 16.93 L53.40 16.44 L54.27 15.46 L55.13 14.73 " /></svg>