<svg width="60" height="28" xmlns="http://www.w3.org/2000/svg"><path stroke="none" fill="#E8F0FE" d="M4.00 28.00 L4.00 14.56  L4.00 14.56 L4.87 14.74 L5.73 13.52 L6.60 12.23 L7.47 11.79 L8.33 10.15 L9.20 11.97 L10.07 9.97 L10.93 8.68 L11.80 7.55 L12.67 9.19 L13.53 6.86 L14.40 8.33 L15.27 7.03 L16.13 8.16 L17.00 8.68 L17.87 10.23 L18.73 10.23 L19.60 6.51 L20.47 5.30 L21.33 4.95 L22.20 5.65 L23.07 4.35 L23.93 4.69 L24.80 4.00 L25.67 10.67 L26.53 12.74 L27.40 11.71 L28.27 13.00 L29.13 15.17 L30.00 15.34 L30.87 15.86 L31.73 14.65 L32.60 12.23 L33.47 12.83 L34.33 10.75 L35.20 9.19 L36.07 8.94 L36.93 7.90 L37.80 6.68 L38.67 8.85 L39.53 6.68 L40.40 7.81 L41.27 7.81 L42.13 7.12 L43.00 8.68 L43.87 10.32 L44.73 9.80 L45.60 13.44 L46.47 14.91 L47.33 14.56 L48.20 15.69 L49.07 15.26 L49.93 15.34 L50.80 14.48 L51.67 14.04 L52.53 11.53 L53.40 12.14 L54.27 12.74 L55.13 13.35  L55.13 28.00 " /><path stroke="#4285F4" stroke-width="1" fill="none" d="M4.00 14.56  L4.00 14.56 L4.87 14.74 L5.73 13.52 L6.60 12.23 L7.47 11.79 L8.33 10.15 L9.20 11.97 L10.07 9.97 L10.93 8.68 L11.80 7.55 L12.67 9.19 L13.53 6.86 L14.40 8.33 L15.27 7.03 L16.13 8.16 L17.00 8.68 L17.87 10.23 L18.73 10.23 L19.60 6.51 L20.47 5.30 L21.33 4.95 L22.20 5.65 L23.07 4.35 L23.93 4.69 L24.80 4.00 L25.67 10.67 L26.53 12.74 L27.40 11.71 L28.27 13.00 L29.13 15.17 L30.00 15.34 L30.87 15.86 L31.73 14.65 L32.60 12.23 L33.47 12.83 L34.33 10.75 L35.20 9.19 L36.07 8.94 L36.93 7.90 L37.80 6.68 L38.67 8.85 L39.53 6.68 L40.40 7.81 L41.27 7.81 L42.13 7.12 L43.00 8.68 L43.87 10.32 L44.73 9.80 L45.60 13.44 L46.47 14.91 L47.33 14.56 L48.20 15.69 L49.07 15.26 L49.93 15.34 L50.80 14.48 L51.67 14.04 L52.53 11.53 L53.40 12.14 L54.27 12.74 L55.13 13.35 " /></svg>