<svg width="60" height="28" xmlns="http://www.w3.org/2000/svg"><path stroke="none" fill="#E8F0FE" d="M4.00 28.00 L4.00 22.95  L4.00 22.95 L4.87 22.79 L5.73 22.78 L6.60 22.60 L7.47 22.44 L8.33 22.27 L9.20 22.13 L10.07 22.03 L10.93 21.91 L11.80 21.73 L12.67 21.73 L13.53 21.66 L14.40 21.49 L15.27 21.31 L16.13 20.87 L17.00 20.45 L17.87 20.03 L18.73 19.52 L19.60 19.24 L20.47 19.06 L21.33 18.80 L22.20 18.66 L23.07 18.67 L23.93 18.56 L24.80 18.66 L25.67 18.65 L26.53 18.31 L27.40 18.03 L28.27 17.85 L29.13 17.72 L30.00 17.51 L30.87 17.35 L31.73 17.06 L32.60 16.79 L33.47 16.49 L34.33 15.97 L35.20 15.36 L36.07 14.74 L36.93 14.18 L37.80 13.75 L38.67 13.49 L39.53 13.30 L40.40 12.66 L41.27 11.91 L42.13 11.80 L43.00 11.46 L43.87 10.42 L44.73 9.40 L45.60 8.01 L46.47 7.28 L47.33 6.36 L48.20 5.50 L49.07 4.82 L49.93 4.61 L50.80 4.64 L51.67 4.60 L52.53 4.45 L53.40 4.49 L54.27 4.28 L55.13 4.00  L55.13 28.00 " /><path stroke="#4285F4" stroke-width="1" fill="none" d="M4.00 22.95  L4.00 22.95 L4.87 22.79 L5.73 22.78 L6.60 22.60 L7.47 22.44 L8.33 22.27 L9.20 22.13 L10.07 22.03 L10.93 21.91 L11.80 21.73 L12.67 21.73 L13.53 21.66 L14.40 21.49 L15.27 21.31 L16.13 20.87 L17.00 20.45 L17.87 20.03 L18.73 19.52 L19.60 19.24 L20.47 19.06 L21.33 18.80 L22.20 18.66 L23.07 18.67 L23.93 18.56 L24.80 18.66 L25.67 18.65 L26.53 18.31 L27.40 18.03 L28.27 17.85 L29.13 17.72 L30.00 17.51 L30.87 17.35 L31.73 17.06 L32.60 16.79 L33.47 16.49 L34.33 15.97 L35.20 15.36 L36.07 14.74 L36.93 14.18 L37.80 13.75 L38.67 13.49 L39.53 13.30 L40.40 12.66 L41.27 11.91 L42.13 11.80 L43.00 11.46 L43.87 10.42 L44.73 9.40 L45.60 8.01 L46.47 7.28 L47.33 6.36 L48.20 5.50 L49.07 4.82 L49.93 4.61 L50.80 4.64 L51.67 4.60 L52.53 4.45 L53.40 4.49 L54.27 4.28 L55.13 4.00 " /></svg>