<svg width="60" height="28" xmlns="http://www.w3.org/2000/svg"><path stroke="none" fill="#E8F0FE" d="M4.00 28.00 L4.00 4.77  L4.00 4.77 L4.87 5.55 L5.73 5.61 L6.60 6.26 L7.47 4.00 L8.33 5.29 L9.20 7.29 L10.07 9.03 L10.93 10.77 L11.80 12.39 L12.67 13.48 L13.53 15.74 L14.40 17.68 L15.27 14.77 L16.13 16.13 L17.00 16.90 L17.87 18.00 L18.73 16.77 L19.60 16.77 L20.47 16.77 L21.33 17.35 L22.20 17.10 L23.07 16.58 L23.93 15.42 L24.80 17.42 L25.67 17.42 L26.53 17.42 L27.40 20.19 L28.27 18.71 L29.13 19.94 L30.00 19.10 L30.87 18.00 L31.73 18.00 L32.60 18.00 L33.47 15.23 L34.33 16.45 L35.20 15.61 L36.07 16.45 L36.93 17.42 L37.80 17.42 L38.67 17.42 L39.53 18.58 L40.40 19.61 L41.27 18.58 L42.13 17.68 L43.00 18.45 L43.87 17.42 L44.73 17.42 L45.60 16.65 L46.47 16.26 L47.33 16.45 L48.20 17.48 L49.07 16.06 L49.93 17.10 L50.80 17.10 L51.67 16.90 L52.53 16.65 L53.40 16.90 L54.27 16.97 L55.13 18.84  L55.13 28.00 " /><path stroke="#4285F4" stroke-width="1" fill="none" d="M4.00 4.77  L4.00 4.77 L4.87 5.55 L5.73 5.61 L6.60 6.26 L7.47 4.00 L8.33 5.29 L9.20 7.29 L10.07 9.03 L10.93 10.77 L11.80 12.39 L12.67 13.48 L13.53 15.74 L14.40 17.68 L15.27 14.77 L16.13 16.13 L17.00 16.90 L17.87 18.00 L18.73 16.77 L19.60 16.77 L20.47 16.77 L21.33 17.35 L22.20 17.10 L23.07 16.58 L23.93 15.42 L24.80 17.42 L25.67 17.42 L26.53 17.42 L27.40 20.19 L28.27 18.71 L29.13 19.94 L30.00 19.10 L30.87 18.00 L31.73 18.00 L32.60 18.00 L33.47 15.23 L34.33 16.45 L35.20 15.61 L36.07 16.45 L36.93 17.42 L37.80 17.42 L38.67 17.42 L39.53 18.58 L40.40 19.61 L41.27 18.58 L42.13 17.68 L43.00 18.45 L43.87 17.42 L44.73 17.42 L45.60 16.65 L46.47 16.26 L47.33 16.45 L48.20 17.48 L49.07 16.06 L49.93 17.10 L50.80 17.10 L51.67 16.90 L52.53 16.65 L53.40 16.90 L54.27 16.97 L55.13 18.84 " /></svg>