<svg width="60" height="28" xmlns="http://www.w3.org/2000/svg"><path stroke="none" fill="#E8F0FE" d="M4.00 28.00 L4.00 7.33  L4.00 7.33 L4.87 7.02 L5.73 8.48 L6.60 4.00 L7.47 9.21 L8.33 9.21 L9.20 23.58 L10.07 24.62 L10.93 24.94 L11.80 23.90 L12.67 28.38 L13.53 23.58 L14.40 23.58 L15.27 24.00 L16.13 24.00 L17.00 24.00 L17.87 24.10 L18.73 24.10 L19.60 23.48 L20.47 23.48 L21.33 24.00 L22.20 10.46 L23.07 10.46 L23.93 10.46 L24.80 10.46 L25.67 11.40 L26.53 11.40 L27.40 10.46 L28.27 24.00 L29.13 24.00 L30.00 24.00 L30.87 24.00 L31.73 24.00 L32.60 24.00 L33.47 24.00 L34.33 24.00 L35.20 14.31 L36.07 14.31 L36.93 14.31 L37.80 14.31 L38.67 14.31 L39.53 14.31 L40.40 13.27 L41.27 24.00 L42.13 24.00 L43.00 24.00 L43.87 24.00 L44.73 24.00 L45.60 24.00 L46.47 25.04 L47.33 24.00 L48.20 23.58 L49.07 23.58 L49.93 23.48 L50.80 23.48 L51.67 23.48 L52.53 23.38 L53.40 23.27 L54.27 23.48 L55.13 23.27  L55.13 28.00 " /><path stroke="#4285F4" stroke-width="1" fill="none" d="M4.00 7.33  L4.00 7.33 L4.87 7.02 L5.73 8.48 L6.60 4.00 L7.47 9.21 L8.33 9.21 L9.20 23.58 L10.07 24.62 L10.93 24.94 L11.80 23.90 L12.67 28.38 L13.53 23.58 L14.40 23.58 L15.27 24.00 L16.13 24.00 L17.00 24.00 L17.87 24.10 L18.73 24.10 L19.60 23.48 L20.47 23.48 L21.33 24.00 L22.20 10.46 L23.07 10.46 L23.93 10.46 L24.80 10.46 L25.67 11.40 L26.53 11.40 L27.40 10.46 L28.27 24.00 L29.13 24.00 L30.00 24.00 L30.87 24.00 L31.73 24.00 L32.60 24.00 L33.47 24.00 L34.33 24.00 L35.20 14.31 L36.07 14.31 L36.93 14.31 L37.80 14.31 L38.67 14.31 L39.53 14.31 L40.40 13.27 L41.27 24.00 L42.13 24.00 L43.00 24.00 L43.87 24.00 L44.73 24.00 L45.60 24.00 L46.47 25.04 L47.33 24.00 L48.20 23.58 L49.07 23.58 L49.93 23.48 L50.80 23.48 L51.67 23.48 L52.53 23.38 L53.40 23.27 L54.27 23.48 L55.13 23.27 " /></svg>