<svg width="60" height="28" xmlns="http://www.w3.org/2000/svg"><path stroke="none" fill="#E8F0FE" d="M4.00 28.00 L4.00 24.00  L4.00 24.00 L4.87 24.00 L5.73 24.00 L6.60 21.14 L7.47 21.14 L8.33 21.14 L9.20 21.14 L10.07 20.67 L10.93 20.00 L11.80 19.00 L12.67 24.00 L13.53 17.33 L14.40 14.00 L15.27 4.00 L16.13 4.00 L17.00 4.00 L17.87 4.00 L18.73 4.00 L19.60 24.00 L20.47 24.00 L21.33 24.00 L22.20 24.00 L23.07 24.00 L23.93 14.00 L24.80 14.00 L25.67 4.00 L26.53 4.00 L27.40 4.00 L28.27 4.00 L29.13 4.00 L30.00 24.00 L30.87 24.00 L31.73 24.00 L32.60 24.00 L33.47 24.00 L34.33 24.00 L35.20 24.00 L36.07 4.00 L36.93 4.00 L37.80 4.00 L38.67 4.00 L39.53 4.00 L40.40 4.00 L41.27 4.00 L48.20 4.00 L49.07 4.00 L49.93 4.00 L50.80 4.00 L51.67 4.00 L52.53 4.00 L53.40 4.00 L54.27 24.00 L55.13 24.00  L55.13 28.00 " /><path stroke="#4285F4" stroke-width="1" fill="none" d="M4.00 24.00  L4.00 24.00 L4.87 24.00 L5.73 24.00 L6.60 21.14 L7.47 21.14 L8.33 21.14 L9.20 21.14 L10.07 20.67 L10.93 20.00 L11.80 19.00 L12.67 24.00 L13.53 17.33 L14.40 14.00 L15.27 4.00 L16.13 4.00 L17.00 4.00 L17.87 4.00 L18.73 4.00 L19.60 24.00 L20.47 24.00 L21.33 24.00 L22.20 24.00 L23.07 24.00 L23.93 14.00 L24.80 14.00 L25.67 4.00 L26.53 4.00 L27.40 4.00 L28.27 4.00 L29.13 4.00 L30.00 24.00 L30.87 24.00 L31.73 24.00 L32.60 24.00 L33.47 24.00 L34.33 24.00 L35.20 24.00 L36.07 4.00 L36.93 4.00 L37.80 4.00 L38.67 4.00 L39.53 4.00 L40.40 4.00 L41.27 4.00 L48.20 4.00 L49.07 4.00 L49.93 4.00 L50.80 4.00 L51.67 4.00 L52.53 4.00 L53.40 4.00 L54.27 24.00 L55.13 24.00 " /></svg>