<svg width="60" height="28" xmlns="http://www.w3.org/2000/svg"><path stroke="none" fill="#E8F0FE" d="M4.00 28.00 L4.00 23.45  L4.00 23.45 L4.87 23.45 L5.73 23.40 L6.60 23.35 L7.47 23.35 L8.33 23.31 L9.20 23.36 L10.07 23.31 L10.93 23.16 L11.80 23.19 L12.67 22.84 L13.53 22.56 L14.40 21.77 L15.27 20.29 L16.13 19.63 L17.00 19.14 L17.87 18.48 L18.73 18.24 L19.60 17.40 L20.47 17.64 L21.33 18.74 L22.20 19.21 L23.07 18.94 L23.93 19.15 L24.80 18.89 L25.67 19.57 L26.53 18.48 L27.40 17.08 L28.27 15.96 L29.13 15.35 L30.00 15.18 L30.87 14.25 L31.73 14.14 L32.60 14.77 L33.47 14.75 L34.33 15.06 L35.20 15.73 L36.07 15.65 L36.93 17.31 L37.80 17.16 L38.67 17.30 L39.53 18.11 L40.40 16.63 L41.27 16.39 L42.13 15.90 L43.00 13.93 L43.87 13.31 L44.73 12.78 L45.60 12.21 L46.47 12.86 L47.33 11.71 L48.20 10.48 L49.07 8.74 L49.93 8.31 L50.80 7.14 L51.67 5.27 L52.53 4.69 L53.40 4.55 L54.27 4.00 L55.13 5.57  L55.13 28.00 " /><path stroke="#4285F4" stroke-width="1" fill="none" d="M4.00 23.45  L4.00 23.45 L4.87 23.45 L5.73 23.40 L6.60 23.35 L7.47 23.35 L8.33 23.31 L9.20 23.36 L10.07 23.31 L10.93 23.16 L11.80 23.19 L12.67 22.84 L13.53 22.56 L14.40 21.77 L15.27 20.29 L16.13 19.63 L17.00 19.14 L17.87 18.48 L18.73 18.24 L19.60 17.40 L20.47 17.64 L21.33 18.74 L22.20 19.21 L23.07 18.94 L23.93 19.15 L24.80 18.89 L25.67 19.57 L26.53 18.48 L27.40 17.08 L28.27 15.96 L29.13 15.35 L30.00 15.18 L30.87 14.25 L31.73 14.14 L32.60 14.77 L33.47 14.75 L34.33 15.06 L35.20 15.73 L36.07 15.65 L36.93 17.31 L37.80 17.16 L38.67 17.30 L39.53 18.11 L40.40 16.63 L41.27 16.39 L42.13 15.90 L43.00 13.93 L43.87 13.31 L44.73 12.78 L45.60 12.21 L46.47 12.86 L47.33 11.71 L48.20 10.48 L49.07 8.74 L49.93 8.31 L50.80 7.14 L51.67 5.27 L52.53 4.69 L53.40 4.55 L54.27 4.00 L55.13 5.57 " /></svg>