<svg width="60" height="28" xmlns="http://www.w3.org/2000/svg"><path stroke="none" fill="#E8F0FE" d="M4.00 28.00 L4.00 5.81  L4.00 5.81 L4.87 5.61 L5.73 5.48 L6.60 5.36 L7.47 5.23 L8.33 4.78 L9.20 4.46 L10.07 4.32 L10.93 4.22 L11.80 4.14 L12.67 4.14 L13.53 4.00 L14.40 4.03 L15.27 4.13 L16.13 4.23 L17.00 4.23 L17.87 4.31 L18.73 4.34 L19.60 4.39 L20.47 4.31 L21.33 4.38 L22.20 4.44 L23.07 4.57 L23.93 4.65 L24.80 4.79 L25.67 4.96 L26.53 5.25 L27.40 5.44 L28.27 5.55 L29.13 5.66 L30.00 5.72 L30.87 5.75 L31.73 5.81 L32.60 5.88 L33.47 6.00 L34.33 6.18 L35.20 6.52 L36.07 7.07 L36.93 7.56 L37.80 8.00 L38.67 8.34 L39.53 8.71 L40.40 9.13 L41.27 9.50 L42.13 9.58 L43.00 9.94 L43.87 10.43 L44.73 10.99 L45.60 11.67 L46.47 12.28 L47.33 12.84 L48.20 13.88 L49.07 14.54 L49.93 15.10 L50.80 15.71 L51.67 16.12 L52.53 16.57 L53.40 17.06 L54.27 17.16 L55.13 17.49  L55.13 28.00 " /><path stroke="#4285F4" stroke-width="1" fill="none" d="M4.00 5.81  L4.00 5.81 L4.87 5.61 L5.73 5.48 L6.60 5.36 L7.47 5.23 L8.33 4.78 L9.20 4.46 L10.07 4.32 L10.93 4.22 L11.80 4.14 L12.67 4.14 L13.53 4.00 L14.40 4.03 L15.27 4.13 L16.13 4.23 L17.00 4.23 L17.87 4.31 L18.73 4.34 L19.60 4.39 L20.47 4.31 L21.33 4.38 L22.20 4.44 L23.07 4.57 L23.93 4.65 L24.80 4.79 L25.67 4.96 L26.53 5.25 L27.40 5.44 L28.27 5.55 L29.13 5.66 L30.00 5.72 L30.87 5.75 L31.73 5.81 L32.60 5.88 L33.47 6.00 L34.33 6.18 L35.20 6.52 L36.07 7.07 L36.93 7.56 L37.80 8.00 L38.67 8.34 L39.53 8.71 L40.40 9.13 L41.27 9.50 L42.13 9.58 L43.00 9.94 L43.87 10.43 L44.73 10.99 L45.60 11.67 L46.47 12.28 L47.33 12.84 L48.20 13.88 L49.07 14.54 L49.93 15.10 L50.80 15.71 L51.67 16.12 L52.53 16.57 L53.40 17.06 L54.27 17.16 L55.13 17.49 " /></svg>