<svg width="60" height="28" xmlns="http://www.w3.org/2000/svg"><path stroke="none" fill="#E8F0FE" d="M4.00 28.00 L4.00 20.80  L4.00 20.80 L4.87 21.60 L5.73 21.60 L6.60 22.40 L7.47 22.13 L8.33 22.13 L9.20 21.20 L10.07 22.88 L10.93 22.88 L11.80 22.88 L12.67 22.60 L13.53 22.60 L14.40 22.60 L15.27 24.00 L16.13 22.60 L17.00 22.60 L17.87 21.20 L18.73 21.20 L19.60 21.20 L20.47 21.20 L21.33 20.64 L22.20 21.20 L23.07 21.20 L23.93 21.20 L24.80 21.20 L25.67 21.20 L26.53 20.27 L27.40 21.20 L28.27 21.20 L29.13 18.40 L30.00 18.40 L30.87 18.40 L31.73 18.40 L32.60 18.40 L33.47 18.40 L34.33 21.20 L35.20 21.20 L36.07 21.20 L36.93 18.40 L37.80 18.40 L38.67 17.00 L39.53 15.04 L40.40 13.92 L41.27 12.80 L42.13 10.93 L43.00 11.87 L43.87 11.87 L44.73 12.80 L45.60 12.80 L46.47 10.93 L47.33 11.87 L48.20 10.93 L49.07 10.00 L49.93 10.40 L50.80 9.60 L51.67 8.00 L52.53 8.00 L53.40 5.60 L54.27 4.80 L55.13 4.00  L55.13 28.00 " /><path stroke="#4285F4" stroke-width="1" fill="none" d="M4.00 20.80  L4.00 20.80 L4.87 21.60 L5.73 21.60 L6.60 22.40 L7.47 22.13 L8.33 22.13 L9.20 21.20 L10.07 22.88 L10.93 22.88 L11.80 22.88 L12.67 22.60 L13.53 22.60 L14.40 22.60 L15.27 24.00 L16.13 22.60 L17.00 22.60 L17.87 21.20 L18.73 21.20 L19.60 21.20 L20.47 21.20 L21.33 20.64 L22.20 21.20 L23.07 21.20 L23.93 21.20 L24.80 21.20 L25.67 21.20 L26.53 20.27 L27.40 21.20 L28.27 21.20 L29.13 18.40 L30.00 18.40 L30.87 18.40 L31.73 18.40 L32.60 18.40 L33.47 18.40 L34.33 21.20 L35.20 21.20 L36.07 21.20 L36.93 18.40 L37.80 18.40 L38.67 17.00 L39.53 15.04 L40.40 13.92 L41.27 12.80 L42.13 10.93 L43.00 11.87 L43.87 11.87 L44.73 12.80 L45.60 12.80 L46.47 10.93 L47.33 11.87 L48.20 10.93 L49.07 10.00 L49.93 10.40 L50.80 9.60 L51.67 8.00 L52.53 8.00 L53.40 5.60 L54.27 4.80 L55.13 4.00 " /></svg>