<svg width="60" height="28" xmlns="http://www.w3.org/2000/svg"><path stroke="none" fill="#E8F0FE" d="M4.00 28.00 L4.00 19.00  L4.00 19.00 L4.87 21.50 L5.73 21.50 L6.60 21.50 L7.47 21.50 L8.33 21.50 L9.20 24.00 L10.07 24.00 L10.93 24.00 L11.80 24.00 L12.67 24.00 L13.53 24.00 L14.40 24.00 L15.27 24.00 L16.13 24.00 L17.00 21.50 L17.87 21.50 L18.73 21.50 L19.60 21.50 L20.47 21.50 L21.33 21.50 L22.20 21.50 L23.07 24.00 L23.93 6.50 L24.80 6.50 L25.67 6.50 L26.53 4.00 L27.40 4.00 L28.27 4.00 L29.13 4.00 L30.00 21.50 L30.87 21.50 L31.73 21.50 L32.60 24.00 L33.47 21.50 L34.33 21.50 L35.20 21.50 L36.07 21.50 L36.93 21.50 L37.80 21.50 L38.67 21.50 L39.53 24.00 L40.40 24.00 L41.27 19.00 L42.13 19.00 L43.00 19.00 L43.87 19.00 L44.73 19.00 L45.60 19.00 L46.47 19.00 L47.33 24.00 L48.20 24.00 L49.07 24.00 L49.93 24.00 L50.80 24.00 L51.67 24.00 L52.53 24.00 L53.40 24.00 L54.27 24.00 L55.13 24.00  L55.13 28.00 " /><path stroke="#4285F4" stroke-width="1" fill="none" d="M4.00 19.00  L4.00 19.00 L4.87 21.50 L5.73 21.50 L6.60 21.50 L7.47 21.50 L8.33 21.50 L9.20 24.00 L10.07 24.00 L10.93 24.00 L11.80 24.00 L12.67 24.00 L13.53 24.00 L14.40 24.00 L15.27 24.00 L16.13 24.00 L17.00 21.50 L17.87 21.50 L18.73 21.50 L19.60 21.50 L20.47 21.50 L21.33 21.50 L22.20 21.50 L23.07 24.00 L23.93 6.50 L24.80 6.50 L25.67 6.50 L26.53 4.00 L27.40 4.00 L28.27 4.00 L29.13 4.00 L30.00 21.50 L30.87 21.50 L31.73 21.50 L32.60 24.00 L33.47 21.50 L34.33 21.50 L35.20 21.50 L36.07 21.50 L36.93 21.50 L37.80 21.50 L38.67 21.50 L39.53 24.00 L40.40 24.00 L41.27 19.00 L42.13 19.00 L43.00 19.00 L43.87 19.00 L44.73 19.00 L45.60 19.00 L46.47 19.00 L47.33 24.00 L48.20 24.00 L49.07 24.00 L49.93 24.00 L50.80 24.00 L51.67 24.00 L52.53 24.00 L53.40 24.00 L54.27 24.00 L55.13 24.00 " /></svg>