<svg width="60" height="28" xmlns="http://www.w3.org/2000/svg"><path stroke="none" fill="#E8F0FE" d="M4.00 28.00 L4.00 17.33  L4.00 17.33 L4.87 17.33 L5.73 17.33 L6.60 17.33 L10.07 24.00 L10.93 24.00 L11.80 24.00 L12.67 24.00 L13.53 24.00 L14.40 24.00 L15.27 24.00 L29.13 17.33 L30.00 17.33 L30.87 17.33 L31.73 17.33 L32.60 17.33 L33.47 17.33 L34.33 17.33 L53.40 4.00 L54.27 4.00 L55.13 4.00  L55.13 28.00 " /><path stroke="#4285F4" stroke-width="1" fill="none" d="M4.00 17.33  L4.00 17.33 L4.87 17.33 L5.73 17.33 L6.60 17.33 L10.07 24.00 L10.93 24.00 L11.80 24.00 L12.67 24.00 L13.53 24.00 L14.40 24.00 L15.27 24.00 L29.13 17.33 L30.00 17.33 L30.87 17.33 L31.73 17.33 L32.60 17.33 L33.47 17.33 L34.33 17.33 L53.40 4.00 L54.27 4.00 L55.13 4.00 " /></svg>