<svg width="60" height="28" xmlns="http://www.w3.org/2000/svg"><path stroke="none" fill="#E8F0FE" d="M4.00 28.00 L4.00 23.64  L4.00 23.64 L4.87 23.63 L5.73 23.52 L6.60 23.28 L7.47 23.09 L8.33 23.01 L9.20 22.60 L10.07 22.37 L10.93 22.24 L11.80 22.12 L12.67 21.85 L13.53 21.55 L14.40 20.91 L15.27 19.91 L16.13 19.16 L17.00 18.37 L17.87 17.60 L18.73 17.12 L19.60 16.51 L20.47 16.43 L21.33 16.51 L22.20 16.09 L23.07 15.37 L23.93 14.19 L24.80 13.42 L25.67 12.48 L26.53 9.07 L27.40 6.60 L28.27 6.64 L29.13 4.10 L30.00 4.84 L30.87 6.13 L31.73 4.00 L32.60 5.99 L33.47 5.94 L34.33 4.42 L35.20 6.76 L36.07 6.21 L36.93 4.58 L37.80 8.82 L38.67 7.69 L39.53 9.45 L40.40 10.52 L41.27 10.79 L42.13 10.69 L43.00 9.45 L43.87 8.49 L44.73 10.39 L45.60 10.54 L46.47 12.43 L47.33 12.40 L48.20 12.94 L49.07 14.64 L49.93 12.93 L50.80 14.37 L51.67 14.51 L52.53 13.30 L53.40 14.28 L54.27 14.88 L55.13 15.67  L55.13 28.00 " /><path stroke="#4285F4" stroke-width="1" fill="none" d="M4.00 23.64  L4.00 23.64 L4.87 23.63 L5.73 23.52 L6.60 23.28 L7.47 23.09 L8.33 23.01 L9.20 22.60 L10.07 22.37 L10.93 22.24 L11.80 22.12 L12.67 21.85 L13.53 21.55 L14.40 20.91 L15.27 19.91 L16.13 19.16 L17.00 18.37 L17.87 17.60 L18.73 17.12 L19.60 16.51 L20.47 16.43 L21.33 16.51 L22.20 16.09 L23.07 15.37 L23.93 14.19 L24.80 13.42 L25.67 12.48 L26.53 9.07 L27.40 6.60 L28.27 6.64 L29.13 4.10 L30.00 4.84 L30.87 6.13 L31.73 4.00 L32.60 5.99 L33.47 5.94 L34.33 4.42 L35.20 6.76 L36.07 6.21 L36.93 4.58 L37.80 8.82 L38.67 7.69 L39.53 9.45 L40.40 10.52 L41.27 10.79 L42.13 10.69 L43.00 9.45 L43.87 8.49 L44.73 10.39 L45.60 10.54 L46.47 12.43 L47.33 12.40 L48.20 12.94 L49.07 14.64 L49.93 12.93 L50.80 14.37 L51.67 14.51 L52.53 13.30 L53.40 14.28 L54.27 14.88 L55.13 15.67 " /></svg>