<svg width="60" height="28" xmlns="http://www.w3.org/2000/svg"><path stroke="none" fill="#E8F0FE" d="M4.00 28.00 L4.00 18.75  L4.00 18.75 L4.87 18.47 L5.73 18.38 L6.60 18.44 L7.47 18.01 L8.33 17.89 L9.20 17.68 L10.07 17.42 L10.93 17.34 L11.80 17.09 L12.67 16.55 L13.53 16.20 L14.40 16.01 L15.27 15.74 L16.13 15.49 L17.00 14.89 L17.87 14.56 L18.73 14.52 L19.60 14.16 L20.47 13.57 L21.33 13.37 L22.20 13.24 L23.07 13.46 L23.93 13.27 L24.80 13.13 L25.67 12.92 L26.53 12.70 L27.40 12.18 L28.27 11.64 L29.13 11.29 L30.00 11.13 L30.87 11.02 L31.73 10.87 L32.60 10.40 L33.47 10.23 L34.33 9.80 L35.20 9.85 L36.07 9.53 L36.93 9.32 L37.80 9.13 L38.67 9.10 L39.53 8.68 L40.40 8.77 L41.27 8.18 L42.13 7.59 L43.00 7.03 L43.87 6.21 L44.73 5.97 L45.60 5.75 L46.47 5.55 L47.33 5.70 L48.20 6.33 L49.07 6.71 L49.93 7.12 L50.80 7.00 L51.67 6.69 L52.53 6.06 L53.40 4.84 L54.27 4.53 L55.13 4.00  L55.13 28.00 " /><path stroke="#4285F4" stroke-width="1" fill="none" d="M4.00 18.75  L4.00 18.75 L4.87 18.47 L5.73 18.38 L6.60 18.44 L7.47 18.01 L8.33 17.89 L9.20 17.68 L10.07 17.42 L10.93 17.34 L11.80 17.09 L12.67 16.55 L13.53 16.20 L14.40 16.01 L15.27 15.74 L16.13 15.49 L17.00 14.89 L17.87 14.56 L18.73 14.52 L19.60 14.16 L20.47 13.57 L21.33 13.37 L22.20 13.24 L23.07 13.46 L23.93 13.27 L24.80 13.13 L25.67 12.92 L26.53 12.70 L27.40 12.18 L28.27 11.64 L29.13 11.29 L30.00 11.13 L30.87 11.02 L31.73 10.87 L32.60 10.40 L33.47 10.23 L34.33 9.80 L35.20 9.85 L36.07 9.53 L36.93 9.32 L37.80 9.13 L38.67 9.10 L39.53 8.68 L40.40 8.77 L41.27 8.18 L42.13 7.59 L43.00 7.03 L43.87 6.21 L44.73 5.97 L45.60 5.75 L46.47 5.55 L47.33 5.70 L48.20 6.33 L49.07 6.71 L49.93 7.12 L50.80 7.00 L51.67 6.69 L52.53 6.06 L53.40 4.84 L54.27 4.53 L55.13 4.00 " /></svg>