<svg width="60" height="28" xmlns="http://www.w3.org/2000/svg"><path stroke="none" fill="#E8F0FE" d="M4.00 28.00 L4.00 8.57  L4.00 8.57 L4.87 9.14 L5.73 9.18 L6.60 10.81 L7.47 12.56 L8.33 12.08 L9.20 12.53 L10.07 12.79 L10.93 12.75 L11.80 13.78 L12.67 14.96 L13.53 16.40 L14.40 17.13 L15.27 16.46 L16.13 16.65 L17.00 16.33 L17.87 14.99 L18.73 14.00 L19.60 12.79 L20.47 8.79 L21.33 4.00 L22.20 4.51 L23.07 5.79 L23.93 4.99 L24.80 5.57 L25.67 5.66 L26.53 9.94 L27.40 15.28 L28.27 12.79 L29.13 4.26 L30.00 6.94 L30.87 6.72 L31.73 7.93 L32.60 8.92 L33.47 9.34 L34.33 12.24 L35.20 20.10 L36.07 19.65 L36.93 19.46 L37.80 19.81 L38.67 18.73 L39.53 18.60 L40.40 18.35 L41.27 18.89 L42.13 19.75 L43.00 20.45 L43.87 20.20 L44.73 21.03 L45.60 21.28 L46.47 21.41 L47.33 21.73 L48.20 21.73 L49.07 22.08 L49.93 22.02 L50.80 22.40 L51.67 22.43 L52.53 22.59 L53.40 22.63 L54.27 22.66 L55.13 22.66  L55.13 28.00 " /><path stroke="#4285F4" stroke-width="1" fill="none" d="M4.00 8.57  L4.00 8.57 L4.87 9.14 L5.73 9.18 L6.60 10.81 L7.47 12.56 L8.33 12.08 L9.20 12.53 L10.07 12.79 L10.93 12.75 L11.80 13.78 L12.67 14.96 L13.53 16.40 L14.40 17.13 L15.27 16.46 L16.13 16.65 L17.00 16.33 L17.87 14.99 L18.73 14.00 L19.60 12.79 L20.47 8.79 L21.33 4.00 L22.20 4.51 L23.07 5.79 L23.93 4.99 L24.80 5.57 L25.67 5.66 L26.53 9.94 L27.40 15.28 L28.27 12.79 L29.13 4.26 L30.00 6.94 L30.87 6.72 L31.73 7.93 L32.60 8.92 L33.47 9.34 L34.33 12.24 L35.20 20.10 L36.07 19.65 L36.93 19.46 L37.80 19.81 L38.67 18.73 L39.53 18.60 L40.40 18.35 L41.27 18.89 L42.13 19.75 L43.00 20.45 L43.87 20.20 L44.73 21.03 L45.60 21.28 L46.47 21.41 L47.33 21.73 L48.20 21.73 L49.07 22.08 L49.93 22.02 L50.80 22.40 L51.67 22.43 L52.53 22.59 L53.40 22.63 L54.27 22.66 L55.13 22.66 " /></svg>