<svg width="60" height="28" xmlns="http://www.w3.org/2000/svg"><path stroke="none" fill="#E8F0FE" d="M4.00 28.00 L4.00 23.94  L4.00 23.94 L4.87 23.91 L5.73 23.94 L6.60 23.94 L7.47 23.94 L8.33 23.94 L9.20 23.97 L10.07 23.97 L10.93 23.73 L11.80 23.73 L12.67 23.73 L13.53 23.73 L14.40 23.73 L15.27 23.73 L16.13 23.73 L17.00 16.43 L17.87 16.43 L18.73 16.43 L19.60 16.43 L20.47 16.43 L21.33 16.43 L22.20 16.43 L23.07 9.69 L23.93 5.94 L24.80 5.94 L25.67 5.94 L26.53 5.94 L27.40 5.94 L28.27 4.00 L29.13 7.61 L30.00 11.36 L30.87 11.36 L31.73 11.36 L32.60 11.36 L33.47 11.36 L34.33 13.30 L35.20 13.69 L36.07 13.69 L36.93 13.69 L37.80 13.69 L38.67 13.69 L39.53 13.69 L40.40 13.69 L41.27 13.30 L42.13 13.30 L43.00 13.30 L43.87 13.30 L44.73 13.30 L45.60 13.30 L46.47 13.30 L47.33 24.00 L48.20 24.00 L49.07 24.00 L49.93 24.00 L50.80 24.00 L51.67 24.00 L52.53 24.00 L53.40 18.99 L54.27 18.99 L55.13 18.99  L55.13 28.00 " /><path stroke="#4285F4" stroke-width="1" fill="none" d="M4.00 23.94  L4.00 23.94 L4.87 23.91 L5.73 23.94 L6.60 23.94 L7.47 23.94 L8.33 23.94 L9.20 23.97 L10.07 23.97 L10.93 23.73 L11.80 23.73 L12.67 23.73 L13.53 23.73 L14.40 23.73 L15.27 23.73 L16.13 23.73 L17.00 16.43 L17.87 16.43 L18.73 16.43 L19.60 16.43 L20.47 16.43 L21.33 16.43 L22.20 16.43 L23.07 9.69 L23.93 5.94 L24.80 5.94 L25.67 5.94 L26.53 5.94 L27.40 5.94 L28.27 4.00 L29.13 7.61 L30.00 11.36 L30.87 11.36 L31.73 11.36 L32.60 11.36 L33.47 11.36 L34.33 13.30 L35.20 13.69 L36.07 13.69 L36.93 13.69 L37.80 13.69 L38.67 13.69 L39.53 13.69 L40.40 13.69 L41.27 13.30 L42.13 13.30 L43.00 13.30 L43.87 13.30 L44.73 13.30 L45.60 13.30 L46.47 13.30 L47.33 24.00 L48.20 24.00 L49.07 24.00 L49.93 24.00 L50.80 24.00 L51.67 24.00 L52.53 24.00 L53.40 18.99 L54.27 18.99 L55.13 18.99 " /></svg>