<svg width="60" height="28" xmlns="http://www.w3.org/2000/svg"><path stroke="none" fill="#E8F0FE" d="M4.00 28.00 L4.00 18.01  L4.00 18.01 L4.87 18.53 L5.73 18.96 L6.60 19.26 L7.47 19.47 L8.33 19.62 L9.20 20.06 L10.07 20.13 L10.93 19.91 L11.80 20.20 L12.67 20.13 L13.53 19.69 L14.40 19.69 L15.27 19.33 L16.13 19.11 L17.00 19.26 L17.87 19.77 L18.73 19.62 L19.60 20.57 L20.47 20.64 L21.33 21.30 L22.20 21.81 L23.07 21.96 L23.93 21.74 L24.80 22.10 L25.67 22.10 L26.53 22.10 L27.40 22.18 L28.27 22.32 L29.13 22.61 L30.00 22.54 L30.87 22.61 L31.73 22.47 L32.60 22.47 L33.47 22.10 L34.33 22.18 L35.20 22.18 L36.07 22.32 L36.93 21.96 L37.80 21.74 L38.67 21.66 L39.53 21.88 L40.40 21.37 L41.27 21.15 L42.13 20.79 L43.00 20.93 L43.87 20.35 L44.73 20.42 L45.60 19.77 L46.47 19.99 L47.33 19.62 L48.20 18.60 L49.07 15.82 L49.93 15.09 L50.80 14.15 L51.67 11.88 L52.53 9.04 L53.40 6.19 L54.27 4.00 L55.13 5.09  L55.13 28.00 " /><path stroke="#4285F4" stroke-width="1" fill="none" d="M4.00 18.01  L4.00 18.01 L4.87 18.53 L5.73 18.96 L6.60 19.26 L7.47 19.47 L8.33 19.62 L9.20 20.06 L10.07 20.13 L10.93 19.91 L11.80 20.20 L12.67 20.13 L13.53 19.69 L14.40 19.69 L15.27 19.33 L16.13 19.11 L17.00 19.26 L17.87 19.77 L18.73 19.62 L19.60 20.57 L20.47 20.64 L21.33 21.30 L22.20 21.81 L23.07 21.96 L23.93 21.74 L24.80 22.10 L25.67 22.10 L26.53 22.10 L27.40 22.18 L28.27 22.32 L29.13 22.61 L30.00 22.54 L30.87 22.61 L31.73 22.47 L32.60 22.47 L33.47 22.10 L34.33 22.18 L35.20 22.18 L36.07 22.32 L36.93 21.96 L37.80 21.74 L38.67 21.66 L39.53 21.88 L40.40 21.37 L41.27 21.15 L42.13 20.79 L43.00 20.93 L43.87 20.35 L44.73 20.42 L45.60 19.77 L46.47 19.99 L47.33 19.62 L48.20 18.60 L49.07 15.82 L49.93 15.09 L50.80 14.15 L51.67 11.88 L52.53 9.04 L53.40 6.19 L54.27 4.00 L55.13 5.09 " /></svg>