<svg width="60" height="28" xmlns="http://www.w3.org/2000/svg"><path stroke="none" fill="#E8F0FE" d="M4.00 28.00 L4.00 22.90  L4.00 22.90 L4.87 22.85 L5.73 22.84 L6.60 22.74 L7.47 22.40 L8.33 22.56 L9.20 22.50 L10.07 22.66 L10.93 22.55 L11.80 22.41 L12.67 22.56 L13.53 22.95 L14.40 22.45 L15.27 22.40 L16.13 22.25 L17.00 22.21 L17.87 22.15 L18.73 22.08 L19.60 21.95 L20.47 22.32 L21.33 22.26 L22.20 22.06 L23.07 21.82 L23.93 21.58 L24.80 21.23 L25.67 21.33 L26.53 21.02 L27.40 21.08 L28.27 21.28 L29.13 21.64 L30.00 21.88 L30.87 22.05 L31.73 21.99 L32.60 22.33 L33.47 22.37 L34.33 22.28 L35.20 22.22 L36.07 22.22 L36.93 22.19 L37.80 21.85 L38.67 21.37 L39.53 20.77 L40.40 20.37 L41.27 19.91 L42.13 19.17 L43.00 18.00 L43.87 17.29 L44.73 16.38 L45.60 15.89 L46.47 14.98 L47.33 13.95 L48.20 13.04 L49.07 12.13 L49.93 11.62 L50.80 11.13 L51.67 10.23 L52.53 8.43 L53.40 6.12 L54.27 4.14 L55.13 4.00  L55.13 28.00 " /><path stroke="#4285F4" stroke-width="1" fill="none" d="M4.00 22.90  L4.00 22.90 L4.87 22.85 L5.73 22.84 L6.60 22.74 L7.47 22.40 L8.33 22.56 L9.20 22.50 L10.07 22.66 L10.93 22.55 L11.80 22.41 L12.67 22.56 L13.53 22.95 L14.40 22.45 L15.27 22.40 L16.13 22.25 L17.00 22.21 L17.87 22.15 L18.73 22.08 L19.60 21.95 L20.47 22.32 L21.33 22.26 L22.20 22.06 L23.07 21.82 L23.93 21.58 L24.80 21.23 L25.67 21.33 L26.53 21.02 L27.40 21.08 L28.27 21.28 L29.13 21.64 L30.00 21.88 L30.87 22.05 L31.73 21.99 L32.60 22.33 L33.47 22.37 L34.33 22.28 L35.20 22.22 L36.07 22.22 L36.93 22.19 L37.80 21.85 L38.67 21.37 L39.53 20.77 L40.40 20.37 L41.27 19.91 L42.13 19.17 L43.00 18.00 L43.87 17.29 L44.73 16.38 L45.60 15.89 L46.47 14.98 L47.33 13.95 L48.20 13.04 L49.07 12.13 L49.93 11.62 L50.80 11.13 L51.67 10.23 L52.53 8.43 L53.40 6.12 L54.27 4.14 L55.13 4.00 " /></svg>