<svg width="60" height="28" xmlns="http://www.w3.org/2000/svg"><path stroke="none" fill="#E8F0FE" d="M4.00 28.00 L4.00 6.43  L4.00 6.43 L4.87 8.46 L5.73 10.71 L6.60 9.48 L7.47 9.97 L8.33 8.74 L9.20 10.58 L10.07 9.02 L10.93 8.12 L11.80 7.20 L12.67 7.94 L13.53 5.05 L14.40 6.12 L15.27 4.00 L16.13 6.62 L17.00 6.92 L17.87 5.72 L18.73 6.06 L19.60 8.06 L20.47 7.14 L21.33 7.82 L22.20 8.77 L23.07 8.03 L23.93 9.05 L24.80 7.32 L25.67 7.69 L26.53 8.74 L27.40 7.94 L28.27 7.75 L29.13 9.02 L30.00 10.52 L30.87 11.57 L31.73 11.35 L32.60 11.88 L33.47 12.55 L34.33 12.55 L35.20 12.98 L36.07 12.28 L36.93 12.74 L37.80 12.71 L38.67 12.65 L39.53 13.05 L40.40 12.28 L41.27 12.40 L42.13 9.57 L43.00 9.29 L43.87 9.35 L44.73 9.72 L45.60 11.20 L46.47 9.69 L47.33 8.43 L48.20 12.62 L49.07 13.05 L49.93 13.82 L50.80 13.42 L51.67 12.83 L52.53 15.17 L53.40 16.92 L54.27 16.65 L55.13 15.97  L55.13 28.00 " /><path stroke="#4285F4" stroke-width="1" fill="none" d="M4.00 6.43  L4.00 6.43 L4.87 8.46 L5.73 10.71 L6.60 9.48 L7.47 9.97 L8.33 8.74 L9.20 10.58 L10.07 9.02 L10.93 8.12 L11.80 7.20 L12.67 7.94 L13.53 5.05 L14.40 6.12 L15.27 4.00 L16.13 6.62 L17.00 6.92 L17.87 5.72 L18.73 6.06 L19.60 8.06 L20.47 7.14 L21.33 7.82 L22.20 8.77 L23.07 8.03 L23.93 9.05 L24.80 7.32 L25.67 7.69 L26.53 8.74 L27.40 7.94 L28.27 7.75 L29.13 9.02 L30.00 10.52 L30.87 11.57 L31.73 11.35 L32.60 11.88 L33.47 12.55 L34.33 12.55 L35.20 12.98 L36.07 12.28 L36.93 12.74 L37.80 12.71 L38.67 12.65 L39.53 13.05 L40.40 12.28 L41.27 12.40 L42.13 9.57 L43.00 9.29 L43.87 9.35 L44.73 9.72 L45.60 11.20 L46.47 9.69 L47.33 8.43 L48.20 12.62 L49.07 13.05 L49.93 13.82 L50.80 13.42 L51.67 12.83 L52.53 15.17 L53.40 16.92 L54.27 16.65 L55.13 15.97 " /></svg>