<svg width="60" height="28" xmlns="http://www.w3.org/2000/svg"><path stroke="none" fill="#E8F0FE" d="M4.00 28.00 L4.00 8.09  L4.00 8.09 L4.87 6.02 L5.73 15.68 L6.60 18.61 L7.47 23.93 L8.33 31.95 L9.20 28.20 L10.07 20.94 L10.93 23.41 L11.80 16.39 L12.67 13.51 L13.53 13.59 L14.40 12.30 L15.27 13.28 L16.13 11.45 L17.00 10.20 L17.87 11.47 L18.73 13.84 L19.60 13.73 L20.47 13.16 L21.33 13.93 L22.20 14.67 L23.07 14.91 L23.93 16.12 L24.80 16.57 L25.67 17.27 L26.53 16.42 L27.40 16.08 L28.27 15.77 L29.13 15.08 L30.00 13.84 L30.87 12.84 L31.73 12.44 L32.60 14.28 L33.47 13.94 L34.33 14.02 L35.20 13.92 L36.07 13.45 L36.93 13.58 L37.80 13.57 L38.67 12.67 L39.53 12.43 L40.40 12.36 L41.27 12.46 L42.13 12.64 L43.00 13.00 L43.87 12.83 L44.73 13.68 L45.60 13.37 L46.47 12.96 L47.33 12.34 L48.20 12.15 L49.07 11.38 L49.93 10.74 L50.80 10.35 L51.67 10.50 L52.53 6.98 L53.40 5.81 L54.27 4.46 L55.13 4.00  L55.13 28.00 " /><path stroke="#4285F4" stroke-width="1" fill="none" d="M4.00 8.09  L4.00 8.09 L4.87 6.02 L5.73 15.68 L6.60 18.61 L7.47 23.93 L8.33 31.95 L9.20 28.20 L10.07 20.94 L10.93 23.41 L11.80 16.39 L12.67 13.51 L13.53 13.59 L14.40 12.30 L15.27 13.28 L16.13 11.45 L17.00 10.20 L17.87 11.47 L18.73 13.84 L19.60 13.73 L20.47 13.16 L21.33 13.93 L22.20 14.67 L23.07 14.91 L23.93 16.12 L24.80 16.57 L25.67 17.27 L26.53 16.42 L27.40 16.08 L28.27 15.77 L29.13 15.08 L30.00 13.84 L30.87 12.84 L31.73 12.44 L32.60 14.28 L33.47 13.94 L34.33 14.02 L35.20 13.92 L36.07 13.45 L36.93 13.58 L37.80 13.57 L38.67 12.67 L39.53 12.43 L40.40 12.36 L41.27 12.46 L42.13 12.64 L43.00 13.00 L43.87 12.83 L44.73 13.68 L45.60 13.37 L46.47 12.96 L47.33 12.34 L48.20 12.15 L49.07 11.38 L49.93 10.74 L50.80 10.35 L51.67 10.50 L52.53 6.98 L53.40 5.81 L54.27 4.46 L55.13 4.00 " /></svg>