<svg width="60" height="28" xmlns="http://www.w3.org/2000/svg"><path stroke="none" fill="#E8F0FE" d="M4.00 28.00 L4.00 12.49  L4.00 12.49 L4.87 12.49 L5.73 6.44 L6.60 5.76 L7.47 4.00 L8.33 4.00 L9.20 4.00 L10.07 5.76 L10.93 4.29 L11.80 9.76 L12.67 7.61 L13.53 9.17 L14.40 6.34 L15.27 4.78 L16.13 5.66 L17.00 5.17 L17.87 5.56 L18.73 6.15 L19.60 7.02 L20.47 7.22 L21.33 7.61 L22.20 8.88 L23.07 9.37 L23.93 10.54 L24.80 9.56 L25.67 13.17 L26.53 13.95 L27.40 13.95 L28.27 13.95 L29.13 13.76 L30.00 14.05 L30.87 16.49 L31.73 16.49 L32.60 18.24 L33.47 19.22 L34.33 20.00 L35.20 21.46 L36.07 22.05 L36.93 22.83 L37.80 22.83 L38.67 22.73 L39.53 22.93 L40.40 23.12 L41.27 23.22 L42.13 23.41 L43.00 23.02 L43.87 23.02 L44.73 23.22 L45.60 23.22 L46.47 23.32 L47.33 23.41 L48.20 23.12 L49.07 23.32 L49.93 23.32 L50.80 23.22 L51.67 23.22 L52.53 23.41 L53.40 23.41 L54.27 23.51 L55.13 23.41  L55.13 28.00 " /><path stroke="#4285F4" stroke-width="1" fill="none" d="M4.00 12.49  L4.00 12.49 L4.87 12.49 L5.73 6.44 L6.60 5.76 L7.47 4.00 L8.33 4.00 L9.20 4.00 L10.07 5.76 L10.93 4.29 L11.80 9.76 L12.67 7.61 L13.53 9.17 L14.40 6.34 L15.27 4.78 L16.13 5.66 L17.00 5.17 L17.87 5.56 L18.73 6.15 L19.60 7.02 L20.47 7.22 L21.33 7.61 L22.20 8.88 L23.07 9.37 L23.93 10.54 L24.80 9.56 L25.67 13.17 L26.53 13.95 L27.40 13.95 L28.27 13.95 L29.13 13.76 L30.00 14.05 L30.87 16.49 L31.73 16.49 L32.60 18.24 L33.47 19.22 L34.33 20.00 L35.20 21.46 L36.07 22.05 L36.93 22.83 L37.80 22.83 L38.67 22.73 L39.53 22.93 L40.40 23.12 L41.27 23.22 L42.13 23.41 L43.00 23.02 L43.87 23.02 L44.73 23.22 L45.60 23.22 L46.47 23.32 L47.33 23.41 L48.20 23.12 L49.07 23.32 L49.93 23.32 L50.80 23.22 L51.67 23.22 L52.53 23.41 L53.40 23.41 L54.27 23.51 L55.13 23.41 " /></svg>