<svg width="60" height="28" xmlns="http://www.w3.org/2000/svg"><path stroke="none" fill="#E8F0FE" d="M4.00 28.00 L4.00 23.27  L4.00 23.27 L4.87 23.28 L5.73 23.33 L6.60 23.42 L7.47 22.83 L8.33 22.50 L9.20 22.31 L10.07 21.93 L10.93 21.80 L11.80 21.70 L12.67 21.35 L13.53 21.83 L14.40 21.09 L15.27 19.56 L16.13 18.48 L17.00 15.46 L17.87 12.36 L18.73 9.34 L19.60 9.68 L20.47 10.74 L21.33 9.51 L22.20 11.03 L23.07 10.74 L23.93 10.77 L24.80 14.18 L25.67 9.90 L26.53 7.46 L27.40 7.20 L28.27 4.00 L29.13 5.11 L30.00 6.61 L30.87 5.56 L31.73 9.13 L32.60 10.99 L33.47 13.18 L34.33 15.58 L35.20 17.32 L36.07 18.75 L36.93 19.15 L37.80 19.73 L38.67 20.06 L39.53 20.60 L40.40 20.83 L41.27 21.38 L42.13 21.57 L43.00 22.11 L43.87 22.23 L44.73 22.22 L45.60 22.50 L46.47 22.81 L47.33 22.70 L48.20 22.81 L49.07 22.81 L49.93 22.81 L50.80 23.07 L51.67 23.13 L52.53 23.01 L53.40 22.87 L54.27 22.78 L55.13 22.58  L55.13 28.00 " /><path stroke="#4285F4" stroke-width="1" fill="none" d="M4.00 23.27  L4.00 23.27 L4.87 23.28 L5.73 23.33 L6.60 23.42 L7.47 22.83 L8.33 22.50 L9.20 22.31 L10.07 21.93 L10.93 21.80 L11.80 21.70 L12.67 21.35 L13.53 21.83 L14.40 21.09 L15.27 19.56 L16.13 18.48 L17.00 15.46 L17.87 12.36 L18.73 9.34 L19.60 9.68 L20.47 10.74 L21.33 9.51 L22.20 11.03 L23.07 10.74 L23.93 10.77 L24.80 14.18 L25.67 9.90 L26.53 7.46 L27.40 7.20 L28.27 4.00 L29.13 5.11 L30.00 6.61 L30.87 5.56 L31.73 9.13 L32.60 10.99 L33.47 13.18 L34.33 15.58 L35.20 17.32 L36.07 18.75 L36.93 19.15 L37.80 19.73 L38.67 20.06 L39.53 20.60 L40.40 20.83 L41.27 21.38 L42.13 21.57 L43.00 22.11 L43.87 22.23 L44.73 22.22 L45.60 22.50 L46.47 22.81 L47.33 22.70 L48.20 22.81 L49.07 22.81 L49.93 22.81 L50.80 23.07 L51.67 23.13 L52.53 23.01 L53.40 22.87 L54.27 22.78 L55.13 22.58 " /></svg>