<svg width="60" height="28" xmlns="http://www.w3.org/2000/svg"><path stroke="none" fill="#E8F0FE" d="M4.00 28.00 L4.00 10.00  L4.00 10.00 L4.87 10.00 L5.73 10.00 L6.60 20.00 L7.47 20.00 L8.33 22.00 L9.20 20.00 L10.07 18.00 L10.93 16.00 L11.80 16.00 L12.67 6.00 L13.53 8.00 L14.40 6.00 L15.27 8.00 L16.13 4.00 L17.00 6.00 L17.87 6.00 L18.73 16.00 L19.60 16.00 L20.47 16.00 L21.33 16.00 L22.20 20.00 L23.07 20.00 L23.93 20.00 L24.80 20.00 L25.67 20.00 L26.53 22.00 L27.40 22.00 L28.27 22.00 L29.13 22.00 L30.00 22.00 L30.87 18.00 L31.73 17.00 L32.60 14.67 L33.47 12.33 L34.33 14.67 L35.20 14.67 L36.07 14.67 L36.93 19.33 L37.80 19.33 L38.67 14.67 L39.53 17.00 L40.40 12.33 L41.27 12.33 L42.13 12.33 L43.00 12.33 L43.87 12.33 L44.73 19.33 L45.60 19.33 L46.47 21.67 L47.33 21.67 L48.20 21.67 L49.07 21.20 L49.93 21.20 L50.80 21.20 L51.67 21.20 L52.53 24.00 L53.40 21.20 L54.27 21.20 L55.13 21.20  L55.13 28.00 " /><path stroke="#4285F4" stroke-width="1" fill="none" d="M4.00 10.00  L4.00 10.00 L4.87 10.00 L5.73 10.00 L6.60 20.00 L7.47 20.00 L8.33 22.00 L9.20 20.00 L10.07 18.00 L10.93 16.00 L11.80 16.00 L12.67 6.00 L13.53 8.00 L14.40 6.00 L15.27 8.00 L16.13 4.00 L17.00 6.00 L17.87 6.00 L18.73 16.00 L19.60 16.00 L20.47 16.00 L21.33 16.00 L22.20 20.00 L23.07 20.00 L23.93 20.00 L24.80 20.00 L25.67 20.00 L26.53 22.00 L27.40 22.00 L28.27 22.00 L29.13 22.00 L30.00 22.00 L30.87 18.00 L31.73 17.00 L32.60 14.67 L33.47 12.33 L34.33 14.67 L35.20 14.67 L36.07 14.67 L36.93 19.33 L37.80 19.33 L38.67 14.67 L39.53 17.00 L40.40 12.33 L41.27 12.33 L42.13 12.33 L43.00 12.33 L43.87 12.33 L44.73 19.33 L45.60 19.33 L46.47 21.67 L47.33 21.67 L48.20 21.67 L49.07 21.20 L49.93 21.20 L50.80 21.20 L51.67 21.20 L52.53 24.00 L53.40 21.20 L54.27 21.20 L55.13 21.20 " /></svg>