<svg width="60" height="28" xmlns="http://www.w3.org/2000/svg"><path stroke="none" fill="#E8F0FE" d="M4.00 28.00 L4.00 23.12  L4.00 23.12 L4.87 22.80 L5.73 22.92 L6.60 23.00 L7.47 23.41 L8.33 23.47 L9.20 23.18 L10.07 23.00 L10.93 22.74 L11.80 22.21 L12.67 21.98 L13.53 20.66 L14.40 20.05 L15.27 20.02 L16.13 20.08 L17.00 19.34 L17.87 18.88 L18.73 17.85 L19.60 18.00 L20.47 17.47 L21.33 17.56 L22.20 16.39 L23.07 16.94 L23.93 16.65 L24.80 16.68 L25.67 16.09 L26.53 16.86 L27.40 15.68 L28.27 16.42 L29.13 15.33 L30.00 15.19 L30.87 15.89 L31.73 16.15 L32.60 15.77 L33.47 16.15 L34.33 15.42 L35.20 16.56 L36.07 16.80 L36.93 16.53 L37.80 17.38 L38.67 17.56 L39.53 18.26 L40.40 18.76 L41.27 17.67 L42.13 18.14 L43.00 17.76 L43.87 16.65 L44.73 14.51 L45.60 13.75 L46.47 14.54 L47.33 12.02 L48.20 11.53 L49.07 12.70 L49.93 9.30 L50.80 9.89 L51.67 9.42 L52.53 7.19 L53.40 8.89 L54.27 7.19 L55.13 4.00  L55.13 28.00 " /><path stroke="#4285F4" stroke-width="1" fill="none" d="M4.00 23.12  L4.00 23.12 L4.87 22.80 L5.73 22.92 L6.60 23.00 L7.47 23.41 L8.33 23.47 L9.20 23.18 L10.07 23.00 L10.93 22.74 L11.80 22.21 L12.67 21.98 L13.53 20.66 L14.40 20.05 L15.27 20.02 L16.13 20.08 L17.00 19.34 L17.87 18.88 L18.73 17.85 L19.60 18.00 L20.47 17.47 L21.33 17.56 L22.20 16.39 L23.07 16.94 L23.93 16.65 L24.80 16.68 L25.67 16.09 L26.53 16.86 L27.40 15.68 L28.27 16.42 L29.13 15.33 L30.00 15.19 L30.87 15.89 L31.73 16.15 L32.60 15.77 L33.47 16.15 L34.33 15.42 L35.20 16.56 L36.07 16.80 L36.93 16.53 L37.80 17.38 L38.67 17.56 L39.53 18.26 L40.40 18.76 L41.27 17.67 L42.13 18.14 L43.00 17.76 L43.87 16.65 L44.73 14.51 L45.60 13.75 L46.47 14.54 L47.33 12.02 L48.20 11.53 L49.07 12.70 L49.93 9.30 L50.80 9.89 L51.67 9.42 L52.53 7.19 L53.40 8.89 L54.27 7.19 L55.13 4.00 " /></svg>