<svg width="60" height="28" xmlns="http://www.w3.org/2000/svg"><path stroke="none" fill="#E8F0FE" d="M4.00 28.00 L4.00 10.92  L4.00 10.92 L4.87 11.95 L5.73 16.05 L6.60 16.05 L7.47 15.28 L8.33 14.00 L9.20 14.26 L10.07 15.03 L10.93 14.26 L11.80 14.26 L12.67 13.49 L13.53 14.51 L14.40 15.03 L15.27 12.97 L16.13 12.46 L17.00 12.97 L17.87 13.23 L18.73 13.49 L19.60 10.92 L20.47 11.44 L21.33 13.74 L22.20 12.97 L23.07 12.21 L23.93 10.92 L24.80 10.67 L25.67 12.72 L26.53 12.21 L27.40 12.21 L28.27 14.77 L29.13 13.74 L30.00 14.00 L30.87 10.92 L31.73 7.08 L32.60 6.05 L33.47 6.05 L34.33 4.26 L35.20 4.00 L36.07 4.77 L36.93 8.62 L37.80 13.23 L38.67 15.28 L39.53 15.28 L40.40 16.82 L41.27 19.13 L42.13 20.92 L43.00 21.69 L43.87 21.95 L44.73 21.95 L45.60 22.21 L46.47 22.21 L47.33 22.46 L48.20 22.21 L49.07 22.21 L49.93 22.72 L50.80 22.46 L51.67 22.46 L52.53 22.21 L53.40 22.46 L54.27 22.46 L55.13 22.72  L55.13 28.00 " /><path stroke="#4285F4" stroke-width="1" fill="none" d="M4.00 10.92  L4.00 10.92 L4.87 11.95 L5.73 16.05 L6.60 16.05 L7.47 15.28 L8.33 14.00 L9.20 14.26 L10.07 15.03 L10.93 14.26 L11.80 14.26 L12.67 13.49 L13.53 14.51 L14.40 15.03 L15.27 12.97 L16.13 12.46 L17.00 12.97 L17.87 13.23 L18.73 13.49 L19.60 10.92 L20.47 11.44 L21.33 13.74 L22.20 12.97 L23.07 12.21 L23.93 10.92 L24.80 10.67 L25.67 12.72 L26.53 12.21 L27.40 12.21 L28.27 14.77 L29.13 13.74 L30.00 14.00 L30.87 10.92 L31.73 7.08 L32.60 6.05 L33.47 6.05 L34.33 4.26 L35.20 4.00 L36.07 4.77 L36.93 8.62 L37.80 13.23 L38.67 15.28 L39.53 15.28 L40.40 16.82 L41.27 19.13 L42.13 20.92 L43.00 21.69 L43.87 21.95 L44.73 21.95 L45.60 22.21 L46.47 22.21 L47.33 22.46 L48.20 22.21 L49.07 22.21 L49.93 22.72 L50.80 22.46 L51.67 22.46 L52.53 22.21 L53.40 22.46 L54.27 22.46 L55.13 22.72 " /></svg>