<svg width="60" height="28" xmlns="http://www.w3.org/2000/svg"><path stroke="none" fill="#E8F0FE" d="M4.00 28.00 L4.00 15.05  L4.00 15.05 L4.87 14.99 L5.73 15.31 L6.60 15.27 L7.47 15.25 L8.33 15.10 L9.20 15.18 L10.07 15.14 L10.93 15.28 L11.80 14.69 L12.67 14.62 L13.53 14.16 L14.40 14.53 L15.27 14.13 L16.13 13.98 L17.00 13.63 L17.87 13.60 L18.73 13.50 L19.60 13.70 L20.47 13.29 L21.33 13.28 L22.20 13.16 L23.07 13.06 L23.93 12.82 L24.80 12.47 L25.67 11.91 L26.53 11.77 L27.40 11.40 L28.27 11.23 L29.13 11.05 L30.00 10.76 L30.87 10.63 L31.73 11.06 L32.60 10.87 L33.47 10.88 L34.33 10.60 L35.20 10.38 L36.07 10.36 L36.93 10.34 L37.80 10.19 L38.67 9.98 L39.53 9.16 L40.40 9.07 L41.27 9.12 L42.13 8.43 L43.00 8.12 L43.87 7.90 L44.73 7.66 L45.60 7.88 L46.47 7.35 L47.33 6.73 L48.20 6.62 L49.07 6.22 L49.93 5.76 L50.80 5.19 L51.67 5.05 L52.53 5.07 L53.40 4.57 L54.27 4.37 L55.13 4.00  L55.13 28.00 " /><path stroke="#4285F4" stroke-width="1" fill="none" d="M4.00 15.05  L4.00 15.05 L4.87 14.99 L5.73 15.31 L6.60 15.27 L7.47 15.25 L8.33 15.10 L9.20 15.18 L10.07 15.14 L10.93 15.28 L11.80 14.69 L12.67 14.62 L13.53 14.16 L14.40 14.53 L15.27 14.13 L16.13 13.98 L17.00 13.63 L17.87 13.60 L18.73 13.50 L19.60 13.70 L20.47 13.29 L21.33 13.28 L22.20 13.16 L23.07 13.06 L23.93 12.82 L24.80 12.47 L25.67 11.91 L26.53 11.77 L27.40 11.40 L28.27 11.23 L29.13 11.05 L30.00 10.76 L30.87 10.63 L31.73 11.06 L32.60 10.87 L33.47 10.88 L34.33 10.60 L35.20 10.38 L36.07 10.36 L36.93 10.34 L37.80 10.19 L38.67 9.98 L39.53 9.16 L40.40 9.07 L41.27 9.12 L42.13 8.43 L43.00 8.12 L43.87 7.90 L44.73 7.66 L45.60 7.88 L46.47 7.35 L47.33 6.73 L48.20 6.62 L49.07 6.22 L49.93 5.76 L50.80 5.19 L51.67 5.05 L52.53 5.07 L53.40 4.57 L54.27 4.37 L55.13 4.00 " /></svg>