<svg width="60" height="28" xmlns="http://www.w3.org/2000/svg"><path stroke="none" fill="#E8F0FE" d="M4.00 28.00 L4.00 4.00  L4.00 4.00 L4.87 6.23 L5.73 6.88 L6.60 8.12 L7.47 9.06 L8.33 10.34 L9.20 11.38 L10.07 12.44 L10.93 9.54 L11.80 9.81 L12.67 11.09 L13.53 12.81 L14.40 13.32 L15.27 13.88 L16.13 14.84 L17.00 18.35 L17.87 18.49 L18.73 18.65 L19.60 18.72 L20.47 19.01 L21.33 19.15 L22.20 19.11 L23.07 19.49 L23.93 20.29 L24.80 20.52 L25.67 20.48 L26.53 20.35 L27.40 20.68 L28.27 20.91 L29.13 20.98 L30.00 21.12 L30.87 21.45 L31.73 21.88 L32.60 22.55 L33.47 22.51 L34.33 22.80 L35.20 23.04 L36.07 23.13 L36.93 22.88 L37.80 22.98 L38.67 22.86 L39.53 22.81 L40.40 22.90 L41.27 22.83 L42.13 22.82 L43.00 23.21 L43.87 23.24 L44.73 23.38 L45.60 23.43 L46.47 23.45 L47.33 23.50 L48.20 23.54 L49.07 23.37 L49.93 23.40 L50.80 23.21 L51.67 23.18 L52.53 23.19 L53.40 23.16 L54.27 23.16 L55.13 23.28  L55.13 28.00 " /><path stroke="#4285F4" stroke-width="1" fill="none" d="M4.00 4.00  L4.00 4.00 L4.87 6.23 L5.73 6.88 L6.60 8.12 L7.47 9.06 L8.33 10.34 L9.20 11.38 L10.07 12.44 L10.93 9.54 L11.80 9.81 L12.67 11.09 L13.53 12.81 L14.40 13.32 L15.27 13.88 L16.13 14.84 L17.00 18.35 L17.87 18.49 L18.73 18.65 L19.60 18.72 L20.47 19.01 L21.33 19.15 L22.20 19.11 L23.07 19.49 L23.93 20.29 L24.80 20.52 L25.67 20.48 L26.53 20.35 L27.40 20.68 L28.27 20.91 L29.13 20.98 L30.00 21.12 L30.87 21.45 L31.73 21.88 L32.60 22.55 L33.47 22.51 L34.33 22.80 L35.20 23.04 L36.07 23.13 L36.93 22.88 L37.80 22.98 L38.67 22.86 L39.53 22.81 L40.40 22.90 L41.27 22.83 L42.13 22.82 L43.00 23.21 L43.87 23.24 L44.73 23.38 L45.60 23.43 L46.47 23.45 L47.33 23.50 L48.20 23.54 L49.07 23.37 L49.93 23.40 L50.80 23.21 L51.67 23.18 L52.53 23.19 L53.40 23.16 L54.27 23.16 L55.13 23.28 " /></svg>