<svg width="60" height="28" xmlns="http://www.w3.org/2000/svg"><path stroke="none" fill="#E8F0FE" d="M4.00 28.00 L4.00 22.32  L4.00 22.32 L4.87 22.32 L5.73 22.12 L6.60 21.68 L7.47 18.69 L8.33 18.29 L9.20 18.81 L10.07 11.86 L10.93 11.74 L11.80 4.00 L12.67 4.00 L13.53 6.95 L14.40 4.60 L15.27 4.28 L16.13 10.79 L17.00 8.59 L17.87 15.54 L18.73 13.94 L19.60 14.38 L20.47 17.33 L21.33 17.65 L22.20 18.09 L23.07 15.02 L23.93 16.38 L24.80 18.53 L25.67 18.53 L26.53 18.53 L27.40 17.25 L28.27 17.25 L29.13 22.72 L30.00 21.84 L30.87 21.84 L31.73 20.13 L32.60 20.13 L33.47 19.57 L34.33 19.57 L35.20 17.49 L36.07 18.37 L36.93 15.62 L37.80 15.90 L38.67 15.86 L39.53 16.73 L40.40 15.82 L41.27 17.61 L42.13 17.45 L43.00 19.65 L43.87 21.09 L44.73 21.13 L45.60 22.08 L46.47 21.13 L47.33 20.93 L48.20 20.77 L49.07 19.97 L49.93 19.97 L50.80 19.97 L51.67 18.49 L52.53 19.33 L53.40 18.29 L54.27 18.61 L55.13 19.97  L55.13 28.00 " /><path stroke="#4285F4" stroke-width="1" fill="none" d="M4.00 22.32  L4.00 22.32 L4.87 22.32 L5.73 22.12 L6.60 21.68 L7.47 18.69 L8.33 18.29 L9.20 18.81 L10.07 11.86 L10.93 11.74 L11.80 4.00 L12.67 4.00 L13.53 6.95 L14.40 4.60 L15.27 4.28 L16.13 10.79 L17.00 8.59 L17.87 15.54 L18.73 13.94 L19.60 14.38 L20.47 17.33 L21.33 17.65 L22.20 18.09 L23.07 15.02 L23.93 16.38 L24.80 18.53 L25.67 18.53 L26.53 18.53 L27.40 17.25 L28.27 17.25 L29.13 22.72 L30.00 21.84 L30.87 21.84 L31.73 20.13 L32.60 20.13 L33.47 19.57 L34.33 19.57 L35.20 17.49 L36.07 18.37 L36.93 15.62 L37.80 15.90 L38.67 15.86 L39.53 16.73 L40.40 15.82 L41.27 17.61 L42.13 17.45 L43.00 19.65 L43.87 21.09 L44.73 21.13 L45.60 22.08 L46.47 21.13 L47.33 20.93 L48.20 20.77 L49.07 19.97 L49.93 19.97 L50.80 19.97 L51.67 18.49 L52.53 19.33 L53.40 18.29 L54.27 18.61 L55.13 19.97 " /></svg>