<svg width="60" height="28" xmlns="http://www.w3.org/2000/svg"><path stroke="none" fill="#E8F0FE" d="M4.00 28.00 L4.00 13.23  L4.00 13.23 L4.87 14.77 L5.73 14.77 L6.60 11.69 L7.47 19.38 L8.33 19.38 L9.20 16.31 L10.07 14.77 L10.93 14.77 L11.80 16.31 L12.67 19.38 L13.53 19.38 L14.40 17.85 L15.27 20.92 L16.13 22.46 L17.00 22.46 L17.87 22.46 L18.73 20.92 L19.60 20.92 L20.47 22.46 L21.33 22.46 L22.20 22.46 L23.07 22.46 L23.93 22.46 L24.80 24.00 L25.67 24.00 L26.53 24.00 L27.40 24.00 L28.27 22.46 L29.13 22.46 L30.00 22.46 L30.87 22.46 L31.73 22.46 L32.60 22.46 L33.47 19.38 L34.33 20.92 L35.20 20.92 L36.07 20.92 L36.93 20.92 L37.80 20.92 L38.67 20.92 L39.53 24.00 L40.40 14.77 L41.27 14.77 L42.13 11.69 L43.00 11.69 L43.87 10.15 L44.73 10.15 L45.60 4.00 L46.47 11.69 L47.33 11.69 L48.20 13.23 L49.07 11.69 L49.93 11.69 L50.80 11.69 L51.67 14.77 L52.53 13.23 L53.40 13.23 L54.27 5.54 L55.13 7.08  L55.13 28.00 " /><path stroke="#4285F4" stroke-width="1" fill="none" d="M4.00 13.23  L4.00 13.23 L4.87 14.77 L5.73 14.77 L6.60 11.69 L7.47 19.38 L8.33 19.38 L9.20 16.31 L10.07 14.77 L10.93 14.77 L11.80 16.31 L12.67 19.38 L13.53 19.38 L14.40 17.85 L15.27 20.92 L16.13 22.46 L17.00 22.46 L17.87 22.46 L18.73 20.92 L19.60 20.92 L20.47 22.46 L21.33 22.46 L22.20 22.46 L23.07 22.46 L23.93 22.46 L24.80 24.00 L25.67 24.00 L26.53 24.00 L27.40 24.00 L28.27 22.46 L29.13 22.46 L30.00 22.46 L30.87 22.46 L31.73 22.46 L32.60 22.46 L33.47 19.38 L34.33 20.92 L35.20 20.92 L36.07 20.92 L36.93 20.92 L37.80 20.92 L38.67 20.92 L39.53 24.00 L40.40 14.77 L41.27 14.77 L42.13 11.69 L43.00 11.69 L43.87 10.15 L44.73 10.15 L45.60 4.00 L46.47 11.69 L47.33 11.69 L48.20 13.23 L49.07 11.69 L49.93 11.69 L50.80 11.69 L51.67 14.77 L52.53 13.23 L53.40 13.23 L54.27 5.54 L55.13 7.08 " /></svg>