<svg width="60" height="28" xmlns="http://www.w3.org/2000/svg"><path stroke="none" fill="#E8F0FE" d="M4.00 28.00 L4.00 11.37  L4.00 11.37 L4.87 13.82 L5.73 13.82 L6.60 12.30 L7.47 13.47 L8.33 13.47 L9.20 13.01 L10.07 12.07 L10.93 12.65 L11.80 13.24 L12.67 10.08 L13.53 11.25 L14.40 10.20 L15.27 11.13 L16.13 12.77 L17.00 13.47 L17.87 14.29 L18.73 16.63 L19.60 17.33 L20.47 18.85 L21.33 18.62 L22.20 17.92 L23.07 17.80 L23.93 17.80 L24.80 19.79 L25.67 19.44 L26.53 19.44 L27.40 19.91 L28.27 20.96 L29.13 20.02 L30.00 20.37 L30.87 20.73 L31.73 19.67 L32.60 19.91 L33.47 8.56 L34.33 7.63 L35.20 8.68 L36.07 6.34 L36.93 4.00 L37.80 5.29 L38.67 4.23 L39.53 14.06 L40.40 13.47 L41.27 8.21 L42.13 7.74 L43.00 8.91 L43.87 7.16 L44.73 7.04 L45.60 6.11 L46.47 5.99 L47.33 11.49 L48.20 13.01 L49.07 11.60 L49.93 11.13 L50.80 11.13 L51.67 11.95 L52.53 11.49 L53.40 9.73 L54.27 7.98 L55.13 7.27  L55.13 28.00 " /><path stroke="#4285F4" stroke-width="1" fill="none" d="M4.00 11.37  L4.00 11.37 L4.87 13.82 L5.73 13.82 L6.60 12.30 L7.47 13.47 L8.33 13.47 L9.20 13.01 L10.07 12.07 L10.93 12.65 L11.80 13.24 L12.67 10.08 L13.53 11.25 L14.40 10.20 L15.27 11.13 L16.13 12.77 L17.00 13.47 L17.87 14.29 L18.73 16.63 L19.60 17.33 L20.47 18.85 L21.33 18.62 L22.20 17.92 L23.07 17.80 L23.93 17.80 L24.80 19.79 L25.67 19.44 L26.53 19.44 L27.40 19.91 L28.27 20.96 L29.13 20.02 L30.00 20.37 L30.87 20.73 L31.73 19.67 L32.60 19.91 L33.47 8.56 L34.33 7.63 L35.20 8.68 L36.07 6.34 L36.93 4.00 L37.80 5.29 L38.67 4.23 L39.53 14.06 L40.40 13.47 L41.27 8.21 L42.13 7.74 L43.00 8.91 L43.87 7.16 L44.73 7.04 L45.60 6.11 L46.47 5.99 L47.33 11.49 L48.20 13.01 L49.07 11.60 L49.93 11.13 L50.80 11.13 L51.67 11.95 L52.53 11.49 L53.40 9.73 L54.27 7.98 L55.13 7.27 " /></svg>