<svg width="60" height="28" xmlns="http://www.w3.org/2000/svg"><path stroke="none" fill="#E8F0FE" d="M4.00 28.00 L4.00 18.15  L4.00 18.15 L4.87 17.94 L5.73 17.80 L6.60 16.65 L7.47 16.73 L8.33 14.17 L9.20 13.22 L10.07 12.79 L10.93 11.73 L11.80 10.85 L12.67 13.15 L13.53 9.70 L14.40 8.41 L15.27 10.46 L16.13 10.42 L17.00 7.20 L17.87 9.07 L18.73 6.02 L19.60 6.90 L20.47 8.30 L21.33 6.39 L22.20 5.97 L23.07 8.64 L23.93 8.64 L24.80 9.47 L25.67 9.17 L26.53 8.74 L27.40 8.78 L28.27 9.20 L29.13 9.34 L30.00 6.61 L30.87 6.91 L31.73 7.71 L32.60 10.56 L33.47 10.38 L34.33 9.80 L35.20 10.23 L36.07 11.08 L36.93 11.11 L37.80 12.23 L38.67 9.54 L39.53 8.86 L40.40 7.31 L41.27 5.72 L42.13 7.60 L43.00 4.46 L43.87 4.00 L44.73 6.71 L45.60 7.94 L46.47 10.64 L47.33 12.95 L48.20 11.74 L49.07 13.29 L49.93 15.38 L50.80 15.38 L51.67 16.88 L52.53 18.06 L53.40 15.29 L54.27 15.37 L55.13 18.85  L55.13 28.00 " /><path stroke="#4285F4" stroke-width="1" fill="none" d="M4.00 18.15  L4.00 18.15 L4.87 17.94 L5.73 17.80 L6.60 16.65 L7.47 16.73 L8.33 14.17 L9.20 13.22 L10.07 12.79 L10.93 11.73 L11.80 10.85 L12.67 13.15 L13.53 9.70 L14.40 8.41 L15.27 10.46 L16.13 10.42 L17.00 7.20 L17.87 9.07 L18.73 6.02 L19.60 6.90 L20.47 8.30 L21.33 6.39 L22.20 5.97 L23.07 8.64 L23.93 8.64 L24.80 9.47 L25.67 9.17 L26.53 8.74 L27.40 8.78 L28.27 9.20 L29.13 9.34 L30.00 6.61 L30.87 6.91 L31.73 7.71 L32.60 10.56 L33.47 10.38 L34.33 9.80 L35.20 10.23 L36.07 11.08 L36.93 11.11 L37.80 12.23 L38.67 9.54 L39.53 8.86 L40.40 7.31 L41.27 5.72 L42.13 7.60 L43.00 4.46 L43.87 4.00 L44.73 6.71 L45.60 7.94 L46.47 10.64 L47.33 12.95 L48.20 11.74 L49.07 13.29 L49.93 15.38 L50.80 15.38 L51.67 16.88 L52.53 18.06 L53.40 15.29 L54.27 15.37 L55.13 18.85 " /></svg>