<svg width="60" height="28" xmlns="http://www.w3.org/2000/svg"><path stroke="none" fill="#E8F0FE" d="M4.00 28.00 L4.00 4.00  L4.00 4.00 L4.87 5.69 L5.73 7.14 L6.60 9.30 L7.47 11.91 L8.33 14.13 L9.20 15.44 L10.07 15.08 L10.93 15.80 L11.80 15.40 L12.67 16.17 L13.53 16.84 L14.40 17.25 L15.27 17.46 L16.13 19.19 L17.00 19.41 L17.87 19.74 L18.73 20.02 L19.60 20.47 L20.47 20.32 L21.33 20.56 L22.20 20.46 L23.07 20.55 L23.93 21.26 L24.80 20.43 L25.67 19.99 L26.53 19.97 L27.40 19.91 L28.27 19.54 L29.13 19.54 L30.00 19.41 L30.87 20.02 L31.73 20.14 L32.60 20.14 L33.47 20.27 L34.33 20.47 L35.20 20.35 L36.07 20.43 L36.93 20.28 L37.80 20.17 L38.67 19.63 L39.53 18.98 L40.40 18.98 L41.27 18.99 L42.13 18.57 L43.00 18.45 L43.87 18.21 L44.73 18.49 L45.60 18.93 L46.47 18.73 L47.33 18.11 L48.20 17.91 L49.07 17.37 L49.93 17.00 L50.80 16.54 L51.67 15.68 L52.53 14.69 L53.40 13.83 L54.27 12.40 L55.13 10.88  L55.13 28.00 " /><path stroke="#4285F4" stroke-width="1" fill="none" d="M4.00 4.00  L4.00 4.00 L4.87 5.69 L5.73 7.14 L6.60 9.30 L7.47 11.91 L8.33 14.13 L9.20 15.44 L10.07 15.08 L10.93 15.80 L11.80 15.40 L12.67 16.17 L13.53 16.84 L14.40 17.25 L15.27 17.46 L16.13 19.19 L17.00 19.41 L17.87 19.74 L18.73 20.02 L19.60 20.47 L20.47 20.32 L21.33 20.56 L22.20 20.46 L23.07 20.55 L23.93 21.26 L24.80 20.43 L25.67 19.99 L26.53 19.97 L27.40 19.91 L28.27 19.54 L29.13 19.54 L30.00 19.41 L30.87 20.02 L31.73 20.14 L32.60 20.14 L33.47 20.27 L34.33 20.47 L35.20 20.35 L36.07 20.43 L36.93 20.28 L37.80 20.17 L38.67 19.63 L39.53 18.98 L40.40 18.98 L41.27 18.99 L42.13 18.57 L43.00 18.45 L43.87 18.21 L44.73 18.49 L45.60 18.93 L46.47 18.73 L47.33 18.11 L48.20 17.91 L49.07 17.37 L49.93 17.00 L50.80 16.54 L51.67 15.68 L52.53 14.69 L53.40 13.83 L54.27 12.40 L55.13 10.88 " /></svg>