<svg width="60" height="28" xmlns="http://www.w3.org/2000/svg"><path stroke="none" fill="#E8F0FE" d="M4.00 28.00 L4.00 21.64  L4.00 21.64 L4.87 21.14 L5.73 18.19 L6.60 17.40 L7.47 16.51 L8.33 13.36 L9.20 12.28 L10.07 11.29 L10.93 11.39 L11.80 13.95 L12.67 14.64 L13.53 14.84 L14.40 17.50 L15.27 14.64 L16.13 15.72 L17.00 15.82 L17.87 10.40 L18.73 4.79 L19.60 4.79 L20.47 4.00 L21.33 7.74 L22.20 5.67 L23.07 4.30 L23.93 9.81 L24.80 15.53 L25.67 14.74 L26.53 13.56 L27.40 12.77 L28.27 13.95 L29.13 14.64 L30.00 10.40 L30.87 10.21 L31.73 11.29 L32.60 13.06 L33.47 12.47 L34.33 11.59 L35.20 11.00 L36.07 14.54 L36.93 13.16 L37.80 11.98 L38.67 12.67 L39.53 12.77 L40.40 13.66 L41.27 14.05 L42.13 14.84 L43.00 15.33 L43.87 14.74 L44.73 10.11 L45.60 10.31 L46.47 9.32 L47.33 8.73 L48.20 7.55 L49.07 5.58 L49.93 5.97 L50.80 8.93 L51.67 10.01 L52.53 8.63 L53.40 9.81 L54.27 10.80 L55.13 10.90  L55.13 28.00 " /><path stroke="#4285F4" stroke-width="1" fill="none" d="M4.00 21.64  L4.00 21.64 L4.87 21.14 L5.73 18.19 L6.60 17.40 L7.47 16.51 L8.33 13.36 L9.20 12.28 L10.07 11.29 L10.93 11.39 L11.80 13.95 L12.67 14.64 L13.53 14.84 L14.40 17.50 L15.27 14.64 L16.13 15.72 L17.00 15.82 L17.87 10.40 L18.73 4.79 L19.60 4.79 L20.47 4.00 L21.33 7.74 L22.20 5.67 L23.07 4.30 L23.93 9.81 L24.80 15.53 L25.67 14.74 L26.53 13.56 L27.40 12.77 L28.27 13.95 L29.13 14.64 L30.00 10.40 L30.87 10.21 L31.73 11.29 L32.60 13.06 L33.47 12.47 L34.33 11.59 L35.20 11.00 L36.07 14.54 L36.93 13.16 L37.80 11.98 L38.67 12.67 L39.53 12.77 L40.40 13.66 L41.27 14.05 L42.13 14.84 L43.00 15.33 L43.87 14.74 L44.73 10.11 L45.60 10.31 L46.47 9.32 L47.33 8.73 L48.20 7.55 L49.07 5.58 L49.93 5.97 L50.80 8.93 L51.67 10.01 L52.53 8.63 L53.40 9.81 L54.27 10.80 L55.13 10.90 " /></svg>