<svg width="60" height="28" xmlns="http://www.w3.org/2000/svg"><path stroke="none" fill="#E8F0FE" d="M4.00 28.00 L4.00 4.00  L4.00 4.00 L4.87 5.15 L5.73 5.59 L6.60 6.76 L7.47 7.93 L8.33 8.61 L9.20 8.89 L10.07 9.80 L10.93 9.83 L11.80 11.22 L12.67 12.11 L13.53 12.86 L14.40 13.76 L15.27 13.87 L16.13 14.53 L17.00 14.75 L17.87 14.87 L18.73 14.96 L19.60 15.06 L20.47 14.71 L21.33 14.24 L22.20 14.05 L23.07 14.11 L23.93 14.64 L24.80 14.73 L25.67 15.07 L26.53 14.97 L27.40 15.76 L28.27 16.00 L29.13 16.77 L30.00 16.57 L30.87 16.32 L31.73 15.93 L32.60 15.52 L33.47 15.06 L34.33 14.60 L35.20 13.86 L36.07 14.20 L36.93 14.20 L37.80 14.23 L38.67 14.95 L39.53 16.18 L40.40 15.13 L41.27 15.64 L42.13 16.00 L43.00 16.77 L43.87 17.55 L44.73 17.93 L45.60 17.45 L46.47 19.25 L47.33 19.51 L48.20 19.54 L49.07 19.66 L49.93 19.72 L50.80 19.85 L51.67 19.77 L52.53 19.87 L53.40 20.02 L54.27 20.68 L55.13 20.80  L55.13 28.00 " /><path stroke="#4285F4" stroke-width="1" fill="none" d="M4.00 4.00  L4.00 4.00 L4.87 5.15 L5.73 5.59 L6.60 6.76 L7.47 7.93 L8.33 8.61 L9.20 8.89 L10.07 9.80 L10.93 9.83 L11.80 11.22 L12.67 12.11 L13.53 12.86 L14.40 13.76 L15.27 13.87 L16.13 14.53 L17.00 14.75 L17.87 14.87 L18.73 14.96 L19.60 15.06 L20.47 14.71 L21.33 14.24 L22.20 14.05 L23.07 14.11 L23.93 14.64 L24.80 14.73 L25.67 15.07 L26.53 14.97 L27.40 15.76 L28.27 16.00 L29.13 16.77 L30.00 16.57 L30.87 16.32 L31.73 15.93 L32.60 15.52 L33.47 15.06 L34.33 14.60 L35.20 13.86 L36.07 14.20 L36.93 14.20 L37.80 14.23 L38.67 14.95 L39.53 16.18 L40.40 15.13 L41.27 15.64 L42.13 16.00 L43.00 16.77 L43.87 17.55 L44.73 17.93 L45.60 17.45 L46.47 19.25 L47.33 19.51 L48.20 19.54 L49.07 19.66 L49.93 19.72 L50.80 19.85 L51.67 19.77 L52.53 19.87 L53.40 20.02 L54.27 20.68 L55.13 20.80 " /></svg>