<svg width="60" height="28" xmlns="http://www.w3.org/2000/svg"><path stroke="none" fill="#E8F0FE" d="M4.00 28.00 L4.00 14.71  L4.00 14.71 L4.87 14.24 L5.73 14.72 L6.60 14.69 L7.47 14.94 L8.33 14.67 L9.20 14.41 L10.07 14.17 L10.93 13.78 L11.80 13.16 L12.67 12.66 L13.53 12.09 L14.40 11.97 L15.27 11.77 L16.13 12.19 L17.00 12.18 L17.87 11.98 L18.73 11.39 L19.60 10.86 L20.47 10.16 L21.33 9.67 L22.20 8.11 L23.07 6.67 L23.93 4.67 L24.80 4.00 L25.67 4.40 L26.53 5.32 L27.40 6.02 L28.27 7.02 L29.13 8.33 L30.00 10.09 L30.87 11.12 L31.73 11.47 L32.60 11.01 L33.47 10.28 L34.33 9.52 L35.20 9.51 L36.07 9.57 L36.93 9.54 L37.80 9.49 L38.67 10.07 L39.53 11.15 L40.40 12.20 L41.27 12.62 L42.13 13.06 L43.00 13.38 L43.87 13.73 L44.73 13.67 L45.60 13.49 L46.47 13.39 L47.33 13.30 L48.20 13.37 L49.07 13.18 L49.93 13.40 L50.80 13.67 L51.67 13.84 L52.53 13.91 L53.40 13.97 L54.27 13.88 L55.13 13.87  L55.13 28.00 " /><path stroke="#4285F4" stroke-width="1" fill="none" d="M4.00 14.71  L4.00 14.71 L4.87 14.24 L5.73 14.72 L6.60 14.69 L7.47 14.94 L8.33 14.67 L9.20 14.41 L10.07 14.17 L10.93 13.78 L11.80 13.16 L12.67 12.66 L13.53 12.09 L14.40 11.97 L15.27 11.77 L16.13 12.19 L17.00 12.18 L17.87 11.98 L18.73 11.39 L19.60 10.86 L20.47 10.16 L21.33 9.67 L22.20 8.11 L23.07 6.67 L23.93 4.67 L24.80 4.00 L25.67 4.40 L26.53 5.32 L27.40 6.02 L28.27 7.02 L29.13 8.33 L30.00 10.09 L30.87 11.12 L31.73 11.47 L32.60 11.01 L33.47 10.28 L34.33 9.52 L35.20 9.51 L36.07 9.57 L36.93 9.54 L37.80 9.49 L38.67 10.07 L39.53 11.15 L40.40 12.20 L41.27 12.62 L42.13 13.06 L43.00 13.38 L43.87 13.73 L44.73 13.67 L45.60 13.49 L46.47 13.39 L47.33 13.30 L48.20 13.37 L49.07 13.18 L49.93 13.40 L50.80 13.67 L51.67 13.84 L52.53 13.91 L53.40 13.97 L54.27 13.88 L55.13 13.87 " /></svg>