<svg width="60" height="28" xmlns="http://www.w3.org/2000/svg"><path stroke="none" fill="#E8F0FE" d="M4.00 28.00 L4.00 17.70  L4.00 17.70 L4.87 16.91 L5.73 16.25 L6.60 16.16 L7.47 15.81 L8.33 15.82 L9.20 15.83 L10.07 15.88 L10.93 16.72 L11.80 17.18 L12.67 17.46 L13.53 17.06 L14.40 17.18 L15.27 16.82 L16.13 16.41 L17.00 15.75 L17.87 15.92 L18.73 15.53 L19.60 15.64 L20.47 15.50 L21.33 15.36 L22.20 14.85 L23.07 15.55 L23.93 14.92 L24.80 13.64 L25.67 13.67 L26.53 12.91 L27.40 12.99 L28.27 13.18 L29.13 12.43 L30.00 12.69 L30.87 13.42 L31.73 13.66 L32.60 14.11 L33.47 12.23 L34.33 11.96 L35.20 10.49 L36.07 9.16 L36.93 8.66 L37.80 7.99 L38.67 6.84 L39.53 7.61 L40.40 6.82 L41.27 6.54 L42.13 6.36 L43.00 5.65 L43.87 5.50 L44.73 5.05 L45.60 5.21 L46.47 4.94 L47.33 5.61 L48.20 5.53 L49.07 5.01 L49.93 4.77 L50.80 5.25 L51.67 4.77 L52.53 4.14 L53.40 4.00 L54.27 5.02 L55.13 5.81  L55.13 28.00 " /><path stroke="#4285F4" stroke-width="1" fill="none" d="M4.00 17.70  L4.00 17.70 L4.87 16.91 L5.73 16.25 L6.60 16.16 L7.47 15.81 L8.33 15.82 L9.20 15.83 L10.07 15.88 L10.93 16.72 L11.80 17.18 L12.67 17.46 L13.53 17.06 L14.40 17.18 L15.27 16.82 L16.13 16.41 L17.00 15.75 L17.87 15.92 L18.73 15.53 L19.60 15.64 L20.47 15.50 L21.33 15.36 L22.20 14.85 L23.07 15.55 L23.93 14.92 L24.80 13.64 L25.67 13.67 L26.53 12.91 L27.40 12.99 L28.27 13.18 L29.13 12.43 L30.00 12.69 L30.87 13.42 L31.73 13.66 L32.60 14.11 L33.47 12.23 L34.33 11.96 L35.20 10.49 L36.07 9.16 L36.93 8.66 L37.80 7.99 L38.67 6.84 L39.53 7.61 L40.40 6.82 L41.27 6.54 L42.13 6.36 L43.00 5.65 L43.87 5.50 L44.73 5.05 L45.60 5.21 L46.47 4.94 L47.33 5.61 L48.20 5.53 L49.07 5.01 L49.93 4.77 L50.80 5.25 L51.67 4.77 L52.53 4.14 L53.40 4.00 L54.27 5.02 L55.13 5.81 " /></svg>