<svg width="60" height="28" xmlns="http://www.w3.org/2000/svg"><path stroke="none" fill="#E8F0FE" d="M4.00 28.00 L4.00 4.00  L4.00 4.00 L4.87 7.46 L5.73 8.62 L6.60 10.71 L7.47 11.75 L8.33 12.88 L9.20 12.64 L10.07 13.19 L10.93 13.68 L11.80 14.60 L12.67 14.17 L13.53 15.36 L14.40 16.25 L15.27 16.71 L16.13 16.50 L17.00 16.92 L17.87 18.09 L18.73 19.31 L19.60 19.44 L20.47 19.44 L21.33 19.62 L22.20 20.39 L23.07 20.88 L23.93 20.29 L24.80 20.32 L25.67 20.14 L26.53 20.17 L27.40 20.54 L28.27 20.42 L29.13 20.42 L30.00 20.69 L30.87 20.60 L31.73 20.85 L32.60 20.91 L33.47 20.51 L34.33 20.39 L35.20 19.99 L36.07 20.11 L36.93 19.77 L37.80 19.34 L38.67 19.13 L39.53 18.92 L40.40 18.61 L41.27 19.22 L42.13 18.73 L43.00 19.44 L43.87 18.64 L44.73 18.52 L45.60 18.55 L46.47 18.21 L47.33 17.02 L48.20 16.31 L49.07 14.44 L49.93 14.05 L50.80 13.53 L51.67 12.30 L52.53 9.45 L53.40 7.49 L54.27 6.81 L55.13 6.33  L55.13 28.00 " /><path stroke="#4285F4" stroke-width="1" fill="none" d="M4.00 4.00  L4.00 4.00 L4.87 7.46 L5.73 8.62 L6.60 10.71 L7.47 11.75 L8.33 12.88 L9.20 12.64 L10.07 13.19 L10.93 13.68 L11.80 14.60 L12.67 14.17 L13.53 15.36 L14.40 16.25 L15.27 16.71 L16.13 16.50 L17.00 16.92 L17.87 18.09 L18.73 19.31 L19.60 19.44 L20.47 19.44 L21.33 19.62 L22.20 20.39 L23.07 20.88 L23.93 20.29 L24.80 20.32 L25.67 20.14 L26.53 20.17 L27.40 20.54 L28.27 20.42 L29.13 20.42 L30.00 20.69 L30.87 20.60 L31.73 20.85 L32.60 20.91 L33.47 20.51 L34.33 20.39 L35.20 19.99 L36.07 20.11 L36.93 19.77 L37.80 19.34 L38.67 19.13 L39.53 18.92 L40.40 18.61 L41.27 19.22 L42.13 18.73 L43.00 19.44 L43.87 18.64 L44.73 18.52 L45.60 18.55 L46.47 18.21 L47.33 17.02 L48.20 16.31 L49.07 14.44 L49.93 14.05 L50.80 13.53 L51.67 12.30 L52.53 9.45 L53.40 7.49 L54.27 6.81 L55.13 6.33 " /></svg>