<svg width="60" height="28" xmlns="http://www.w3.org/2000/svg"><path stroke="none" fill="#E8F0FE" d="M4.00 28.00 L4.00 10.45  L4.00 10.45 L4.87 10.43 L5.73 9.74 L6.60 9.63 L7.47 9.46 L8.33 9.35 L9.20 8.40 L10.07 8.33 L10.93 7.65 L11.80 7.25 L12.67 7.54 L13.53 8.00 L14.40 7.84 L15.27 8.94 L16.13 8.00 L17.00 8.05 L17.87 7.60 L18.73 7.13 L19.60 6.56 L20.47 6.66 L21.33 6.27 L22.20 6.75 L23.07 7.07 L23.93 7.95 L24.80 7.34 L25.67 8.24 L26.53 8.04 L27.40 9.34 L28.27 10.00 L29.13 9.94 L30.00 9.76 L30.87 8.72 L31.73 6.48 L32.60 5.05 L33.47 4.01 L34.33 4.08 L35.20 4.09 L36.07 4.00 L36.93 4.86 L37.80 6.12 L38.67 7.40 L39.53 7.36 L40.40 6.30 L41.27 6.58 L42.13 6.73 L43.00 7.56 L43.87 7.97 L44.73 8.60 L45.60 9.27 L46.47 10.26 L47.33 10.36 L48.20 10.84 L49.07 10.78 L49.93 11.52 L50.80 11.83 L51.67 12.22 L52.53 11.66 L53.40 11.20 L54.27 11.31 L55.13 11.34  L55.13 28.00 " /><path stroke="#4285F4" stroke-width="1" fill="none" d="M4.00 10.45  L4.00 10.45 L4.87 10.43 L5.73 9.74 L6.60 9.63 L7.47 9.46 L8.33 9.35 L9.20 8.40 L10.07 8.33 L10.93 7.65 L11.80 7.25 L12.67 7.54 L13.53 8.00 L14.40 7.84 L15.27 8.94 L16.13 8.00 L17.00 8.05 L17.87 7.60 L18.73 7.13 L19.60 6.56 L20.47 6.66 L21.33 6.27 L22.20 6.75 L23.07 7.07 L23.93 7.95 L24.80 7.34 L25.67 8.24 L26.53 8.04 L27.40 9.34 L28.27 10.00 L29.13 9.94 L30.00 9.76 L30.87 8.72 L31.73 6.48 L32.60 5.05 L33.47 4.01 L34.33 4.08 L35.20 4.09 L36.07 4.00 L36.93 4.86 L37.80 6.12 L38.67 7.40 L39.53 7.36 L40.40 6.30 L41.27 6.58 L42.13 6.73 L43.00 7.56 L43.87 7.97 L44.73 8.60 L45.60 9.27 L46.47 10.26 L47.33 10.36 L48.20 10.84 L49.07 10.78 L49.93 11.52 L50.80 11.83 L51.67 12.22 L52.53 11.66 L53.40 11.20 L54.27 11.31 L55.13 11.34 " /></svg>