<svg width="60" height="28" xmlns="http://www.w3.org/2000/svg"><path stroke="none" fill="#E8F0FE" d="M4.00 28.00 L4.00 22.86  L4.00 22.86 L4.87 22.80 L5.73 22.74 L6.60 22.86 L7.47 22.04 L8.33 21.92 L9.20 21.92 L10.07 22.17 L10.93 21.41 L11.80 20.28 L12.67 17.56 L13.53 17.00 L14.40 17.31 L15.27 15.29 L16.13 15.55 L17.00 16.11 L17.87 17.44 L18.73 19.52 L19.60 18.64 L20.47 19.14 L21.33 21.22 L22.20 18.89 L23.07 18.51 L23.93 14.79 L24.80 15.42 L25.67 15.55 L26.53 14.28 L27.40 14.28 L28.27 8.54 L29.13 6.02 L30.00 8.79 L30.87 6.59 L31.73 6.59 L32.60 5.89 L33.47 4.00 L34.33 12.08 L35.20 14.03 L36.07 14.09 L36.93 16.30 L37.80 17.63 L38.67 19.08 L39.53 20.97 L40.40 20.97 L41.27 22.17 L42.13 23.05 L43.00 23.05 L43.87 24.00 L44.73 28.29 L45.60 27.09 L46.47 25.64 L47.33 25.14 L48.20 24.13 L49.07 23.37 L49.93 23.37 L50.80 19.08 L51.67 17.94 L52.53 18.20 L53.40 18.45 L54.27 18.89 L55.13 19.08  L55.13 28.00 " /><path stroke="#4285F4" stroke-width="1" fill="none" d="M4.00 22.86  L4.00 22.86 L4.87 22.80 L5.73 22.74 L6.60 22.86 L7.47 22.04 L8.33 21.92 L9.20 21.92 L10.07 22.17 L10.93 21.41 L11.80 20.28 L12.67 17.56 L13.53 17.00 L14.40 17.31 L15.27 15.29 L16.13 15.55 L17.00 16.11 L17.87 17.44 L18.73 19.52 L19.60 18.64 L20.47 19.14 L21.33 21.22 L22.20 18.89 L23.07 18.51 L23.93 14.79 L24.80 15.42 L25.67 15.55 L26.53 14.28 L27.40 14.28 L28.27 8.54 L29.13 6.02 L30.00 8.79 L30.87 6.59 L31.73 6.59 L32.60 5.89 L33.47 4.00 L34.33 12.08 L35.20 14.03 L36.07 14.09 L36.93 16.30 L37.80 17.63 L38.67 19.08 L39.53 20.97 L40.40 20.97 L41.27 22.17 L42.13 23.05 L43.00 23.05 L43.87 24.00 L44.73 28.29 L45.60 27.09 L46.47 25.64 L47.33 25.14 L48.20 24.13 L49.07 23.37 L49.93 23.37 L50.80 19.08 L51.67 17.94 L52.53 18.20 L53.40 18.45 L54.27 18.89 L55.13 19.08 " /></svg>