<svg width="60" height="28" xmlns="http://www.w3.org/2000/svg"><path stroke="none" fill="#E8F0FE" d="M4.00 28.00 L4.00 20.70  L4.00 20.70 L4.87 21.49 L5.73 19.27 L6.60 17.53 L7.47 17.24 L8.33 17.24 L9.20 14.98 L10.07 14.34 L10.93 11.42 L11.80 11.56 L12.67 11.79 L13.53 10.34 L14.40 10.34 L15.27 10.94 L16.13 10.76 L17.00 12.33 L17.87 14.40 L18.73 13.24 L19.60 11.27 L20.47 11.27 L21.33 9.43 L22.20 8.75 L23.07 8.41 L23.93 6.09 L24.80 5.66 L25.67 9.93 L26.53 9.06 L27.40 13.22 L28.27 12.29 L29.13 11.92 L30.00 13.14 L30.87 13.89 L31.73 13.89 L32.60 14.76 L33.47 14.76 L34.33 13.82 L35.20 15.88 L36.07 13.47 L36.93 16.50 L37.80 16.50 L38.67 16.50 L39.53 4.68 L40.40 7.01 L41.27 4.62 L42.13 5.82 L43.00 5.82 L43.87 4.00 L44.73 4.00 L45.60 9.37 L46.47 8.77 L47.33 8.93 L48.20 8.52 L49.07 5.99 L49.93 7.81 L50.80 7.81 L51.67 10.42 L52.53 12.70 L53.40 14.92 L54.27 15.17 L55.13 17.70  L55.13 28.00 " /><path stroke="#4285F4" stroke-width="1" fill="none" d="M4.00 20.70  L4.00 20.70 L4.87 21.49 L5.73 19.27 L6.60 17.53 L7.47 17.24 L8.33 17.24 L9.20 14.98 L10.07 14.34 L10.93 11.42 L11.80 11.56 L12.67 11.79 L13.53 10.34 L14.40 10.34 L15.27 10.94 L16.13 10.76 L17.00 12.33 L17.87 14.40 L18.73 13.24 L19.60 11.27 L20.47 11.27 L21.33 9.43 L22.20 8.75 L23.07 8.41 L23.93 6.09 L24.80 5.66 L25.67 9.93 L26.53 9.06 L27.40 13.22 L28.27 12.29 L29.13 11.92 L30.00 13.14 L30.87 13.89 L31.73 13.89 L32.60 14.76 L33.47 14.76 L34.33 13.82 L35.20 15.88 L36.07 13.47 L36.93 16.50 L37.80 16.50 L38.67 16.50 L39.53 4.68 L40.40 7.01 L41.27 4.62 L42.13 5.82 L43.00 5.82 L43.87 4.00 L44.73 4.00 L45.60 9.37 L46.47 8.77 L47.33 8.93 L48.20 8.52 L49.07 5.99 L49.93 7.81 L50.80 7.81 L51.67 10.42 L52.53 12.70 L53.40 14.92 L54.27 15.17 L55.13 17.70 " /></svg>