<svg width="60" height="28" xmlns="http://www.w3.org/2000/svg"><path stroke="none" fill="#E8F0FE" d="M4.00 28.00 L4.00 18.28  L4.00 18.28 L4.87 18.30 L5.73 18.51 L6.60 17.99 L7.47 17.91 L8.33 18.26 L9.20 18.26 L10.07 17.57 L10.93 17.08 L11.80 16.75 L12.67 16.75 L13.53 16.54 L14.40 15.97 L15.27 15.97 L16.13 15.96 L17.00 15.09 L17.87 14.78 L18.73 13.88 L19.60 13.80 L20.47 13.84 L21.33 13.99 L22.20 14.01 L23.07 14.62 L23.93 14.53 L24.80 15.37 L25.67 14.99 L26.53 15.02 L27.40 14.60 L28.27 14.61 L29.13 14.83 L30.00 14.77 L30.87 13.84 L31.73 13.90 L32.60 13.08 L33.47 12.15 L34.33 10.96 L35.20 10.12 L36.07 9.24 L36.93 9.20 L37.80 8.80 L38.67 8.44 L39.53 8.30 L40.40 8.75 L41.27 7.99 L42.13 8.14 L43.00 7.69 L43.87 7.68 L44.73 7.81 L45.60 7.93 L46.47 7.76 L47.33 8.08 L48.20 7.66 L49.07 7.32 L49.93 6.60 L50.80 6.32 L51.67 5.80 L52.53 5.22 L53.40 4.26 L54.27 4.13 L55.13 4.00  L55.13 28.00 " /><path stroke="#4285F4" stroke-width="1" fill="none" d="M4.00 18.28  L4.00 18.28 L4.87 18.30 L5.73 18.51 L6.60 17.99 L7.47 17.91 L8.33 18.26 L9.20 18.26 L10.07 17.57 L10.93 17.08 L11.80 16.75 L12.67 16.75 L13.53 16.54 L14.40 15.97 L15.27 15.97 L16.13 15.96 L17.00 15.09 L17.87 14.78 L18.73 13.88 L19.60 13.80 L20.47 13.84 L21.33 13.99 L22.20 14.01 L23.07 14.62 L23.93 14.53 L24.80 15.37 L25.67 14.99 L26.53 15.02 L27.40 14.60 L28.27 14.61 L29.13 14.83 L30.00 14.77 L30.87 13.84 L31.73 13.90 L32.60 13.08 L33.47 12.15 L34.33 10.96 L35.20 10.12 L36.07 9.24 L36.93 9.20 L37.80 8.80 L38.67 8.44 L39.53 8.30 L40.40 8.75 L41.27 7.99 L42.13 8.14 L43.00 7.69 L43.87 7.68 L44.73 7.81 L45.60 7.93 L46.47 7.76 L47.33 8.08 L48.20 7.66 L49.07 7.32 L49.93 6.60 L50.80 6.32 L51.67 5.80 L52.53 5.22 L53.40 4.26 L54.27 4.13 L55.13 4.00 " /></svg>