<svg width="60" height="28" xmlns="http://www.w3.org/2000/svg"><path stroke="none" fill="#E8F0FE" d="M4.00 28.00 L4.00 6.61  L4.00 6.61 L4.87 9.22 L5.73 9.22 L6.60 7.19 L7.47 6.90 L8.33 6.61 L9.20 9.51 L10.07 8.35 L10.93 9.22 L11.80 8.64 L12.67 11.83 L13.53 4.58 L14.40 4.00 L15.27 5.74 L16.13 6.03 L17.00 5.16 L17.87 5.74 L18.73 6.61 L19.60 9.80 L20.47 12.70 L21.33 12.41 L22.20 12.12 L23.07 12.12 L23.93 13.57 L24.80 14.14 L25.67 18.49 L26.53 18.49 L27.40 17.62 L28.27 16.46 L29.13 17.62 L30.00 17.91 L30.87 18.78 L31.73 17.91 L32.60 17.62 L33.47 19.07 L34.33 21.10 L35.20 20.23 L36.07 20.52 L36.93 19.94 L37.80 20.81 L38.67 21.39 L39.53 21.39 L40.40 21.39 L41.27 20.52 L42.13 19.94 L43.00 19.94 L43.87 19.94 L44.73 19.94 L45.60 19.94 L46.47 20.23 L47.33 21.97 L48.20 23.13 L49.07 23.42 L49.93 22.84 L50.80 22.55 L51.67 22.26 L52.53 21.97 L53.40 21.10 L54.27 20.81 L55.13 21.10  L55.13 28.00 " /><path stroke="#4285F4" stroke-width="1" fill="none" d="M4.00 6.61  L4.00 6.61 L4.87 9.22 L5.73 9.22 L6.60 7.19 L7.47 6.90 L8.33 6.61 L9.20 9.51 L10.07 8.35 L10.93 9.22 L11.80 8.64 L12.67 11.83 L13.53 4.58 L14.40 4.00 L15.27 5.74 L16.13 6.03 L17.00 5.16 L17.87 5.74 L18.73 6.61 L19.60 9.80 L20.47 12.70 L21.33 12.41 L22.20 12.12 L23.07 12.12 L23.93 13.57 L24.80 14.14 L25.67 18.49 L26.53 18.49 L27.40 17.62 L28.27 16.46 L29.13 17.62 L30.00 17.91 L30.87 18.78 L31.73 17.91 L32.60 17.62 L33.47 19.07 L34.33 21.10 L35.20 20.23 L36.07 20.52 L36.93 19.94 L37.80 20.81 L38.67 21.39 L39.53 21.39 L40.40 21.39 L41.27 20.52 L42.13 19.94 L43.00 19.94 L43.87 19.94 L44.73 19.94 L45.60 19.94 L46.47 20.23 L47.33 21.97 L48.20 23.13 L49.07 23.42 L49.93 22.84 L50.80 22.55 L51.67 22.26 L52.53 21.97 L53.40 21.10 L54.27 20.81 L55.13 21.10 " /></svg>