<svg width="60" height="28" xmlns="http://www.w3.org/2000/svg"><path stroke="none" fill="#E8F0FE" d="M4.00 28.00 L4.00 23.86  L4.00 23.86 L4.87 23.85 L5.73 23.86 L6.60 23.85 L7.47 23.85 L8.33 23.82 L9.20 23.79 L10.07 23.64 L10.93 23.41 L11.80 23.34 L12.67 23.27 L13.53 23.27 L14.40 23.12 L15.27 23.10 L16.13 22.99 L17.00 23.10 L17.87 23.01 L18.73 22.87 L19.60 22.45 L20.47 22.31 L21.33 22.04 L22.20 21.97 L23.07 21.79 L23.93 21.77 L24.80 21.66 L25.67 21.98 L26.53 21.99 L27.40 22.17 L28.27 22.29 L29.13 22.35 L30.00 22.09 L30.87 21.77 L31.73 21.38 L32.60 21.28 L33.47 20.98 L34.33 20.08 L35.20 19.74 L36.07 18.64 L36.93 17.84 L37.80 17.32 L38.67 16.95 L39.53 16.35 L40.40 15.87 L41.27 14.07 L42.13 13.07 L43.00 12.17 L43.87 10.00 L44.73 10.64 L45.60 10.16 L46.47 8.60 L47.33 8.95 L48.20 8.64 L49.07 8.68 L49.93 9.95 L50.80 5.87 L51.67 4.56 L52.53 4.58 L53.40 4.56 L54.27 6.26 L55.13 4.00  L55.13 28.00 " /><path stroke="#4285F4" stroke-width="1" fill="none" d="M4.00 23.86  L4.00 23.86 L4.87 23.85 L5.73 23.86 L6.60 23.85 L7.47 23.85 L8.33 23.82 L9.20 23.79 L10.07 23.64 L10.93 23.41 L11.80 23.34 L12.67 23.27 L13.53 23.27 L14.40 23.12 L15.27 23.10 L16.13 22.99 L17.00 23.10 L17.87 23.01 L18.73 22.87 L19.60 22.45 L20.47 22.31 L21.33 22.04 L22.20 21.97 L23.07 21.79 L23.93 21.77 L24.80 21.66 L25.67 21.98 L26.53 21.99 L27.40 22.17 L28.27 22.29 L29.13 22.35 L30.00 22.09 L30.87 21.77 L31.73 21.38 L32.60 21.28 L33.47 20.98 L34.33 20.08 L35.20 19.74 L36.07 18.64 L36.93 17.84 L37.80 17.32 L38.67 16.95 L39.53 16.35 L40.40 15.87 L41.27 14.07 L42.13 13.07 L43.00 12.17 L43.87 10.00 L44.73 10.64 L45.60 10.16 L46.47 8.60 L47.33 8.95 L48.20 8.64 L49.07 8.68 L49.93 9.95 L50.80 5.87 L51.67 4.56 L52.53 4.58 L53.40 4.56 L54.27 6.26 L55.13 4.00 " /></svg>