<svg width="60" height="28" xmlns="http://www.w3.org/2000/svg"><path stroke="none" fill="#E8F0FE" d="M4.00 28.00 L4.00 20.74  L4.00 20.74 L4.87 20.55 L5.73 20.33 L6.60 19.67 L7.47 19.63 L8.33 19.54 L9.20 19.62 L10.07 19.47 L10.93 18.92 L11.80 18.78 L12.67 19.13 L13.53 19.06 L14.40 18.57 L15.27 18.21 L16.13 18.27 L17.00 18.41 L17.87 17.99 L18.73 17.74 L19.60 17.81 L20.47 18.10 L21.33 18.16 L22.20 17.99 L23.07 18.00 L23.93 17.75 L24.80 17.47 L25.67 17.50 L26.53 17.37 L27.40 17.53 L28.27 17.63 L29.13 17.80 L30.00 18.15 L30.87 18.60 L31.73 18.34 L32.60 18.16 L33.47 17.83 L34.33 17.58 L35.20 17.14 L36.07 16.74 L36.93 16.35 L37.80 16.16 L38.67 15.86 L39.53 15.41 L40.40 15.03 L41.27 14.80 L42.13 14.54 L43.00 14.17 L43.87 13.34 L44.73 12.80 L45.60 12.24 L46.47 11.67 L47.33 11.11 L48.20 10.41 L49.07 9.81 L49.93 9.19 L50.80 8.10 L51.67 6.79 L52.53 5.94 L53.40 5.01 L54.27 4.68 L55.13 4.00  L55.13 28.00 " /><path stroke="#4285F4" stroke-width="1" fill="none" d="M4.00 20.74  L4.00 20.74 L4.87 20.55 L5.73 20.33 L6.60 19.67 L7.47 19.63 L8.33 19.54 L9.20 19.62 L10.07 19.47 L10.93 18.92 L11.80 18.78 L12.67 19.13 L13.53 19.06 L14.40 18.57 L15.27 18.21 L16.13 18.27 L17.00 18.41 L17.87 17.99 L18.73 17.74 L19.60 17.81 L20.47 18.10 L21.33 18.16 L22.20 17.99 L23.07 18.00 L23.93 17.75 L24.80 17.47 L25.67 17.50 L26.53 17.37 L27.40 17.53 L28.27 17.63 L29.13 17.80 L30.00 18.15 L30.87 18.60 L31.73 18.34 L32.60 18.16 L33.47 17.83 L34.33 17.58 L35.20 17.14 L36.07 16.74 L36.93 16.35 L37.80 16.16 L38.67 15.86 L39.53 15.41 L40.40 15.03 L41.27 14.80 L42.13 14.54 L43.00 14.17 L43.87 13.34 L44.73 12.80 L45.60 12.24 L46.47 11.67 L47.33 11.11 L48.20 10.41 L49.07 9.81 L49.93 9.19 L50.80 8.10 L51.67 6.79 L52.53 5.94 L53.40 5.01 L54.27 4.68 L55.13 4.00 " /></svg>