<svg width="60" height="28" xmlns="http://www.w3.org/2000/svg"><path stroke="none" fill="#E8F0FE" d="M4.00 28.00 L4.00 13.77  L4.00 13.77 L4.87 13.62 L5.73 13.73 L6.60 13.66 L7.47 13.67 L8.33 13.64 L9.20 13.91 L10.07 14.17 L10.93 14.24 L11.80 14.20 L12.67 14.47 L13.53 14.76 L14.40 15.11 L15.27 15.26 L16.13 15.10 L17.00 15.22 L17.87 15.52 L18.73 15.61 L19.60 15.81 L20.47 15.57 L21.33 15.67 L22.20 15.67 L23.07 15.71 L23.93 15.83 L24.80 15.64 L25.67 15.38 L26.53 15.42 L27.40 14.91 L28.27 14.57 L29.13 14.18 L30.00 13.69 L30.87 13.64 L31.73 13.26 L32.60 13.05 L33.47 12.92 L34.33 12.60 L35.20 12.20 L36.07 11.57 L36.93 11.06 L37.80 10.46 L38.67 9.61 L39.53 8.89 L40.40 8.45 L41.27 7.71 L42.13 7.44 L43.00 7.16 L43.87 7.09 L44.73 6.57 L45.60 6.00 L46.47 5.49 L47.33 4.90 L48.20 4.57 L49.07 4.00 L49.93 4.08 L50.80 4.50 L51.67 5.36 L52.53 5.69 L53.40 6.42 L54.27 6.52 L55.13 6.82  L55.13 28.00 " /><path stroke="#4285F4" stroke-width="1" fill="none" d="M4.00 13.77  L4.00 13.77 L4.87 13.62 L5.73 13.73 L6.60 13.66 L7.47 13.67 L8.33 13.64 L9.20 13.91 L10.07 14.17 L10.93 14.24 L11.80 14.20 L12.67 14.47 L13.53 14.76 L14.40 15.11 L15.27 15.26 L16.13 15.10 L17.00 15.22 L17.87 15.52 L18.73 15.61 L19.60 15.81 L20.47 15.57 L21.33 15.67 L22.20 15.67 L23.07 15.71 L23.93 15.83 L24.80 15.64 L25.67 15.38 L26.53 15.42 L27.40 14.91 L28.27 14.57 L29.13 14.18 L30.00 13.69 L30.87 13.64 L31.73 13.26 L32.60 13.05 L33.47 12.92 L34.33 12.60 L35.20 12.20 L36.07 11.57 L36.93 11.06 L37.80 10.46 L38.67 9.61 L39.53 8.89 L40.40 8.45 L41.27 7.71 L42.13 7.44 L43.00 7.16 L43.87 7.09 L44.73 6.57 L45.60 6.00 L46.47 5.49 L47.33 4.90 L48.20 4.57 L49.07 4.00 L49.93 4.08 L50.80 4.50 L51.67 5.36 L52.53 5.69 L53.40 6.42 L54.27 6.52 L55.13 6.82 " /></svg>