<svg width="60" height="28" xmlns="http://www.w3.org/2000/svg"><path stroke="none" fill="#E8F0FE" d="M4.00 28.00 L4.00 12.63  L4.00 12.63 L4.87 12.00 L5.73 10.95 L6.60 9.89 L7.47 7.37 L8.33 9.05 L9.20 7.79 L10.07 4.84 L10.93 5.05 L11.80 4.00 L12.67 5.05 L13.53 8.42 L14.40 6.53 L15.27 7.79 L16.13 11.37 L17.00 11.37 L17.87 13.89 L18.73 13.05 L19.60 12.63 L20.47 15.37 L21.33 15.16 L22.20 16.00 L23.07 16.63 L23.93 17.47 L24.80 20.21 L25.67 21.26 L26.53 21.26 L27.40 22.53 L28.27 22.32 L29.13 22.74 L30.00 22.32 L30.87 21.68 L31.73 21.05 L32.60 20.84 L33.47 20.84 L34.33 21.05 L35.20 21.26 L36.07 21.68 L36.93 21.47 L37.80 22.32 L38.67 22.53 L39.53 22.53 L40.40 15.16 L41.27 14.32 L42.13 14.32 L43.00 13.89 L43.87 12.00 L44.73 12.21 L45.60 10.11 L46.47 16.63 L47.33 16.42 L48.20 15.79 L49.07 17.05 L49.93 18.95 L50.80 16.00 L51.67 17.89 L52.53 18.95 L53.40 20.00 L54.27 19.37 L55.13 19.16  L55.13 28.00 " /><path stroke="#4285F4" stroke-width="1" fill="none" d="M4.00 12.63  L4.00 12.63 L4.87 12.00 L5.73 10.95 L6.60 9.89 L7.47 7.37 L8.33 9.05 L9.20 7.79 L10.07 4.84 L10.93 5.05 L11.80 4.00 L12.67 5.05 L13.53 8.42 L14.40 6.53 L15.27 7.79 L16.13 11.37 L17.00 11.37 L17.87 13.89 L18.73 13.05 L19.60 12.63 L20.47 15.37 L21.33 15.16 L22.20 16.00 L23.07 16.63 L23.93 17.47 L24.80 20.21 L25.67 21.26 L26.53 21.26 L27.40 22.53 L28.27 22.32 L29.13 22.74 L30.00 22.32 L30.87 21.68 L31.73 21.05 L32.60 20.84 L33.47 20.84 L34.33 21.05 L35.20 21.26 L36.07 21.68 L36.93 21.47 L37.80 22.32 L38.67 22.53 L39.53 22.53 L40.40 15.16 L41.27 14.32 L42.13 14.32 L43.00 13.89 L43.87 12.00 L44.73 12.21 L45.60 10.11 L46.47 16.63 L47.33 16.42 L48.20 15.79 L49.07 17.05 L49.93 18.95 L50.80 16.00 L51.67 17.89 L52.53 18.95 L53.40 20.00 L54.27 19.37 L55.13 19.16 " /></svg>