<svg width="60" height="28" xmlns="http://www.w3.org/2000/svg"><path stroke="none" fill="#E8F0FE" d="M4.00 28.00 L4.00 4.89  L4.00 4.89 L4.87 4.00 L5.73 4.37 L6.60 5.31 L7.47 4.58 L8.33 5.02 L9.20 6.04 L10.07 6.91 L10.93 8.75 L11.80 9.00 L12.67 9.04 L13.53 10.27 L14.40 10.27 L15.27 10.82 L16.13 12.14 L17.00 12.09 L17.87 12.53 L18.73 12.69 L19.60 12.93 L20.47 14.20 L21.33 15.34 L22.20 14.52 L23.07 14.23 L23.93 14.65 L24.80 14.52 L25.67 15.16 L26.53 15.22 L27.40 15.10 L28.27 15.78 L29.13 16.75 L30.00 16.71 L30.87 17.05 L31.73 16.65 L32.60 16.72 L33.47 16.25 L34.33 16.98 L35.20 17.15 L36.07 17.31 L36.93 17.38 L37.80 17.29 L38.67 17.22 L39.53 17.14 L40.40 15.65 L41.27 14.91 L42.13 13.62 L43.00 12.62 L43.87 12.25 L44.73 11.54 L45.60 11.40 L46.47 12.25 L47.33 12.00 L48.20 13.26 L49.07 14.06 L49.93 14.08 L50.80 14.43 L51.67 14.80 L52.53 14.89 L53.40 15.67 L54.27 15.72 L55.13 15.84  L55.13 28.00 " /><path stroke="#4285F4" stroke-width="1" fill="none" d="M4.00 4.89  L4.00 4.89 L4.87 4.00 L5.73 4.37 L6.60 5.31 L7.47 4.58 L8.33 5.02 L9.20 6.04 L10.07 6.91 L10.93 8.75 L11.80 9.00 L12.67 9.04 L13.53 10.27 L14.40 10.27 L15.27 10.82 L16.13 12.14 L17.00 12.09 L17.87 12.53 L18.73 12.69 L19.60 12.93 L20.47 14.20 L21.33 15.34 L22.20 14.52 L23.07 14.23 L23.93 14.65 L24.80 14.52 L25.67 15.16 L26.53 15.22 L27.40 15.10 L28.27 15.78 L29.13 16.75 L30.00 16.71 L30.87 17.05 L31.73 16.65 L32.60 16.72 L33.47 16.25 L34.33 16.98 L35.20 17.15 L36.07 17.31 L36.93 17.38 L37.80 17.29 L38.67 17.22 L39.53 17.14 L40.40 15.65 L41.27 14.91 L42.13 13.62 L43.00 12.62 L43.87 12.25 L44.73 11.54 L45.60 11.40 L46.47 12.25 L47.33 12.00 L48.20 13.26 L49.07 14.06 L49.93 14.08 L50.80 14.43 L51.67 14.80 L52.53 14.89 L53.40 15.67 L54.27 15.72 L55.13 15.84 " /></svg>