<svg width="60" height="28" xmlns="http://www.w3.org/2000/svg"><path stroke="none" fill="#E8F0FE" d="M4.00 28.00 L4.00 17.33  L4.00 17.33 L4.87 17.33 L5.73 17.33 L6.60 20.67 L7.47 20.67 L8.33 14.00 L9.20 17.33 L10.07 17.33 L10.93 14.00 L11.80 14.00 L12.67 14.00 L13.53 14.00 L14.40 17.33 L15.27 10.67 L16.13 10.67 L17.00 7.33 L17.87 7.33 L18.73 7.33 L19.60 7.33 L20.47 4.00 L21.33 10.67 L22.20 10.67 L23.07 17.33 L23.93 17.33 L24.80 17.33 L25.67 17.33 L26.53 24.00 L27.40 24.00 L28.27 24.00 L29.13 24.00 L30.00 24.00 L30.87 24.00 L31.73 24.00 L32.60 24.00 L33.47 24.00 L34.33 24.00 L35.20 10.67 L36.07 10.67 L36.93 10.67 L37.80 10.67 L38.67 10.67 L39.53 7.33 L40.40 7.33 L41.27 20.67 L42.13 20.67 L43.00 20.67 L43.87 20.67 L44.73 20.67 L45.60 24.00 L46.47 24.00 L47.33 24.00 L48.20 24.00 L49.07 24.00 L49.93 24.00 L50.80 24.00 L51.67 24.00 L52.53 24.00 L53.40 24.00 L54.27 24.00 L55.13 24.00  L55.13 28.00 " /><path stroke="#4285F4" stroke-width="1" fill="none" d="M4.00 17.33  L4.00 17.33 L4.87 17.33 L5.73 17.33 L6.60 20.67 L7.47 20.67 L8.33 14.00 L9.20 17.33 L10.07 17.33 L10.93 14.00 L11.80 14.00 L12.67 14.00 L13.53 14.00 L14.40 17.33 L15.27 10.67 L16.13 10.67 L17.00 7.33 L17.87 7.33 L18.73 7.33 L19.60 7.33 L20.47 4.00 L21.33 10.67 L22.20 10.67 L23.07 17.33 L23.93 17.33 L24.80 17.33 L25.67 17.33 L26.53 24.00 L27.40 24.00 L28.27 24.00 L29.13 24.00 L30.00 24.00 L30.87 24.00 L31.73 24.00 L32.60 24.00 L33.47 24.00 L34.33 24.00 L35.20 10.67 L36.07 10.67 L36.93 10.67 L37.80 10.67 L38.67 10.67 L39.53 7.33 L40.40 7.33 L41.27 20.67 L42.13 20.67 L43.00 20.67 L43.87 20.67 L44.73 20.67 L45.60 24.00 L46.47 24.00 L47.33 24.00 L48.20 24.00 L49.07 24.00 L49.93 24.00 L50.80 24.00 L51.67 24.00 L52.53 24.00 L53.40 24.00 L54.27 24.00 L55.13 24.00 " /></svg>