<svg width="60" height="28" xmlns="http://www.w3.org/2000/svg"><path stroke="none" fill="#E8F0FE" d="M4.00 28.00 L4.00 24.00  L4.00 24.00 L4.87 24.00 L5.73 24.00 L6.60 24.00 L7.47 24.00 L8.33 24.00 L9.20 24.00 L10.07 24.00 L10.93 24.00 L11.80 24.00 L12.67 24.00 L13.53 24.00 L14.40 24.00 L15.27 24.00 L16.13 24.00 L17.00 24.00 L17.87 23.84 L18.73 23.76 L19.60 23.68 L20.47 23.60 L21.33 23.60 L22.20 23.60 L23.07 23.52 L23.93 23.68 L24.80 23.68 L25.67 23.76 L26.53 23.76 L27.40 23.68 L28.27 23.68 L29.13 23.76 L30.00 23.76 L30.87 23.84 L31.73 23.52 L32.60 23.60 L33.47 23.52 L34.33 23.52 L35.20 23.52 L36.07 23.52 L36.93 23.52 L37.80 23.76 L38.67 23.76 L39.53 23.92 L40.40 23.76 L41.27 23.76 L42.13 23.35 L43.00 22.87 L43.87 22.87 L44.73 22.15 L45.60 21.50 L46.47 20.94 L47.33 20.61 L48.20 18.92 L49.07 19.40 L49.93 16.74 L50.80 16.34 L51.67 14.32 L52.53 13.44 L53.40 7.15 L54.27 8.60 L55.13 4.00  L55.13 28.00 " /><path stroke="#4285F4" stroke-width="1" fill="none" d="M4.00 24.00  L4.00 24.00 L4.87 24.00 L5.73 24.00 L6.60 24.00 L7.47 24.00 L8.33 24.00 L9.20 24.00 L10.07 24.00 L10.93 24.00 L11.80 24.00 L12.67 24.00 L13.53 24.00 L14.40 24.00 L15.27 24.00 L16.13 24.00 L17.00 24.00 L17.87 23.84 L18.73 23.76 L19.60 23.68 L20.47 23.60 L21.33 23.60 L22.20 23.60 L23.07 23.52 L23.93 23.68 L24.80 23.68 L25.67 23.76 L26.53 23.76 L27.40 23.68 L28.27 23.68 L29.13 23.76 L30.00 23.76 L30.87 23.84 L31.73 23.52 L32.60 23.60 L33.47 23.52 L34.33 23.52 L35.20 23.52 L36.07 23.52 L36.93 23.52 L37.80 23.76 L38.67 23.76 L39.53 23.92 L40.40 23.76 L41.27 23.76 L42.13 23.35 L43.00 22.87 L43.87 22.87 L44.73 22.15 L45.60 21.50 L46.47 20.94 L47.33 20.61 L48.20 18.92 L49.07 19.40 L49.93 16.74 L50.80 16.34 L51.67 14.32 L52.53 13.44 L53.40 7.15 L54.27 8.60 L55.13 4.00 " /></svg>