<svg width="60" height="28" xmlns="http://www.w3.org/2000/svg"><path stroke="none" fill="#E8F0FE" d="M4.00 28.00 L4.00 23.08  L4.00 23.08 L4.87 22.42 L5.73 22.61 L6.60 22.61 L7.47 22.42 L8.33 22.42 L9.20 22.61 L10.07 22.61 L10.93 23.41 L11.80 23.41 L12.67 23.41 L13.53 24.00 L14.40 24.00 L15.27 24.00 L16.13 19.45 L17.00 19.45 L17.87 19.45 L18.73 19.45 L19.60 19.45 L20.47 17.66 L21.33 17.66 L22.20 22.22 L23.07 22.22 L23.93 22.22 L24.80 22.22 L25.67 22.22 L26.53 20.24 L27.40 20.24 L28.27 20.24 L29.13 20.24 L30.00 20.24 L30.87 20.24 L31.73 13.31 L32.60 17.07 L33.47 17.07 L34.33 17.07 L35.20 4.20 L36.07 4.20 L36.93 4.00 L37.80 8.36 L38.67 8.36 L39.53 8.36 L40.40 4.20 L41.27 17.07 L42.13 14.50 L43.00 14.69 L43.87 9.94 L44.73 9.94 L45.60 9.94 L46.47 10.53 L47.33 10.53 L48.20 11.72 L49.07 11.72 L49.93 19.05 L50.80 14.89 L51.67 14.89 L52.53 16.48 L53.40 16.48 L54.27 17.86 L55.13 16.67  L55.13 28.00 " /><path stroke="#4285F4" stroke-width="1" fill="none" d="M4.00 23.08  L4.00 23.08 L4.87 22.42 L5.73 22.61 L6.60 22.61 L7.47 22.42 L8.33 22.42 L9.20 22.61 L10.07 22.61 L10.93 23.41 L11.80 23.41 L12.67 23.41 L13.53 24.00 L14.40 24.00 L15.27 24.00 L16.13 19.45 L17.00 19.45 L17.87 19.45 L18.73 19.45 L19.60 19.45 L20.47 17.66 L21.33 17.66 L22.20 22.22 L23.07 22.22 L23.93 22.22 L24.80 22.22 L25.67 22.22 L26.53 20.24 L27.40 20.24 L28.27 20.24 L29.13 20.24 L30.00 20.24 L30.87 20.24 L31.73 13.31 L32.60 17.07 L33.47 17.07 L34.33 17.07 L35.20 4.20 L36.07 4.20 L36.93 4.00 L37.80 8.36 L38.67 8.36 L39.53 8.36 L40.40 4.20 L41.27 17.07 L42.13 14.50 L43.00 14.69 L43.87 9.94 L44.73 9.94 L45.60 9.94 L46.47 10.53 L47.33 10.53 L48.20 11.72 L49.07 11.72 L49.93 19.05 L50.80 14.89 L51.67 14.89 L52.53 16.48 L53.40 16.48 L54.27 17.86 L55.13 16.67 " /></svg>