<svg width="60" height="28" xmlns="http://www.w3.org/2000/svg"><path stroke="none" fill="#E8F0FE" d="M4.00 28.00 L4.00 17.33  L4.00 17.33 L4.87 19.24 L5.73 17.33 L6.60 14.48 L7.47 14.48 L8.33 11.62 L9.20 12.57 L10.07 12.57 L10.93 10.67 L11.80 11.62 L12.67 13.52 L13.53 11.62 L14.40 17.33 L15.27 14.48 L16.13 15.43 L17.00 16.38 L17.87 15.43 L18.73 16.38 L19.60 15.43 L20.47 15.43 L21.33 14.48 L22.20 11.62 L23.07 11.62 L23.93 8.76 L24.80 4.00 L25.67 5.90 L26.53 5.90 L27.40 7.81 L28.27 6.86 L29.13 6.86 L30.00 10.67 L30.87 14.48 L31.73 15.43 L32.60 15.43 L33.47 16.38 L34.33 20.19 L35.20 16.38 L36.07 16.38 L36.93 16.38 L37.80 15.43 L38.67 9.71 L39.53 9.71 L40.40 10.67 L41.27 13.52 L42.13 9.71 L43.00 8.76 L43.87 8.76 L44.73 13.52 L45.60 13.52 L46.47 12.57 L47.33 13.52 L48.20 10.67 L49.07 11.62 L49.93 9.71 L50.80 9.71 L51.67 9.71 L52.53 5.90 L53.40 4.95 L54.27 9.71 L55.13 8.76  L55.13 28.00 " /><path stroke="#4285F4" stroke-width="1" fill="none" d="M4.00 17.33  L4.00 17.33 L4.87 19.24 L5.73 17.33 L6.60 14.48 L7.47 14.48 L8.33 11.62 L9.20 12.57 L10.07 12.57 L10.93 10.67 L11.80 11.62 L12.67 13.52 L13.53 11.62 L14.40 17.33 L15.27 14.48 L16.13 15.43 L17.00 16.38 L17.87 15.43 L18.73 16.38 L19.60 15.43 L20.47 15.43 L21.33 14.48 L22.20 11.62 L23.07 11.62 L23.93 8.76 L24.80 4.00 L25.67 5.90 L26.53 5.90 L27.40 7.81 L28.27 6.86 L29.13 6.86 L30.00 10.67 L30.87 14.48 L31.73 15.43 L32.60 15.43 L33.47 16.38 L34.33 20.19 L35.20 16.38 L36.07 16.38 L36.93 16.38 L37.80 15.43 L38.67 9.71 L39.53 9.71 L40.40 10.67 L41.27 13.52 L42.13 9.71 L43.00 8.76 L43.87 8.76 L44.73 13.52 L45.60 13.52 L46.47 12.57 L47.33 13.52 L48.20 10.67 L49.07 11.62 L49.93 9.71 L50.80 9.71 L51.67 9.71 L52.53 5.90 L53.40 4.95 L54.27 9.71 L55.13 8.76 " /></svg>