<svg width="60" height="28" xmlns="http://www.w3.org/2000/svg"><path stroke="none" fill="#E8F0FE" d="M4.00 28.00 L4.00 19.89  L4.00 19.89 L4.87 20.63 L5.73 20.83 L6.60 22.56 L7.47 22.11 L8.33 20.32 L9.20 20.32 L10.07 20.89 L10.93 20.08 L11.80 18.95 L12.67 18.27 L13.53 18.78 L14.40 20.57 L15.27 17.04 L16.13 17.84 L17.00 17.16 L17.87 14.22 L18.73 14.08 L19.60 14.08 L20.47 14.08 L21.33 14.02 L22.20 10.02 L23.07 11.51 L23.93 15.58 L24.80 16.40 L25.67 14.77 L26.53 12.97 L27.40 12.95 L28.27 15.58 L29.13 14.35 L30.00 14.08 L30.87 9.66 L31.73 9.78 L32.60 9.66 L33.47 11.81 L34.33 11.34 L35.20 9.86 L36.07 10.13 L36.93 14.10 L37.80 15.61 L38.67 11.45 L39.53 10.77 L40.40 12.62 L41.27 15.33 L42.13 15.33 L43.00 10.11 L43.87 10.11 L44.73 11.47 L45.60 9.13 L46.47 8.04 L47.33 6.36 L48.20 4.00 L49.07 9.67 L49.93 9.67 L50.80 14.39 L51.67 18.87 L52.53 19.96 L53.40 21.64 L54.27 24.00 L55.13 24.00  L55.13 28.00 " /><path stroke="#4285F4" stroke-width="1" fill="none" d="M4.00 19.89  L4.00 19.89 L4.87 20.63 L5.73 20.83 L6.60 22.56 L7.47 22.11 L8.33 20.32 L9.20 20.32 L10.07 20.89 L10.93 20.08 L11.80 18.95 L12.67 18.27 L13.53 18.78 L14.40 20.57 L15.27 17.04 L16.13 17.84 L17.00 17.16 L17.87 14.22 L18.73 14.08 L19.60 14.08 L20.47 14.08 L21.33 14.02 L22.20 10.02 L23.07 11.51 L23.93 15.58 L24.80 16.40 L25.67 14.77 L26.53 12.97 L27.40 12.95 L28.27 15.58 L29.13 14.35 L30.00 14.08 L30.87 9.66 L31.73 9.78 L32.60 9.66 L33.47 11.81 L34.33 11.34 L35.20 9.86 L36.07 10.13 L36.93 14.10 L37.80 15.61 L38.67 11.45 L39.53 10.77 L40.40 12.62 L41.27 15.33 L42.13 15.33 L43.00 10.11 L43.87 10.11 L44.73 11.47 L45.60 9.13 L46.47 8.04 L47.33 6.36 L48.20 4.00 L49.07 9.67 L49.93 9.67 L50.80 14.39 L51.67 18.87 L52.53 19.96 L53.40 21.64 L54.27 24.00 L55.13 24.00 " /></svg>