<svg width="60" height="28" xmlns="http://www.w3.org/2000/svg"><path stroke="none" fill="#E8F0FE" d="M4.00 28.00 L4.00 4.00  L4.00 4.00 L4.87 4.01 L5.73 4.79 L6.60 5.26 L7.47 5.55 L8.33 6.52 L9.20 16.01 L10.07 15.93 L10.93 16.19 L11.80 16.37 L12.67 16.46 L13.53 16.35 L14.40 16.88 L15.27 17.12 L16.13 17.80 L17.00 18.14 L17.87 18.49 L18.73 18.48 L19.60 18.95 L20.47 19.56 L21.33 20.08 L22.20 12.47 L23.07 12.02 L23.93 8.06 L24.80 7.92 L25.67 7.99 L26.53 10.69 L27.40 10.23 L28.27 16.83 L29.13 16.78 L30.00 19.96 L30.87 19.44 L31.73 19.83 L32.60 16.84 L33.47 16.67 L34.33 17.48 L35.20 17.45 L36.07 17.80 L36.93 17.76 L37.80 17.88 L38.67 18.15 L39.53 18.37 L40.40 18.77 L41.27 18.72 L42.13 18.65 L43.00 19.42 L43.87 18.72 L44.73 18.37 L45.60 19.59 L46.47 20.11 L47.33 18.87 L48.20 19.94 L49.07 19.96 L49.93 18.81 L50.80 19.07 L51.67 17.08 L52.53 15.86 L53.40 17.44 L54.27 17.44 L55.13 17.44  L55.13 28.00 " /><path stroke="#4285F4" stroke-width="1" fill="none" d="M4.00 4.00  L4.00 4.00 L4.87 4.01 L5.73 4.79 L6.60 5.26 L7.47 5.55 L8.33 6.52 L9.20 16.01 L10.07 15.93 L10.93 16.19 L11.80 16.37 L12.67 16.46 L13.53 16.35 L14.40 16.88 L15.27 17.12 L16.13 17.80 L17.00 18.14 L17.87 18.49 L18.73 18.48 L19.60 18.95 L20.47 19.56 L21.33 20.08 L22.20 12.47 L23.07 12.02 L23.93 8.06 L24.80 7.92 L25.67 7.99 L26.53 10.69 L27.40 10.23 L28.27 16.83 L29.13 16.78 L30.00 19.96 L30.87 19.44 L31.73 19.83 L32.60 16.84 L33.47 16.67 L34.33 17.48 L35.20 17.45 L36.07 17.80 L36.93 17.76 L37.80 17.88 L38.67 18.15 L39.53 18.37 L40.40 18.77 L41.27 18.72 L42.13 18.65 L43.00 19.42 L43.87 18.72 L44.73 18.37 L45.60 19.59 L46.47 20.11 L47.33 18.87 L48.20 19.94 L49.07 19.96 L49.93 18.81 L50.80 19.07 L51.67 17.08 L52.53 15.86 L53.40 17.44 L54.27 17.44 L55.13 17.44 " /></svg>