<svg width="60" height="28" xmlns="http://www.w3.org/2000/svg"><path stroke="none" fill="#E8F0FE" d="M4.00 28.00 L4.00 21.28  L4.00 21.28 L4.87 21.28 L5.73 20.08 L6.60 21.59 L7.47 20.78 L8.33 20.98 L9.20 20.38 L10.07 21.28 L10.93 21.10 L11.80 22.79 L12.67 22.79 L13.53 22.99 L14.40 22.99 L15.27 22.79 L16.13 22.79 L17.00 22.28 L17.87 21.93 L18.73 21.76 L19.60 20.38 L20.47 20.55 L21.33 20.90 L22.20 20.72 L23.07 21.24 L23.93 20.38 L24.80 20.03 L25.67 21.07 L26.53 21.24 L27.40 21.24 L28.27 21.41 L29.13 21.93 L30.00 23.14 L30.87 23.31 L31.73 23.14 L32.60 22.97 L33.47 22.28 L34.33 19.34 L35.20 18.48 L36.07 16.41 L36.93 15.38 L37.80 15.55 L38.67 15.38 L39.53 15.03 L40.40 16.76 L41.27 15.72 L42.13 16.76 L43.00 17.45 L43.87 16.59 L44.73 16.41 L45.60 16.93 L46.47 16.76 L47.33 16.07 L48.20 17.10 L49.07 9.69 L49.93 9.52 L50.80 8.48 L51.67 7.62 L52.53 7.79 L53.40 6.24 L54.27 4.00 L55.13 9.00  L55.13 28.00 " /><path stroke="#4285F4" stroke-width="1" fill="none" d="M4.00 21.28  L4.00 21.28 L4.87 21.28 L5.73 20.08 L6.60 21.59 L7.47 20.78 L8.33 20.98 L9.20 20.38 L10.07 21.28 L10.93 21.10 L11.80 22.79 L12.67 22.79 L13.53 22.99 L14.40 22.99 L15.27 22.79 L16.13 22.79 L17.00 22.28 L17.87 21.93 L18.73 21.76 L19.60 20.38 L20.47 20.55 L21.33 20.90 L22.20 20.72 L23.07 21.24 L23.93 20.38 L24.80 20.03 L25.67 21.07 L26.53 21.24 L27.40 21.24 L28.27 21.41 L29.13 21.93 L30.00 23.14 L30.87 23.31 L31.73 23.14 L32.60 22.97 L33.47 22.28 L34.33 19.34 L35.20 18.48 L36.07 16.41 L36.93 15.38 L37.80 15.55 L38.67 15.38 L39.53 15.03 L40.40 16.76 L41.27 15.72 L42.13 16.76 L43.00 17.45 L43.87 16.59 L44.73 16.41 L45.60 16.93 L46.47 16.76 L47.33 16.07 L48.20 17.10 L49.07 9.69 L49.93 9.52 L50.80 8.48 L51.67 7.62 L52.53 7.79 L53.40 6.24 L54.27 4.00 L55.13 9.00 " /></svg>