<svg width="60" height="28" xmlns="http://www.w3.org/2000/svg"><path stroke="none" fill="#E8F0FE" d="M4.00 28.00 L4.00 23.13  L4.00 23.13 L4.87 21.97 L5.73 22.55 L6.60 22.55 L7.47 21.68 L8.33 21.97 L9.20 21.97 L10.07 21.10 L10.93 21.97 L11.80 21.68 L12.67 21.68 L13.53 21.68 L14.40 21.68 L15.27 21.68 L16.13 22.55 L17.00 20.52 L17.87 20.23 L18.73 20.23 L19.60 21.10 L20.47 21.10 L21.33 21.10 L22.20 20.81 L23.07 23.13 L23.93 19.94 L24.80 19.07 L25.67 18.49 L26.53 17.62 L27.40 15.88 L28.27 16.17 L29.13 14.43 L30.00 17.33 L30.87 17.33 L31.73 17.62 L32.60 18.20 L33.47 19.94 L34.33 19.94 L35.20 21.68 L36.07 22.26 L36.93 22.84 L37.80 23.13 L38.67 22.55 L39.53 22.55 L40.40 20.23 L41.27 19.07 L42.13 18.49 L43.00 18.49 L43.87 17.62 L44.73 9.80 L45.60 5.16 L46.47 6.90 L47.33 4.00 L48.20 4.00 L49.07 4.00 L49.93 4.29 L50.80 11.83 L51.67 15.88 L52.53 8.35 L53.40 9.80 L54.27 9.22 L55.13 6.32  L55.13 28.00 " /><path stroke="#4285F4" stroke-width="1" fill="none" d="M4.00 23.13  L4.00 23.13 L4.87 21.97 L5.73 22.55 L6.60 22.55 L7.47 21.68 L8.33 21.97 L9.20 21.97 L10.07 21.10 L10.93 21.97 L11.80 21.68 L12.67 21.68 L13.53 21.68 L14.40 21.68 L15.27 21.68 L16.13 22.55 L17.00 20.52 L17.87 20.23 L18.73 20.23 L19.60 21.10 L20.47 21.10 L21.33 21.10 L22.20 20.81 L23.07 23.13 L23.93 19.94 L24.80 19.07 L25.67 18.49 L26.53 17.62 L27.40 15.88 L28.27 16.17 L29.13 14.43 L30.00 17.33 L30.87 17.33 L31.73 17.62 L32.60 18.20 L33.47 19.94 L34.33 19.94 L35.20 21.68 L36.07 22.26 L36.93 22.84 L37.80 23.13 L38.67 22.55 L39.53 22.55 L40.40 20.23 L41.27 19.07 L42.13 18.49 L43.00 18.49 L43.87 17.62 L44.73 9.80 L45.60 5.16 L46.47 6.90 L47.33 4.00 L48.20 4.00 L49.07 4.00 L49.93 4.29 L50.80 11.83 L51.67 15.88 L52.53 8.35 L53.40 9.80 L54.27 9.22 L55.13 6.32 " /></svg>