<svg width="60" height="28" xmlns="http://www.w3.org/2000/svg"><path stroke="none" fill="#E8F0FE" d="M4.00 28.00 L4.00 22.55  L4.00 22.55 L4.87 22.59 L5.73 22.47 L6.60 22.29 L7.47 22.09 L8.33 21.84 L9.20 21.73 L10.07 21.43 L10.93 20.81 L11.80 20.51 L12.67 19.84 L13.53 19.88 L14.40 19.84 L15.27 19.51 L16.13 19.34 L17.00 19.32 L17.87 19.00 L18.73 18.87 L19.60 18.05 L20.47 18.49 L21.33 18.36 L22.20 18.63 L23.07 17.92 L23.93 17.03 L24.80 16.70 L25.67 15.55 L26.53 13.74 L27.40 13.21 L28.27 12.10 L29.13 11.77 L30.00 11.86 L30.87 11.11 L31.73 11.45 L32.60 11.87 L33.47 11.56 L34.33 11.67 L35.20 11.01 L36.07 10.21 L36.93 10.03 L37.80 8.79 L38.67 7.78 L39.53 7.71 L40.40 7.43 L41.27 8.18 L42.13 8.79 L43.00 9.05 L43.87 10.20 L44.73 8.90 L45.60 7.58 L46.47 6.82 L47.33 5.37 L48.20 4.73 L49.07 4.67 L49.93 4.00 L50.80 5.60 L51.67 6.31 L52.53 6.35 L53.40 6.36 L54.27 5.81 L55.13 5.25  L55.13 28.00 " /><path stroke="#4285F4" stroke-width="1" fill="none" d="M4.00 22.55  L4.00 22.55 L4.87 22.59 L5.73 22.47 L6.60 22.29 L7.47 22.09 L8.33 21.84 L9.20 21.73 L10.07 21.43 L10.93 20.81 L11.80 20.51 L12.67 19.84 L13.53 19.88 L14.40 19.84 L15.27 19.51 L16.13 19.34 L17.00 19.32 L17.87 19.00 L18.73 18.87 L19.60 18.05 L20.47 18.49 L21.33 18.36 L22.20 18.63 L23.07 17.92 L23.93 17.03 L24.80 16.70 L25.67 15.55 L26.53 13.74 L27.40 13.21 L28.27 12.10 L29.13 11.77 L30.00 11.86 L30.87 11.11 L31.73 11.45 L32.60 11.87 L33.47 11.56 L34.33 11.67 L35.20 11.01 L36.07 10.21 L36.93 10.03 L37.80 8.79 L38.67 7.78 L39.53 7.71 L40.40 7.43 L41.27 8.18 L42.13 8.79 L43.00 9.05 L43.87 10.20 L44.73 8.90 L45.60 7.58 L46.47 6.82 L47.33 5.37 L48.20 4.73 L49.07 4.67 L49.93 4.00 L50.80 5.60 L51.67 6.31 L52.53 6.35 L53.40 6.36 L54.27 5.81 L55.13 5.25 " /></svg>