<svg width="60" height="28" xmlns="http://www.w3.org/2000/svg"><path stroke="none" fill="#E8F0FE" d="M4.00 28.00 L4.00 14.76  L4.00 14.76 L4.87 14.40 L5.73 13.94 L6.60 13.41 L7.47 13.37 L8.33 13.41 L9.20 13.06 L10.07 13.13 L10.93 13.48 L11.80 13.48 L12.67 13.86 L13.53 13.90 L14.40 13.98 L15.27 14.26 L16.13 13.99 L17.00 14.17 L17.87 14.62 L18.73 14.50 L19.60 14.63 L20.47 14.49 L21.33 14.31 L22.20 14.32 L23.07 13.91 L23.93 13.29 L24.80 13.22 L25.67 13.08 L26.53 12.73 L27.40 12.37 L28.27 11.71 L29.13 11.02 L30.00 10.06 L30.87 9.07 L31.73 8.58 L32.60 8.52 L33.47 8.37 L34.33 7.36 L35.20 6.64 L36.07 6.06 L36.93 5.34 L37.80 5.45 L38.67 5.37 L39.53 4.57 L40.40 4.53 L41.27 4.00 L42.13 4.18 L43.00 5.03 L43.87 5.27 L44.73 5.01 L45.60 4.86 L46.47 4.09 L47.33 4.66 L48.20 4.86 L49.07 4.56 L49.93 4.18 L50.80 4.26 L51.67 5.35 L52.53 8.02 L53.40 9.44 L54.27 12.18 L55.13 12.82  L55.13 28.00 " /><path stroke="#4285F4" stroke-width="1" fill="none" d="M4.00 14.76  L4.00 14.76 L4.87 14.40 L5.73 13.94 L6.60 13.41 L7.47 13.37 L8.33 13.41 L9.20 13.06 L10.07 13.13 L10.93 13.48 L11.80 13.48 L12.67 13.86 L13.53 13.90 L14.40 13.98 L15.27 14.26 L16.13 13.99 L17.00 14.17 L17.87 14.62 L18.73 14.50 L19.60 14.63 L20.47 14.49 L21.33 14.31 L22.20 14.32 L23.07 13.91 L23.93 13.29 L24.80 13.22 L25.67 13.08 L26.53 12.73 L27.40 12.37 L28.27 11.71 L29.13 11.02 L30.00 10.06 L30.87 9.07 L31.73 8.58 L32.60 8.52 L33.47 8.37 L34.33 7.36 L35.20 6.64 L36.07 6.06 L36.93 5.34 L37.80 5.45 L38.67 5.37 L39.53 4.57 L40.40 4.53 L41.27 4.00 L42.13 4.18 L43.00 5.03 L43.87 5.27 L44.73 5.01 L45.60 4.86 L46.47 4.09 L47.33 4.66 L48.20 4.86 L49.07 4.56 L49.93 4.18 L50.80 4.26 L51.67 5.35 L52.53 8.02 L53.40 9.44 L54.27 12.18 L55.13 12.82 " /></svg>