<svg width="60" height="28" xmlns="http://www.w3.org/2000/svg"><path stroke="none" fill="#E8F0FE" d="M4.00 28.00 L4.00 23.78  L4.00 23.78 L4.87 23.77 L5.73 23.77 L6.60 23.73 L7.47 23.81 L8.33 23.68 L9.20 23.28 L10.07 23.23 L10.93 23.21 L11.80 23.12 L12.67 23.08 L13.53 23.01 L14.40 22.71 L15.27 23.01 L16.13 23.02 L17.00 22.89 L17.87 22.67 L18.73 22.38 L19.60 22.36 L20.47 22.36 L21.33 22.02 L22.20 21.55 L23.07 20.88 L23.93 20.28 L24.80 19.64 L25.67 18.83 L26.53 17.97 L27.40 16.92 L28.27 16.45 L29.13 15.50 L30.00 14.92 L30.87 14.21 L31.73 13.98 L32.60 13.58 L33.47 13.40 L34.33 12.98 L35.20 13.43 L36.07 12.52 L36.93 12.79 L37.80 11.66 L38.67 10.92 L39.53 10.62 L40.40 8.98 L41.27 6.73 L42.13 6.85 L43.00 6.54 L43.87 6.56 L44.73 6.11 L45.60 5.27 L46.47 5.04 L47.33 6.31 L48.20 5.41 L49.07 4.22 L49.93 4.00 L50.80 4.32 L51.67 5.50 L52.53 6.29 L53.40 6.08 L54.27 5.29 L55.13 7.01  L55.13 28.00 " /><path stroke="#4285F4" stroke-width="1" fill="none" d="M4.00 23.78  L4.00 23.78 L4.87 23.77 L5.73 23.77 L6.60 23.73 L7.47 23.81 L8.33 23.68 L9.20 23.28 L10.07 23.23 L10.93 23.21 L11.80 23.12 L12.67 23.08 L13.53 23.01 L14.40 22.71 L15.27 23.01 L16.13 23.02 L17.00 22.89 L17.87 22.67 L18.73 22.38 L19.60 22.36 L20.47 22.36 L21.33 22.02 L22.20 21.55 L23.07 20.88 L23.93 20.28 L24.80 19.64 L25.67 18.83 L26.53 17.97 L27.40 16.92 L28.27 16.45 L29.13 15.50 L30.00 14.92 L30.87 14.21 L31.73 13.98 L32.60 13.58 L33.47 13.40 L34.33 12.98 L35.20 13.43 L36.07 12.52 L36.93 12.79 L37.80 11.66 L38.67 10.92 L39.53 10.62 L40.40 8.98 L41.27 6.73 L42.13 6.85 L43.00 6.54 L43.87 6.56 L44.73 6.11 L45.60 5.27 L46.47 5.04 L47.33 6.31 L48.20 5.41 L49.07 4.22 L49.93 4.00 L50.80 4.32 L51.67 5.50 L52.53 6.29 L53.40 6.08 L54.27 5.29 L55.13 7.01 " /></svg>