<svg width="60" height="28" xmlns="http://www.w3.org/2000/svg"><path stroke="none" fill="#E8F0FE" d="M4.00 28.00 L4.00 15.70  L4.00 15.70 L4.87 7.67 L5.73 12.37 L6.60 14.49 L7.47 9.53 L8.33 10.74 L9.20 6.23 L10.07 4.00 L10.93 11.58 L11.80 8.66 L12.67 8.66 L13.53 13.73 L14.40 10.82 L15.27 13.51 L16.13 15.74 L17.00 14.42 L17.87 16.58 L18.73 16.39 L19.60 16.39 L20.47 17.07 L21.33 18.89 L22.20 18.89 L23.07 20.82 L23.93 20.74 L24.80 18.62 L25.67 18.62 L26.53 18.36 L27.40 17.71 L28.27 17.71 L29.13 17.45 L30.00 18.28 L30.87 19.76 L31.73 19.76 L32.60 22.26 L33.47 22.11 L34.33 22.11 L35.20 22.37 L36.07 22.37 L36.93 23.20 L37.80 20.52 L38.67 20.52 L39.53 21.31 L40.40 20.10 L41.27 20.10 L42.13 19.34 L43.00 19.34 L43.87 22.03 L44.73 22.03 L45.60 20.36 L46.47 21.58 L47.33 21.58 L48.20 22.33 L49.07 22.33 L49.93 20.14 L50.80 20.14 L51.67 20.29 L52.53 20.29 L53.40 18.17 L54.27 18.17 L55.13 16.08  L55.13 28.00 " /><path stroke="#4285F4" stroke-width="1" fill="none" d="M4.00 15.70  L4.00 15.70 L4.87 7.67 L5.73 12.37 L6.60 14.49 L7.47 9.53 L8.33 10.74 L9.20 6.23 L10.07 4.00 L10.93 11.58 L11.80 8.66 L12.67 8.66 L13.53 13.73 L14.40 10.82 L15.27 13.51 L16.13 15.74 L17.00 14.42 L17.87 16.58 L18.73 16.39 L19.60 16.39 L20.47 17.07 L21.33 18.89 L22.20 18.89 L23.07 20.82 L23.93 20.74 L24.80 18.62 L25.67 18.62 L26.53 18.36 L27.40 17.71 L28.27 17.71 L29.13 17.45 L30.00 18.28 L30.87 19.76 L31.73 19.76 L32.60 22.26 L33.47 22.11 L34.33 22.11 L35.20 22.37 L36.07 22.37 L36.93 23.20 L37.80 20.52 L38.67 20.52 L39.53 21.31 L40.40 20.10 L41.27 20.10 L42.13 19.34 L43.00 19.34 L43.87 22.03 L44.73 22.03 L45.60 20.36 L46.47 21.58 L47.33 21.58 L48.20 22.33 L49.07 22.33 L49.93 20.14 L50.80 20.14 L51.67 20.29 L52.53 20.29 L53.40 18.17 L54.27 18.17 L55.13 16.08 " /></svg>