<svg width="60" height="28" xmlns="http://www.w3.org/2000/svg"><path stroke="none" fill="#E8F0FE" d="M6.60 28.00 L6.60 24.00  L6.60 24.00 L7.47 21.27 L8.33 20.36 L9.20 21.27 L10.07 19.64 L10.93 18.09 L11.80 18.55 L12.67 17.64 L13.53 17.45 L14.40 17.18 L15.27 14.91 L16.13 18.55 L17.00 22.64 L17.87 24.00 L18.73 19.91 L19.60 19.91 L20.47 19.91 L21.33 19.91 L22.20 14.45 L23.07 14.91 L23.93 15.82 L24.80 15.14 L25.67 15.14 L26.53 11.45 L27.40 11.45 L28.27 11.05 L29.13 12.41 L30.00 10.36 L30.87 9.00 L31.73 4.00 L32.60 7.64 L33.47 13.09 L34.33 15.82 L35.20 14.45 L36.07 16.36 L36.93 17.64 L37.80 20.82 L38.67 20.88 L39.53 20.36 L40.40 20.36 L41.27 21.27 L42.13 20.73 L43.00 19.91 L43.87 22.64 L44.73 22.64 L45.60 22.36 L46.47 22.36 L47.33 22.64 L48.20 23.09 L49.07 20.88 L49.93 20.88 L50.80 20.88 L51.67 21.27 L52.53 21.27 L53.40 21.27 L54.27 20.88 L55.13 23.22  L55.13 28.00 " /><path stroke="#4285F4" stroke-width="1" fill="none" d="M6.60 24.00  L6.60 24.00 L7.47 21.27 L8.33 20.36 L9.20 21.27 L10.07 19.64 L10.93 18.09 L11.80 18.55 L12.67 17.64 L13.53 17.45 L14.40 17.18 L15.27 14.91 L16.13 18.55 L17.00 22.64 L17.87 24.00 L18.73 19.91 L19.60 19.91 L20.47 19.91 L21.33 19.91 L22.20 14.45 L23.07 14.91 L23.93 15.82 L24.80 15.14 L25.67 15.14 L26.53 11.45 L27.40 11.45 L28.27 11.05 L29.13 12.41 L30.00 10.36 L30.87 9.00 L31.73 4.00 L32.60 7.64 L33.47 13.09 L34.33 15.82 L35.20 14.45 L36.07 16.36 L36.93 17.64 L37.80 20.82 L38.67 20.88 L39.53 20.36 L40.40 20.36 L41.27 21.27 L42.13 20.73 L43.00 19.91 L43.87 22.64 L44.73 22.64 L45.60 22.36 L46.47 22.36 L47.33 22.64 L48.20 23.09 L49.07 20.88 L49.93 20.88 L50.80 20.88 L51.67 21.27 L52.53 21.27 L53.40 21.27 L54.27 20.88 L55.13 23.22 " /></svg>