<svg width="60" height="28" xmlns="http://www.w3.org/2000/svg"><path stroke="none" fill="#E8F0FE" d="M4.00 28.00 L4.00 8.84  L4.00 8.84 L4.87 9.48 L5.73 13.68 L6.60 13.68 L7.47 16.58 L8.33 16.58 L9.20 19.48 L10.07 20.77 L10.93 21.74 L11.80 22.06 L12.67 22.39 L13.53 22.39 L14.40 22.39 L15.27 20.45 L16.13 20.13 L17.00 19.81 L17.87 19.48 L18.73 19.81 L19.60 20.45 L20.47 19.48 L21.33 21.42 L22.20 21.74 L23.07 22.06 L23.93 16.90 L24.80 16.58 L25.67 14.97 L26.53 15.61 L27.40 13.35 L28.27 12.71 L29.13 12.39 L30.00 17.87 L30.87 18.84 L31.73 20.45 L32.60 20.77 L33.47 23.03 L34.33 23.68 L35.20 24.00 L36.07 24.00 L36.93 22.06 L37.80 21.74 L38.67 21.10 L39.53 16.58 L40.40 11.74 L41.27 10.77 L42.13 9.48 L43.00 6.90 L43.87 4.00 L44.73 4.32 L45.60 8.19 L46.47 13.03 L47.33 13.68 L48.20 14.32 L49.07 18.19 L49.93 20.13 L50.80 20.13 L51.67 19.81 L52.53 19.16 L53.40 19.16 L54.27 18.84 L55.13 18.52  L55.13 28.00 " /><path stroke="#4285F4" stroke-width="1" fill="none" d="M4.00 8.84  L4.00 8.84 L4.87 9.48 L5.73 13.68 L6.60 13.68 L7.47 16.58 L8.33 16.58 L9.20 19.48 L10.07 20.77 L10.93 21.74 L11.80 22.06 L12.67 22.39 L13.53 22.39 L14.40 22.39 L15.27 20.45 L16.13 20.13 L17.00 19.81 L17.87 19.48 L18.73 19.81 L19.60 20.45 L20.47 19.48 L21.33 21.42 L22.20 21.74 L23.07 22.06 L23.93 16.90 L24.80 16.58 L25.67 14.97 L26.53 15.61 L27.40 13.35 L28.27 12.71 L29.13 12.39 L30.00 17.87 L30.87 18.84 L31.73 20.45 L32.60 20.77 L33.47 23.03 L34.33 23.68 L35.20 24.00 L36.07 24.00 L36.93 22.06 L37.80 21.74 L38.67 21.10 L39.53 16.58 L40.40 11.74 L41.27 10.77 L42.13 9.48 L43.00 6.90 L43.87 4.00 L44.73 4.32 L45.60 8.19 L46.47 13.03 L47.33 13.68 L48.20 14.32 L49.07 18.19 L49.93 20.13 L50.80 20.13 L51.67 19.81 L52.53 19.16 L53.40 19.16 L54.27 18.84 L55.13 18.52 " /></svg>