<svg width="60" height="28" xmlns="http://www.w3.org/2000/svg"><path stroke="none" fill="#E8F0FE" d="M4.00 28.00 L4.00 21.75  L4.00 21.75 L4.87 21.12 L5.73 21.15 L6.60 21.32 L7.47 21.00 L8.33 21.30 L9.20 21.35 L10.07 21.41 L10.93 21.93 L11.80 21.75 L12.67 21.60 L13.53 21.80 L14.40 21.41 L15.27 21.14 L16.13 21.24 L17.00 21.11 L17.87 20.68 L18.73 20.15 L19.60 19.74 L20.47 19.46 L21.33 19.28 L22.20 18.97 L23.07 18.94 L23.93 19.40 L24.80 19.59 L25.67 19.91 L26.53 20.17 L27.40 20.32 L28.27 20.57 L29.13 20.31 L30.00 20.46 L30.87 20.53 L31.73 20.32 L32.60 20.45 L33.47 19.40 L34.33 18.54 L35.20 18.16 L36.07 16.94 L36.93 16.49 L37.80 15.73 L38.67 15.09 L39.53 15.11 L40.40 14.40 L41.27 13.97 L42.13 13.79 L43.00 11.60 L43.87 11.22 L44.73 10.35 L45.60 9.99 L46.47 10.04 L47.33 8.88 L48.20 8.53 L49.07 8.46 L49.93 6.64 L50.80 6.16 L51.67 5.66 L52.53 5.41 L53.40 5.20 L54.27 4.00 L55.13 4.68  L55.13 28.00 " /><path stroke="#4285F4" stroke-width="1" fill="none" d="M4.00 21.75  L4.00 21.75 L4.87 21.12 L5.73 21.15 L6.60 21.32 L7.47 21.00 L8.33 21.30 L9.20 21.35 L10.07 21.41 L10.93 21.93 L11.80 21.75 L12.67 21.60 L13.53 21.80 L14.40 21.41 L15.27 21.14 L16.13 21.24 L17.00 21.11 L17.87 20.68 L18.73 20.15 L19.60 19.74 L20.47 19.46 L21.33 19.28 L22.20 18.97 L23.07 18.94 L23.93 19.40 L24.80 19.59 L25.67 19.91 L26.53 20.17 L27.40 20.32 L28.27 20.57 L29.13 20.31 L30.00 20.46 L30.87 20.53 L31.73 20.32 L32.60 20.45 L33.47 19.40 L34.33 18.54 L35.20 18.16 L36.07 16.94 L36.93 16.49 L37.80 15.73 L38.67 15.09 L39.53 15.11 L40.40 14.40 L41.27 13.97 L42.13 13.79 L43.00 11.60 L43.87 11.22 L44.73 10.35 L45.60 9.99 L46.47 10.04 L47.33 8.88 L48.20 8.53 L49.07 8.46 L49.93 6.64 L50.80 6.16 L51.67 5.66 L52.53 5.41 L53.40 5.20 L54.27 4.00 L55.13 4.68 " /></svg>