<svg width="60" height="28" xmlns="http://www.w3.org/2000/svg"><path stroke="none" fill="#E8F0FE" d="M4.00 28.00 L4.00 23.30  L4.00 23.30 L4.87 23.24 L5.73 23.16 L6.60 23.09 L7.47 22.86 L8.33 22.74 L9.20 22.57 L10.07 22.22 L10.93 21.75 L11.80 21.57 L12.67 21.39 L13.53 21.18 L14.40 21.09 L15.27 20.94 L16.13 20.98 L17.00 20.74 L17.87 20.40 L18.73 19.77 L19.60 19.05 L20.47 18.24 L21.33 18.03 L22.20 17.84 L23.07 17.98 L23.93 17.89 L24.80 18.48 L25.67 18.55 L26.53 18.84 L27.40 18.65 L28.27 18.71 L29.13 18.08 L30.00 17.85 L30.87 17.27 L31.73 17.55 L32.60 16.84 L33.47 16.53 L34.33 15.94 L35.20 16.11 L36.07 15.82 L36.93 15.16 L37.80 14.86 L38.67 14.98 L39.53 14.69 L40.40 14.07 L41.27 13.16 L42.13 12.44 L43.00 13.31 L43.87 13.19 L44.73 12.54 L45.60 11.44 L46.47 12.31 L47.33 11.71 L48.20 13.13 L49.07 12.07 L49.93 11.60 L50.80 12.07 L51.67 12.35 L52.53 10.26 L53.40 9.41 L54.27 6.09 L55.13 4.00  L55.13 28.00 " /><path stroke="#4285F4" stroke-width="1" fill="none" d="M4.00 23.30  L4.00 23.30 L4.87 23.24 L5.73 23.16 L6.60 23.09 L7.47 22.86 L8.33 22.74 L9.20 22.57 L10.07 22.22 L10.93 21.75 L11.80 21.57 L12.67 21.39 L13.53 21.18 L14.40 21.09 L15.27 20.94 L16.13 20.98 L17.00 20.74 L17.87 20.40 L18.73 19.77 L19.60 19.05 L20.47 18.24 L21.33 18.03 L22.20 17.84 L23.07 17.98 L23.93 17.89 L24.80 18.48 L25.67 18.55 L26.53 18.84 L27.40 18.65 L28.27 18.71 L29.13 18.08 L30.00 17.85 L30.87 17.27 L31.73 17.55 L32.60 16.84 L33.47 16.53 L34.33 15.94 L35.20 16.11 L36.07 15.82 L36.93 15.16 L37.80 14.86 L38.67 14.98 L39.53 14.69 L40.40 14.07 L41.27 13.16 L42.13 12.44 L43.00 13.31 L43.87 13.19 L44.73 12.54 L45.60 11.44 L46.47 12.31 L47.33 11.71 L48.20 13.13 L49.07 12.07 L49.93 11.60 L50.80 12.07 L51.67 12.35 L52.53 10.26 L53.40 9.41 L54.27 6.09 L55.13 4.00 " /></svg>