<svg width="60" height="28" xmlns="http://www.w3.org/2000/svg"><path stroke="none" fill="#E8F0FE" d="M4.00 28.00 L4.00 24.00  L4.00 24.00 L4.87 24.00 L5.73 24.00 L6.60 24.00 L7.47 24.00 L8.33 24.00 L9.20 24.00 L10.07 24.00 L10.93 24.00 L11.80 24.00 L12.67 24.00 L13.53 24.00 L14.40 24.00 L15.27 24.00 L16.13 24.00 L17.00 24.00 L17.87 22.33 L18.73 20.67 L19.60 20.67 L20.47 20.67 L21.33 20.67 L22.20 20.67 L23.07 20.67 L23.93 22.33 L24.80 22.33 L25.67 22.33 L26.53 22.33 L27.40 22.33 L28.27 22.33 L29.13 22.33 L30.00 22.33 L30.87 24.00 L31.73 22.33 L32.60 22.33 L33.47 22.33 L34.33 22.33 L35.20 22.33 L36.07 22.33 L36.93 22.33 L37.80 24.00 L38.67 20.67 L39.53 20.67 L40.40 20.67 L41.27 19.00 L42.13 19.00 L43.00 19.00 L43.87 19.00 L44.73 22.33 L45.60 22.33 L46.47 20.67 L47.33 22.33 L48.20 22.33 L49.07 7.33 L49.93 7.33 L50.80 4.00 L51.67 4.00 L52.53 5.67 L53.40 5.67 L54.27 5.67 L55.13 20.67  L55.13 28.00 " /><path stroke="#4285F4" stroke-width="1" fill="none" d="M4.00 24.00  L4.00 24.00 L4.87 24.00 L5.73 24.00 L6.60 24.00 L7.47 24.00 L8.33 24.00 L9.20 24.00 L10.07 24.00 L10.93 24.00 L11.80 24.00 L12.67 24.00 L13.53 24.00 L14.40 24.00 L15.27 24.00 L16.13 24.00 L17.00 24.00 L17.87 22.33 L18.73 20.67 L19.60 20.67 L20.47 20.67 L21.33 20.67 L22.20 20.67 L23.07 20.67 L23.93 22.33 L24.80 22.33 L25.67 22.33 L26.53 22.33 L27.40 22.33 L28.27 22.33 L29.13 22.33 L30.00 22.33 L30.87 24.00 L31.73 22.33 L32.60 22.33 L33.47 22.33 L34.33 22.33 L35.20 22.33 L36.07 22.33 L36.93 22.33 L37.80 24.00 L38.67 20.67 L39.53 20.67 L40.40 20.67 L41.27 19.00 L42.13 19.00 L43.00 19.00 L43.87 19.00 L44.73 22.33 L45.60 22.33 L46.47 20.67 L47.33 22.33 L48.20 22.33 L49.07 7.33 L49.93 7.33 L50.80 4.00 L51.67 4.00 L52.53 5.67 L53.40 5.67 L54.27 5.67 L55.13 20.67 " /></svg>