<svg width="60" height="28" xmlns="http://www.w3.org/2000/svg"><path stroke="none" fill="#E8F0FE" d="M4.00 28.00 L4.00 20.42  L4.00 20.42 L4.87 20.03 L5.73 19.92 L6.60 19.95 L7.47 20.12 L8.33 20.59 L9.20 20.81 L10.07 21.23 L10.93 21.42 L11.80 21.09 L12.67 21.03 L13.53 21.12 L14.40 20.89 L15.27 21.12 L16.13 21.12 L17.00 21.45 L17.87 21.89 L18.73 22.06 L19.60 22.22 L20.47 22.39 L21.33 22.20 L22.20 22.34 L23.07 22.09 L23.93 21.84 L24.80 21.81 L25.67 21.61 L26.53 21.61 L27.40 21.56 L28.27 21.50 L29.13 21.50 L30.00 21.84 L30.87 22.06 L31.73 22.20 L32.60 22.31 L33.47 22.72 L34.33 22.70 L35.20 22.75 L36.07 22.92 L36.93 22.70 L37.80 22.34 L38.67 22.06 L39.53 21.78 L40.40 21.39 L41.27 21.06 L42.13 20.70 L43.00 20.28 L43.87 20.09 L44.73 20.14 L45.60 19.98 L46.47 19.81 L47.33 19.37 L48.20 18.84 L49.07 18.31 L49.93 17.76 L50.80 15.87 L51.67 14.51 L52.53 12.93 L53.40 11.71 L54.27 5.69 L55.13 4.00  L55.13 28.00 " /><path stroke="#4285F4" stroke-width="1" fill="none" d="M4.00 20.42  L4.00 20.42 L4.87 20.03 L5.73 19.92 L6.60 19.95 L7.47 20.12 L8.33 20.59 L9.20 20.81 L10.07 21.23 L10.93 21.42 L11.80 21.09 L12.67 21.03 L13.53 21.12 L14.40 20.89 L15.27 21.12 L16.13 21.12 L17.00 21.45 L17.87 21.89 L18.73 22.06 L19.60 22.22 L20.47 22.39 L21.33 22.20 L22.20 22.34 L23.07 22.09 L23.93 21.84 L24.80 21.81 L25.67 21.61 L26.53 21.61 L27.40 21.56 L28.27 21.50 L29.13 21.50 L30.00 21.84 L30.87 22.06 L31.73 22.20 L32.60 22.31 L33.47 22.72 L34.33 22.70 L35.20 22.75 L36.07 22.92 L36.93 22.70 L37.80 22.34 L38.67 22.06 L39.53 21.78 L40.40 21.39 L41.27 21.06 L42.13 20.70 L43.00 20.28 L43.87 20.09 L44.73 20.14 L45.60 19.98 L46.47 19.81 L47.33 19.37 L48.20 18.84 L49.07 18.31 L49.93 17.76 L50.80 15.87 L51.67 14.51 L52.53 12.93 L53.40 11.71 L54.27 5.69 L55.13 4.00 " /></svg>