<svg width="60" height="28" xmlns="http://www.w3.org/2000/svg"><path stroke="none" fill="#E8F0FE" d="M4.00 28.00 L4.00 20.11  L4.00 20.11 L4.87 21.45 L5.73 21.45 L6.60 21.05 L7.47 19.97 L8.33 17.42 L9.20 16.62 L10.07 14.47 L10.93 11.79 L11.80 10.17 L12.67 8.16 L13.53 4.54 L14.40 6.82 L15.27 4.00 L16.13 5.34 L17.00 8.03 L17.87 8.43 L18.73 10.58 L19.60 13.93 L20.47 13.26 L21.33 16.48 L22.20 16.89 L23.07 16.35 L23.93 14.87 L24.80 15.28 L25.67 16.62 L26.53 15.81 L27.40 16.35 L28.27 16.75 L29.13 16.35 L30.00 18.23 L30.87 16.35 L31.73 16.08 L32.60 16.89 L33.47 16.75 L34.33 17.02 L35.20 14.60 L36.07 16.35 L36.93 18.77 L37.80 18.90 L38.67 19.30 L39.53 19.44 L40.40 18.63 L41.27 21.99 L42.13 21.05 L43.00 19.84 L43.87 19.17 L44.73 18.77 L45.60 18.90 L46.47 18.77 L47.33 18.77 L48.20 18.09 L49.07 19.17 L49.93 16.75 L50.80 17.83 L51.67 14.20 L52.53 15.01 L53.40 12.59 L54.27 13.40 L55.13 13.26  L55.13 28.00 " /><path stroke="#4285F4" stroke-width="1" fill="none" d="M4.00 20.11  L4.00 20.11 L4.87 21.45 L5.73 21.45 L6.60 21.05 L7.47 19.97 L8.33 17.42 L9.20 16.62 L10.07 14.47 L10.93 11.79 L11.80 10.17 L12.67 8.16 L13.53 4.54 L14.40 6.82 L15.27 4.00 L16.13 5.34 L17.00 8.03 L17.87 8.43 L18.73 10.58 L19.60 13.93 L20.47 13.26 L21.33 16.48 L22.20 16.89 L23.07 16.35 L23.93 14.87 L24.80 15.28 L25.67 16.62 L26.53 15.81 L27.40 16.35 L28.27 16.75 L29.13 16.35 L30.00 18.23 L30.87 16.35 L31.73 16.08 L32.60 16.89 L33.47 16.75 L34.33 17.02 L35.20 14.60 L36.07 16.35 L36.93 18.77 L37.80 18.90 L38.67 19.30 L39.53 19.44 L40.40 18.63 L41.27 21.99 L42.13 21.05 L43.00 19.84 L43.87 19.17 L44.73 18.77 L45.60 18.90 L46.47 18.77 L47.33 18.77 L48.20 18.09 L49.07 19.17 L49.93 16.75 L50.80 17.83 L51.67 14.20 L52.53 15.01 L53.40 12.59 L54.27 13.40 L55.13 13.26 " /></svg>