<svg width="60" height="28" xmlns="http://www.w3.org/2000/svg"><path stroke="none" fill="#E8F0FE" d="M4.00 28.00 L4.00 4.00  L4.00 4.00 L4.87 4.88 L5.73 5.39 L6.60 5.62 L7.47 5.68 L8.33 6.25 L9.20 7.92 L10.07 9.09 L10.93 9.70 L11.80 9.96 L12.67 10.18 L13.53 10.83 L14.40 11.39 L15.27 13.52 L16.13 13.99 L17.00 14.14 L17.87 14.42 L18.73 15.05 L19.60 15.67 L20.47 14.75 L21.33 13.31 L22.20 13.72 L23.07 14.40 L23.93 15.16 L24.80 15.43 L25.67 15.46 L26.53 16.80 L27.40 16.88 L28.27 16.93 L29.13 17.18 L30.00 17.21 L30.87 17.55 L31.73 17.76 L32.60 17.71 L33.47 18.20 L34.33 18.50 L35.20 18.56 L36.07 18.64 L36.93 18.53 L37.80 18.67 L38.67 18.93 L39.53 18.86 L40.40 18.89 L41.27 19.00 L42.13 19.07 L43.00 19.24 L43.87 19.24 L44.73 19.45 L45.60 19.71 L46.47 19.76 L47.33 19.74 L48.20 19.97 L49.07 20.15 L49.93 20.23 L50.80 20.37 L51.67 20.27 L52.53 37.66 L53.40 38.15 L54.27 38.30 L55.13 38.51  L55.13 28.00 " /><path stroke="#4285F4" stroke-width="1" fill="none" d="M4.00 4.00  L4.00 4.00 L4.87 4.88 L5.73 5.39 L6.60 5.62 L7.47 5.68 L8.33 6.25 L9.20 7.92 L10.07 9.09 L10.93 9.70 L11.80 9.96 L12.67 10.18 L13.53 10.83 L14.40 11.39 L15.27 13.52 L16.13 13.99 L17.00 14.14 L17.87 14.42 L18.73 15.05 L19.60 15.67 L20.47 14.75 L21.33 13.31 L22.20 13.72 L23.07 14.40 L23.93 15.16 L24.80 15.43 L25.67 15.46 L26.53 16.80 L27.40 16.88 L28.27 16.93 L29.13 17.18 L30.00 17.21 L30.87 17.55 L31.73 17.76 L32.60 17.71 L33.47 18.20 L34.33 18.50 L35.20 18.56 L36.07 18.64 L36.93 18.53 L37.80 18.67 L38.67 18.93 L39.53 18.86 L40.40 18.89 L41.27 19.00 L42.13 19.07 L43.00 19.24 L43.87 19.24 L44.73 19.45 L45.60 19.71 L46.47 19.76 L47.33 19.74 L48.20 19.97 L49.07 20.15 L49.93 20.23 L50.80 20.37 L51.67 20.27 L52.53 37.66 L53.40 38.15 L54.27 38.30 L55.13 38.51 " /></svg>