<svg width="60" height="28" xmlns="http://www.w3.org/2000/svg"><path stroke="none" fill="#E8F0FE" d="M4.00 28.00 L4.00 23.76  L4.00 23.76 L4.87 23.84 L5.73 23.84 L6.60 23.84 L7.47 23.84 L8.33 23.76 L9.20 23.84 L10.07 24.00 L10.93 24.00 L11.80 24.00 L12.67 24.00 L13.53 24.00 L14.40 24.08 L15.27 24.08 L16.13 24.00 L17.00 24.00 L17.87 24.00 L18.73 24.00 L19.60 24.00 L20.47 24.00 L21.33 24.00 L22.20 24.00 L23.07 24.00 L23.93 24.00 L24.80 24.00 L25.67 24.00 L26.53 24.00 L27.40 24.00 L28.27 24.00 L29.13 24.00 L30.00 24.00 L30.87 24.00 L31.73 24.00 L32.60 24.00 L33.47 24.00 L34.33 24.00 L35.20 24.00 L36.07 24.00 L36.93 24.00 L37.80 24.00 L38.67 23.92 L39.53 23.84 L40.40 23.84 L41.27 23.28 L42.13 22.96 L43.00 21.51 L43.87 21.19 L44.73 21.03 L45.60 20.06 L46.47 19.82 L47.33 19.50 L48.20 17.82 L49.07 19.26 L49.93 17.17 L50.80 14.44 L51.67 13.88 L52.53 10.35 L53.40 8.98 L54.27 7.78 L55.13 4.00  L55.13 28.00 " /><path stroke="#4285F4" stroke-width="1" fill="none" d="M4.00 23.76  L4.00 23.76 L4.87 23.84 L5.73 23.84 L6.60 23.84 L7.47 23.84 L8.33 23.76 L9.20 23.84 L10.07 24.00 L10.93 24.00 L11.80 24.00 L12.67 24.00 L13.53 24.00 L14.40 24.08 L15.27 24.08 L16.13 24.00 L17.00 24.00 L17.87 24.00 L18.73 24.00 L19.60 24.00 L20.47 24.00 L21.33 24.00 L22.20 24.00 L23.07 24.00 L23.93 24.00 L24.80 24.00 L25.67 24.00 L26.53 24.00 L27.40 24.00 L28.27 24.00 L29.13 24.00 L30.00 24.00 L30.87 24.00 L31.73 24.00 L32.60 24.00 L33.47 24.00 L34.33 24.00 L35.20 24.00 L36.07 24.00 L36.93 24.00 L37.80 24.00 L38.67 23.92 L39.53 23.84 L40.40 23.84 L41.27 23.28 L42.13 22.96 L43.00 21.51 L43.87 21.19 L44.73 21.03 L45.60 20.06 L46.47 19.82 L47.33 19.50 L48.20 17.82 L49.07 19.26 L49.93 17.17 L50.80 14.44 L51.67 13.88 L52.53 10.35 L53.40 8.98 L54.27 7.78 L55.13 4.00 " /></svg>