<svg width="60" height="28" xmlns="http://www.w3.org/2000/svg"><path stroke="none" fill="#E8F0FE" d="M4.00 28.00 L4.00 18.86  L4.00 18.86 L4.87 18.12 L5.73 17.53 L6.60 16.44 L7.47 16.09 L8.33 15.36 L9.20 14.81 L10.07 14.45 L10.93 13.86 L11.80 13.14 L12.67 13.99 L13.53 13.77 L14.40 14.11 L15.27 13.85 L16.13 13.48 L17.00 13.97 L17.87 14.71 L18.73 13.57 L19.60 12.93 L20.47 13.92 L21.33 14.69 L22.20 14.84 L23.07 14.47 L23.93 13.67 L24.80 13.90 L25.67 12.53 L26.53 10.30 L27.40 9.05 L28.27 8.15 L29.13 7.54 L30.00 6.82 L30.87 5.78 L31.73 6.92 L32.60 6.00 L33.47 6.64 L34.33 6.82 L35.20 6.89 L36.07 6.57 L36.93 7.10 L37.80 6.42 L38.67 5.75 L39.53 4.60 L40.40 4.91 L41.27 4.90 L42.13 5.49 L43.00 5.64 L43.87 6.05 L44.73 6.78 L45.60 6.19 L46.47 5.68 L47.33 5.47 L48.20 4.26 L49.07 4.03 L49.93 4.00 L50.80 4.55 L51.67 5.24 L52.53 4.49 L53.40 4.94 L54.27 5.71 L55.13 5.78  L55.13 28.00 " /><path stroke="#4285F4" stroke-width="1" fill="none" d="M4.00 18.86  L4.00 18.86 L4.87 18.12 L5.73 17.53 L6.60 16.44 L7.47 16.09 L8.33 15.36 L9.20 14.81 L10.07 14.45 L10.93 13.86 L11.80 13.14 L12.67 13.99 L13.53 13.77 L14.40 14.11 L15.27 13.85 L16.13 13.48 L17.00 13.97 L17.87 14.71 L18.73 13.57 L19.60 12.93 L20.47 13.92 L21.33 14.69 L22.20 14.84 L23.07 14.47 L23.93 13.67 L24.80 13.90 L25.67 12.53 L26.53 10.30 L27.40 9.05 L28.27 8.15 L29.13 7.54 L30.00 6.82 L30.87 5.78 L31.73 6.92 L32.60 6.00 L33.47 6.64 L34.33 6.82 L35.20 6.89 L36.07 6.57 L36.93 7.10 L37.80 6.42 L38.67 5.75 L39.53 4.60 L40.40 4.91 L41.27 4.90 L42.13 5.49 L43.00 5.64 L43.87 6.05 L44.73 6.78 L45.60 6.19 L46.47 5.68 L47.33 5.47 L48.20 4.26 L49.07 4.03 L49.93 4.00 L50.80 4.55 L51.67 5.24 L52.53 4.49 L53.40 4.94 L54.27 5.71 L55.13 5.78 " /></svg>