<svg width="60" height="28" xmlns="http://www.w3.org/2000/svg"><path stroke="none" fill="#E8F0FE" d="M4.00 28.00 L4.00 18.90  L4.00 18.90 L4.87 18.72 L5.73 19.19 L6.60 19.21 L7.47 19.53 L8.33 19.44 L9.20 19.26 L10.07 19.41 L10.93 19.64 L11.80 19.37 L12.67 19.18 L13.53 19.11 L14.40 19.36 L15.27 19.47 L16.13 19.44 L17.00 19.57 L17.87 19.71 L18.73 19.81 L19.60 19.67 L20.47 19.44 L21.33 19.08 L22.20 18.80 L23.07 17.87 L23.93 15.36 L24.80 14.19 L25.67 12.47 L26.53 11.71 L27.40 11.68 L28.27 10.63 L29.13 10.36 L30.00 12.64 L30.87 12.29 L31.73 13.16 L32.60 13.08 L33.47 12.63 L34.33 12.66 L35.20 13.20 L36.07 12.16 L36.93 12.47 L37.80 12.52 L38.67 12.77 L39.53 13.22 L40.40 14.02 L41.27 13.69 L42.13 13.55 L43.00 12.59 L43.87 12.27 L44.73 11.87 L45.60 9.64 L46.47 9.61 L47.33 9.00 L48.20 8.02 L49.07 8.62 L49.93 8.62 L50.80 7.62 L51.67 7.81 L52.53 6.31 L53.40 7.67 L54.27 6.17 L55.13 4.00  L55.13 28.00 " /><path stroke="#4285F4" stroke-width="1" fill="none" d="M4.00 18.90  L4.00 18.90 L4.87 18.72 L5.73 19.19 L6.60 19.21 L7.47 19.53 L8.33 19.44 L9.20 19.26 L10.07 19.41 L10.93 19.64 L11.80 19.37 L12.67 19.18 L13.53 19.11 L14.40 19.36 L15.27 19.47 L16.13 19.44 L17.00 19.57 L17.87 19.71 L18.73 19.81 L19.60 19.67 L20.47 19.44 L21.33 19.08 L22.20 18.80 L23.07 17.87 L23.93 15.36 L24.80 14.19 L25.67 12.47 L26.53 11.71 L27.40 11.68 L28.27 10.63 L29.13 10.36 L30.00 12.64 L30.87 12.29 L31.73 13.16 L32.60 13.08 L33.47 12.63 L34.33 12.66 L35.20 13.20 L36.07 12.16 L36.93 12.47 L37.80 12.52 L38.67 12.77 L39.53 13.22 L40.40 14.02 L41.27 13.69 L42.13 13.55 L43.00 12.59 L43.87 12.27 L44.73 11.87 L45.60 9.64 L46.47 9.61 L47.33 9.00 L48.20 8.02 L49.07 8.62 L49.93 8.62 L50.80 7.62 L51.67 7.81 L52.53 6.31 L53.40 7.67 L54.27 6.17 L55.13 4.00 " /></svg>