<svg width="60" height="28" xmlns="http://www.w3.org/2000/svg"><path stroke="none" fill="#E8F0FE" d="M4.00 28.00 L4.00 11.95  L4.00 11.95 L4.87 13.09 L5.73 15.59 L6.60 9.68 L7.47 8.32 L8.33 9.00 L9.20 8.55 L10.07 6.50 L10.93 6.27 L11.80 4.23 L12.67 9.23 L13.53 9.91 L14.40 9.91 L15.27 7.86 L16.13 7.64 L17.00 5.36 L17.87 5.59 L18.73 5.36 L19.60 5.36 L20.47 4.00 L21.33 6.50 L22.20 8.09 L23.07 9.68 L23.93 10.82 L24.80 11.73 L25.67 12.18 L26.53 14.23 L27.40 14.23 L28.27 15.59 L29.13 16.95 L30.00 16.73 L30.87 16.05 L31.73 15.14 L32.60 14.45 L33.47 13.77 L34.33 12.86 L35.20 9.23 L36.07 9.91 L36.93 10.82 L37.80 11.73 L38.67 11.95 L39.53 12.86 L40.40 13.77 L41.27 16.73 L42.13 15.82 L43.00 16.73 L43.87 17.18 L44.73 17.64 L45.60 17.86 L46.47 18.09 L47.33 19.00 L48.20 20.36 L49.07 20.14 L49.93 20.14 L50.80 20.59 L51.67 20.82 L52.53 20.82 L53.40 19.68 L54.27 19.45 L55.13 19.68  L55.13 28.00 " /><path stroke="#4285F4" stroke-width="1" fill="none" d="M4.00 11.95  L4.00 11.95 L4.87 13.09 L5.73 15.59 L6.60 9.68 L7.47 8.32 L8.33 9.00 L9.20 8.55 L10.07 6.50 L10.93 6.27 L11.80 4.23 L12.67 9.23 L13.53 9.91 L14.40 9.91 L15.27 7.86 L16.13 7.64 L17.00 5.36 L17.87 5.59 L18.73 5.36 L19.60 5.36 L20.47 4.00 L21.33 6.50 L22.20 8.09 L23.07 9.68 L23.93 10.82 L24.80 11.73 L25.67 12.18 L26.53 14.23 L27.40 14.23 L28.27 15.59 L29.13 16.95 L30.00 16.73 L30.87 16.05 L31.73 15.14 L32.60 14.45 L33.47 13.77 L34.33 12.86 L35.20 9.23 L36.07 9.91 L36.93 10.82 L37.80 11.73 L38.67 11.95 L39.53 12.86 L40.40 13.77 L41.27 16.73 L42.13 15.82 L43.00 16.73 L43.87 17.18 L44.73 17.64 L45.60 17.86 L46.47 18.09 L47.33 19.00 L48.20 20.36 L49.07 20.14 L49.93 20.14 L50.80 20.59 L51.67 20.82 L52.53 20.82 L53.40 19.68 L54.27 19.45 L55.13 19.68 " /></svg>