<svg width="60" height="28" xmlns="http://www.w3.org/2000/svg"><path stroke="none" fill="#E8F0FE" d="M4.00 28.00 L4.00 10.97  L4.00 10.97 L4.87 11.58 L5.73 10.06 L6.60 8.85 L7.47 8.24 L8.33 7.64 L9.20 9.76 L10.07 10.06 L10.93 11.88 L11.80 12.48 L12.67 14.61 L13.53 15.82 L14.40 16.12 L15.27 17.64 L16.13 15.82 L17.00 16.42 L17.87 17.64 L18.73 14.61 L19.60 13.39 L20.47 8.85 L21.33 8.55 L22.20 6.73 L23.07 5.21 L23.93 4.91 L24.80 6.73 L25.67 7.64 L26.53 12.48 L27.40 12.79 L28.27 16.42 L29.13 17.64 L30.00 18.55 L30.87 16.73 L31.73 17.33 L32.60 17.94 L33.47 17.94 L34.33 18.24 L35.20 19.45 L36.07 20.06 L36.93 23.39 L37.80 23.09 L38.67 23.09 L39.53 23.09 L40.40 23.39 L41.27 23.09 L42.13 22.18 L43.00 20.36 L43.87 15.52 L44.73 13.70 L45.60 13.09 L46.47 7.94 L47.33 6.73 L48.20 4.00 L49.07 4.30 L49.93 7.94 L50.80 8.85 L51.67 8.55 L52.53 11.98 L53.40 9.86 L54.27 12.33 L55.13 13.04  L55.13 28.00 " /><path stroke="#4285F4" stroke-width="1" fill="none" d="M4.00 10.97  L4.00 10.97 L4.87 11.58 L5.73 10.06 L6.60 8.85 L7.47 8.24 L8.33 7.64 L9.20 9.76 L10.07 10.06 L10.93 11.88 L11.80 12.48 L12.67 14.61 L13.53 15.82 L14.40 16.12 L15.27 17.64 L16.13 15.82 L17.00 16.42 L17.87 17.64 L18.73 14.61 L19.60 13.39 L20.47 8.85 L21.33 8.55 L22.20 6.73 L23.07 5.21 L23.93 4.91 L24.80 6.73 L25.67 7.64 L26.53 12.48 L27.40 12.79 L28.27 16.42 L29.13 17.64 L30.00 18.55 L30.87 16.73 L31.73 17.33 L32.60 17.94 L33.47 17.94 L34.33 18.24 L35.20 19.45 L36.07 20.06 L36.93 23.39 L37.80 23.09 L38.67 23.09 L39.53 23.09 L40.40 23.39 L41.27 23.09 L42.13 22.18 L43.00 20.36 L43.87 15.52 L44.73 13.70 L45.60 13.09 L46.47 7.94 L47.33 6.73 L48.20 4.00 L49.07 4.30 L49.93 7.94 L50.80 8.85 L51.67 8.55 L52.53 11.98 L53.40 9.86 L54.27 12.33 L55.13 13.04 " /></svg>