<svg width="60" height="28" xmlns="http://www.w3.org/2000/svg"><path stroke="none" fill="#E8F0FE" d="M4.00 28.00 L4.00 21.22  L4.00 21.22 L4.87 21.22 L5.73 18.81 L6.60 17.80 L7.47 16.15 L8.33 14.00 L9.20 11.72 L10.07 10.71 L10.93 10.20 L11.80 12.35 L12.67 12.86 L13.53 13.24 L14.40 14.76 L15.27 15.52 L16.13 14.76 L17.00 12.61 L17.87 11.59 L18.73 10.84 L19.60 11.72 L20.47 11.97 L21.33 13.62 L22.20 15.27 L23.07 17.92 L23.93 18.43 L24.80 20.20 L25.67 20.20 L26.53 20.08 L27.40 19.57 L28.27 19.32 L29.13 19.32 L30.00 19.32 L30.87 17.16 L31.73 16.28 L32.60 15.27 L33.47 13.24 L34.33 12.61 L35.20 10.58 L36.07 8.18 L36.93 7.42 L37.80 4.00 L38.67 4.63 L39.53 5.27 L40.40 6.78 L41.27 8.30 L42.13 9.95 L43.00 12.23 L43.87 16.15 L44.73 14.89 L45.60 16.03 L46.47 15.65 L47.33 13.37 L48.20 13.24 L49.07 11.85 L49.93 11.85 L50.80 12.86 L51.67 13.11 L52.53 13.24 L53.40 16.15 L54.27 17.67 L55.13 18.56  L55.13 28.00 " /><path stroke="#4285F4" stroke-width="1" fill="none" d="M4.00 21.22  L4.00 21.22 L4.87 21.22 L5.73 18.81 L6.60 17.80 L7.47 16.15 L8.33 14.00 L9.20 11.72 L10.07 10.71 L10.93 10.20 L11.80 12.35 L12.67 12.86 L13.53 13.24 L14.40 14.76 L15.27 15.52 L16.13 14.76 L17.00 12.61 L17.87 11.59 L18.73 10.84 L19.60 11.72 L20.47 11.97 L21.33 13.62 L22.20 15.27 L23.07 17.92 L23.93 18.43 L24.80 20.20 L25.67 20.20 L26.53 20.08 L27.40 19.57 L28.27 19.32 L29.13 19.32 L30.00 19.32 L30.87 17.16 L31.73 16.28 L32.60 15.27 L33.47 13.24 L34.33 12.61 L35.20 10.58 L36.07 8.18 L36.93 7.42 L37.80 4.00 L38.67 4.63 L39.53 5.27 L40.40 6.78 L41.27 8.30 L42.13 9.95 L43.00 12.23 L43.87 16.15 L44.73 14.89 L45.60 16.03 L46.47 15.65 L47.33 13.37 L48.20 13.24 L49.07 11.85 L49.93 11.85 L50.80 12.86 L51.67 13.11 L52.53 13.24 L53.40 16.15 L54.27 17.67 L55.13 18.56 " /></svg>