<svg width="60" height="28" xmlns="http://www.w3.org/2000/svg"><path stroke="none" fill="#E8F0FE" d="M4.00 28.00 L4.00 21.77  L4.00 21.77 L4.87 21.61 L5.73 21.62 L6.60 21.58 L7.47 21.66 L8.33 21.62 L9.20 21.96 L10.07 22.23 L10.93 22.29 L11.80 22.19 L12.67 21.95 L13.53 21.57 L14.40 21.60 L15.27 21.19 L16.13 20.69 L17.00 20.02 L17.87 19.70 L18.73 19.90 L19.60 20.30 L20.47 19.76 L21.33 19.64 L22.20 18.99 L23.07 18.24 L23.93 17.39 L24.80 16.12 L25.67 15.53 L26.53 15.68 L27.40 15.56 L28.27 15.56 L29.13 15.82 L30.00 15.74 L30.87 15.94 L31.73 14.88 L32.60 14.48 L33.47 13.85 L34.33 14.06 L35.20 14.09 L36.07 14.59 L36.93 14.29 L37.80 14.63 L38.67 14.20 L39.53 14.14 L40.40 13.24 L41.27 12.20 L42.13 11.89 L43.00 12.44 L43.87 11.03 L44.73 11.88 L45.60 11.63 L46.47 10.84 L47.33 11.24 L48.20 10.87 L49.07 8.90 L49.93 8.93 L50.80 8.22 L51.67 7.99 L52.53 7.39 L53.40 6.37 L54.27 5.26 L55.13 4.00  L55.13 28.00 " /><path stroke="#4285F4" stroke-width="1" fill="none" d="M4.00 21.77  L4.00 21.77 L4.87 21.61 L5.73 21.62 L6.60 21.58 L7.47 21.66 L8.33 21.62 L9.20 21.96 L10.07 22.23 L10.93 22.29 L11.80 22.19 L12.67 21.95 L13.53 21.57 L14.40 21.60 L15.27 21.19 L16.13 20.69 L17.00 20.02 L17.87 19.70 L18.73 19.90 L19.60 20.30 L20.47 19.76 L21.33 19.64 L22.20 18.99 L23.07 18.24 L23.93 17.39 L24.80 16.12 L25.67 15.53 L26.53 15.68 L27.40 15.56 L28.27 15.56 L29.13 15.82 L30.00 15.74 L30.87 15.94 L31.73 14.88 L32.60 14.48 L33.47 13.85 L34.33 14.06 L35.20 14.09 L36.07 14.59 L36.93 14.29 L37.80 14.63 L38.67 14.20 L39.53 14.14 L40.40 13.24 L41.27 12.20 L42.13 11.89 L43.00 12.44 L43.87 11.03 L44.73 11.88 L45.60 11.63 L46.47 10.84 L47.33 11.24 L48.20 10.87 L49.07 8.90 L49.93 8.93 L50.80 8.22 L51.67 7.99 L52.53 7.39 L53.40 6.37 L54.27 5.26 L55.13 4.00 " /></svg>