<svg width="60" height="28" xmlns="http://www.w3.org/2000/svg"><path stroke="none" fill="#E8F0FE" d="M4.00 28.00 L4.00 20.33  L4.00 20.33 L4.87 20.27 L5.73 20.10 L6.60 19.84 L7.47 19.70 L8.33 19.42 L9.20 19.17 L10.07 18.80 L10.93 18.58 L11.80 18.29 L12.67 17.87 L13.53 17.66 L14.40 17.31 L15.27 16.77 L16.13 16.40 L17.00 15.69 L17.87 15.49 L18.73 15.22 L19.60 15.28 L20.47 15.34 L21.33 15.14 L22.20 14.52 L23.07 14.60 L23.93 13.84 L24.80 13.54 L25.67 12.23 L26.53 11.37 L27.40 11.07 L28.27 10.84 L29.13 10.19 L30.00 10.04 L30.87 9.77 L31.73 9.58 L32.60 9.21 L33.47 8.64 L34.33 8.15 L35.20 7.99 L36.07 7.69 L36.93 7.42 L37.80 6.90 L38.67 6.28 L39.53 5.82 L40.40 5.99 L41.27 5.71 L42.13 5.41 L43.00 5.13 L43.87 5.47 L44.73 5.87 L45.60 5.77 L46.47 5.30 L47.33 5.10 L48.20 4.89 L49.07 4.49 L49.93 4.29 L50.80 4.05 L51.67 4.00 L52.53 4.57 L53.40 4.73 L54.27 5.53 L55.13 6.14  L55.13 28.00 " /><path stroke="#4285F4" stroke-width="1" fill="none" d="M4.00 20.33  L4.00 20.33 L4.87 20.27 L5.73 20.10 L6.60 19.84 L7.47 19.70 L8.33 19.42 L9.20 19.17 L10.07 18.80 L10.93 18.58 L11.80 18.29 L12.67 17.87 L13.53 17.66 L14.40 17.31 L15.27 16.77 L16.13 16.40 L17.00 15.69 L17.87 15.49 L18.73 15.22 L19.60 15.28 L20.47 15.34 L21.33 15.14 L22.20 14.52 L23.07 14.60 L23.93 13.84 L24.80 13.54 L25.67 12.23 L26.53 11.37 L27.40 11.07 L28.27 10.84 L29.13 10.19 L30.00 10.04 L30.87 9.77 L31.73 9.58 L32.60 9.21 L33.47 8.64 L34.33 8.15 L35.20 7.99 L36.07 7.69 L36.93 7.42 L37.80 6.90 L38.67 6.28 L39.53 5.82 L40.40 5.99 L41.27 5.71 L42.13 5.41 L43.00 5.13 L43.87 5.47 L44.73 5.87 L45.60 5.77 L46.47 5.30 L47.33 5.10 L48.20 4.89 L49.07 4.49 L49.93 4.29 L50.80 4.05 L51.67 4.00 L52.53 4.57 L53.40 4.73 L54.27 5.53 L55.13 6.14 " /></svg>