<svg width="60" height="28" xmlns="http://www.w3.org/2000/svg"><path stroke="none" fill="#E8F0FE" d="M4.00 28.00 L4.00 21.71  L4.00 21.71 L4.87 21.56 L5.73 21.78 L6.60 21.49 L7.47 21.51 L8.33 21.55 L9.20 20.76 L10.07 20.74 L10.93 20.71 L11.80 20.58 L12.67 20.75 L13.53 20.63 L14.40 20.80 L15.27 21.56 L16.13 21.37 L17.00 21.28 L17.87 21.33 L18.73 21.49 L19.60 21.80 L20.47 21.50 L21.33 21.33 L22.20 21.32 L23.07 21.20 L23.93 20.63 L24.80 20.43 L25.67 20.24 L26.53 19.65 L27.40 19.49 L28.27 19.44 L29.13 18.88 L30.00 18.39 L30.87 17.76 L31.73 16.54 L32.60 16.34 L33.47 16.00 L34.33 15.18 L35.20 14.59 L36.07 13.68 L36.93 13.37 L37.80 12.92 L38.67 11.17 L39.53 10.13 L40.40 8.50 L41.27 7.20 L42.13 5.96 L43.00 4.00 L43.87 4.16 L44.73 5.57 L45.60 5.67 L46.47 6.69 L47.33 8.43 L48.20 8.64 L49.07 10.26 L49.93 10.75 L50.80 11.34 L51.67 10.86 L52.53 11.33 L53.40 10.34 L54.27 11.60 L55.13 11.50  L55.13 28.00 " /><path stroke="#4285F4" stroke-width="1" fill="none" d="M4.00 21.71  L4.00 21.71 L4.87 21.56 L5.73 21.78 L6.60 21.49 L7.47 21.51 L8.33 21.55 L9.20 20.76 L10.07 20.74 L10.93 20.71 L11.80 20.58 L12.67 20.75 L13.53 20.63 L14.40 20.80 L15.27 21.56 L16.13 21.37 L17.00 21.28 L17.87 21.33 L18.73 21.49 L19.60 21.80 L20.47 21.50 L21.33 21.33 L22.20 21.32 L23.07 21.20 L23.93 20.63 L24.80 20.43 L25.67 20.24 L26.53 19.65 L27.40 19.49 L28.27 19.44 L29.13 18.88 L30.00 18.39 L30.87 17.76 L31.73 16.54 L32.60 16.34 L33.47 16.00 L34.33 15.18 L35.20 14.59 L36.07 13.68 L36.93 13.37 L37.80 12.92 L38.67 11.17 L39.53 10.13 L40.40 8.50 L41.27 7.20 L42.13 5.96 L43.00 4.00 L43.87 4.16 L44.73 5.57 L45.60 5.67 L46.47 6.69 L47.33 8.43 L48.20 8.64 L49.07 10.26 L49.93 10.75 L50.80 11.34 L51.67 10.86 L52.53 11.33 L53.40 10.34 L54.27 11.60 L55.13 11.50 " /></svg>