<svg width="60" height="28" xmlns="http://www.w3.org/2000/svg"><path stroke="none" fill="#E8F0FE" d="M4.00 28.00 L4.00 24.00  L4.00 24.00 L4.87 24.00 L5.73 24.00 L6.60 24.00 L14.40 23.29 L15.27 23.29 L16.13 23.29 L17.00 23.29 L17.87 23.29 L18.73 23.29 L19.60 23.29 L23.07 23.29 L23.93 23.29 L24.80 22.94 L25.67 21.17 L26.53 18.17 L27.40 17.92 L28.27 16.58 L29.13 15.75 L30.00 16.02 L30.87 15.31 L31.73 14.00 L32.60 15.31 L33.47 15.62 L34.33 16.93 L35.20 15.31 L36.07 14.30 L36.93 14.30 L37.80 15.31 L38.67 14.00 L39.53 14.00 L40.40 12.18 L41.27 12.99 L42.13 13.29 L43.00 13.29 L43.87 13.29 L44.73 14.91 L45.60 15.62 L46.47 14.30 L47.33 14.30 L48.20 14.10 L49.07 7.33 L49.93 6.22 L50.80 5.62 L51.67 4.00 L52.53 6.02 L53.40 6.42 L54.27 6.83 L55.13 14.10  L55.13 28.00 " /><path stroke="#4285F4" stroke-width="1" fill="none" d="M4.00 24.00  L4.00 24.00 L4.87 24.00 L5.73 24.00 L6.60 24.00 L14.40 23.29 L15.27 23.29 L16.13 23.29 L17.00 23.29 L17.87 23.29 L18.73 23.29 L19.60 23.29 L23.07 23.29 L23.93 23.29 L24.80 22.94 L25.67 21.17 L26.53 18.17 L27.40 17.92 L28.27 16.58 L29.13 15.75 L30.00 16.02 L30.87 15.31 L31.73 14.00 L32.60 15.31 L33.47 15.62 L34.33 16.93 L35.20 15.31 L36.07 14.30 L36.93 14.30 L37.80 15.31 L38.67 14.00 L39.53 14.00 L40.40 12.18 L41.27 12.99 L42.13 13.29 L43.00 13.29 L43.87 13.29 L44.73 14.91 L45.60 15.62 L46.47 14.30 L47.33 14.30 L48.20 14.10 L49.07 7.33 L49.93 6.22 L50.80 5.62 L51.67 4.00 L52.53 6.02 L53.40 6.42 L54.27 6.83 L55.13 14.10 " /></svg>