<svg width="60" height="28" xmlns="http://www.w3.org/2000/svg"><path stroke="none" fill="#E8F0FE" d="M4.00 28.00 L4.00 23.76  L4.00 23.76 L4.87 23.79 L5.73 23.76 L6.60 23.27 L7.47 23.17 L8.33 23.22 L9.20 23.03 L10.07 22.78 L10.93 22.38 L11.80 22.38 L12.67 23.15 L13.53 22.86 L14.40 22.42 L15.27 22.42 L16.13 23.03 L17.00 23.27 L17.87 22.84 L18.73 23.07 L19.60 23.37 L20.47 22.74 L21.33 22.92 L22.20 22.96 L23.07 19.44 L23.93 17.36 L24.80 17.15 L25.67 17.01 L26.53 15.83 L27.40 15.06 L28.27 14.68 L29.13 17.39 L30.00 19.27 L30.87 19.48 L31.73 18.64 L32.60 20.45 L33.47 21.04 L34.33 21.01 L35.20 20.94 L36.07 21.50 L36.93 19.83 L37.80 20.21 L38.67 19.93 L39.53 19.79 L40.40 19.93 L41.27 20.14 L42.13 19.17 L43.00 17.01 L43.87 16.97 L44.73 15.37 L45.60 14.12 L46.47 11.17 L47.33 11.20 L48.20 10.61 L49.07 13.29 L49.93 9.98 L50.80 9.36 L51.67 9.50 L52.53 10.05 L53.40 8.63 L54.27 6.85 L55.13 4.00  L55.13 28.00 " /><path stroke="#4285F4" stroke-width="1" fill="none" d="M4.00 23.76  L4.00 23.76 L4.87 23.79 L5.73 23.76 L6.60 23.27 L7.47 23.17 L8.33 23.22 L9.20 23.03 L10.07 22.78 L10.93 22.38 L11.80 22.38 L12.67 23.15 L13.53 22.86 L14.40 22.42 L15.27 22.42 L16.13 23.03 L17.00 23.27 L17.87 22.84 L18.73 23.07 L19.60 23.37 L20.47 22.74 L21.33 22.92 L22.20 22.96 L23.07 19.44 L23.93 17.36 L24.80 17.15 L25.67 17.01 L26.53 15.83 L27.40 15.06 L28.27 14.68 L29.13 17.39 L30.00 19.27 L30.87 19.48 L31.73 18.64 L32.60 20.45 L33.47 21.04 L34.33 21.01 L35.20 20.94 L36.07 21.50 L36.93 19.83 L37.80 20.21 L38.67 19.93 L39.53 19.79 L40.40 19.93 L41.27 20.14 L42.13 19.17 L43.00 17.01 L43.87 16.97 L44.73 15.37 L45.60 14.12 L46.47 11.17 L47.33 11.20 L48.20 10.61 L49.07 13.29 L49.93 9.98 L50.80 9.36 L51.67 9.50 L52.53 10.05 L53.40 8.63 L54.27 6.85 L55.13 4.00 " /></svg>