<svg width="60" height="28" xmlns="http://www.w3.org/2000/svg"><path stroke="none" fill="#E8F0FE" d="M4.00 28.00 L4.00 22.24  L4.00 22.24 L4.87 22.15 L5.73 21.95 L6.60 21.82 L7.47 21.29 L8.33 20.99 L9.20 20.90 L10.07 20.75 L10.93 20.76 L11.80 20.54 L12.67 20.40 L13.53 20.33 L14.40 20.13 L15.27 19.91 L16.13 19.77 L17.00 19.52 L17.87 19.54 L18.73 19.51 L19.60 19.67 L20.47 19.65 L21.33 19.46 L22.20 19.46 L23.07 19.19 L23.93 18.82 L24.80 18.18 L25.67 17.51 L26.53 16.96 L27.40 16.86 L28.27 16.14 L29.13 15.32 L30.00 14.95 L30.87 14.40 L31.73 13.77 L32.60 13.44 L33.47 12.64 L34.33 12.42 L35.20 12.35 L36.07 11.89 L36.93 11.90 L37.80 12.04 L38.67 11.67 L39.53 11.44 L40.40 11.32 L41.27 11.37 L42.13 11.44 L43.00 10.92 L43.87 10.31 L44.73 9.78 L45.60 9.21 L46.47 8.34 L47.33 7.00 L48.20 5.92 L49.07 5.52 L49.93 5.26 L50.80 5.04 L51.67 4.70 L52.53 4.46 L53.40 4.47 L54.27 4.34 L55.13 4.00  L55.13 28.00 " /><path stroke="#4285F4" stroke-width="1" fill="none" d="M4.00 22.24  L4.00 22.24 L4.87 22.15 L5.73 21.95 L6.60 21.82 L7.47 21.29 L8.33 20.99 L9.20 20.90 L10.07 20.75 L10.93 20.76 L11.80 20.54 L12.67 20.40 L13.53 20.33 L14.40 20.13 L15.27 19.91 L16.13 19.77 L17.00 19.52 L17.87 19.54 L18.73 19.51 L19.60 19.67 L20.47 19.65 L21.33 19.46 L22.20 19.46 L23.07 19.19 L23.93 18.82 L24.80 18.18 L25.67 17.51 L26.53 16.96 L27.40 16.86 L28.27 16.14 L29.13 15.32 L30.00 14.95 L30.87 14.40 L31.73 13.77 L32.60 13.44 L33.47 12.64 L34.33 12.42 L35.20 12.35 L36.07 11.89 L36.93 11.90 L37.80 12.04 L38.67 11.67 L39.53 11.44 L40.40 11.32 L41.27 11.37 L42.13 11.44 L43.00 10.92 L43.87 10.31 L44.73 9.78 L45.60 9.21 L46.47 8.34 L47.33 7.00 L48.20 5.92 L49.07 5.52 L49.93 5.26 L50.80 5.04 L51.67 4.70 L52.53 4.46 L53.40 4.47 L54.27 4.34 L55.13 4.00 " /></svg>