<svg width="60" height="28" xmlns="http://www.w3.org/2000/svg"><path stroke="none" fill="#E8F0FE" d="M4.00 28.00 L4.00 24.00  L4.00 24.00 L4.87 24.00 L5.73 24.00 L6.60 24.00 L7.47 24.00 L8.33 24.00 L9.20 24.00 L10.07 24.00 L10.93 24.00 L11.80 24.00 L12.67 24.00 L13.53 24.00 L14.40 24.00 L43.00 17.10 L43.87 17.10 L44.73 17.10 L45.60 17.10 L46.47 18.83 L47.33 19.40 L48.20 20.55 L49.07 11.93 L49.93 5.38 L50.80 8.48 L51.67 8.48 L52.53 6.07 L53.40 4.69 L54.27 4.00 L55.13 10.90  L55.13 28.00 " /><path stroke="#4285F4" stroke-width="1" fill="none" d="M4.00 24.00  L4.00 24.00 L4.87 24.00 L5.73 24.00 L6.60 24.00 L7.47 24.00 L8.33 24.00 L9.20 24.00 L10.07 24.00 L10.93 24.00 L11.80 24.00 L12.67 24.00 L13.53 24.00 L14.40 24.00 L43.00 17.10 L43.87 17.10 L44.73 17.10 L45.60 17.10 L46.47 18.83 L47.33 19.40 L48.20 20.55 L49.07 11.93 L49.93 5.38 L50.80 8.48 L51.67 8.48 L52.53 6.07 L53.40 4.69 L54.27 4.00 L55.13 10.90 " /></svg>