<svg width="60" height="28" xmlns="http://www.w3.org/2000/svg"><path stroke="none" fill="#E8F0FE" d="M4.00 28.00 L4.00 23.39  L4.00 23.39 L4.87 23.39 L5.73 23.39 L6.60 23.18 L7.47 23.39 L8.33 23.39 L9.20 23.59 L10.07 23.80 L10.93 23.80 L11.80 12.37 L12.67 12.57 L13.53 5.02 L14.40 4.82 L15.27 4.00 L16.13 4.00 L17.00 4.00 L17.87 15.43 L18.73 15.22 L19.60 22.78 L20.47 22.98 L21.33 23.80 L22.20 23.80 L23.07 22.37 L23.93 19.71 L24.80 16.24 L25.67 16.24 L26.53 16.24 L27.40 15.02 L28.27 15.02 L29.13 16.45 L30.00 18.90 L30.87 21.55 L31.73 21.14 L32.60 21.14 L33.47 22.16 L34.33 22.16 L35.20 22.16 L36.07 22.37 L36.93 22.78 L37.80 23.18 L38.67 23.18 L39.53 23.39 L40.40 23.39 L41.27 23.39 L42.13 22.57 L43.00 22.57 L43.87 22.57 L44.73 22.16 L45.60 20.73 L46.47 20.33 L47.33 20.33 L48.20 20.94 L49.07 20.94 L49.93 20.94 L50.80 21.35 L51.67 22.57 L52.53 22.98 L53.40 22.98 L54.27 23.18 L55.13 23.80  L55.13 28.00 " /><path stroke="#4285F4" stroke-width="1" fill="none" d="M4.00 23.39  L4.00 23.39 L4.87 23.39 L5.73 23.39 L6.60 23.18 L7.47 23.39 L8.33 23.39 L9.20 23.59 L10.07 23.80 L10.93 23.80 L11.80 12.37 L12.67 12.57 L13.53 5.02 L14.40 4.82 L15.27 4.00 L16.13 4.00 L17.00 4.00 L17.87 15.43 L18.73 15.22 L19.60 22.78 L20.47 22.98 L21.33 23.80 L22.20 23.80 L23.07 22.37 L23.93 19.71 L24.80 16.24 L25.67 16.24 L26.53 16.24 L27.40 15.02 L28.27 15.02 L29.13 16.45 L30.00 18.90 L30.87 21.55 L31.73 21.14 L32.60 21.14 L33.47 22.16 L34.33 22.16 L35.20 22.16 L36.07 22.37 L36.93 22.78 L37.80 23.18 L38.67 23.18 L39.53 23.39 L40.40 23.39 L41.27 23.39 L42.13 22.57 L43.00 22.57 L43.87 22.57 L44.73 22.16 L45.60 20.73 L46.47 20.33 L47.33 20.33 L48.20 20.94 L49.07 20.94 L49.93 20.94 L50.80 21.35 L51.67 22.57 L52.53 22.98 L53.40 22.98 L54.27 23.18 L55.13 23.80 " /></svg>