<svg width="60" height="28" xmlns="http://www.w3.org/2000/svg"><path stroke="none" fill="#E8F0FE" d="M4.00 28.00 L4.00 5.82  L4.00 5.82 L4.87 4.00 L5.73 4.00 L6.60 9.45 L7.47 16.73 L8.33 20.36 L9.20 20.36 L10.07 22.18 L10.93 24.00 L11.80 24.00 L12.67 24.00 L13.53 24.00 L14.40 24.00 L15.27 24.00 L16.13 24.00 L17.00 22.18 L17.87 22.18 L18.73 22.18 L19.60 22.18 L20.47 22.18 L21.33 22.18 L22.20 22.18 L23.07 24.00 L23.93 22.18 L24.80 22.18 L25.67 22.18 L26.53 20.36 L27.40 20.36 L28.27 20.36 L29.13 20.36 L30.00 22.18 L30.87 22.18 L31.73 22.18 L32.60 24.00 L33.47 24.00 L34.33 24.00 L35.20 24.00 L36.07 24.00 L36.93 24.00 L37.80 24.00 L38.67 20.36 L39.53 20.36 L40.40 20.36 L41.27 18.55 L42.13 18.55 L43.00 18.55 L43.87 18.55 L44.73 22.18 L45.60 22.18 L46.47 22.18 L47.33 22.18 L48.20 22.18 L49.07 22.18 L49.93 22.18 L50.80 22.18 L51.67 22.18 L52.53 22.18 L53.40 22.18 L54.27 20.36 L55.13 19.76  L55.13 28.00 " /><path stroke="#4285F4" stroke-width="1" fill="none" d="M4.00 5.82  L4.00 5.82 L4.87 4.00 L5.73 4.00 L6.60 9.45 L7.47 16.73 L8.33 20.36 L9.20 20.36 L10.07 22.18 L10.93 24.00 L11.80 24.00 L12.67 24.00 L13.53 24.00 L14.40 24.00 L15.27 24.00 L16.13 24.00 L17.00 22.18 L17.87 22.18 L18.73 22.18 L19.60 22.18 L20.47 22.18 L21.33 22.18 L22.20 22.18 L23.07 24.00 L23.93 22.18 L24.80 22.18 L25.67 22.18 L26.53 20.36 L27.40 20.36 L28.27 20.36 L29.13 20.36 L30.00 22.18 L30.87 22.18 L31.73 22.18 L32.60 24.00 L33.47 24.00 L34.33 24.00 L35.20 24.00 L36.07 24.00 L36.93 24.00 L37.80 24.00 L38.67 20.36 L39.53 20.36 L40.40 20.36 L41.27 18.55 L42.13 18.55 L43.00 18.55 L43.87 18.55 L44.73 22.18 L45.60 22.18 L46.47 22.18 L47.33 22.18 L48.20 22.18 L49.07 22.18 L49.93 22.18 L50.80 22.18 L51.67 22.18 L52.53 22.18 L53.40 22.18 L54.27 20.36 L55.13 19.76 " /></svg>