<svg width="60" height="28" xmlns="http://www.w3.org/2000/svg"><path stroke="none" fill="#E8F0FE" d="M4.00 28.00 L4.00 4.00  L4.00 4.00 L4.87 4.97 L5.73 5.61 L6.60 7.55 L7.47 12.47 L8.33 14.56 L9.20 14.73 L10.07 14.40 L10.93 15.37 L11.80 15.85 L12.67 16.02 L13.53 15.29 L14.40 15.45 L15.27 16.10 L16.13 17.31 L17.00 16.74 L17.87 17.71 L18.73 17.87 L19.60 18.44 L20.47 18.44 L21.33 18.68 L22.20 17.87 L23.07 18.03 L23.93 17.95 L24.80 16.82 L25.67 16.42 L26.53 15.61 L27.40 13.03 L28.27 13.60 L29.13 13.27 L30.00 13.03 L30.87 13.68 L31.73 12.06 L32.60 12.23 L33.47 14.56 L34.33 14.89 L35.20 15.61 L36.07 15.94 L36.93 15.94 L37.80 18.76 L38.67 19.40 L39.53 19.00 L40.40 18.52 L41.27 18.44 L42.13 17.87 L43.00 18.19 L43.87 18.27 L44.73 18.84 L45.60 19.73 L46.47 20.37 L47.33 20.85 L48.20 21.90 L49.07 22.39 L49.93 22.31 L50.80 22.39 L51.67 21.98 L52.53 22.15 L53.40 21.66 L54.27 21.42 L55.13 21.10  L55.13 28.00 " /><path stroke="#4285F4" stroke-width="1" fill="none" d="M4.00 4.00  L4.00 4.00 L4.87 4.97 L5.73 5.61 L6.60 7.55 L7.47 12.47 L8.33 14.56 L9.20 14.73 L10.07 14.40 L10.93 15.37 L11.80 15.85 L12.67 16.02 L13.53 15.29 L14.40 15.45 L15.27 16.10 L16.13 17.31 L17.00 16.74 L17.87 17.71 L18.73 17.87 L19.60 18.44 L20.47 18.44 L21.33 18.68 L22.20 17.87 L23.07 18.03 L23.93 17.95 L24.80 16.82 L25.67 16.42 L26.53 15.61 L27.40 13.03 L28.27 13.60 L29.13 13.27 L30.00 13.03 L30.87 13.68 L31.73 12.06 L32.60 12.23 L33.47 14.56 L34.33 14.89 L35.20 15.61 L36.07 15.94 L36.93 15.94 L37.80 18.76 L38.67 19.40 L39.53 19.00 L40.40 18.52 L41.27 18.44 L42.13 17.87 L43.00 18.19 L43.87 18.27 L44.73 18.84 L45.60 19.73 L46.47 20.37 L47.33 20.85 L48.20 21.90 L49.07 22.39 L49.93 22.31 L50.80 22.39 L51.67 21.98 L52.53 22.15 L53.40 21.66 L54.27 21.42 L55.13 21.10 " /></svg>