<svg width="60" height="28" xmlns="http://www.w3.org/2000/svg"><path stroke="none" fill="#E8F0FE" d="M4.00 28.00 L4.00 6.68  L4.00 6.68 L4.87 5.87 L5.73 6.49 L6.60 5.33 L7.47 4.49 L8.33 4.96 L9.20 4.00 L10.07 4.43 L10.93 4.39 L11.80 4.29 L12.67 5.39 L13.53 6.13 L14.40 6.68 L15.27 8.33 L16.13 8.73 L17.00 9.88 L17.87 10.56 L18.73 9.89 L19.60 10.40 L20.47 10.25 L21.33 10.51 L22.20 10.65 L23.07 10.93 L23.93 10.95 L24.80 11.46 L25.67 11.58 L26.53 11.33 L27.40 10.72 L28.27 10.58 L29.13 10.04 L30.00 11.37 L30.87 11.99 L31.73 12.50 L32.60 12.58 L33.47 13.82 L34.33 14.27 L35.20 14.63 L36.07 13.86 L36.93 13.85 L37.80 13.76 L38.67 14.41 L39.53 14.67 L40.40 15.44 L41.27 16.07 L42.13 17.29 L43.00 17.78 L43.87 18.33 L44.73 18.32 L45.60 18.44 L46.47 18.65 L47.33 19.20 L48.20 18.91 L49.07 18.63 L49.93 18.81 L50.80 18.88 L51.67 18.39 L52.53 18.30 L53.40 18.02 L54.27 18.21 L55.13 18.61  L55.13 28.00 " /><path stroke="#4285F4" stroke-width="1" fill="none" d="M4.00 6.68  L4.00 6.68 L4.87 5.87 L5.73 6.49 L6.60 5.33 L7.47 4.49 L8.33 4.96 L9.20 4.00 L10.07 4.43 L10.93 4.39 L11.80 4.29 L12.67 5.39 L13.53 6.13 L14.40 6.68 L15.27 8.33 L16.13 8.73 L17.00 9.88 L17.87 10.56 L18.73 9.89 L19.60 10.40 L20.47 10.25 L21.33 10.51 L22.20 10.65 L23.07 10.93 L23.93 10.95 L24.80 11.46 L25.67 11.58 L26.53 11.33 L27.40 10.72 L28.27 10.58 L29.13 10.04 L30.00 11.37 L30.87 11.99 L31.73 12.50 L32.60 12.58 L33.47 13.82 L34.33 14.27 L35.20 14.63 L36.07 13.86 L36.93 13.85 L37.80 13.76 L38.67 14.41 L39.53 14.67 L40.40 15.44 L41.27 16.07 L42.13 17.29 L43.00 17.78 L43.87 18.33 L44.73 18.32 L45.60 18.44 L46.47 18.65 L47.33 19.20 L48.20 18.91 L49.07 18.63 L49.93 18.81 L50.80 18.88 L51.67 18.39 L52.53 18.30 L53.40 18.02 L54.27 18.21 L55.13 18.61 " /></svg>