<svg width="60" height="28" xmlns="http://www.w3.org/2000/svg"><path stroke="none" fill="#E8F0FE" d="M4.00 28.00 L4.00 23.37  L4.00 23.37 L4.87 23.39 L5.73 23.40 L6.60 23.39 L7.47 23.38 L8.33 23.37 L9.20 23.36 L10.07 23.27 L10.93 23.20 L11.80 23.22 L12.67 23.23 L13.53 23.16 L14.40 23.02 L15.27 23.08 L16.13 23.08 L17.00 23.03 L17.87 22.98 L18.73 22.66 L19.60 22.59 L20.47 22.57 L21.33 22.36 L22.20 22.13 L23.07 21.91 L23.93 21.47 L24.80 21.47 L25.67 21.39 L26.53 21.04 L27.40 20.64 L28.27 19.98 L29.13 19.52 L30.00 18.73 L30.87 17.48 L31.73 16.15 L32.60 15.24 L33.47 14.88 L34.33 14.40 L35.20 13.62 L36.07 13.50 L36.93 13.59 L37.80 13.61 L38.67 13.62 L39.53 12.83 L40.40 12.29 L41.27 12.02 L42.13 11.30 L43.00 10.39 L43.87 9.87 L44.73 8.94 L45.60 8.36 L46.47 7.50 L47.33 6.21 L48.20 5.66 L49.07 5.39 L49.93 4.74 L50.80 4.82 L51.67 4.64 L52.53 4.36 L53.40 4.69 L54.27 4.35 L55.13 4.00  L55.13 28.00 " /><path stroke="#4285F4" stroke-width="1" fill="none" d="M4.00 23.37  L4.00 23.37 L4.87 23.39 L5.73 23.40 L6.60 23.39 L7.47 23.38 L8.33 23.37 L9.20 23.36 L10.07 23.27 L10.93 23.20 L11.80 23.22 L12.67 23.23 L13.53 23.16 L14.40 23.02 L15.27 23.08 L16.13 23.08 L17.00 23.03 L17.87 22.98 L18.73 22.66 L19.60 22.59 L20.47 22.57 L21.33 22.36 L22.20 22.13 L23.07 21.91 L23.93 21.47 L24.80 21.47 L25.67 21.39 L26.53 21.04 L27.40 20.64 L28.27 19.98 L29.13 19.52 L30.00 18.73 L30.87 17.48 L31.73 16.15 L32.60 15.24 L33.47 14.88 L34.33 14.40 L35.20 13.62 L36.07 13.50 L36.93 13.59 L37.80 13.61 L38.67 13.62 L39.53 12.83 L40.40 12.29 L41.27 12.02 L42.13 11.30 L43.00 10.39 L43.87 9.87 L44.73 8.94 L45.60 8.36 L46.47 7.50 L47.33 6.21 L48.20 5.66 L49.07 5.39 L49.93 4.74 L50.80 4.82 L51.67 4.64 L52.53 4.36 L53.40 4.69 L54.27 4.35 L55.13 4.00 " /></svg>