<svg width="60" height="28" xmlns="http://www.w3.org/2000/svg"><path stroke="none" fill="#E8F0FE" d="M4.00 28.00 L4.00 11.99  L4.00 11.99 L4.87 14.48 L5.73 13.78 L6.60 13.78 L7.47 14.54 L8.33 14.99 L9.20 15.57 L10.07 16.46 L10.93 15.88 L11.80 15.76 L12.67 15.18 L13.53 14.86 L14.40 14.03 L15.27 13.65 L16.13 13.07 L17.00 12.95 L17.87 14.29 L18.73 13.58 L19.60 12.50 L20.47 13.14 L21.33 12.18 L22.20 12.75 L23.07 12.18 L23.93 7.19 L24.80 7.58 L25.67 8.98 L26.53 8.98 L27.40 7.64 L28.27 6.49 L29.13 6.75 L30.00 6.94 L30.87 7.45 L31.73 6.56 L32.60 6.88 L33.47 9.18 L34.33 8.98 L35.20 6.04 L36.07 7.32 L36.93 6.94 L37.80 7.83 L38.67 6.36 L39.53 4.00 L40.40 4.89 L41.27 9.75 L42.13 12.24 L43.00 13.07 L43.87 13.97 L44.73 14.29 L45.60 17.55 L46.47 18.06 L47.33 16.65 L48.20 15.50 L49.07 15.25 L49.93 15.88 L50.80 12.12 L51.67 10.45 L52.53 11.03 L53.40 12.75 L54.27 9.88 L55.13 9.62  L55.13 28.00 " /><path stroke="#4285F4" stroke-width="1" fill="none" d="M4.00 11.99  L4.00 11.99 L4.87 14.48 L5.73 13.78 L6.60 13.78 L7.47 14.54 L8.33 14.99 L9.20 15.57 L10.07 16.46 L10.93 15.88 L11.80 15.76 L12.67 15.18 L13.53 14.86 L14.40 14.03 L15.27 13.65 L16.13 13.07 L17.00 12.95 L17.87 14.29 L18.73 13.58 L19.60 12.50 L20.47 13.14 L21.33 12.18 L22.20 12.75 L23.07 12.18 L23.93 7.19 L24.80 7.58 L25.67 8.98 L26.53 8.98 L27.40 7.64 L28.27 6.49 L29.13 6.75 L30.00 6.94 L30.87 7.45 L31.73 6.56 L32.60 6.88 L33.47 9.18 L34.33 8.98 L35.20 6.04 L36.07 7.32 L36.93 6.94 L37.80 7.83 L38.67 6.36 L39.53 4.00 L40.40 4.89 L41.27 9.75 L42.13 12.24 L43.00 13.07 L43.87 13.97 L44.73 14.29 L45.60 17.55 L46.47 18.06 L47.33 16.65 L48.20 15.50 L49.07 15.25 L49.93 15.88 L50.80 12.12 L51.67 10.45 L52.53 11.03 L53.40 12.75 L54.27 9.88 L55.13 9.62 " /></svg>