<svg width="60" height="28" xmlns="http://www.w3.org/2000/svg"><path stroke="none" fill="#E8F0FE" d="M4.00 28.00 L4.00 23.57  L4.00 23.57 L4.87 23.46 L5.73 23.46 L6.60 23.68 L7.47 23.14 L8.33 22.81 L9.20 21.51 L10.07 21.41 L10.93 21.19 L11.80 20.32 L12.67 20.00 L13.53 19.46 L14.40 19.03 L15.27 19.46 L16.13 19.46 L17.00 18.70 L17.87 18.92 L18.73 19.14 L19.60 19.78 L20.47 17.84 L21.33 17.08 L22.20 16.76 L23.07 16.32 L23.93 16.32 L24.80 16.43 L25.67 15.78 L26.53 17.51 L27.40 19.14 L28.27 13.84 L29.13 14.38 L30.00 11.14 L30.87 11.24 L31.73 6.16 L32.60 5.62 L33.47 4.65 L34.33 8.22 L35.20 7.14 L36.07 9.19 L36.93 7.03 L37.80 8.43 L38.67 6.81 L39.53 4.97 L40.40 4.00 L41.27 4.65 L42.13 5.30 L43.00 6.81 L43.87 9.41 L44.73 7.78 L45.60 10.16 L46.47 11.14 L47.33 12.00 L48.20 10.38 L49.07 11.03 L49.93 7.68 L50.80 10.38 L51.67 8.22 L52.53 9.73 L53.40 8.76 L54.27 9.95 L55.13 7.68  L55.13 28.00 " /><path stroke="#4285F4" stroke-width="1" fill="none" d="M4.00 23.57  L4.00 23.57 L4.87 23.46 L5.73 23.46 L6.60 23.68 L7.47 23.14 L8.33 22.81 L9.20 21.51 L10.07 21.41 L10.93 21.19 L11.80 20.32 L12.67 20.00 L13.53 19.46 L14.40 19.03 L15.27 19.46 L16.13 19.46 L17.00 18.70 L17.87 18.92 L18.73 19.14 L19.60 19.78 L20.47 17.84 L21.33 17.08 L22.20 16.76 L23.07 16.32 L23.93 16.32 L24.80 16.43 L25.67 15.78 L26.53 17.51 L27.40 19.14 L28.27 13.84 L29.13 14.38 L30.00 11.14 L30.87 11.24 L31.73 6.16 L32.60 5.62 L33.47 4.65 L34.33 8.22 L35.20 7.14 L36.07 9.19 L36.93 7.03 L37.80 8.43 L38.67 6.81 L39.53 4.97 L40.40 4.00 L41.27 4.65 L42.13 5.30 L43.00 6.81 L43.87 9.41 L44.73 7.78 L45.60 10.16 L46.47 11.14 L47.33 12.00 L48.20 10.38 L49.07 11.03 L49.93 7.68 L50.80 10.38 L51.67 8.22 L52.53 9.73 L53.40 8.76 L54.27 9.95 L55.13 7.68 " /></svg>