<svg width="60" height="28" xmlns="http://www.w3.org/2000/svg"><path stroke="none" fill="#E8F0FE" d="M4.00 28.00 L4.00 21.61  L4.00 21.61 L4.87 21.48 L5.73 21.34 L6.60 21.15 L7.47 21.13 L8.33 20.89 L9.20 20.74 L10.07 20.73 L10.93 20.52 L11.80 20.46 L12.67 20.33 L13.53 20.34 L14.40 20.27 L15.27 20.30 L16.13 20.15 L17.00 19.89 L17.87 19.61 L18.73 19.54 L19.60 19.24 L20.47 18.97 L21.33 18.48 L22.20 18.08 L23.07 17.68 L23.93 17.57 L24.80 17.33 L25.67 17.08 L26.53 16.75 L27.40 16.35 L28.27 16.20 L29.13 16.32 L30.00 16.28 L30.87 15.98 L31.73 15.97 L32.60 15.90 L33.47 16.09 L34.33 15.99 L35.20 15.60 L36.07 14.83 L36.93 14.32 L37.80 13.92 L38.67 13.52 L39.53 12.24 L40.40 11.13 L41.27 10.76 L42.13 10.11 L43.00 9.79 L43.87 9.39 L44.73 8.27 L45.60 8.02 L46.47 7.41 L47.33 6.00 L48.20 5.88 L49.07 5.29 L49.93 4.97 L50.80 4.48 L51.67 4.00 L52.53 4.35 L53.40 4.56 L54.27 4.13 L55.13 4.21  L55.13 28.00 " /><path stroke="#4285F4" stroke-width="1" fill="none" d="M4.00 21.61  L4.00 21.61 L4.87 21.48 L5.73 21.34 L6.60 21.15 L7.47 21.13 L8.33 20.89 L9.20 20.74 L10.07 20.73 L10.93 20.52 L11.80 20.46 L12.67 20.33 L13.53 20.34 L14.40 20.27 L15.27 20.30 L16.13 20.15 L17.00 19.89 L17.87 19.61 L18.73 19.54 L19.60 19.24 L20.47 18.97 L21.33 18.48 L22.20 18.08 L23.07 17.68 L23.93 17.57 L24.80 17.33 L25.67 17.08 L26.53 16.75 L27.40 16.35 L28.27 16.20 L29.13 16.32 L30.00 16.28 L30.87 15.98 L31.73 15.97 L32.60 15.90 L33.47 16.09 L34.33 15.99 L35.20 15.60 L36.07 14.83 L36.93 14.32 L37.80 13.92 L38.67 13.52 L39.53 12.24 L40.40 11.13 L41.27 10.76 L42.13 10.11 L43.00 9.79 L43.87 9.39 L44.73 8.27 L45.60 8.02 L46.47 7.41 L47.33 6.00 L48.20 5.88 L49.07 5.29 L49.93 4.97 L50.80 4.48 L51.67 4.00 L52.53 4.35 L53.40 4.56 L54.27 4.13 L55.13 4.21 " /></svg>