<svg width="60" height="28" xmlns="http://www.w3.org/2000/svg"><path stroke="none" fill="#E8F0FE" d="M4.00 28.00 L4.00 18.27  L4.00 18.27 L4.87 18.43 L5.73 18.01 L6.60 18.54 L7.47 18.65 L8.33 18.54 L9.20 19.71 L10.07 19.56 L10.93 19.56 L11.80 20.20 L12.67 20.23 L13.53 19.74 L14.40 19.56 L15.27 19.37 L16.13 18.80 L17.00 19.74 L17.87 19.10 L18.73 18.99 L19.60 19.14 L20.47 17.97 L21.33 16.84 L22.20 13.00 L23.07 7.39 L23.93 6.11 L24.80 5.54 L25.67 4.00 L26.53 5.47 L27.40 6.64 L28.27 10.29 L29.13 13.68 L30.00 13.94 L30.87 14.85 L31.73 16.69 L32.60 16.39 L33.47 15.94 L34.33 17.37 L35.20 19.25 L36.07 20.99 L36.93 21.02 L37.80 21.36 L38.67 21.97 L39.53 22.19 L40.40 21.89 L41.27 21.93 L42.13 21.36 L43.00 21.36 L43.87 21.51 L44.73 21.70 L45.60 22.27 L46.47 21.14 L47.33 21.10 L48.20 21.63 L49.07 21.59 L49.93 20.87 L50.80 20.72 L51.67 20.57 L52.53 21.89 L53.40 22.00 L54.27 21.89 L55.13 21.93  L55.13 28.00 " /><path stroke="#4285F4" stroke-width="1" fill="none" d="M4.00 18.27  L4.00 18.27 L4.87 18.43 L5.73 18.01 L6.60 18.54 L7.47 18.65 L8.33 18.54 L9.20 19.71 L10.07 19.56 L10.93 19.56 L11.80 20.20 L12.67 20.23 L13.53 19.74 L14.40 19.56 L15.27 19.37 L16.13 18.80 L17.00 19.74 L17.87 19.10 L18.73 18.99 L19.60 19.14 L20.47 17.97 L21.33 16.84 L22.20 13.00 L23.07 7.39 L23.93 6.11 L24.80 5.54 L25.67 4.00 L26.53 5.47 L27.40 6.64 L28.27 10.29 L29.13 13.68 L30.00 13.94 L30.87 14.85 L31.73 16.69 L32.60 16.39 L33.47 15.94 L34.33 17.37 L35.20 19.25 L36.07 20.99 L36.93 21.02 L37.80 21.36 L38.67 21.97 L39.53 22.19 L40.40 21.89 L41.27 21.93 L42.13 21.36 L43.00 21.36 L43.87 21.51 L44.73 21.70 L45.60 22.27 L46.47 21.14 L47.33 21.10 L48.20 21.63 L49.07 21.59 L49.93 20.87 L50.80 20.72 L51.67 20.57 L52.53 21.89 L53.40 22.00 L54.27 21.89 L55.13 21.93 " /></svg>