<svg width="60" height="28" xmlns="http://www.w3.org/2000/svg"><path stroke="none" fill="#E8F0FE" d="M4.00 28.00 L4.00 16.67  L4.00 16.67 L4.87 16.00 L5.73 7.33 L6.60 6.67 L7.47 6.00 L8.33 7.33 L9.20 11.33 L10.07 11.33 L10.93 11.33 L11.80 20.67 L12.67 20.67 L13.53 21.33 L14.40 19.33 L15.27 16.67 L16.13 15.33 L17.00 12.00 L17.87 12.00 L18.73 11.33 L19.60 11.33 L20.47 14.67 L21.33 16.00 L22.20 15.33 L23.07 19.33 L23.93 19.33 L24.80 20.00 L25.67 8.67 L26.53 8.67 L27.40 7.33 L28.27 6.00 L29.13 5.33 L30.00 4.00 L30.87 4.67 L31.73 13.33 L32.60 12.00 L33.47 13.33 L34.33 15.33 L35.20 14.67 L36.07 7.33 L36.93 7.33 L37.80 10.00 L38.67 10.67 L39.53 12.00 L40.40 13.33 L41.27 14.00 L42.13 7.33 L43.00 7.33 L43.87 7.33 L44.73 5.33 L45.60 4.67 L46.47 4.00 L47.33 4.00 L48.20 19.33 L49.07 19.33 L49.93 17.33 L50.80 18.00 L51.67 18.67 L52.53 19.33 L53.40 16.67 L54.27 16.67 L55.13 15.33  L55.13 28.00 " /><path stroke="#4285F4" stroke-width="1" fill="none" d="M4.00 16.67  L4.00 16.67 L4.87 16.00 L5.73 7.33 L6.60 6.67 L7.47 6.00 L8.33 7.33 L9.20 11.33 L10.07 11.33 L10.93 11.33 L11.80 20.67 L12.67 20.67 L13.53 21.33 L14.40 19.33 L15.27 16.67 L16.13 15.33 L17.00 12.00 L17.87 12.00 L18.73 11.33 L19.60 11.33 L20.47 14.67 L21.33 16.00 L22.20 15.33 L23.07 19.33 L23.93 19.33 L24.80 20.00 L25.67 8.67 L26.53 8.67 L27.40 7.33 L28.27 6.00 L29.13 5.33 L30.00 4.00 L30.87 4.67 L31.73 13.33 L32.60 12.00 L33.47 13.33 L34.33 15.33 L35.20 14.67 L36.07 7.33 L36.93 7.33 L37.80 10.00 L38.67 10.67 L39.53 12.00 L40.40 13.33 L41.27 14.00 L42.13 7.33 L43.00 7.33 L43.87 7.33 L44.73 5.33 L45.60 4.67 L46.47 4.00 L47.33 4.00 L48.20 19.33 L49.07 19.33 L49.93 17.33 L50.80 18.00 L51.67 18.67 L52.53 19.33 L53.40 16.67 L54.27 16.67 L55.13 15.33 " /></svg>