<svg width="60" height="28" xmlns="http://www.w3.org/2000/svg"><path stroke="none" fill="#E8F0FE" d="M4.00 28.00 L4.00 19.22  L4.00 19.22 L4.87 19.09 L5.73 18.24 L6.60 16.02 L7.47 16.07 L8.33 16.27 L9.20 16.34 L10.07 16.49 L10.93 16.69 L11.80 19.09 L12.67 21.77 L13.53 22.17 L14.40 22.40 L15.27 21.70 L16.13 21.67 L17.00 21.95 L17.87 22.02 L18.73 22.20 L19.60 22.10 L20.47 22.07 L21.33 22.80 L22.20 22.72 L23.07 22.40 L23.93 22.02 L24.80 21.15 L25.67 20.90 L26.53 20.75 L27.40 20.60 L28.27 19.34 L29.13 19.34 L30.00 19.74 L30.87 20.85 L31.73 20.27 L32.60 20.25 L33.47 19.64 L34.33 20.70 L35.20 20.40 L36.07 19.82 L36.93 19.72 L37.80 20.15 L38.67 20.22 L39.53 21.10 L40.40 21.35 L41.27 21.50 L42.13 21.95 L43.00 21.47 L43.87 21.75 L44.73 21.60 L45.60 21.02 L46.47 18.49 L47.33 18.02 L48.20 14.61 L49.07 9.48 L49.93 5.28 L50.80 4.00 L51.67 4.00 L52.53 5.68 L53.40 5.63 L54.27 8.03 L55.13 12.91  L55.13 28.00 " /><path stroke="#4285F4" stroke-width="1" fill="none" d="M4.00 19.22  L4.00 19.22 L4.87 19.09 L5.73 18.24 L6.60 16.02 L7.47 16.07 L8.33 16.27 L9.20 16.34 L10.07 16.49 L10.93 16.69 L11.80 19.09 L12.67 21.77 L13.53 22.17 L14.40 22.40 L15.27 21.70 L16.13 21.67 L17.00 21.95 L17.87 22.02 L18.73 22.20 L19.60 22.10 L20.47 22.07 L21.33 22.80 L22.20 22.72 L23.07 22.40 L23.93 22.02 L24.80 21.15 L25.67 20.90 L26.53 20.75 L27.40 20.60 L28.27 19.34 L29.13 19.34 L30.00 19.74 L30.87 20.85 L31.73 20.27 L32.60 20.25 L33.47 19.64 L34.33 20.70 L35.20 20.40 L36.07 19.82 L36.93 19.72 L37.80 20.15 L38.67 20.22 L39.53 21.10 L40.40 21.35 L41.27 21.50 L42.13 21.95 L43.00 21.47 L43.87 21.75 L44.73 21.60 L45.60 21.02 L46.47 18.49 L47.33 18.02 L48.20 14.61 L49.07 9.48 L49.93 5.28 L50.80 4.00 L51.67 4.00 L52.53 5.68 L53.40 5.63 L54.27 8.03 L55.13 12.91 " /></svg>