<svg width="60" height="28" xmlns="http://www.w3.org/2000/svg"><path stroke="none" fill="#E8F0FE" d="M4.00 28.00 L4.00 4.00  L4.00 4.00 L4.87 4.47 L5.73 7.59 L6.60 9.89 L7.47 10.20 L8.33 11.03 L9.20 11.08 L10.07 12.02 L10.93 12.02 L11.80 11.55 L12.67 10.46 L13.53 11.19 L14.40 10.93 L15.27 11.34 L16.13 10.61 L17.00 10.41 L17.87 10.41 L18.73 11.50 L19.60 11.92 L20.47 12.49 L21.33 12.80 L22.20 13.84 L23.07 14.89 L23.93 15.51 L24.80 15.98 L25.67 16.97 L26.53 16.92 L27.40 16.19 L28.27 16.81 L29.13 16.81 L30.00 17.28 L30.87 17.59 L31.73 17.12 L32.60 17.65 L33.47 19.00 L34.33 19.00 L35.20 19.57 L36.07 19.68 L36.93 20.15 L37.80 20.82 L38.67 20.77 L39.53 20.88 L40.40 21.34 L41.27 21.92 L42.13 22.54 L43.00 22.85 L43.87 22.70 L44.73 22.65 L45.60 22.44 L46.47 22.12 L47.33 21.71 L48.20 21.60 L49.07 21.29 L49.93 21.50 L50.80 21.76 L51.67 21.50 L52.53 21.76 L53.40 21.76 L54.27 21.66 L55.13 22.12  L55.13 28.00 " /><path stroke="#4285F4" stroke-width="1" fill="none" d="M4.00 4.00  L4.00 4.00 L4.87 4.47 L5.73 7.59 L6.60 9.89 L7.47 10.20 L8.33 11.03 L9.20 11.08 L10.07 12.02 L10.93 12.02 L11.80 11.55 L12.67 10.46 L13.53 11.19 L14.40 10.93 L15.27 11.34 L16.13 10.61 L17.00 10.41 L17.87 10.41 L18.73 11.50 L19.60 11.92 L20.47 12.49 L21.33 12.80 L22.20 13.84 L23.07 14.89 L23.93 15.51 L24.80 15.98 L25.67 16.97 L26.53 16.92 L27.40 16.19 L28.27 16.81 L29.13 16.81 L30.00 17.28 L30.87 17.59 L31.73 17.12 L32.60 17.65 L33.47 19.00 L34.33 19.00 L35.20 19.57 L36.07 19.68 L36.93 20.15 L37.80 20.82 L38.67 20.77 L39.53 20.88 L40.40 21.34 L41.27 21.92 L42.13 22.54 L43.00 22.85 L43.87 22.70 L44.73 22.65 L45.60 22.44 L46.47 22.12 L47.33 21.71 L48.20 21.60 L49.07 21.29 L49.93 21.50 L50.80 21.76 L51.67 21.50 L52.53 21.76 L53.40 21.76 L54.27 21.66 L55.13 22.12 " /></svg>