<svg width="60" height="28" xmlns="http://www.w3.org/2000/svg"><path stroke="none" fill="#E8F0FE" d="M4.00 28.00 L4.00 18.55  L4.00 18.55 L4.87 18.55 L5.73 18.29 L6.60 18.29 L7.47 19.06 L8.33 18.03 L9.20 17.77 L10.07 17.77 L10.93 14.65 L11.80 12.83 L12.67 9.45 L13.53 9.19 L14.40 9.71 L15.27 7.64 L16.13 4.26 L17.00 4.00 L17.87 6.34 L18.73 7.64 L19.60 9.19 L20.47 10.23 L21.33 13.09 L22.20 16.73 L23.07 19.58 L23.93 19.84 L24.80 21.66 L25.67 21.92 L26.53 21.92 L27.40 21.66 L28.27 21.40 L29.13 22.44 L30.00 21.66 L30.87 21.66 L31.73 21.14 L32.60 21.14 L33.47 20.88 L34.33 20.62 L35.20 19.32 L36.07 18.81 L36.93 19.06 L37.80 18.81 L38.67 18.81 L39.53 17.77 L40.40 16.99 L41.27 18.03 L42.13 19.32 L43.00 19.32 L43.87 19.84 L44.73 20.10 L45.60 21.66 L46.47 23.22 L47.33 22.70 L48.20 22.18 L49.07 22.44 L49.93 22.70 L50.80 22.70 L51.67 22.70 L52.53 22.44 L53.40 23.22 L54.27 23.48 L55.13 23.48  L55.13 28.00 " /><path stroke="#4285F4" stroke-width="1" fill="none" d="M4.00 18.55  L4.00 18.55 L4.87 18.55 L5.73 18.29 L6.60 18.29 L7.47 19.06 L8.33 18.03 L9.20 17.77 L10.07 17.77 L10.93 14.65 L11.80 12.83 L12.67 9.45 L13.53 9.19 L14.40 9.71 L15.27 7.64 L16.13 4.26 L17.00 4.00 L17.87 6.34 L18.73 7.64 L19.60 9.19 L20.47 10.23 L21.33 13.09 L22.20 16.73 L23.07 19.58 L23.93 19.84 L24.80 21.66 L25.67 21.92 L26.53 21.92 L27.40 21.66 L28.27 21.40 L29.13 22.44 L30.00 21.66 L30.87 21.66 L31.73 21.14 L32.60 21.14 L33.47 20.88 L34.33 20.62 L35.20 19.32 L36.07 18.81 L36.93 19.06 L37.80 18.81 L38.67 18.81 L39.53 17.77 L40.40 16.99 L41.27 18.03 L42.13 19.32 L43.00 19.32 L43.87 19.84 L44.73 20.10 L45.60 21.66 L46.47 23.22 L47.33 22.70 L48.20 22.18 L49.07 22.44 L49.93 22.70 L50.80 22.70 L51.67 22.70 L52.53 22.44 L53.40 23.22 L54.27 23.48 L55.13 23.48 " /></svg>