<svg width="60" height="28" xmlns="http://www.w3.org/2000/svg"><path stroke="none" fill="#E8F0FE" d="M4.00 28.00 L4.00 16.74  L4.00 16.74 L4.87 16.92 L5.73 17.05 L6.60 16.83 L7.47 16.39 L8.33 16.59 L9.20 17.00 L10.07 17.62 L10.93 18.06 L11.80 18.17 L12.67 18.43 L13.53 18.61 L14.40 18.63 L15.27 18.82 L16.13 19.11 L17.00 18.93 L17.87 18.87 L18.73 18.89 L19.60 19.26 L20.47 19.66 L21.33 19.96 L22.20 20.32 L23.07 20.80 L23.93 21.52 L24.80 22.00 L25.67 22.11 L26.53 22.11 L27.40 21.92 L28.27 21.81 L29.13 21.63 L30.00 20.89 L30.87 20.29 L31.73 19.66 L32.60 19.44 L33.47 18.04 L34.33 16.79 L35.20 15.05 L36.07 13.93 L36.93 13.01 L37.80 11.83 L38.67 11.65 L39.53 12.36 L40.40 11.63 L41.27 11.96 L42.13 11.11 L43.00 11.15 L43.87 10.71 L44.73 10.51 L45.60 9.90 L46.47 9.50 L47.33 8.65 L48.20 7.90 L49.07 7.38 L49.93 7.49 L50.80 6.76 L51.67 5.43 L52.53 4.81 L53.40 4.00 L54.27 4.91 L55.13 4.32  L55.13 28.00 " /><path stroke="#4285F4" stroke-width="1" fill="none" d="M4.00 16.74  L4.00 16.74 L4.87 16.92 L5.73 17.05 L6.60 16.83 L7.47 16.39 L8.33 16.59 L9.20 17.00 L10.07 17.62 L10.93 18.06 L11.80 18.17 L12.67 18.43 L13.53 18.61 L14.40 18.63 L15.27 18.82 L16.13 19.11 L17.00 18.93 L17.87 18.87 L18.73 18.89 L19.60 19.26 L20.47 19.66 L21.33 19.96 L22.20 20.32 L23.07 20.80 L23.93 21.52 L24.80 22.00 L25.67 22.11 L26.53 22.11 L27.40 21.92 L28.27 21.81 L29.13 21.63 L30.00 20.89 L30.87 20.29 L31.73 19.66 L32.60 19.44 L33.47 18.04 L34.33 16.79 L35.20 15.05 L36.07 13.93 L36.93 13.01 L37.80 11.83 L38.67 11.65 L39.53 12.36 L40.40 11.63 L41.27 11.96 L42.13 11.11 L43.00 11.15 L43.87 10.71 L44.73 10.51 L45.60 9.90 L46.47 9.50 L47.33 8.65 L48.20 7.90 L49.07 7.38 L49.93 7.49 L50.80 6.76 L51.67 5.43 L52.53 4.81 L53.40 4.00 L54.27 4.91 L55.13 4.32 " /></svg>