<svg width="60" height="28" xmlns="http://www.w3.org/2000/svg"><path stroke="none" fill="#E8F0FE" d="M4.00 28.00 L4.00 4.00  L4.00 4.00 L4.87 4.49 L5.73 4.98 L6.60 7.41 L7.47 10.34 L8.33 11.32 L9.20 10.83 L10.07 11.80 L10.93 13.27 L11.80 15.22 L12.67 14.73 L13.53 13.27 L14.40 15.22 L15.27 16.20 L16.13 16.68 L17.00 15.71 L17.87 16.20 L18.73 15.71 L19.60 17.66 L20.47 14.73 L21.33 14.24 L22.20 13.76 L23.07 15.71 L23.93 15.22 L24.80 17.17 L25.67 16.20 L26.53 19.61 L27.40 18.15 L28.27 17.66 L29.13 14.73 L30.00 15.71 L30.87 14.73 L31.73 15.71 L32.60 14.24 L33.47 13.76 L34.33 14.24 L35.20 16.20 L36.07 15.71 L36.93 14.24 L37.80 14.24 L38.67 14.73 L39.53 16.68 L40.40 17.66 L41.27 18.63 L42.13 19.12 L43.00 21.56 L43.87 21.56 L44.73 22.54 L45.60 22.54 L46.47 21.56 L47.33 21.07 L48.20 20.59 L49.07 20.59 L49.93 19.61 L50.80 20.10 L51.67 20.10 L52.53 20.10 L53.40 20.10 L54.27 20.59 L55.13 20.59  L55.13 28.00 " /><path stroke="#4285F4" stroke-width="1" fill="none" d="M4.00 4.00  L4.00 4.00 L4.87 4.49 L5.73 4.98 L6.60 7.41 L7.47 10.34 L8.33 11.32 L9.20 10.83 L10.07 11.80 L10.93 13.27 L11.80 15.22 L12.67 14.73 L13.53 13.27 L14.40 15.22 L15.27 16.20 L16.13 16.68 L17.00 15.71 L17.87 16.20 L18.73 15.71 L19.60 17.66 L20.47 14.73 L21.33 14.24 L22.20 13.76 L23.07 15.71 L23.93 15.22 L24.80 17.17 L25.67 16.20 L26.53 19.61 L27.40 18.15 L28.27 17.66 L29.13 14.73 L30.00 15.71 L30.87 14.73 L31.73 15.71 L32.60 14.24 L33.47 13.76 L34.33 14.24 L35.20 16.20 L36.07 15.71 L36.93 14.24 L37.80 14.24 L38.67 14.73 L39.53 16.68 L40.40 17.66 L41.27 18.63 L42.13 19.12 L43.00 21.56 L43.87 21.56 L44.73 22.54 L45.60 22.54 L46.47 21.56 L47.33 21.07 L48.20 20.59 L49.07 20.59 L49.93 19.61 L50.80 20.10 L51.67 20.10 L52.53 20.10 L53.40 20.10 L54.27 20.59 L55.13 20.59 " /></svg>