<svg width="60" height="28" xmlns="http://www.w3.org/2000/svg"><path stroke="none" fill="#E8F0FE" d="M4.00 28.00 L4.00 22.54  L4.00 22.54 L4.87 22.54 L5.73 21.80 L6.60 21.80 L7.47 21.80 L8.33 21.80 L9.20 21.80 L10.07 21.80 L10.93 21.80 L11.80 21.80 L12.67 22.05 L13.53 19.98 L14.40 19.98 L15.27 19.98 L16.13 19.12 L17.00 19.12 L17.87 19.61 L18.73 14.73 L19.60 10.34 L20.47 6.44 L21.33 5.56 L22.20 8.63 L23.07 10.62 L23.93 8.63 L24.80 8.78 L25.67 13.46 L26.53 19.02 L27.40 23.41 L28.27 23.41 L29.13 23.41 L30.00 23.41 L30.87 23.27 L31.73 23.12 L32.60 17.85 L33.47 17.27 L34.33 15.51 L35.20 12.29 L36.07 12.29 L36.93 10.83 L37.80 11.32 L38.67 15.95 L39.53 14.93 L40.40 16.39 L41.27 17.27 L42.13 17.27 L43.00 15.80 L43.87 16.10 L44.73 11.71 L45.60 10.83 L46.47 8.49 L47.33 7.90 L48.20 7.41 L49.07 9.85 L49.93 8.78 L50.80 9.37 L51.67 9.95 L52.53 8.88 L53.40 6.93 L54.27 6.20 L55.13 4.00  L55.13 28.00 " /><path stroke="#4285F4" stroke-width="1" fill="none" d="M4.00 22.54  L4.00 22.54 L4.87 22.54 L5.73 21.80 L6.60 21.80 L7.47 21.80 L8.33 21.80 L9.20 21.80 L10.07 21.80 L10.93 21.80 L11.80 21.80 L12.67 22.05 L13.53 19.98 L14.40 19.98 L15.27 19.98 L16.13 19.12 L17.00 19.12 L17.87 19.61 L18.73 14.73 L19.60 10.34 L20.47 6.44 L21.33 5.56 L22.20 8.63 L23.07 10.62 L23.93 8.63 L24.80 8.78 L25.67 13.46 L26.53 19.02 L27.40 23.41 L28.27 23.41 L29.13 23.41 L30.00 23.41 L30.87 23.27 L31.73 23.12 L32.60 17.85 L33.47 17.27 L34.33 15.51 L35.20 12.29 L36.07 12.29 L36.93 10.83 L37.80 11.32 L38.67 15.95 L39.53 14.93 L40.40 16.39 L41.27 17.27 L42.13 17.27 L43.00 15.80 L43.87 16.10 L44.73 11.71 L45.60 10.83 L46.47 8.49 L47.33 7.90 L48.20 7.41 L49.07 9.85 L49.93 8.78 L50.80 9.37 L51.67 9.95 L52.53 8.88 L53.40 6.93 L54.27 6.20 L55.13 4.00 " /></svg>