<svg width="60" height="28" xmlns="http://www.w3.org/2000/svg"><path stroke="none" fill="#E8F0FE" d="M4.00 28.00 L4.00 19.89  L4.00 19.89 L4.87 19.61 L5.73 18.54 L6.60 17.86 L7.47 19.27 L8.33 19.44 L9.20 18.65 L10.07 19.27 L10.93 18.48 L11.80 18.54 L12.67 18.59 L13.53 18.82 L14.40 19.38 L15.27 20.17 L16.13 20.34 L17.00 20.62 L17.87 21.69 L18.73 21.97 L19.60 21.58 L20.47 21.07 L21.33 20.51 L22.20 20.90 L23.07 21.69 L23.93 22.08 L24.80 21.58 L25.67 21.18 L26.53 20.90 L27.40 20.17 L28.27 19.72 L29.13 19.10 L30.00 17.69 L30.87 16.62 L31.73 17.18 L32.60 17.30 L33.47 17.86 L34.33 17.30 L35.20 16.17 L36.07 15.27 L36.93 14.93 L37.80 13.63 L38.67 12.96 L39.53 13.13 L40.40 12.96 L41.27 14.08 L42.13 14.65 L43.00 15.49 L43.87 16.28 L44.73 16.11 L45.60 13.63 L46.47 12.62 L47.33 12.34 L48.20 13.86 L49.07 13.92 L49.93 11.15 L50.80 9.07 L51.67 11.55 L52.53 10.25 L53.40 8.90 L54.27 7.21 L55.13 4.00  L55.13 28.00 " /><path stroke="#4285F4" stroke-width="1" fill="none" d="M4.00 19.89  L4.00 19.89 L4.87 19.61 L5.73 18.54 L6.60 17.86 L7.47 19.27 L8.33 19.44 L9.20 18.65 L10.07 19.27 L10.93 18.48 L11.80 18.54 L12.67 18.59 L13.53 18.82 L14.40 19.38 L15.27 20.17 L16.13 20.34 L17.00 20.62 L17.87 21.69 L18.73 21.97 L19.60 21.58 L20.47 21.07 L21.33 20.51 L22.20 20.90 L23.07 21.69 L23.93 22.08 L24.80 21.58 L25.67 21.18 L26.53 20.90 L27.40 20.17 L28.27 19.72 L29.13 19.10 L30.00 17.69 L30.87 16.62 L31.73 17.18 L32.60 17.30 L33.47 17.86 L34.33 17.30 L35.20 16.17 L36.07 15.27 L36.93 14.93 L37.80 13.63 L38.67 12.96 L39.53 13.13 L40.40 12.96 L41.27 14.08 L42.13 14.65 L43.00 15.49 L43.87 16.28 L44.73 16.11 L45.60 13.63 L46.47 12.62 L47.33 12.34 L48.20 13.86 L49.07 13.92 L49.93 11.15 L50.80 9.07 L51.67 11.55 L52.53 10.25 L53.40 8.90 L54.27 7.21 L55.13 4.00 " /></svg>