<svg width="60" height="28" xmlns="http://www.w3.org/2000/svg"><path stroke="none" fill="#E8F0FE" d="M4.00 28.00 L4.00 23.44  L4.00 23.44 L4.87 23.44 L5.73 14.00 L6.60 14.00 L7.47 14.00 L8.33 14.56 L9.20 14.56 L10.07 14.56 L10.93 14.56 L11.80 24.00 L12.67 10.11 L13.53 7.33 L14.40 6.22 L15.27 4.00 L16.13 4.00 L17.00 4.00 L17.87 4.00 L18.73 17.89 L19.60 20.11 L20.47 21.22 L21.33 22.89 L22.20 22.33 L23.07 22.33 L23.93 22.33 L24.80 22.33 L25.67 22.33 L26.53 22.33 L27.40 22.89 L28.27 23.44 L29.13 23.44 L30.00 23.44 L30.87 22.89 L31.73 23.44 L32.60 23.44 L33.47 21.78 L34.33 21.78 L35.20 21.78 L36.07 21.78 L36.93 22.33 L37.80 21.22 L38.67 21.22 L39.53 22.89 L40.40 22.33 L41.27 22.33 L42.13 18.44 L43.00 14.56 L43.87 15.67 L44.73 15.67 L45.60 15.67 L46.47 16.22 L47.33 14.56 L48.20 18.44 L49.07 21.78 L49.93 20.67 L50.80 20.67 L51.67 20.67 L52.53 20.67 L53.40 22.33 L54.27 22.33 L55.13 22.89  L55.13 28.00 " /><path stroke="#4285F4" stroke-width="1" fill="none" d="M4.00 23.44  L4.00 23.44 L4.87 23.44 L5.73 14.00 L6.60 14.00 L7.47 14.00 L8.33 14.56 L9.20 14.56 L10.07 14.56 L10.93 14.56 L11.80 24.00 L12.67 10.11 L13.53 7.33 L14.40 6.22 L15.27 4.00 L16.13 4.00 L17.00 4.00 L17.87 4.00 L18.73 17.89 L19.60 20.11 L20.47 21.22 L21.33 22.89 L22.20 22.33 L23.07 22.33 L23.93 22.33 L24.80 22.33 L25.67 22.33 L26.53 22.33 L27.40 22.89 L28.27 23.44 L29.13 23.44 L30.00 23.44 L30.87 22.89 L31.73 23.44 L32.60 23.44 L33.47 21.78 L34.33 21.78 L35.20 21.78 L36.07 21.78 L36.93 22.33 L37.80 21.22 L38.67 21.22 L39.53 22.89 L40.40 22.33 L41.27 22.33 L42.13 18.44 L43.00 14.56 L43.87 15.67 L44.73 15.67 L45.60 15.67 L46.47 16.22 L47.33 14.56 L48.20 18.44 L49.07 21.78 L49.93 20.67 L50.80 20.67 L51.67 20.67 L52.53 20.67 L53.40 22.33 L54.27 22.33 L55.13 22.89 " /></svg>