<svg width="60" height="28" xmlns="http://www.w3.org/2000/svg"><path stroke="none" fill="#E8F0FE" d="M4.00 28.00 L4.00 17.44  L4.00 17.44 L4.87 17.44 L5.73 17.64 L6.60 11.88 L7.47 10.90 L8.33 10.90 L9.20 11.61 L10.07 8.94 L10.93 7.18 L11.80 8.74 L12.67 13.83 L13.53 14.79 L14.40 14.79 L15.27 17.53 L16.13 17.94 L17.00 19.70 L17.87 19.38 L18.73 18.70 L19.60 18.48 L20.47 18.07 L21.33 17.29 L22.20 18.57 L23.07 16.45 L23.93 17.53 L24.80 16.93 L25.67 16.80 L26.53 16.51 L27.40 16.11 L28.27 15.66 L29.13 16.21 L30.00 14.10 L30.87 14.29 L31.73 13.40 L32.60 13.01 L33.47 12.49 L34.33 12.09 L35.20 13.66 L36.07 14.79 L36.93 13.44 L37.80 13.64 L38.67 12.84 L39.53 11.15 L40.40 11.54 L41.27 9.05 L42.13 7.92 L43.00 9.32 L43.87 7.74 L44.73 6.91 L45.60 10.30 L46.47 9.14 L47.33 8.84 L48.20 8.09 L49.07 7.54 L49.93 7.02 L50.80 4.00 L51.67 4.00 L52.53 4.15 L53.40 4.48 L54.27 7.35 L55.13 4.87  L55.13 28.00 " /><path stroke="#4285F4" stroke-width="1" fill="none" d="M4.00 17.44  L4.00 17.44 L4.87 17.44 L5.73 17.64 L6.60 11.88 L7.47 10.90 L8.33 10.90 L9.20 11.61 L10.07 8.94 L10.93 7.18 L11.80 8.74 L12.67 13.83 L13.53 14.79 L14.40 14.79 L15.27 17.53 L16.13 17.94 L17.00 19.70 L17.87 19.38 L18.73 18.70 L19.60 18.48 L20.47 18.07 L21.33 17.29 L22.20 18.57 L23.07 16.45 L23.93 17.53 L24.80 16.93 L25.67 16.80 L26.53 16.51 L27.40 16.11 L28.27 15.66 L29.13 16.21 L30.00 14.10 L30.87 14.29 L31.73 13.40 L32.60 13.01 L33.47 12.49 L34.33 12.09 L35.20 13.66 L36.07 14.79 L36.93 13.44 L37.80 13.64 L38.67 12.84 L39.53 11.15 L40.40 11.54 L41.27 9.05 L42.13 7.92 L43.00 9.32 L43.87 7.74 L44.73 6.91 L45.60 10.30 L46.47 9.14 L47.33 8.84 L48.20 8.09 L49.07 7.54 L49.93 7.02 L50.80 4.00 L51.67 4.00 L52.53 4.15 L53.40 4.48 L54.27 7.35 L55.13 4.87 " /></svg>