<svg width="60" height="28" xmlns="http://www.w3.org/2000/svg"><path stroke="none" fill="#E8F0FE" d="M4.00 28.00 L4.00 20.27  L4.00 20.27 L4.87 18.82 L5.73 18.33 L6.60 18.19 L7.47 18.47 L8.33 18.04 L9.20 16.68 L10.07 15.91 L10.93 16.24 L11.80 17.01 L12.67 16.47 L13.53 15.93 L14.40 16.50 L15.27 16.41 L16.13 14.22 L17.00 13.68 L17.87 12.74 L18.73 13.97 L19.60 12.04 L20.47 12.04 L21.33 10.63 L22.20 12.28 L23.07 9.61 L23.93 8.52 L24.80 8.52 L25.67 9.61 L26.53 8.17 L27.40 8.48 L28.27 7.91 L29.13 9.44 L30.00 9.86 L30.87 7.77 L31.73 8.10 L32.60 7.14 L33.47 8.12 L34.33 7.73 L35.20 8.39 L36.07 8.81 L36.93 8.78 L37.80 9.25 L38.67 10.71 L39.53 12.28 L40.40 11.53 L41.27 11.62 L42.13 10.61 L43.00 9.35 L43.87 7.47 L44.73 5.73 L45.60 4.00 L46.47 5.64 L47.33 4.59 L48.20 4.33 L49.07 5.26 L49.93 6.25 L50.80 6.55 L51.67 6.32 L52.53 6.35 L53.40 8.15 L54.27 10.43 L55.13 10.77  L55.13 28.00 " /><path stroke="#4285F4" stroke-width="1" fill="none" d="M4.00 20.27  L4.00 20.27 L4.87 18.82 L5.73 18.33 L6.60 18.19 L7.47 18.47 L8.33 18.04 L9.20 16.68 L10.07 15.91 L10.93 16.24 L11.80 17.01 L12.67 16.47 L13.53 15.93 L14.40 16.50 L15.27 16.41 L16.13 14.22 L17.00 13.68 L17.87 12.74 L18.73 13.97 L19.60 12.04 L20.47 12.04 L21.33 10.63 L22.20 12.28 L23.07 9.61 L23.93 8.52 L24.80 8.52 L25.67 9.61 L26.53 8.17 L27.40 8.48 L28.27 7.91 L29.13 9.44 L30.00 9.86 L30.87 7.77 L31.73 8.10 L32.60 7.14 L33.47 8.12 L34.33 7.73 L35.20 8.39 L36.07 8.81 L36.93 8.78 L37.80 9.25 L38.67 10.71 L39.53 12.28 L40.40 11.53 L41.27 11.62 L42.13 10.61 L43.00 9.35 L43.87 7.47 L44.73 5.73 L45.60 4.00 L46.47 5.64 L47.33 4.59 L48.20 4.33 L49.07 5.26 L49.93 6.25 L50.80 6.55 L51.67 6.32 L52.53 6.35 L53.40 8.15 L54.27 10.43 L55.13 10.77 " /></svg>