<svg width="60" height="28" xmlns="http://www.w3.org/2000/svg"><path stroke="none" fill="#E8F0FE" d="M4.00 28.00 L4.00 23.72  L4.00 23.72 L4.87 23.53 L5.73 23.12 L6.60 23.11 L7.47 22.87 L8.33 22.48 L9.20 22.39 L10.07 22.30 L10.93 22.52 L11.80 22.81 L12.67 22.64 L13.53 22.59 L14.40 22.86 L15.27 22.51 L16.13 22.48 L17.00 22.15 L17.87 22.14 L18.73 21.86 L19.60 21.25 L20.47 20.12 L21.33 19.56 L22.20 19.08 L23.07 18.99 L23.93 17.67 L24.80 16.16 L25.67 15.66 L26.53 15.36 L27.40 15.18 L28.27 14.58 L29.13 12.94 L30.00 12.21 L30.87 11.74 L31.73 11.24 L32.60 11.58 L33.47 10.83 L34.33 9.47 L35.20 9.05 L36.07 8.85 L36.93 7.74 L37.80 5.95 L38.67 4.59 L39.53 4.00 L40.40 5.04 L41.27 5.64 L42.13 5.19 L43.00 7.08 L43.87 4.91 L44.73 6.61 L45.60 7.27 L46.47 6.15 L47.33 5.32 L48.20 6.11 L49.07 4.15 L49.93 7.87 L50.80 7.05 L51.67 6.67 L52.53 9.38 L53.40 9.14 L54.27 9.52 L55.13 12.40  L55.13 28.00 " /><path stroke="#4285F4" stroke-width="1" fill="none" d="M4.00 23.72  L4.00 23.72 L4.87 23.53 L5.73 23.12 L6.60 23.11 L7.47 22.87 L8.33 22.48 L9.20 22.39 L10.07 22.30 L10.93 22.52 L11.80 22.81 L12.67 22.64 L13.53 22.59 L14.40 22.86 L15.27 22.51 L16.13 22.48 L17.00 22.15 L17.87 22.14 L18.73 21.86 L19.60 21.25 L20.47 20.12 L21.33 19.56 L22.20 19.08 L23.07 18.99 L23.93 17.67 L24.80 16.16 L25.67 15.66 L26.53 15.36 L27.40 15.18 L28.27 14.58 L29.13 12.94 L30.00 12.21 L30.87 11.74 L31.73 11.24 L32.60 11.58 L33.47 10.83 L34.33 9.47 L35.20 9.05 L36.07 8.85 L36.93 7.74 L37.80 5.95 L38.67 4.59 L39.53 4.00 L40.40 5.04 L41.27 5.64 L42.13 5.19 L43.00 7.08 L43.87 4.91 L44.73 6.61 L45.60 7.27 L46.47 6.15 L47.33 5.32 L48.20 6.11 L49.07 4.15 L49.93 7.87 L50.80 7.05 L51.67 6.67 L52.53 9.38 L53.40 9.14 L54.27 9.52 L55.13 12.40 " /></svg>