<svg width="60" height="28" xmlns="http://www.w3.org/2000/svg"><path stroke="none" fill="#E8F0FE" d="M4.00 28.00 L4.00 23.04  L4.00 23.04 L4.87 23.00 L5.73 22.95 L6.60 22.88 L7.47 22.77 L8.33 22.61 L9.20 22.53 L10.07 22.49 L10.93 22.39 L11.80 22.21 L12.67 22.12 L13.53 22.10 L14.40 22.07 L15.27 21.92 L16.13 21.85 L17.00 21.73 L17.87 21.70 L18.73 21.66 L19.60 21.70 L20.47 21.42 L21.33 21.31 L22.20 21.03 L23.07 20.87 L23.93 20.71 L24.80 20.50 L25.67 20.24 L26.53 20.23 L27.40 19.64 L28.27 19.38 L29.13 19.12 L30.00 18.92 L30.87 18.62 L31.73 18.41 L32.60 18.18 L33.47 18.22 L34.33 17.98 L35.20 17.57 L36.07 16.92 L36.93 16.63 L37.80 16.40 L38.67 15.87 L39.53 15.76 L40.40 15.61 L41.27 15.23 L42.13 15.13 L43.00 14.87 L43.87 14.31 L44.73 13.79 L45.60 12.78 L46.47 12.00 L47.33 11.27 L48.20 10.71 L49.07 10.11 L49.93 9.32 L50.80 8.53 L51.67 7.83 L52.53 6.90 L53.40 5.72 L54.27 4.92 L55.13 4.00  L55.13 28.00 " /><path stroke="#4285F4" stroke-width="1" fill="none" d="M4.00 23.04  L4.00 23.04 L4.87 23.00 L5.73 22.95 L6.60 22.88 L7.47 22.77 L8.33 22.61 L9.20 22.53 L10.07 22.49 L10.93 22.39 L11.80 22.21 L12.67 22.12 L13.53 22.10 L14.40 22.07 L15.27 21.92 L16.13 21.85 L17.00 21.73 L17.87 21.70 L18.73 21.66 L19.60 21.70 L20.47 21.42 L21.33 21.31 L22.20 21.03 L23.07 20.87 L23.93 20.71 L24.80 20.50 L25.67 20.24 L26.53 20.23 L27.40 19.64 L28.27 19.38 L29.13 19.12 L30.00 18.92 L30.87 18.62 L31.73 18.41 L32.60 18.18 L33.47 18.22 L34.33 17.98 L35.20 17.57 L36.07 16.92 L36.93 16.63 L37.80 16.40 L38.67 15.87 L39.53 15.76 L40.40 15.61 L41.27 15.23 L42.13 15.13 L43.00 14.87 L43.87 14.31 L44.73 13.79 L45.60 12.78 L46.47 12.00 L47.33 11.27 L48.20 10.71 L49.07 10.11 L49.93 9.32 L50.80 8.53 L51.67 7.83 L52.53 6.90 L53.40 5.72 L54.27 4.92 L55.13 4.00 " /></svg>