<svg width="60" height="28" xmlns="http://www.w3.org/2000/svg"><path stroke="none" fill="#E8F0FE" d="M4.00 28.00 L4.00 4.00  L4.00 4.00 L4.87 5.90 L5.73 4.95 L6.60 5.90 L7.47 4.95 L8.33 13.52 L9.20 10.19 L10.07 10.67 L10.93 11.62 L11.80 12.10 L12.67 14.00 L13.53 14.95 L14.40 13.52 L15.27 16.38 L16.13 15.90 L17.00 14.95 L17.87 18.29 L18.73 16.86 L19.60 18.29 L20.47 18.76 L21.33 18.29 L22.20 14.48 L23.07 10.67 L23.93 5.43 L24.80 6.38 L25.67 4.48 L26.53 4.95 L27.40 5.90 L28.27 9.71 L29.13 6.86 L30.00 11.62 L30.87 11.14 L31.73 9.24 L32.60 6.38 L33.47 5.90 L34.33 4.48 L35.20 12.57 L36.07 11.14 L36.93 9.71 L37.80 13.05 L38.67 16.38 L39.53 17.33 L40.40 19.24 L41.27 16.38 L42.13 15.90 L43.00 17.81 L43.87 17.81 L44.73 16.38 L45.60 14.00 L46.47 13.52 L47.33 15.90 L48.20 16.38 L49.07 16.86 L49.93 17.33 L50.80 15.43 L51.67 16.86 L52.53 16.38 L53.40 14.00 L54.27 15.43 L55.13 13.05  L55.13 28.00 " /><path stroke="#4285F4" stroke-width="1" fill="none" d="M4.00 4.00  L4.00 4.00 L4.87 5.90 L5.73 4.95 L6.60 5.90 L7.47 4.95 L8.33 13.52 L9.20 10.19 L10.07 10.67 L10.93 11.62 L11.80 12.10 L12.67 14.00 L13.53 14.95 L14.40 13.52 L15.27 16.38 L16.13 15.90 L17.00 14.95 L17.87 18.29 L18.73 16.86 L19.60 18.29 L20.47 18.76 L21.33 18.29 L22.20 14.48 L23.07 10.67 L23.93 5.43 L24.80 6.38 L25.67 4.48 L26.53 4.95 L27.40 5.90 L28.27 9.71 L29.13 6.86 L30.00 11.62 L30.87 11.14 L31.73 9.24 L32.60 6.38 L33.47 5.90 L34.33 4.48 L35.20 12.57 L36.07 11.14 L36.93 9.71 L37.80 13.05 L38.67 16.38 L39.53 17.33 L40.40 19.24 L41.27 16.38 L42.13 15.90 L43.00 17.81 L43.87 17.81 L44.73 16.38 L45.60 14.00 L46.47 13.52 L47.33 15.90 L48.20 16.38 L49.07 16.86 L49.93 17.33 L50.80 15.43 L51.67 16.86 L52.53 16.38 L53.40 14.00 L54.27 15.43 L55.13 13.05 " /></svg>