<svg width="60" height="28" xmlns="http://www.w3.org/2000/svg"><path stroke="none" fill="#E8F0FE" d="M4.00 28.00 L4.00 24.45  L4.00 24.45 L4.87 24.23 L5.73 22.64 L6.60 22.18 L7.47 22.41 L8.33 22.41 L9.20 22.86 L10.07 22.18 L10.93 21.95 L11.80 21.95 L12.67 22.41 L13.53 22.41 L14.40 22.86 L15.27 22.86 L16.13 23.55 L17.00 23.77 L17.87 23.77 L18.73 23.77 L19.60 23.55 L20.47 23.55 L21.33 23.55 L22.20 23.55 L23.07 23.77 L23.93 23.55 L24.80 23.55 L25.67 23.77 L26.53 23.77 L27.40 23.55 L28.27 5.59 L29.13 4.00 L30.00 4.00 L30.87 4.00 L31.73 4.00 L32.60 4.00 L33.47 4.23 L34.33 22.18 L35.20 23.77 L36.07 24.00 L36.93 23.77 L37.80 23.77 L38.67 23.77 L39.53 23.77 L40.40 23.55 L41.27 23.55 L42.13 23.32 L43.00 23.55 L43.87 23.55 L44.73 23.55 L45.60 23.55 L46.47 23.77 L47.33 23.77 L48.20 24.00 L49.07 24.00 L49.93 24.00 L50.80 24.00 L51.67 24.00 L52.53 24.00 L53.40 24.00 L54.27 24.00 L55.13 24.00  L55.13 28.00 " /><path stroke="#4285F4" stroke-width="1" fill="none" d="M4.00 24.45  L4.00 24.45 L4.87 24.23 L5.73 22.64 L6.60 22.18 L7.47 22.41 L8.33 22.41 L9.20 22.86 L10.07 22.18 L10.93 21.95 L11.80 21.95 L12.67 22.41 L13.53 22.41 L14.40 22.86 L15.27 22.86 L16.13 23.55 L17.00 23.77 L17.87 23.77 L18.73 23.77 L19.60 23.55 L20.47 23.55 L21.33 23.55 L22.20 23.55 L23.07 23.77 L23.93 23.55 L24.80 23.55 L25.67 23.77 L26.53 23.77 L27.40 23.55 L28.27 5.59 L29.13 4.00 L30.00 4.00 L30.87 4.00 L31.73 4.00 L32.60 4.00 L33.47 4.23 L34.33 22.18 L35.20 23.77 L36.07 24.00 L36.93 23.77 L37.80 23.77 L38.67 23.77 L39.53 23.77 L40.40 23.55 L41.27 23.55 L42.13 23.32 L43.00 23.55 L43.87 23.55 L44.73 23.55 L45.60 23.55 L46.47 23.77 L47.33 23.77 L48.20 24.00 L49.07 24.00 L49.93 24.00 L50.80 24.00 L51.67 24.00 L52.53 24.00 L53.40 24.00 L54.27 24.00 L55.13 24.00 " /></svg>