<svg width="60" height="28" xmlns="http://www.w3.org/2000/svg"><path stroke="none" fill="#E8F0FE" d="M4.00 28.00 L4.00 24.00  L4.00 24.00 L4.87 24.00 L5.73 24.00 L6.60 24.00 L7.47 24.00 L8.33 24.00 L9.20 24.00 L10.07 24.00 L10.93 24.00 L11.80 24.00 L12.67 24.00 L13.53 24.00 L14.40 24.00 L15.27 24.00 L16.13 24.00 L17.00 24.00 L17.87 24.00 L18.73 24.00 L19.60 24.00 L20.47 24.00 L21.33 24.00 L22.20 24.00 L23.07 24.00 L23.93 24.00 L24.80 24.00 L25.67 24.00 L26.53 24.00 L27.40 24.00 L28.27 24.00 L29.13 24.00 L30.00 23.60 L30.87 23.60 L31.73 23.60 L32.60 23.60 L33.47 23.60 L34.33 23.60 L35.20 23.60 L36.07 24.00 L36.93 24.00 L37.80 19.25 L38.67 13.11 L39.53 10.53 L40.40 8.16 L41.27 6.18 L42.13 4.00 L43.00 4.00 L43.87 8.75 L44.73 14.69 L45.60 17.27 L46.47 19.64 L47.33 21.43 L48.20 23.60 L49.07 19.05 L49.93 14.30 L50.80 14.50 L51.67 14.50 L52.53 12.12 L53.40 12.32 L54.27 9.94 L55.13 14.50  L55.13 28.00 " /><path stroke="#4285F4" stroke-width="1" fill="none" d="M4.00 24.00  L4.00 24.00 L4.87 24.00 L5.73 24.00 L6.60 24.00 L7.47 24.00 L8.33 24.00 L9.20 24.00 L10.07 24.00 L10.93 24.00 L11.80 24.00 L12.67 24.00 L13.53 24.00 L14.40 24.00 L15.27 24.00 L16.13 24.00 L17.00 24.00 L17.87 24.00 L18.73 24.00 L19.60 24.00 L20.47 24.00 L21.33 24.00 L22.20 24.00 L23.07 24.00 L23.93 24.00 L24.80 24.00 L25.67 24.00 L26.53 24.00 L27.40 24.00 L28.27 24.00 L29.13 24.00 L30.00 23.60 L30.87 23.60 L31.73 23.60 L32.60 23.60 L33.47 23.60 L34.33 23.60 L35.20 23.60 L36.07 24.00 L36.93 24.00 L37.80 19.25 L38.67 13.11 L39.53 10.53 L40.40 8.16 L41.27 6.18 L42.13 4.00 L43.00 4.00 L43.87 8.75 L44.73 14.69 L45.60 17.27 L46.47 19.64 L47.33 21.43 L48.20 23.60 L49.07 19.05 L49.93 14.30 L50.80 14.50 L51.67 14.50 L52.53 12.12 L53.40 12.32 L54.27 9.94 L55.13 14.50 " /></svg>