<svg width="60" height="28" xmlns="http://www.w3.org/2000/svg"><path stroke="none" fill="#E8F0FE" d="M4.00 28.00 L4.00 19.34  L4.00 19.34 L4.87 20.58 L5.73 20.27 L6.60 19.34 L7.47 17.17 L8.33 18.72 L9.20 17.79 L10.07 17.79 L10.93 17.79 L11.80 17.17 L12.67 17.79 L13.53 19.96 L14.40 19.34 L15.27 20.58 L16.13 20.58 L17.00 19.65 L17.87 20.58 L18.73 20.89 L19.60 18.41 L20.47 19.96 L21.33 19.34 L22.20 19.34 L23.07 16.86 L23.93 16.86 L24.80 16.24 L25.67 18.41 L26.53 18.20 L27.40 17.91 L28.27 17.91 L29.13 22.70 L30.00 22.70 L30.87 23.13 L31.73 23.46 L32.60 23.57 L33.47 22.91 L34.33 22.70 L35.20 21.83 L36.07 21.39 L36.93 21.83 L37.80 21.83 L38.67 21.83 L39.53 17.48 L40.40 18.57 L41.27 14.94 L42.13 13.57 L43.00 13.57 L43.87 14.94 L44.73 7.33 L45.60 11.32 L46.47 10.23 L47.33 12.41 L48.20 9.40 L49.07 6.97 L49.93 4.00 L50.80 10.96 L51.67 7.04 L52.53 7.04 L53.40 6.07 L54.27 10.96 L55.13 6.61  L55.13 28.00 " /><path stroke="#4285F4" stroke-width="1" fill="none" d="M4.00 19.34  L4.00 19.34 L4.87 20.58 L5.73 20.27 L6.60 19.34 L7.47 17.17 L8.33 18.72 L9.20 17.79 L10.07 17.79 L10.93 17.79 L11.80 17.17 L12.67 17.79 L13.53 19.96 L14.40 19.34 L15.27 20.58 L16.13 20.58 L17.00 19.65 L17.87 20.58 L18.73 20.89 L19.60 18.41 L20.47 19.96 L21.33 19.34 L22.20 19.34 L23.07 16.86 L23.93 16.86 L24.80 16.24 L25.67 18.41 L26.53 18.20 L27.40 17.91 L28.27 17.91 L29.13 22.70 L30.00 22.70 L30.87 23.13 L31.73 23.46 L32.60 23.57 L33.47 22.91 L34.33 22.70 L35.20 21.83 L36.07 21.39 L36.93 21.83 L37.80 21.83 L38.67 21.83 L39.53 17.48 L40.40 18.57 L41.27 14.94 L42.13 13.57 L43.00 13.57 L43.87 14.94 L44.73 7.33 L45.60 11.32 L46.47 10.23 L47.33 12.41 L48.20 9.40 L49.07 6.97 L49.93 4.00 L50.80 10.96 L51.67 7.04 L52.53 7.04 L53.40 6.07 L54.27 10.96 L55.13 6.61 " /></svg>