<svg width="60" height="28" xmlns="http://www.w3.org/2000/svg"><path stroke="none" fill="#E8F0FE" d="M4.00 28.00 L4.00 21.39  L4.00 21.39 L4.87 21.66 L5.73 21.33 L6.60 21.59 L7.47 21.41 L8.33 21.50 L9.20 20.82 L10.07 20.21 L10.93 20.48 L11.80 20.64 L12.67 20.47 L13.53 20.48 L14.40 20.51 L15.27 21.08 L16.13 21.19 L17.00 20.72 L17.87 20.48 L18.73 20.15 L19.60 20.11 L20.47 19.84 L21.33 19.43 L22.20 19.49 L23.07 19.56 L23.93 19.45 L24.80 19.67 L25.67 19.80 L26.53 19.20 L27.40 19.45 L28.27 20.17 L29.13 19.24 L30.00 19.00 L30.87 18.94 L31.73 17.76 L32.60 17.13 L33.47 16.74 L34.33 15.75 L35.20 15.83 L36.07 15.50 L36.93 15.25 L37.80 15.91 L38.67 16.53 L39.53 15.59 L40.40 13.91 L41.27 14.03 L42.13 13.69 L43.00 12.82 L43.87 11.84 L44.73 11.51 L45.60 11.99 L46.47 12.12 L47.33 11.13 L48.20 10.34 L49.07 9.42 L49.93 8.99 L50.80 7.35 L51.67 6.11 L52.53 5.37 L53.40 4.96 L54.27 4.39 L55.13 4.00  L55.13 28.00 " /><path stroke="#4285F4" stroke-width="1" fill="none" d="M4.00 21.39  L4.00 21.39 L4.87 21.66 L5.73 21.33 L6.60 21.59 L7.47 21.41 L8.33 21.50 L9.20 20.82 L10.07 20.21 L10.93 20.48 L11.80 20.64 L12.67 20.47 L13.53 20.48 L14.40 20.51 L15.27 21.08 L16.13 21.19 L17.00 20.72 L17.87 20.48 L18.73 20.15 L19.60 20.11 L20.47 19.84 L21.33 19.43 L22.20 19.49 L23.07 19.56 L23.93 19.45 L24.80 19.67 L25.67 19.80 L26.53 19.20 L27.40 19.45 L28.27 20.17 L29.13 19.24 L30.00 19.00 L30.87 18.94 L31.73 17.76 L32.60 17.13 L33.47 16.74 L34.33 15.75 L35.20 15.83 L36.07 15.50 L36.93 15.25 L37.80 15.91 L38.67 16.53 L39.53 15.59 L40.40 13.91 L41.27 14.03 L42.13 13.69 L43.00 12.82 L43.87 11.84 L44.73 11.51 L45.60 11.99 L46.47 12.12 L47.33 11.13 L48.20 10.34 L49.07 9.42 L49.93 8.99 L50.80 7.35 L51.67 6.11 L52.53 5.37 L53.40 4.96 L54.27 4.39 L55.13 4.00 " /></svg>