<svg width="60" height="28" xmlns="http://www.w3.org/2000/svg"><path stroke="none" fill="#E8F0FE" d="M4.00 28.00 L4.00 22.29  L4.00 22.29 L4.87 22.57 L5.73 22.86 L6.60 22.99 L7.47 22.99 L8.33 23.03 L9.20 23.07 L10.07 23.16 L10.93 23.30 L11.80 23.37 L12.67 23.42 L13.53 23.47 L14.40 23.51 L15.27 23.51 L16.13 23.59 L17.00 23.61 L17.87 23.58 L18.73 23.58 L19.60 23.59 L20.47 23.60 L21.33 23.51 L22.20 23.42 L23.07 23.21 L23.93 22.89 L24.80 22.81 L25.67 22.55 L26.53 22.28 L27.40 22.03 L28.27 21.84 L29.13 21.61 L30.00 21.57 L30.87 21.40 L31.73 21.22 L32.60 20.95 L33.47 20.77 L34.33 20.28 L35.20 20.10 L36.07 19.90 L36.93 19.65 L37.80 19.66 L38.67 19.59 L39.53 19.16 L40.40 19.06 L41.27 18.67 L42.13 18.24 L43.00 18.21 L43.87 18.09 L44.73 17.59 L45.60 17.07 L46.47 16.32 L47.33 15.59 L48.20 15.04 L49.07 14.20 L49.93 13.47 L50.80 12.05 L51.67 10.89 L52.53 9.22 L53.40 7.04 L54.27 5.41 L55.13 4.00  L55.13 28.00 " /><path stroke="#4285F4" stroke-width="1" fill="none" d="M4.00 22.29  L4.00 22.29 L4.87 22.57 L5.73 22.86 L6.60 22.99 L7.47 22.99 L8.33 23.03 L9.20 23.07 L10.07 23.16 L10.93 23.30 L11.80 23.37 L12.67 23.42 L13.53 23.47 L14.40 23.51 L15.27 23.51 L16.13 23.59 L17.00 23.61 L17.87 23.58 L18.73 23.58 L19.60 23.59 L20.47 23.60 L21.33 23.51 L22.20 23.42 L23.07 23.21 L23.93 22.89 L24.80 22.81 L25.67 22.55 L26.53 22.28 L27.40 22.03 L28.27 21.84 L29.13 21.61 L30.00 21.57 L30.87 21.40 L31.73 21.22 L32.60 20.95 L33.47 20.77 L34.33 20.28 L35.20 20.10 L36.07 19.90 L36.93 19.65 L37.80 19.66 L38.67 19.59 L39.53 19.16 L40.40 19.06 L41.27 18.67 L42.13 18.24 L43.00 18.21 L43.87 18.09 L44.73 17.59 L45.60 17.07 L46.47 16.32 L47.33 15.59 L48.20 15.04 L49.07 14.20 L49.93 13.47 L50.80 12.05 L51.67 10.89 L52.53 9.22 L53.40 7.04 L54.27 5.41 L55.13 4.00 " /></svg>