<svg width="60" height="28" xmlns="http://www.w3.org/2000/svg"><path stroke="none" fill="#E8F0FE" d="M4.00 28.00 L4.00 16.98  L4.00 16.98 L4.87 17.10 L5.73 16.39 L6.60 16.09 L7.47 16.07 L8.33 16.00 L9.20 16.11 L10.07 16.65 L10.93 16.19 L11.80 16.64 L12.67 17.50 L13.53 17.09 L14.40 16.32 L15.27 16.46 L16.13 16.28 L17.00 16.56 L17.87 16.36 L18.73 15.78 L19.60 16.24 L20.47 17.26 L21.33 16.58 L22.20 16.03 L23.07 15.60 L23.93 15.78 L24.80 15.79 L25.67 15.74 L26.53 15.78 L27.40 16.34 L28.27 16.56 L29.13 16.81 L30.00 16.44 L30.87 16.35 L31.73 15.56 L32.60 15.20 L33.47 14.85 L34.33 13.70 L35.20 13.09 L36.07 12.84 L36.93 12.89 L37.80 13.61 L38.67 13.19 L39.53 13.10 L40.40 13.40 L41.27 13.89 L42.13 13.41 L43.00 11.72 L43.87 10.45 L44.73 9.96 L45.60 9.04 L46.47 9.14 L47.33 8.48 L48.20 8.00 L49.07 8.48 L49.93 9.31 L50.80 8.69 L51.67 8.28 L52.53 7.29 L53.40 6.21 L54.27 5.61 L55.13 4.00  L55.13 28.00 " /><path stroke="#4285F4" stroke-width="1" fill="none" d="M4.00 16.98  L4.00 16.98 L4.87 17.10 L5.73 16.39 L6.60 16.09 L7.47 16.07 L8.33 16.00 L9.20 16.11 L10.07 16.65 L10.93 16.19 L11.80 16.64 L12.67 17.50 L13.53 17.09 L14.40 16.32 L15.27 16.46 L16.13 16.28 L17.00 16.56 L17.87 16.36 L18.73 15.78 L19.60 16.24 L20.47 17.26 L21.33 16.58 L22.20 16.03 L23.07 15.60 L23.93 15.78 L24.80 15.79 L25.67 15.74 L26.53 15.78 L27.40 16.34 L28.27 16.56 L29.13 16.81 L30.00 16.44 L30.87 16.35 L31.73 15.56 L32.60 15.20 L33.47 14.85 L34.33 13.70 L35.20 13.09 L36.07 12.84 L36.93 12.89 L37.80 13.61 L38.67 13.19 L39.53 13.10 L40.40 13.40 L41.27 13.89 L42.13 13.41 L43.00 11.72 L43.87 10.45 L44.73 9.96 L45.60 9.04 L46.47 9.14 L47.33 8.48 L48.20 8.00 L49.07 8.48 L49.93 9.31 L50.80 8.69 L51.67 8.28 L52.53 7.29 L53.40 6.21 L54.27 5.61 L55.13 4.00 " /></svg>