<svg width="60" height="28" xmlns="http://www.w3.org/2000/svg"><path stroke="none" fill="#E8F0FE" d="M4.00 28.00 L4.00 7.37  L4.00 7.37 L4.87 6.35 L5.73 6.47 L6.60 5.26 L7.47 6.82 L8.33 7.78 L9.20 8.84 L10.07 9.20 L10.93 10.34 L11.80 11.30 L12.67 11.71 L13.53 12.21 L14.40 12.69 L15.27 12.96 L16.13 13.18 L17.00 13.55 L17.87 14.04 L18.73 14.99 L19.60 14.63 L20.47 14.26 L21.33 14.33 L22.20 14.57 L23.07 14.58 L23.93 14.08 L24.80 14.03 L25.67 14.73 L26.53 15.29 L27.40 15.50 L28.27 15.60 L29.13 15.28 L30.00 15.24 L30.87 14.96 L31.73 14.45 L32.60 14.58 L33.47 14.38 L34.33 14.03 L35.20 14.04 L36.07 13.84 L36.93 13.15 L37.80 12.12 L38.67 11.80 L39.53 10.98 L40.40 9.82 L41.27 9.17 L42.13 8.41 L43.00 7.98 L43.87 8.02 L44.73 7.39 L45.60 7.67 L46.47 7.86 L47.33 6.77 L48.20 6.05 L49.07 6.09 L49.93 6.28 L50.80 6.10 L51.67 4.74 L52.53 4.70 L53.40 4.78 L54.27 4.71 L55.13 4.00  L55.13 28.00 " /><path stroke="#4285F4" stroke-width="1" fill="none" d="M4.00 7.37  L4.00 7.37 L4.87 6.35 L5.73 6.47 L6.60 5.26 L7.47 6.82 L8.33 7.78 L9.20 8.84 L10.07 9.20 L10.93 10.34 L11.80 11.30 L12.67 11.71 L13.53 12.21 L14.40 12.69 L15.27 12.96 L16.13 13.18 L17.00 13.55 L17.87 14.04 L18.73 14.99 L19.60 14.63 L20.47 14.26 L21.33 14.33 L22.20 14.57 L23.07 14.58 L23.93 14.08 L24.80 14.03 L25.67 14.73 L26.53 15.29 L27.40 15.50 L28.27 15.60 L29.13 15.28 L30.00 15.24 L30.87 14.96 L31.73 14.45 L32.60 14.58 L33.47 14.38 L34.33 14.03 L35.20 14.04 L36.07 13.84 L36.93 13.15 L37.80 12.12 L38.67 11.80 L39.53 10.98 L40.40 9.82 L41.27 9.17 L42.13 8.41 L43.00 7.98 L43.87 8.02 L44.73 7.39 L45.60 7.67 L46.47 7.86 L47.33 6.77 L48.20 6.05 L49.07 6.09 L49.93 6.28 L50.80 6.10 L51.67 4.74 L52.53 4.70 L53.40 4.78 L54.27 4.71 L55.13 4.00 " /></svg>