<svg width="60" height="28" xmlns="http://www.w3.org/2000/svg"><path stroke="none" fill="#E8F0FE" d="M4.00 28.00 L4.00 4.00  L4.00 4.00 L4.87 7.66 L5.73 11.74 L6.60 14.54 L7.47 14.11 L8.33 14.32 L9.20 15.83 L10.07 16.04 L10.93 12.82 L11.80 13.68 L12.67 12.17 L13.53 11.10 L14.40 10.45 L15.27 10.02 L16.13 9.81 L17.00 12.39 L17.87 12.82 L18.73 13.89 L19.60 16.47 L20.47 17.55 L21.33 18.62 L22.20 19.27 L23.07 20.34 L23.93 19.05 L24.80 17.76 L25.67 12.60 L26.53 10.45 L27.40 10.24 L28.27 10.02 L29.13 10.45 L30.00 11.31 L30.87 13.03 L31.73 18.41 L32.60 20.13 L33.47 19.27 L34.33 19.27 L35.20 18.19 L36.07 15.83 L36.93 14.75 L37.80 12.17 L38.67 9.59 L39.53 10.88 L40.40 9.81 L41.27 10.02 L42.13 12.82 L43.00 13.89 L43.87 14.97 L44.73 17.76 L45.60 17.12 L46.47 18.41 L47.33 18.84 L48.20 18.84 L49.07 19.05 L49.93 20.13 L50.80 20.13 L51.67 20.34 L52.53 20.34 L53.40 19.27 L54.27 18.84 L55.13 18.19  L55.13 28.00 " /><path stroke="#4285F4" stroke-width="1" fill="none" d="M4.00 4.00  L4.00 4.00 L4.87 7.66 L5.73 11.74 L6.60 14.54 L7.47 14.11 L8.33 14.32 L9.20 15.83 L10.07 16.04 L10.93 12.82 L11.80 13.68 L12.67 12.17 L13.53 11.10 L14.40 10.45 L15.27 10.02 L16.13 9.81 L17.00 12.39 L17.87 12.82 L18.73 13.89 L19.60 16.47 L20.47 17.55 L21.33 18.62 L22.20 19.27 L23.07 20.34 L23.93 19.05 L24.80 17.76 L25.67 12.60 L26.53 10.45 L27.40 10.24 L28.27 10.02 L29.13 10.45 L30.00 11.31 L30.87 13.03 L31.73 18.41 L32.60 20.13 L33.47 19.27 L34.33 19.27 L35.20 18.19 L36.07 15.83 L36.93 14.75 L37.80 12.17 L38.67 9.59 L39.53 10.88 L40.40 9.81 L41.27 10.02 L42.13 12.82 L43.00 13.89 L43.87 14.97 L44.73 17.76 L45.60 17.12 L46.47 18.41 L47.33 18.84 L48.20 18.84 L49.07 19.05 L49.93 20.13 L50.80 20.13 L51.67 20.34 L52.53 20.34 L53.40 19.27 L54.27 18.84 L55.13 18.19 " /></svg>