<svg width="60" height="28" xmlns="http://www.w3.org/2000/svg"><path stroke="none" fill="#E8F0FE" d="M4.00 28.00 L4.00 19.95  L4.00 19.95 L4.87 19.31 L5.73 19.06 L6.60 19.40 L7.47 18.82 L8.33 18.58 L9.20 18.57 L10.07 18.75 L10.93 19.10 L11.80 19.22 L12.67 18.55 L13.53 18.50 L14.40 18.37 L15.27 18.01 L16.13 17.44 L17.00 17.36 L17.87 16.96 L18.73 17.07 L19.60 17.31 L20.47 17.54 L21.33 17.60 L22.20 17.50 L23.07 17.17 L23.93 16.74 L24.80 16.15 L25.67 14.89 L26.53 13.62 L27.40 12.29 L28.27 11.71 L29.13 10.59 L30.00 9.66 L30.87 8.80 L31.73 8.45 L32.60 7.81 L33.47 7.31 L34.33 6.13 L35.20 5.28 L36.07 4.38 L36.93 4.12 L37.80 4.22 L38.67 4.00 L39.53 4.23 L40.40 4.94 L41.27 4.88 L42.13 5.79 L43.00 6.17 L43.87 6.41 L44.73 7.36 L45.60 8.00 L46.47 9.05 L47.33 10.74 L48.20 11.17 L49.07 11.62 L49.93 12.16 L50.80 12.04 L51.67 11.90 L52.53 11.26 L53.40 11.14 L54.27 11.57 L55.13 11.67  L55.13 28.00 " /><path stroke="#4285F4" stroke-width="1" fill="none" d="M4.00 19.95  L4.00 19.95 L4.87 19.31 L5.73 19.06 L6.60 19.40 L7.47 18.82 L8.33 18.58 L9.20 18.57 L10.07 18.75 L10.93 19.10 L11.80 19.22 L12.67 18.55 L13.53 18.50 L14.40 18.37 L15.27 18.01 L16.13 17.44 L17.00 17.36 L17.87 16.96 L18.73 17.07 L19.60 17.31 L20.47 17.54 L21.33 17.60 L22.20 17.50 L23.07 17.17 L23.93 16.74 L24.80 16.15 L25.67 14.89 L26.53 13.62 L27.40 12.29 L28.27 11.71 L29.13 10.59 L30.00 9.66 L30.87 8.80 L31.73 8.45 L32.60 7.81 L33.47 7.31 L34.33 6.13 L35.20 5.28 L36.07 4.38 L36.93 4.12 L37.80 4.22 L38.67 4.00 L39.53 4.23 L40.40 4.94 L41.27 4.88 L42.13 5.79 L43.00 6.17 L43.87 6.41 L44.73 7.36 L45.60 8.00 L46.47 9.05 L47.33 10.74 L48.20 11.17 L49.07 11.62 L49.93 12.16 L50.80 12.04 L51.67 11.90 L52.53 11.26 L53.40 11.14 L54.27 11.57 L55.13 11.67 " /></svg>