<svg width="60" height="28" xmlns="http://www.w3.org/2000/svg"><path stroke="none" fill="#E8F0FE" d="M4.00 28.00 L4.00 13.52  L4.00 13.52 L4.87 15.76 L5.73 16.75 L6.60 17.42 L7.47 17.62 L8.33 17.92 L9.20 18.44 L10.07 19.05 L10.93 18.84 L11.80 19.14 L12.67 19.44 L13.53 19.13 L14.40 18.86 L15.27 19.19 L16.13 18.72 L17.00 18.65 L17.87 18.25 L18.73 18.15 L19.60 18.61 L20.47 19.15 L21.33 19.15 L22.20 19.66 L23.07 20.26 L23.93 20.76 L24.80 21.16 L25.67 21.52 L26.53 21.67 L27.40 21.77 L28.27 21.57 L29.13 21.34 L30.00 20.93 L30.87 20.47 L31.73 19.96 L32.60 19.42 L33.47 18.98 L34.33 19.01 L35.20 18.79 L36.07 19.01 L36.93 18.99 L37.80 19.22 L38.67 19.38 L39.53 19.47 L40.40 19.18 L41.27 18.95 L42.13 18.76 L43.00 18.58 L43.87 18.27 L44.73 17.88 L45.60 17.46 L46.47 17.00 L47.33 16.58 L48.20 15.60 L49.07 14.29 L49.93 12.69 L50.80 11.26 L51.67 9.55 L52.53 8.28 L53.40 6.10 L54.27 4.96 L55.13 4.00  L55.13 28.00 " /><path stroke="#4285F4" stroke-width="1" fill="none" d="M4.00 13.52  L4.00 13.52 L4.87 15.76 L5.73 16.75 L6.60 17.42 L7.47 17.62 L8.33 17.92 L9.20 18.44 L10.07 19.05 L10.93 18.84 L11.80 19.14 L12.67 19.44 L13.53 19.13 L14.40 18.86 L15.27 19.19 L16.13 18.72 L17.00 18.65 L17.87 18.25 L18.73 18.15 L19.60 18.61 L20.47 19.15 L21.33 19.15 L22.20 19.66 L23.07 20.26 L23.93 20.76 L24.80 21.16 L25.67 21.52 L26.53 21.67 L27.40 21.77 L28.27 21.57 L29.13 21.34 L30.00 20.93 L30.87 20.47 L31.73 19.96 L32.60 19.42 L33.47 18.98 L34.33 19.01 L35.20 18.79 L36.07 19.01 L36.93 18.99 L37.80 19.22 L38.67 19.38 L39.53 19.47 L40.40 19.18 L41.27 18.95 L42.13 18.76 L43.00 18.58 L43.87 18.27 L44.73 17.88 L45.60 17.46 L46.47 17.00 L47.33 16.58 L48.20 15.60 L49.07 14.29 L49.93 12.69 L50.80 11.26 L51.67 9.55 L52.53 8.28 L53.40 6.10 L54.27 4.96 L55.13 4.00 " /></svg>