<svg width="60" height="28" xmlns="http://www.w3.org/2000/svg"><path stroke="none" fill="#E8F0FE" d="M4.00 28.00 L4.00 20.25  L4.00 20.25 L4.87 20.40 L5.73 20.12 L6.60 20.03 L7.47 19.92 L8.33 20.10 L9.20 19.95 L10.07 19.88 L10.93 19.81 L11.80 19.53 L12.67 19.12 L13.53 18.89 L14.40 17.69 L15.27 17.38 L16.13 17.16 L17.00 16.20 L17.87 15.70 L18.73 15.10 L19.60 14.35 L20.47 13.91 L21.33 13.60 L22.20 12.97 L23.07 12.50 L23.93 11.89 L24.80 12.43 L25.67 12.45 L26.53 13.52 L27.40 12.51 L28.27 11.88 L29.13 10.76 L30.00 10.16 L30.87 8.86 L31.73 7.04 L32.60 7.11 L33.47 7.85 L34.33 8.23 L35.20 8.81 L36.07 8.74 L36.93 7.96 L37.80 8.42 L38.67 7.53 L39.53 7.19 L40.40 6.68 L41.27 6.25 L42.13 6.92 L43.00 7.68 L43.87 8.13 L44.73 8.47 L45.60 8.50 L46.47 7.77 L47.33 7.30 L48.20 5.98 L49.07 5.49 L49.93 4.71 L50.80 4.00 L51.67 4.01 L52.53 4.84 L53.40 5.63 L54.27 6.05 L55.13 6.41  L55.13 28.00 " /><path stroke="#4285F4" stroke-width="1" fill="none" d="M4.00 20.25  L4.00 20.25 L4.87 20.40 L5.73 20.12 L6.60 20.03 L7.47 19.92 L8.33 20.10 L9.20 19.95 L10.07 19.88 L10.93 19.81 L11.80 19.53 L12.67 19.12 L13.53 18.89 L14.40 17.69 L15.27 17.38 L16.13 17.16 L17.00 16.20 L17.87 15.70 L18.73 15.10 L19.60 14.35 L20.47 13.91 L21.33 13.60 L22.20 12.97 L23.07 12.50 L23.93 11.89 L24.80 12.43 L25.67 12.45 L26.53 13.52 L27.40 12.51 L28.27 11.88 L29.13 10.76 L30.00 10.16 L30.87 8.86 L31.73 7.04 L32.60 7.11 L33.47 7.85 L34.33 8.23 L35.20 8.81 L36.07 8.74 L36.93 7.96 L37.80 8.42 L38.67 7.53 L39.53 7.19 L40.40 6.68 L41.27 6.25 L42.13 6.92 L43.00 7.68 L43.87 8.13 L44.73 8.47 L45.60 8.50 L46.47 7.77 L47.33 7.30 L48.20 5.98 L49.07 5.49 L49.93 4.71 L50.80 4.00 L51.67 4.01 L52.53 4.84 L53.40 5.63 L54.27 6.05 L55.13 6.41 " /></svg>