<svg width="60" height="28" xmlns="http://www.w3.org/2000/svg"><path stroke="none" fill="#E8F0FE" d="M4.00 28.00 L4.00 22.28  L4.00 22.28 L4.87 22.10 L5.73 22.37 L6.60 21.94 L7.47 21.67 L8.33 21.41 L9.20 21.37 L10.07 21.25 L10.93 21.32 L11.80 21.26 L12.67 21.51 L13.53 21.34 L14.40 21.28 L15.27 21.07 L16.13 21.09 L17.00 20.89 L17.87 20.79 L18.73 20.82 L19.60 20.70 L20.47 20.77 L21.33 20.89 L22.20 20.79 L23.07 20.82 L23.93 20.31 L24.80 20.04 L25.67 19.60 L26.53 18.39 L27.40 17.30 L28.27 15.95 L29.13 14.52 L30.00 12.26 L30.87 10.66 L31.73 9.81 L32.60 9.13 L33.47 8.94 L34.33 8.51 L35.20 7.53 L36.07 7.82 L36.93 6.59 L37.80 5.67 L38.67 6.15 L39.53 5.35 L40.40 4.14 L41.27 4.00 L42.13 4.12 L43.00 4.28 L43.87 5.37 L44.73 5.55 L45.60 5.85 L46.47 6.90 L47.33 7.46 L48.20 7.34 L49.07 8.00 L49.93 6.70 L50.80 6.01 L51.67 5.83 L52.53 6.08 L53.40 5.71 L54.27 5.72 L55.13 5.78  L55.13 28.00 " /><path stroke="#4285F4" stroke-width="1" fill="none" d="M4.00 22.28  L4.00 22.28 L4.87 22.10 L5.73 22.37 L6.60 21.94 L7.47 21.67 L8.33 21.41 L9.20 21.37 L10.07 21.25 L10.93 21.32 L11.80 21.26 L12.67 21.51 L13.53 21.34 L14.40 21.28 L15.27 21.07 L16.13 21.09 L17.00 20.89 L17.87 20.79 L18.73 20.82 L19.60 20.70 L20.47 20.77 L21.33 20.89 L22.20 20.79 L23.07 20.82 L23.93 20.31 L24.80 20.04 L25.67 19.60 L26.53 18.39 L27.40 17.30 L28.27 15.95 L29.13 14.52 L30.00 12.26 L30.87 10.66 L31.73 9.81 L32.60 9.13 L33.47 8.94 L34.33 8.51 L35.20 7.53 L36.07 7.82 L36.93 6.59 L37.80 5.67 L38.67 6.15 L39.53 5.35 L40.40 4.14 L41.27 4.00 L42.13 4.12 L43.00 4.28 L43.87 5.37 L44.73 5.55 L45.60 5.85 L46.47 6.90 L47.33 7.46 L48.20 7.34 L49.07 8.00 L49.93 6.70 L50.80 6.01 L51.67 5.83 L52.53 6.08 L53.40 5.71 L54.27 5.72 L55.13 5.78 " /></svg>