<svg width="60" height="28" xmlns="http://www.w3.org/2000/svg"><path stroke="none" fill="#E8F0FE" d="M4.87 28.00 L4.87 24.00  L4.87 24.00 L5.73 24.00 L6.60 24.00 L7.47 24.00 L8.33 24.00 L9.20 24.00 L10.07 24.00 L18.73 14.00 L19.60 19.00 L20.47 17.33 L21.33 17.33 L22.20 17.33 L23.07 16.50 L23.93 16.50 L24.80 17.33 L25.67 14.00 L26.53 14.00 L27.40 17.33 L28.27 16.50 L29.13 19.00 L30.00 20.00 L30.87 20.00 L31.73 20.00 L32.60 21.50 L33.47 20.67 L34.33 20.67 L35.20 19.00 L36.07 14.00 L36.93 14.00 L37.80 14.00 L38.67 19.00 L39.53 17.33 L40.40 19.00 L41.27 19.00 L42.13 19.00 L43.00 19.00 L43.87 19.00 L44.73 14.00 L52.53 4.00 L53.40 4.00 L54.27 4.00 L55.13 4.00  L55.13 28.00 " /><path stroke="#4285F4" stroke-width="1" fill="none" d="M4.87 24.00  L4.87 24.00 L5.73 24.00 L6.60 24.00 L7.47 24.00 L8.33 24.00 L9.20 24.00 L10.07 24.00 L18.73 14.00 L19.60 19.00 L20.47 17.33 L21.33 17.33 L22.20 17.33 L23.07 16.50 L23.93 16.50 L24.80 17.33 L25.67 14.00 L26.53 14.00 L27.40 17.33 L28.27 16.50 L29.13 19.00 L30.00 20.00 L30.87 20.00 L31.73 20.00 L32.60 21.50 L33.47 20.67 L34.33 20.67 L35.20 19.00 L36.07 14.00 L36.93 14.00 L37.80 14.00 L38.67 19.00 L39.53 17.33 L40.40 19.00 L41.27 19.00 L42.13 19.00 L43.00 19.00 L43.87 19.00 L44.73 14.00 L52.53 4.00 L53.40 4.00 L54.27 4.00 L55.13 4.00 " /></svg>