<svg width="60" height="28" xmlns="http://www.w3.org/2000/svg"><path stroke="none" fill="#E8F0FE" d="M4.00 28.00 L4.00 23.98  L4.00 23.98 L4.87 23.98 L5.73 24.00 L6.60 24.00 L7.47 24.00 L8.33 24.00 L9.20 24.00 L10.07 24.00 L10.93 23.98 L11.80 23.88 L12.67 23.68 L13.53 23.51 L14.40 23.18 L15.27 22.89 L16.13 22.13 L17.00 21.99 L17.87 21.61 L18.73 21.81 L19.60 21.16 L20.47 21.34 L21.33 21.25 L22.20 22.01 L23.07 21.70 L23.93 21.37 L24.80 20.20 L25.67 20.11 L26.53 19.54 L27.40 19.92 L28.27 19.04 L29.13 18.28 L30.00 17.34 L30.87 17.00 L31.73 16.94 L32.60 17.66 L33.47 16.11 L34.33 15.27 L35.20 14.65 L36.07 16.41 L36.93 15.54 L37.80 14.48 L38.67 11.29 L39.53 12.84 L40.40 12.97 L41.27 12.23 L42.13 9.70 L43.00 9.02 L43.87 8.06 L44.73 8.33 L45.60 5.73 L46.47 5.23 L47.33 5.22 L48.20 4.29 L49.07 4.00 L49.93 4.44 L50.80 7.36 L51.67 6.28 L52.53 7.03 L53.40 6.05 L54.27 7.47 L55.13 9.31  L55.13 28.00 " /><path stroke="#4285F4" stroke-width="1" fill="none" d="M4.00 23.98  L4.00 23.98 L4.87 23.98 L5.73 24.00 L6.60 24.00 L7.47 24.00 L8.33 24.00 L9.20 24.00 L10.07 24.00 L10.93 23.98 L11.80 23.88 L12.67 23.68 L13.53 23.51 L14.40 23.18 L15.27 22.89 L16.13 22.13 L17.00 21.99 L17.87 21.61 L18.73 21.81 L19.60 21.16 L20.47 21.34 L21.33 21.25 L22.20 22.01 L23.07 21.70 L23.93 21.37 L24.80 20.20 L25.67 20.11 L26.53 19.54 L27.40 19.92 L28.27 19.04 L29.13 18.28 L30.00 17.34 L30.87 17.00 L31.73 16.94 L32.60 17.66 L33.47 16.11 L34.33 15.27 L35.20 14.65 L36.07 16.41 L36.93 15.54 L37.80 14.48 L38.67 11.29 L39.53 12.84 L40.40 12.97 L41.27 12.23 L42.13 9.70 L43.00 9.02 L43.87 8.06 L44.73 8.33 L45.60 5.73 L46.47 5.23 L47.33 5.22 L48.20 4.29 L49.07 4.00 L49.93 4.44 L50.80 7.36 L51.67 6.28 L52.53 7.03 L53.40 6.05 L54.27 7.47 L55.13 9.31 " /></svg>