<svg width="60" height="28" xmlns="http://www.w3.org/2000/svg"><path stroke="none" fill="#E8F0FE" d="M4.00 28.00 L4.00 17.33  L4.00 17.33 L4.87 18.67 L5.73 14.67 L6.60 18.67 L7.47 18.67 L8.33 20.00 L9.20 20.00 L10.07 18.67 L10.93 16.00 L11.80 20.00 L12.67 18.67 L13.53 17.33 L14.40 17.33 L15.27 17.33 L16.13 16.00 L17.00 18.67 L17.87 18.67 L18.73 20.00 L19.60 17.33 L20.47 10.67 L21.33 10.67 L22.20 13.33 L23.07 5.33 L23.93 5.33 L24.80 4.00 L25.67 8.00 L26.53 14.67 L27.40 14.67 L28.27 13.33 L29.13 21.33 L30.00 21.33 L30.87 22.67 L31.73 22.67 L32.60 22.67 L33.47 22.67 L34.33 24.00 L35.20 24.00 L36.07 24.00 L36.93 24.00 L37.80 22.67 L38.67 20.00 L39.53 20.00 L40.40 20.00 L41.27 20.00 L42.13 20.00 L43.00 20.00 L43.87 18.67 L44.73 21.33 L45.60 21.33 L46.47 21.33 L47.33 21.33 L48.20 21.33 L49.07 21.33 L49.93 24.00 L50.80 24.00 L51.67 24.00 L52.53 24.00 L53.40 24.00 L54.27 24.00 L55.13 24.00  L55.13 28.00 " /><path stroke="#4285F4" stroke-width="1" fill="none" d="M4.00 17.33  L4.00 17.33 L4.87 18.67 L5.73 14.67 L6.60 18.67 L7.47 18.67 L8.33 20.00 L9.20 20.00 L10.07 18.67 L10.93 16.00 L11.80 20.00 L12.67 18.67 L13.53 17.33 L14.40 17.33 L15.27 17.33 L16.13 16.00 L17.00 18.67 L17.87 18.67 L18.73 20.00 L19.60 17.33 L20.47 10.67 L21.33 10.67 L22.20 13.33 L23.07 5.33 L23.93 5.33 L24.80 4.00 L25.67 8.00 L26.53 14.67 L27.40 14.67 L28.27 13.33 L29.13 21.33 L30.00 21.33 L30.87 22.67 L31.73 22.67 L32.60 22.67 L33.47 22.67 L34.33 24.00 L35.20 24.00 L36.07 24.00 L36.93 24.00 L37.80 22.67 L38.67 20.00 L39.53 20.00 L40.40 20.00 L41.27 20.00 L42.13 20.00 L43.00 20.00 L43.87 18.67 L44.73 21.33 L45.60 21.33 L46.47 21.33 L47.33 21.33 L48.20 21.33 L49.07 21.33 L49.93 24.00 L50.80 24.00 L51.67 24.00 L52.53 24.00 L53.40 24.00 L54.27 24.00 L55.13 24.00 " /></svg>