<svg width="60" height="28" xmlns="http://www.w3.org/2000/svg"><path stroke="none" fill="#E8F0FE" d="M4.00 28.00 L4.00 17.14  L4.00 17.14 L4.87 19.43 L5.73 20.34 L6.60 20.57 L7.47 19.89 L8.33 19.20 L9.20 20.34 L10.07 20.57 L10.93 20.57 L11.80 20.57 L12.67 21.49 L13.53 21.94 L14.40 22.63 L15.27 22.63 L16.13 22.86 L17.00 23.09 L17.87 23.31 L18.73 23.31 L19.60 23.54 L20.47 23.31 L21.33 23.54 L22.20 23.31 L23.07 22.86 L23.93 22.86 L24.80 22.86 L25.67 22.86 L26.53 23.09 L27.40 22.63 L28.27 22.63 L29.13 23.09 L30.00 22.63 L30.87 21.49 L31.73 21.26 L32.60 21.26 L33.47 21.49 L34.33 21.49 L35.20 21.49 L36.07 21.49 L36.93 22.17 L37.80 21.71 L38.67 21.49 L39.53 21.03 L40.40 20.57 L41.27 18.74 L42.13 18.74 L43.00 17.83 L43.87 18.29 L44.73 18.29 L45.60 16.00 L46.47 15.31 L47.33 15.77 L48.20 13.71 L49.07 11.89 L49.93 10.06 L50.80 9.37 L51.67 8.91 L52.53 7.54 L53.40 4.34 L54.27 4.00 L55.13 4.48  L55.13 28.00 " /><path stroke="#4285F4" stroke-width="1" fill="none" d="M4.00 17.14  L4.00 17.14 L4.87 19.43 L5.73 20.34 L6.60 20.57 L7.47 19.89 L8.33 19.20 L9.20 20.34 L10.07 20.57 L10.93 20.57 L11.80 20.57 L12.67 21.49 L13.53 21.94 L14.40 22.63 L15.27 22.63 L16.13 22.86 L17.00 23.09 L17.87 23.31 L18.73 23.31 L19.60 23.54 L20.47 23.31 L21.33 23.54 L22.20 23.31 L23.07 22.86 L23.93 22.86 L24.80 22.86 L25.67 22.86 L26.53 23.09 L27.40 22.63 L28.27 22.63 L29.13 23.09 L30.00 22.63 L30.87 21.49 L31.73 21.26 L32.60 21.26 L33.47 21.49 L34.33 21.49 L35.20 21.49 L36.07 21.49 L36.93 22.17 L37.80 21.71 L38.67 21.49 L39.53 21.03 L40.40 20.57 L41.27 18.74 L42.13 18.74 L43.00 17.83 L43.87 18.29 L44.73 18.29 L45.60 16.00 L46.47 15.31 L47.33 15.77 L48.20 13.71 L49.07 11.89 L49.93 10.06 L50.80 9.37 L51.67 8.91 L52.53 7.54 L53.40 4.34 L54.27 4.00 L55.13 4.48 " /></svg>