<svg width="60" height="28" xmlns="http://www.w3.org/2000/svg"><path stroke="none" fill="#E8F0FE" d="M4.00 28.00 L4.00 18.61  L4.00 18.61 L4.87 20.40 L5.73 18.04 L6.60 18.04 L7.47 17.82 L8.33 17.26 L9.20 17.37 L10.07 16.70 L10.93 16.81 L11.80 20.18 L12.67 20.52 L13.53 19.62 L14.40 20.52 L15.27 20.63 L16.13 21.30 L17.00 20.63 L17.87 20.29 L18.73 20.07 L19.60 19.96 L20.47 18.72 L21.33 18.27 L22.20 18.04 L23.07 17.82 L23.93 17.37 L24.80 17.93 L25.67 18.94 L26.53 20.07 L27.40 19.84 L28.27 20.29 L29.13 21.42 L30.00 21.64 L30.87 21.08 L31.73 19.62 L32.60 18.61 L33.47 18.72 L34.33 15.35 L35.20 12.43 L36.07 7.26 L36.93 5.24 L37.80 5.57 L38.67 6.36 L39.53 5.35 L40.40 7.26 L41.27 5.46 L42.13 8.61 L43.00 7.03 L43.87 8.16 L44.73 7.71 L45.60 8.61 L46.47 6.70 L47.33 9.73 L48.20 10.52 L49.07 11.87 L49.93 10.74 L50.80 7.60 L51.67 6.92 L52.53 8.49 L53.40 7.15 L54.27 5.24 L55.13 4.00  L55.13 28.00 " /><path stroke="#4285F4" stroke-width="1" fill="none" d="M4.00 18.61  L4.00 18.61 L4.87 20.40 L5.73 18.04 L6.60 18.04 L7.47 17.82 L8.33 17.26 L9.20 17.37 L10.07 16.70 L10.93 16.81 L11.80 20.18 L12.67 20.52 L13.53 19.62 L14.40 20.52 L15.27 20.63 L16.13 21.30 L17.00 20.63 L17.87 20.29 L18.73 20.07 L19.60 19.96 L20.47 18.72 L21.33 18.27 L22.20 18.04 L23.07 17.82 L23.93 17.37 L24.80 17.93 L25.67 18.94 L26.53 20.07 L27.40 19.84 L28.27 20.29 L29.13 21.42 L30.00 21.64 L30.87 21.08 L31.73 19.62 L32.60 18.61 L33.47 18.72 L34.33 15.35 L35.20 12.43 L36.07 7.26 L36.93 5.24 L37.80 5.57 L38.67 6.36 L39.53 5.35 L40.40 7.26 L41.27 5.46 L42.13 8.61 L43.00 7.03 L43.87 8.16 L44.73 7.71 L45.60 8.61 L46.47 6.70 L47.33 9.73 L48.20 10.52 L49.07 11.87 L49.93 10.74 L50.80 7.60 L51.67 6.92 L52.53 8.49 L53.40 7.15 L54.27 5.24 L55.13 4.00 " /></svg>