<svg width="60" height="28" xmlns="http://www.w3.org/2000/svg"><path stroke="none" fill="#E8F0FE" d="M4.00 28.00 L4.00 9.74  L4.00 9.74 L4.87 10.01 L5.73 4.00 L6.60 4.95 L7.47 5.38 L8.33 5.16 L9.20 6.94 L10.07 7.42 L10.93 7.80 L11.80 14.29 L12.67 14.67 L13.53 15.00 L14.40 15.86 L15.27 13.20 L16.13 12.79 L17.00 13.30 L17.87 12.69 L18.73 14.87 L19.60 13.94 L20.47 13.86 L21.33 15.63 L22.20 15.29 L23.07 14.83 L23.93 15.49 L24.80 14.13 L25.67 15.45 L26.53 15.72 L27.40 17.59 L28.27 18.38 L29.13 19.15 L30.00 19.06 L30.87 19.16 L31.73 19.26 L32.60 19.45 L33.47 19.23 L34.33 18.81 L35.20 18.66 L36.07 18.46 L36.93 18.43 L37.80 18.50 L38.67 18.41 L39.53 18.04 L40.40 18.49 L41.27 18.57 L42.13 18.54 L43.00 18.42 L43.87 18.36 L44.73 18.41 L45.60 18.84 L46.47 18.58 L47.33 18.11 L48.20 18.18 L49.07 18.26 L49.93 18.14 L50.80 18.01 L51.67 17.91 L52.53 17.85 L53.40 18.36 L54.27 18.21 L55.13 14.81  L55.13 28.00 " /><path stroke="#4285F4" stroke-width="1" fill="none" d="M4.00 9.74  L4.00 9.74 L4.87 10.01 L5.73 4.00 L6.60 4.95 L7.47 5.38 L8.33 5.16 L9.20 6.94 L10.07 7.42 L10.93 7.80 L11.80 14.29 L12.67 14.67 L13.53 15.00 L14.40 15.86 L15.27 13.20 L16.13 12.79 L17.00 13.30 L17.87 12.69 L18.73 14.87 L19.60 13.94 L20.47 13.86 L21.33 15.63 L22.20 15.29 L23.07 14.83 L23.93 15.49 L24.80 14.13 L25.67 15.45 L26.53 15.72 L27.40 17.59 L28.27 18.38 L29.13 19.15 L30.00 19.06 L30.87 19.16 L31.73 19.26 L32.60 19.45 L33.47 19.23 L34.33 18.81 L35.20 18.66 L36.07 18.46 L36.93 18.43 L37.80 18.50 L38.67 18.41 L39.53 18.04 L40.40 18.49 L41.27 18.57 L42.13 18.54 L43.00 18.42 L43.87 18.36 L44.73 18.41 L45.60 18.84 L46.47 18.58 L47.33 18.11 L48.20 18.18 L49.07 18.26 L49.93 18.14 L50.80 18.01 L51.67 17.91 L52.53 17.85 L53.40 18.36 L54.27 18.21 L55.13 14.81 " /></svg>