<svg width="60" height="28" xmlns="http://www.w3.org/2000/svg"><path stroke="none" fill="#E8F0FE" d="M4.00 28.00 L4.00 17.96  L4.00 17.96 L4.87 18.66 L5.73 18.80 L6.60 18.80 L7.47 18.77 L8.33 18.54 L9.20 19.03 L10.07 19.49 L10.93 19.11 L11.80 18.97 L12.67 18.50 L13.53 18.62 L14.40 17.73 L15.27 17.49 L16.13 17.09 L17.00 17.84 L17.87 17.78 L18.73 17.35 L19.60 16.66 L20.47 17.64 L21.33 17.84 L22.20 18.42 L23.07 18.10 L23.93 18.14 L24.80 18.80 L25.67 19.21 L26.53 19.41 L27.40 19.20 L28.27 18.62 L29.13 18.59 L30.00 18.91 L30.87 18.85 L31.73 18.50 L32.60 17.96 L33.47 18.08 L34.33 18.10 L35.20 18.01 L36.07 17.75 L36.93 17.52 L37.80 17.94 L38.67 18.39 L39.53 18.50 L40.40 18.83 L41.27 17.98 L42.13 16.84 L43.00 17.01 L43.87 16.75 L44.73 16.40 L45.60 15.76 L46.47 14.60 L47.33 14.98 L48.20 14.34 L49.07 11.00 L49.93 7.10 L50.80 4.98 L51.67 4.06 L52.53 4.60 L53.40 4.00 L54.27 4.41 L55.13 6.54  L55.13 28.00 " /><path stroke="#4285F4" stroke-width="1" fill="none" d="M4.00 17.96  L4.00 17.96 L4.87 18.66 L5.73 18.80 L6.60 18.80 L7.47 18.77 L8.33 18.54 L9.20 19.03 L10.07 19.49 L10.93 19.11 L11.80 18.97 L12.67 18.50 L13.53 18.62 L14.40 17.73 L15.27 17.49 L16.13 17.09 L17.00 17.84 L17.87 17.78 L18.73 17.35 L19.60 16.66 L20.47 17.64 L21.33 17.84 L22.20 18.42 L23.07 18.10 L23.93 18.14 L24.80 18.80 L25.67 19.21 L26.53 19.41 L27.40 19.20 L28.27 18.62 L29.13 18.59 L30.00 18.91 L30.87 18.85 L31.73 18.50 L32.60 17.96 L33.47 18.08 L34.33 18.10 L35.20 18.01 L36.07 17.75 L36.93 17.52 L37.80 17.94 L38.67 18.39 L39.53 18.50 L40.40 18.83 L41.27 17.98 L42.13 16.84 L43.00 17.01 L43.87 16.75 L44.73 16.40 L45.60 15.76 L46.47 14.60 L47.33 14.98 L48.20 14.34 L49.07 11.00 L49.93 7.10 L50.80 4.98 L51.67 4.06 L52.53 4.60 L53.40 4.00 L54.27 4.41 L55.13 6.54 " /></svg>