<svg width="60" height="28" xmlns="http://www.w3.org/2000/svg"><path stroke="none" fill="#E8F0FE" d="M4.00 28.00 L4.00 4.00  L4.00 4.00 L4.87 4.54 L5.73 5.19 L6.60 7.96 L7.47 8.24 L8.33 8.41 L9.20 8.97 L10.07 9.49 L10.93 10.00 L11.80 10.19 L12.67 10.04 L13.53 10.15 L14.40 10.39 L15.27 10.54 L16.13 10.44 L17.00 10.54 L17.87 10.56 L18.73 10.83 L19.60 10.93 L20.47 11.10 L21.33 11.38 L22.20 11.70 L23.07 12.13 L23.93 12.76 L24.80 13.31 L25.67 13.74 L26.53 14.14 L27.40 14.47 L28.27 15.07 L29.13 15.58 L30.00 15.67 L30.87 15.87 L31.73 16.23 L32.60 16.74 L33.47 17.09 L34.33 17.49 L35.20 17.82 L36.07 18.26 L36.93 18.72 L37.80 19.03 L38.67 19.18 L39.53 19.33 L40.40 19.40 L41.27 19.41 L42.13 19.53 L43.00 19.64 L43.87 19.74 L44.73 19.73 L45.60 19.91 L46.47 19.89 L47.33 20.29 L48.20 20.55 L49.07 20.73 L49.93 20.10 L50.80 20.16 L51.67 20.27 L52.53 20.32 L53.40 20.07 L54.27 20.09 L55.13 20.09  L55.13 28.00 " /><path stroke="#4285F4" stroke-width="1" fill="none" d="M4.00 4.00  L4.00 4.00 L4.87 4.54 L5.73 5.19 L6.60 7.96 L7.47 8.24 L8.33 8.41 L9.20 8.97 L10.07 9.49 L10.93 10.00 L11.80 10.19 L12.67 10.04 L13.53 10.15 L14.40 10.39 L15.27 10.54 L16.13 10.44 L17.00 10.54 L17.87 10.56 L18.73 10.83 L19.60 10.93 L20.47 11.10 L21.33 11.38 L22.20 11.70 L23.07 12.13 L23.93 12.76 L24.80 13.31 L25.67 13.74 L26.53 14.14 L27.40 14.47 L28.27 15.07 L29.13 15.58 L30.00 15.67 L30.87 15.87 L31.73 16.23 L32.60 16.74 L33.47 17.09 L34.33 17.49 L35.20 17.82 L36.07 18.26 L36.93 18.72 L37.80 19.03 L38.67 19.18 L39.53 19.33 L40.40 19.40 L41.27 19.41 L42.13 19.53 L43.00 19.64 L43.87 19.74 L44.73 19.73 L45.60 19.91 L46.47 19.89 L47.33 20.29 L48.20 20.55 L49.07 20.73 L49.93 20.10 L50.80 20.16 L51.67 20.27 L52.53 20.32 L53.40 20.07 L54.27 20.09 L55.13 20.09 " /></svg>