<svg width="60" height="28" xmlns="http://www.w3.org/2000/svg"><path stroke="none" fill="#E8F0FE" d="M4.00 28.00 L4.00 24.00  L4.00 24.00 L4.87 24.00 L5.73 24.00 L6.60 24.00 L7.47 24.00 L8.33 24.00 L9.20 19.00 L10.07 19.00 L10.93 17.33 L11.80 14.00 L12.67 14.00 L13.53 14.00 L14.40 4.00 L16.13 24.00 L17.00 24.00 L17.87 24.00 L18.73 24.00 L19.60 24.00 L20.47 24.00 L21.33 24.00 L22.20 24.00 L23.07 24.00 L23.93 24.00 L24.80 24.00 L25.67 24.00 L26.53 24.00 L28.27 24.00 L29.13 24.00 L30.00 24.00 L30.87 24.00 L31.73 24.00 L32.60 24.00 L33.47 24.00 L37.80 24.00 L38.67 24.00 L39.53 24.00 L40.40 24.00 L41.27 24.00 L42.13 24.00 L43.00 24.00 L52.53 4.00 L53.40 14.00 L54.27 17.33 L55.13 17.33  L55.13 28.00 " /><path stroke="#4285F4" stroke-width="1" fill="none" d="M4.00 24.00  L4.00 24.00 L4.87 24.00 L5.73 24.00 L6.60 24.00 L7.47 24.00 L8.33 24.00 L9.20 19.00 L10.07 19.00 L10.93 17.33 L11.80 14.00 L12.67 14.00 L13.53 14.00 L14.40 4.00 L16.13 24.00 L17.00 24.00 L17.87 24.00 L18.73 24.00 L19.60 24.00 L20.47 24.00 L21.33 24.00 L22.20 24.00 L23.07 24.00 L23.93 24.00 L24.80 24.00 L25.67 24.00 L26.53 24.00 L28.27 24.00 L29.13 24.00 L30.00 24.00 L30.87 24.00 L31.73 24.00 L32.60 24.00 L33.47 24.00 L37.80 24.00 L38.67 24.00 L39.53 24.00 L40.40 24.00 L41.27 24.00 L42.13 24.00 L43.00 24.00 L52.53 4.00 L53.40 14.00 L54.27 17.33 L55.13 17.33 " /></svg>