<svg width="60" height="28" xmlns="http://www.w3.org/2000/svg"><path stroke="none" fill="#E8F0FE" d="M4.00 28.00 L4.00 22.40  L4.00 22.40 L4.87 21.57 L5.73 21.02 L6.60 20.80 L7.47 20.80 L8.33 20.80 L9.20 18.64 L10.07 18.64 L10.93 19.75 L11.80 17.54 L12.67 18.25 L13.53 18.25 L14.40 17.20 L15.27 19.52 L16.13 19.19 L17.00 19.64 L17.87 19.69 L18.73 19.69 L19.60 18.70 L20.47 19.75 L21.33 17.54 L22.20 15.77 L23.07 15.66 L23.93 18.36 L24.80 17.48 L25.67 18.48 L26.53 17.54 L27.40 19.58 L28.27 21.29 L29.13 20.63 L30.00 20.46 L30.87 21.13 L31.73 20.35 L32.60 19.64 L33.47 20.02 L34.33 18.48 L35.20 18.70 L36.07 17.92 L36.93 18.14 L37.80 17.04 L38.67 18.70 L39.53 12.95 L40.40 14.88 L41.27 15.44 L42.13 16.38 L43.00 16.38 L43.87 18.25 L44.73 18.25 L45.60 12.73 L46.47 9.75 L47.33 9.75 L48.20 6.27 L49.07 6.27 L49.93 4.00 L50.80 4.00 L51.67 15.27 L52.53 13.61 L53.40 7.31 L54.27 10.80 L55.13 4.50  L55.13 28.00 " /><path stroke="#4285F4" stroke-width="1" fill="none" d="M4.00 22.40  L4.00 22.40 L4.87 21.57 L5.73 21.02 L6.60 20.80 L7.47 20.80 L8.33 20.80 L9.20 18.64 L10.07 18.64 L10.93 19.75 L11.80 17.54 L12.67 18.25 L13.53 18.25 L14.40 17.20 L15.27 19.52 L16.13 19.19 L17.00 19.64 L17.87 19.69 L18.73 19.69 L19.60 18.70 L20.47 19.75 L21.33 17.54 L22.20 15.77 L23.07 15.66 L23.93 18.36 L24.80 17.48 L25.67 18.48 L26.53 17.54 L27.40 19.58 L28.27 21.29 L29.13 20.63 L30.00 20.46 L30.87 21.13 L31.73 20.35 L32.60 19.64 L33.47 20.02 L34.33 18.48 L35.20 18.70 L36.07 17.92 L36.93 18.14 L37.80 17.04 L38.67 18.70 L39.53 12.95 L40.40 14.88 L41.27 15.44 L42.13 16.38 L43.00 16.38 L43.87 18.25 L44.73 18.25 L45.60 12.73 L46.47 9.75 L47.33 9.75 L48.20 6.27 L49.07 6.27 L49.93 4.00 L50.80 4.00 L51.67 15.27 L52.53 13.61 L53.40 7.31 L54.27 10.80 L55.13 4.50 " /></svg>