<svg width="60" height="28" xmlns="http://www.w3.org/2000/svg"><path stroke="none" fill="#E8F0FE" d="M4.00 28.00 L4.00 16.26  L4.00 16.26 L4.87 16.91 L5.73 16.54 L6.60 17.26 L7.47 16.95 L8.33 17.02 L9.20 17.53 L10.07 18.00 L10.93 18.01 L11.80 18.85 L12.67 18.73 L13.53 17.57 L14.40 16.57 L15.27 15.13 L16.13 14.64 L17.00 13.98 L17.87 12.50 L18.73 11.53 L19.60 10.95 L20.47 11.40 L21.33 10.63 L22.20 9.93 L23.07 9.88 L23.93 9.93 L24.80 9.15 L25.67 8.71 L26.53 7.26 L27.40 8.32 L28.27 8.98 L29.13 8.98 L30.00 9.65 L30.87 11.17 L31.73 12.93 L32.60 14.65 L33.47 14.94 L34.33 14.82 L35.20 14.83 L36.07 14.60 L36.93 13.59 L37.80 13.14 L38.67 12.25 L39.53 11.23 L40.40 10.60 L41.27 10.20 L42.13 9.06 L43.00 9.14 L43.87 8.35 L44.73 7.73 L45.60 7.70 L46.47 6.93 L47.33 4.00  L47.33 28.00 " /><path stroke="#4285F4" stroke-width="1" fill="none" d="M4.00 16.26  L4.00 16.26 L4.87 16.91 L5.73 16.54 L6.60 17.26 L7.47 16.95 L8.33 17.02 L9.20 17.53 L10.07 18.00 L10.93 18.01 L11.80 18.85 L12.67 18.73 L13.53 17.57 L14.40 16.57 L15.27 15.13 L16.13 14.64 L17.00 13.98 L17.87 12.50 L18.73 11.53 L19.60 10.95 L20.47 11.40 L21.33 10.63 L22.20 9.93 L23.07 9.88 L23.93 9.93 L24.80 9.15 L25.67 8.71 L26.53 7.26 L27.40 8.32 L28.27 8.98 L29.13 8.98 L30.00 9.65 L30.87 11.17 L31.73 12.93 L32.60 14.65 L33.47 14.94 L34.33 14.82 L35.20 14.83 L36.07 14.60 L36.93 13.59 L37.80 13.14 L38.67 12.25 L39.53 11.23 L40.40 10.60 L41.27 10.20 L42.13 9.06 L43.00 9.14 L43.87 8.35 L44.73 7.73 L45.60 7.70 L46.47 6.93 L47.33 4.00 " /></svg>