<svg width="60" height="28" xmlns="http://www.w3.org/2000/svg"><path stroke="none" fill="#E8F0FE" d="M4.00 28.00 L4.00 20.47  L4.00 20.47 L4.87 19.88 L5.73 21.65 L6.60 21.65 L7.47 20.47 L8.33 20.47 L9.20 20.47 L10.07 20.47 L10.93 19.88 L11.80 19.88 L12.67 20.47 L13.53 20.47 L14.40 21.06 L15.27 21.06 L16.13 21.06 L17.00 22.24 L17.87 22.24 L18.73 19.29 L19.60 21.06 L20.47 21.06 L21.33 21.06 L22.20 21.06 L23.07 21.06 L23.93 21.06 L24.80 24.00 L25.67 22.24 L26.53 22.24 L27.40 22.24 L28.27 22.24 L29.13 22.24 L30.00 22.24 L30.87 22.24 L31.73 22.82 L32.60 22.82 L33.47 22.82 L34.33 22.82 L35.20 22.82 L36.07 22.82 L36.93 22.82 L37.80 24.00 L38.67 24.00 L39.53 24.00 L40.40 24.00 L41.27 24.00 L42.13 12.82 L43.00 12.82 L43.87 4.00 L44.73 4.00 L45.60 4.00 L46.47 4.00 L47.33 4.00 L48.20 15.18 L49.07 15.18 L49.93 20.47 L50.80 20.47 L51.67 20.47 L52.53 20.47 L53.40 20.47 L54.27 20.47 L55.13 20.47  L55.13 28.00 " /><path stroke="#4285F4" stroke-width="1" fill="none" d="M4.00 20.47  L4.00 20.47 L4.87 19.88 L5.73 21.65 L6.60 21.65 L7.47 20.47 L8.33 20.47 L9.20 20.47 L10.07 20.47 L10.93 19.88 L11.80 19.88 L12.67 20.47 L13.53 20.47 L14.40 21.06 L15.27 21.06 L16.13 21.06 L17.00 22.24 L17.87 22.24 L18.73 19.29 L19.60 21.06 L20.47 21.06 L21.33 21.06 L22.20 21.06 L23.07 21.06 L23.93 21.06 L24.80 24.00 L25.67 22.24 L26.53 22.24 L27.40 22.24 L28.27 22.24 L29.13 22.24 L30.00 22.24 L30.87 22.24 L31.73 22.82 L32.60 22.82 L33.47 22.82 L34.33 22.82 L35.20 22.82 L36.07 22.82 L36.93 22.82 L37.80 24.00 L38.67 24.00 L39.53 24.00 L40.40 24.00 L41.27 24.00 L42.13 12.82 L43.00 12.82 L43.87 4.00 L44.73 4.00 L45.60 4.00 L46.47 4.00 L47.33 4.00 L48.20 15.18 L49.07 15.18 L49.93 20.47 L50.80 20.47 L51.67 20.47 L52.53 20.47 L53.40 20.47 L54.27 20.47 L55.13 20.47 " /></svg>