<svg width="60" height="28" xmlns="http://www.w3.org/2000/svg"><path stroke="none" fill="#E8F0FE" d="M4.00 28.00 L4.00 24.00  L4.00 24.00 L4.87 24.00 L5.73 24.00 L6.60 24.00 L7.47 24.00 L8.33 24.00 L9.20 23.87 L10.07 23.87 L10.93 23.87 L11.80 23.87 L12.67 23.87 L13.53 23.73 L14.40 23.73 L15.27 23.87 L16.13 23.87 L17.00 23.87 L17.87 23.33 L18.73 23.33 L19.60 23.47 L20.47 22.67 L21.33 22.67 L22.20 22.67 L23.07 22.67 L23.93 23.20 L24.80 23.20 L25.67 23.20 L26.53 23.60 L27.40 23.60 L28.27 23.33 L29.13 23.33 L30.00 23.33 L30.87 23.33 L31.73 23.33 L32.60 23.73 L33.47 23.47 L34.33 23.73 L35.20 22.93 L36.07 22.93 L36.93 21.33 L37.80 21.33 L38.67 21.33 L39.53 21.60 L40.40 21.60 L41.27 19.87 L42.13 19.87 L43.00 20.13 L43.87 20.13 L44.73 20.13 L45.60 20.13 L46.47 20.13 L47.33 17.87 L48.20 17.87 L49.07 19.20 L49.93 19.20 L50.80 12.53 L51.67 12.53 L52.53 5.60 L53.40 10.40 L54.27 10.40 L55.13 4.00  L55.13 28.00 " /><path stroke="#4285F4" stroke-width="1" fill="none" d="M4.00 24.00  L4.00 24.00 L4.87 24.00 L5.73 24.00 L6.60 24.00 L7.47 24.00 L8.33 24.00 L9.20 23.87 L10.07 23.87 L10.93 23.87 L11.80 23.87 L12.67 23.87 L13.53 23.73 L14.40 23.73 L15.27 23.87 L16.13 23.87 L17.00 23.87 L17.87 23.33 L18.73 23.33 L19.60 23.47 L20.47 22.67 L21.33 22.67 L22.20 22.67 L23.07 22.67 L23.93 23.20 L24.80 23.20 L25.67 23.20 L26.53 23.60 L27.40 23.60 L28.27 23.33 L29.13 23.33 L30.00 23.33 L30.87 23.33 L31.73 23.33 L32.60 23.73 L33.47 23.47 L34.33 23.73 L35.20 22.93 L36.07 22.93 L36.93 21.33 L37.80 21.33 L38.67 21.33 L39.53 21.60 L40.40 21.60 L41.27 19.87 L42.13 19.87 L43.00 20.13 L43.87 20.13 L44.73 20.13 L45.60 20.13 L46.47 20.13 L47.33 17.87 L48.20 17.87 L49.07 19.20 L49.93 19.20 L50.80 12.53 L51.67 12.53 L52.53 5.60 L53.40 10.40 L54.27 10.40 L55.13 4.00 " /></svg>