<svg width="60" height="28" xmlns="http://www.w3.org/2000/svg"><path stroke="none" fill="#E8F0FE" d="M4.00 28.00 L4.00 22.41  L4.00 22.41 L4.87 22.56 L5.73 22.72 L6.60 22.77 L7.47 23.14 L8.33 22.96 L9.20 22.36 L10.07 22.25 L10.93 21.81 L11.80 21.57 L12.67 21.18 L13.53 21.36 L14.40 21.57 L15.27 22.17 L16.13 22.02 L17.00 22.46 L17.87 22.17 L18.73 22.59 L19.60 22.77 L20.47 22.69 L21.33 22.49 L22.20 22.83 L23.07 22.75 L23.93 22.98 L24.80 23.01 L25.67 22.67 L26.53 22.12 L27.40 22.02 L28.27 21.55 L29.13 21.52 L30.00 21.55 L30.87 20.76 L31.73 20.06 L32.60 20.01 L33.47 20.19 L34.33 19.93 L35.20 19.33 L36.07 18.10 L36.93 17.66 L37.80 17.42 L38.67 14.81 L39.53 11.28 L40.40 10.03 L41.27 8.60 L42.13 7.97 L43.00 7.39 L43.87 6.17 L44.73 8.31 L45.60 10.63 L46.47 10.16 L47.33 10.53 L48.20 11.05 L49.07 10.50 L49.93 10.74 L50.80 8.78 L51.67 8.07 L52.53 7.60 L53.40 7.50 L54.27 6.14 L55.13 4.00  L55.13 28.00 " /><path stroke="#4285F4" stroke-width="1" fill="none" d="M4.00 22.41  L4.00 22.41 L4.87 22.56 L5.73 22.72 L6.60 22.77 L7.47 23.14 L8.33 22.96 L9.20 22.36 L10.07 22.25 L10.93 21.81 L11.80 21.57 L12.67 21.18 L13.53 21.36 L14.40 21.57 L15.27 22.17 L16.13 22.02 L17.00 22.46 L17.87 22.17 L18.73 22.59 L19.60 22.77 L20.47 22.69 L21.33 22.49 L22.20 22.83 L23.07 22.75 L23.93 22.98 L24.80 23.01 L25.67 22.67 L26.53 22.12 L27.40 22.02 L28.27 21.55 L29.13 21.52 L30.00 21.55 L30.87 20.76 L31.73 20.06 L32.60 20.01 L33.47 20.19 L34.33 19.93 L35.20 19.33 L36.07 18.10 L36.93 17.66 L37.80 17.42 L38.67 14.81 L39.53 11.28 L40.40 10.03 L41.27 8.60 L42.13 7.97 L43.00 7.39 L43.87 6.17 L44.73 8.31 L45.60 10.63 L46.47 10.16 L47.33 10.53 L48.20 11.05 L49.07 10.50 L49.93 10.74 L50.80 8.78 L51.67 8.07 L52.53 7.60 L53.40 7.50 L54.27 6.14 L55.13 4.00 " /></svg>