<svg width="60" height="28" xmlns="http://www.w3.org/2000/svg"><path stroke="none" fill="#E8F0FE" d="M4.00 28.00 L4.00 20.67  L4.00 20.67 L4.87 20.67 L5.73 20.67 L6.60 24.00 L7.47 21.78 L8.33 21.78 L9.20 21.78 L10.07 20.67 L10.93 20.67 L11.80 20.67 L12.67 20.67 L13.53 22.89 L14.40 22.89 L15.27 22.89 L16.13 24.00 L17.00 24.00 L17.87 21.78 L18.73 19.56 L19.60 19.56 L20.47 15.11 L21.33 15.11 L22.20 16.22 L23.07 16.22 L23.93 15.11 L24.80 16.22 L25.67 12.89 L26.53 8.44 L27.40 7.33 L28.27 6.22 L29.13 4.00 L30.00 6.22 L30.87 6.22 L31.73 9.56 L32.60 17.33 L33.47 17.33 L34.33 17.33 L35.20 19.56 L36.07 20.67 L36.93 21.78 L37.80 21.78 L38.67 22.89 L39.53 24.00 L40.40 24.00 L41.27 24.00 L42.13 24.00 L43.00 24.00 L43.87 24.00 L44.73 24.00 L45.60 24.00 L46.47 24.00 L47.33 24.00 L48.20 24.00 L49.07 24.00 L49.93 24.00 L50.80 22.89 L51.67 22.89 L52.53 22.89 L53.40 22.89 L54.27 21.78 L55.13 21.78  L55.13 28.00 " /><path stroke="#4285F4" stroke-width="1" fill="none" d="M4.00 20.67  L4.00 20.67 L4.87 20.67 L5.73 20.67 L6.60 24.00 L7.47 21.78 L8.33 21.78 L9.20 21.78 L10.07 20.67 L10.93 20.67 L11.80 20.67 L12.67 20.67 L13.53 22.89 L14.40 22.89 L15.27 22.89 L16.13 24.00 L17.00 24.00 L17.87 21.78 L18.73 19.56 L19.60 19.56 L20.47 15.11 L21.33 15.11 L22.20 16.22 L23.07 16.22 L23.93 15.11 L24.80 16.22 L25.67 12.89 L26.53 8.44 L27.40 7.33 L28.27 6.22 L29.13 4.00 L30.00 6.22 L30.87 6.22 L31.73 9.56 L32.60 17.33 L33.47 17.33 L34.33 17.33 L35.20 19.56 L36.07 20.67 L36.93 21.78 L37.80 21.78 L38.67 22.89 L39.53 24.00 L40.40 24.00 L41.27 24.00 L42.13 24.00 L43.00 24.00 L43.87 24.00 L44.73 24.00 L45.60 24.00 L46.47 24.00 L47.33 24.00 L48.20 24.00 L49.07 24.00 L49.93 24.00 L50.80 22.89 L51.67 22.89 L52.53 22.89 L53.40 22.89 L54.27 21.78 L55.13 21.78 " /></svg>