<svg width="60" height="28" xmlns="http://www.w3.org/2000/svg"><path stroke="none" fill="#E8F0FE" d="M4.00 28.00 L4.00 21.57  L4.00 21.57 L4.87 21.91 L5.73 20.77 L6.60 20.26 L7.47 20.13 L8.33 19.96 L9.20 19.96 L10.07 20.00 L10.93 19.91 L11.80 21.40 L12.67 21.96 L13.53 22.34 L14.40 22.64 L15.27 22.94 L16.13 23.11 L17.00 23.32 L17.87 23.11 L18.73 23.19 L19.60 23.23 L20.47 23.32 L21.33 23.49 L22.20 23.57 L23.07 23.66 L23.93 23.91 L24.80 23.87 L25.67 23.91 L26.53 23.91 L27.40 23.91 L28.27 23.91 L29.13 23.91 L30.00 23.91 L30.87 23.96 L31.73 23.96 L32.60 23.96 L33.47 23.96 L34.33 23.87 L35.20 23.91 L36.07 23.91 L36.93 23.83 L37.80 23.79 L38.67 23.70 L39.53 23.66 L40.40 23.62 L41.27 23.15 L42.13 22.68 L43.00 21.96 L43.87 21.23 L44.73 20.51 L45.60 19.28 L46.47 18.47 L47.33 14.89 L48.20 12.98 L49.07 10.17 L49.93 8.09 L50.80 7.45 L51.67 6.51 L52.53 5.15 L53.40 5.74 L54.27 4.04 L55.13 4.00  L55.13 28.00 " /><path stroke="#4285F4" stroke-width="1" fill="none" d="M4.00 21.57  L4.00 21.57 L4.87 21.91 L5.73 20.77 L6.60 20.26 L7.47 20.13 L8.33 19.96 L9.20 19.96 L10.07 20.00 L10.93 19.91 L11.80 21.40 L12.67 21.96 L13.53 22.34 L14.40 22.64 L15.27 22.94 L16.13 23.11 L17.00 23.32 L17.87 23.11 L18.73 23.19 L19.60 23.23 L20.47 23.32 L21.33 23.49 L22.20 23.57 L23.07 23.66 L23.93 23.91 L24.80 23.87 L25.67 23.91 L26.53 23.91 L27.40 23.91 L28.27 23.91 L29.13 23.91 L30.00 23.91 L30.87 23.96 L31.73 23.96 L32.60 23.96 L33.47 23.96 L34.33 23.87 L35.20 23.91 L36.07 23.91 L36.93 23.83 L37.80 23.79 L38.67 23.70 L39.53 23.66 L40.40 23.62 L41.27 23.15 L42.13 22.68 L43.00 21.96 L43.87 21.23 L44.73 20.51 L45.60 19.28 L46.47 18.47 L47.33 14.89 L48.20 12.98 L49.07 10.17 L49.93 8.09 L50.80 7.45 L51.67 6.51 L52.53 5.15 L53.40 5.74 L54.27 4.04 L55.13 4.00 " /></svg>