<svg width="60" height="28" xmlns="http://www.w3.org/2000/svg"><path stroke="none" fill="#E8F0FE" d="M4.00 28.00 L4.00 23.13  L4.00 23.13 L4.87 23.13 L5.73 22.27 L6.60 21.26 L7.47 21.26 L8.33 20.90 L9.20 20.82 L10.07 20.61 L10.93 20.10 L11.80 20.68 L12.67 21.40 L13.53 21.04 L14.40 21.18 L15.27 21.26 L16.13 21.26 L17.00 21.83 L17.87 22.05 L18.73 21.76 L19.60 21.69 L20.47 21.98 L21.33 21.98 L22.20 22.27 L23.07 21.98 L23.93 22.05 L24.80 21.69 L25.67 21.83 L26.53 21.98 L27.40 22.05 L28.27 21.69 L29.13 21.76 L30.00 21.47 L30.87 22.34 L31.73 22.48 L32.60 22.19 L33.47 21.47 L34.33 21.33 L35.20 20.75 L36.07 17.07 L36.93 13.82 L37.80 11.15 L38.67 8.19 L39.53 6.96 L40.40 5.16 L41.27 4.00 L42.13 6.24 L43.00 8.48 L43.87 9.78 L44.73 12.09 L45.60 12.74 L46.47 14.11 L47.33 14.54 L48.20 15.19 L49.07 15.62 L49.93 15.84 L50.80 16.49 L51.67 17.65 L52.53 18.22 L53.40 19.52 L54.27 20.17 L55.13 20.75  L55.13 28.00 " /><path stroke="#4285F4" stroke-width="1" fill="none" d="M4.00 23.13  L4.00 23.13 L4.87 23.13 L5.73 22.27 L6.60 21.26 L7.47 21.26 L8.33 20.90 L9.20 20.82 L10.07 20.61 L10.93 20.10 L11.80 20.68 L12.67 21.40 L13.53 21.04 L14.40 21.18 L15.27 21.26 L16.13 21.26 L17.00 21.83 L17.87 22.05 L18.73 21.76 L19.60 21.69 L20.47 21.98 L21.33 21.98 L22.20 22.27 L23.07 21.98 L23.93 22.05 L24.80 21.69 L25.67 21.83 L26.53 21.98 L27.40 22.05 L28.27 21.69 L29.13 21.76 L30.00 21.47 L30.87 22.34 L31.73 22.48 L32.60 22.19 L33.47 21.47 L34.33 21.33 L35.20 20.75 L36.07 17.07 L36.93 13.82 L37.80 11.15 L38.67 8.19 L39.53 6.96 L40.40 5.16 L41.27 4.00 L42.13 6.24 L43.00 8.48 L43.87 9.78 L44.73 12.09 L45.60 12.74 L46.47 14.11 L47.33 14.54 L48.20 15.19 L49.07 15.62 L49.93 15.84 L50.80 16.49 L51.67 17.65 L52.53 18.22 L53.40 19.52 L54.27 20.17 L55.13 20.75 " /></svg>