<svg width="60" height="28" xmlns="http://www.w3.org/2000/svg"><path stroke="none" fill="#E8F0FE" d="M4.00 28.00 L4.00 14.92  L4.00 14.92 L4.87 14.71 L5.73 14.40 L6.60 14.02 L7.47 14.13 L8.33 14.18 L9.20 14.29 L10.07 14.08 L10.93 14.05 L11.80 14.05 L12.67 14.02 L13.53 13.76 L14.40 13.65 L15.27 13.65 L16.13 13.82 L17.00 13.84 L17.87 13.82 L18.73 13.79 L19.60 13.83 L20.47 13.72 L21.33 13.57 L22.20 13.61 L23.07 13.98 L23.93 14.39 L24.80 14.88 L25.67 15.41 L26.53 16.02 L27.40 16.66 L28.27 17.08 L29.13 17.41 L30.00 17.67 L30.87 17.82 L31.73 18.00 L32.60 18.06 L33.47 18.03 L34.33 18.07 L35.20 18.01 L36.07 17.97 L36.93 18.00 L37.80 17.96 L38.67 17.95 L39.53 17.96 L40.40 17.81 L41.27 17.71 L42.13 17.63 L43.00 17.52 L43.87 17.27 L44.73 16.98 L45.60 16.66 L46.47 16.26 L47.33 15.63 L48.20 14.67 L49.07 13.44 L49.93 12.14 L50.80 10.96 L51.67 9.54 L52.53 8.01 L53.40 6.53 L54.27 5.16 L55.13 4.00  L55.13 28.00 " /><path stroke="#4285F4" stroke-width="1" fill="none" d="M4.00 14.92  L4.00 14.92 L4.87 14.71 L5.73 14.40 L6.60 14.02 L7.47 14.13 L8.33 14.18 L9.20 14.29 L10.07 14.08 L10.93 14.05 L11.80 14.05 L12.67 14.02 L13.53 13.76 L14.40 13.65 L15.27 13.65 L16.13 13.82 L17.00 13.84 L17.87 13.82 L18.73 13.79 L19.60 13.83 L20.47 13.72 L21.33 13.57 L22.20 13.61 L23.07 13.98 L23.93 14.39 L24.80 14.88 L25.67 15.41 L26.53 16.02 L27.40 16.66 L28.27 17.08 L29.13 17.41 L30.00 17.67 L30.87 17.82 L31.73 18.00 L32.60 18.06 L33.47 18.03 L34.33 18.07 L35.20 18.01 L36.07 17.97 L36.93 18.00 L37.80 17.96 L38.67 17.95 L39.53 17.96 L40.40 17.81 L41.27 17.71 L42.13 17.63 L43.00 17.52 L43.87 17.27 L44.73 16.98 L45.60 16.66 L46.47 16.26 L47.33 15.63 L48.20 14.67 L49.07 13.44 L49.93 12.14 L50.80 10.96 L51.67 9.54 L52.53 8.01 L53.40 6.53 L54.27 5.16 L55.13 4.00 " /></svg>