<svg width="60" height="28" xmlns="http://www.w3.org/2000/svg"><path stroke="none" fill="#E8F0FE" d="M4.00 28.00 L4.00 21.51  L4.00 21.51 L4.87 21.56 L5.73 21.45 L6.60 21.39 L7.47 21.31 L8.33 20.86 L9.20 20.55 L10.07 20.24 L10.93 20.06 L11.80 19.86 L12.67 19.56 L13.53 19.05 L14.40 18.67 L15.27 18.30 L16.13 17.81 L17.00 17.36 L17.87 16.98 L18.73 16.25 L19.60 16.13 L20.47 16.05 L21.33 15.86 L22.20 16.02 L23.07 15.83 L23.93 15.52 L24.80 15.36 L25.67 15.48 L26.53 15.31 L27.40 15.31 L28.27 15.17 L29.13 14.88 L30.00 14.44 L30.87 14.66 L31.73 14.55 L32.60 14.33 L33.47 14.07 L34.33 13.37 L35.20 13.02 L36.07 12.87 L36.93 12.75 L37.80 12.44 L38.67 4.00 L39.53 4.31 L40.40 4.44 L41.27 4.76 L42.13 5.13 L43.00 5.28 L43.87 5.61 L44.73 14.63 L45.60 14.58 L46.47 15.14 L47.33 15.40 L48.20 15.79 L49.07 15.95 L49.93 16.06 L50.80 16.34 L51.67 16.94 L52.53 17.14 L53.40 17.32 L54.27 17.47 L55.13 17.75  L55.13 28.00 " /><path stroke="#4285F4" stroke-width="1" fill="none" d="M4.00 21.51  L4.00 21.51 L4.87 21.56 L5.73 21.45 L6.60 21.39 L7.47 21.31 L8.33 20.86 L9.20 20.55 L10.07 20.24 L10.93 20.06 L11.80 19.86 L12.67 19.56 L13.53 19.05 L14.40 18.67 L15.27 18.30 L16.13 17.81 L17.00 17.36 L17.87 16.98 L18.73 16.25 L19.60 16.13 L20.47 16.05 L21.33 15.86 L22.20 16.02 L23.07 15.83 L23.93 15.52 L24.80 15.36 L25.67 15.48 L26.53 15.31 L27.40 15.31 L28.27 15.17 L29.13 14.88 L30.00 14.44 L30.87 14.66 L31.73 14.55 L32.60 14.33 L33.47 14.07 L34.33 13.37 L35.20 13.02 L36.07 12.87 L36.93 12.75 L37.80 12.44 L38.67 4.00 L39.53 4.31 L40.40 4.44 L41.27 4.76 L42.13 5.13 L43.00 5.28 L43.87 5.61 L44.73 14.63 L45.60 14.58 L46.47 15.14 L47.33 15.40 L48.20 15.79 L49.07 15.95 L49.93 16.06 L50.80 16.34 L51.67 16.94 L52.53 17.14 L53.40 17.32 L54.27 17.47 L55.13 17.75 " /></svg>