<svg width="60" height="28" xmlns="http://www.w3.org/2000/svg"><path stroke="none" fill="#E8F0FE" d="M4.00 28.00 L4.00 5.33  L4.00 5.33 L4.87 6.67 L5.73 9.33 L6.60 14.67 L7.47 14.67 L8.33 10.67 L9.20 9.33 L10.07 12.00 L10.93 13.33 L11.80 13.33 L12.67 16.00 L13.53 17.33 L14.40 21.33 L15.27 16.00 L16.13 16.00 L17.00 16.00 L17.87 16.00 L18.73 16.00 L19.60 17.33 L20.47 17.33 L21.33 22.67 L22.20 22.67 L23.07 22.67 L23.93 24.00 L24.80 24.00 L25.67 24.00 L26.53 24.00 L27.40 24.00 L28.27 24.00 L29.13 24.00 L32.60 24.00 L33.47 24.00 L34.33 24.00 L35.20 24.00 L36.07 24.00 L36.93 24.00 L37.80 24.00 L39.53 5.33 L40.40 14.67 L41.27 14.67 L42.13 17.00 L43.00 14.67 L43.87 13.11 L44.73 12.00 L45.60 12.00 L46.47 10.67 L47.33 8.00 L48.20 6.67 L49.07 6.67 L49.93 4.00 L50.80 4.00 L51.67 6.67 L52.53 8.00 L53.40 9.33 L54.27 10.67 L55.13 13.33  L55.13 28.00 " /><path stroke="#4285F4" stroke-width="1" fill="none" d="M4.00 5.33  L4.00 5.33 L4.87 6.67 L5.73 9.33 L6.60 14.67 L7.47 14.67 L8.33 10.67 L9.20 9.33 L10.07 12.00 L10.93 13.33 L11.80 13.33 L12.67 16.00 L13.53 17.33 L14.40 21.33 L15.27 16.00 L16.13 16.00 L17.00 16.00 L17.87 16.00 L18.73 16.00 L19.60 17.33 L20.47 17.33 L21.33 22.67 L22.20 22.67 L23.07 22.67 L23.93 24.00 L24.80 24.00 L25.67 24.00 L26.53 24.00 L27.40 24.00 L28.27 24.00 L29.13 24.00 L32.60 24.00 L33.47 24.00 L34.33 24.00 L35.20 24.00 L36.07 24.00 L36.93 24.00 L37.80 24.00 L39.53 5.33 L40.40 14.67 L41.27 14.67 L42.13 17.00 L43.00 14.67 L43.87 13.11 L44.73 12.00 L45.60 12.00 L46.47 10.67 L47.33 8.00 L48.20 6.67 L49.07 6.67 L49.93 4.00 L50.80 4.00 L51.67 6.67 L52.53 8.00 L53.40 9.33 L54.27 10.67 L55.13 13.33 " /></svg>