<svg width="60" height="28" xmlns="http://www.w3.org/2000/svg"><path stroke="none" fill="#E8F0FE" d="M4.00 28.00 L4.00 14.43  L4.00 14.43 L4.87 15.76 L5.73 15.66 L6.60 15.52 L7.47 15.15 L8.33 13.95 L9.20 13.23 L10.07 12.38 L10.93 12.07 L11.80 11.04 L12.67 10.67 L13.53 10.97 L14.40 11.83 L15.27 11.45 L16.13 12.99 L17.00 13.03 L17.87 13.91 L18.73 14.84 L19.60 14.67 L20.47 15.18 L21.33 15.93 L22.20 16.51 L23.07 16.85 L23.93 17.61 L24.80 14.74 L25.67 14.05 L26.53 14.63 L27.40 15.04 L28.27 15.21 L29.13 15.08 L30.00 14.84 L30.87 16.72 L31.73 18.15 L32.60 15.97 L33.47 16.48 L34.33 16.00 L35.20 16.17 L36.07 16.44 L36.93 17.85 L37.80 16.92 L38.67 18.29 L39.53 16.82 L40.40 17.23 L41.27 17.54 L42.13 16.92 L43.00 15.62 L43.87 16.07 L44.73 15.62 L45.60 16.51 L46.47 15.59 L47.33 15.32 L48.20 15.42 L49.07 15.21 L49.93 13.30 L50.80 12.27 L51.67 11.76 L52.53 9.50 L53.40 8.14 L54.27 5.95 L55.13 4.00  L55.13 28.00 " /><path stroke="#4285F4" stroke-width="1" fill="none" d="M4.00 14.43  L4.00 14.43 L4.87 15.76 L5.73 15.66 L6.60 15.52 L7.47 15.15 L8.33 13.95 L9.20 13.23 L10.07 12.38 L10.93 12.07 L11.80 11.04 L12.67 10.67 L13.53 10.97 L14.40 11.83 L15.27 11.45 L16.13 12.99 L17.00 13.03 L17.87 13.91 L18.73 14.84 L19.60 14.67 L20.47 15.18 L21.33 15.93 L22.20 16.51 L23.07 16.85 L23.93 17.61 L24.80 14.74 L25.67 14.05 L26.53 14.63 L27.40 15.04 L28.27 15.21 L29.13 15.08 L30.00 14.84 L30.87 16.72 L31.73 18.15 L32.60 15.97 L33.47 16.48 L34.33 16.00 L35.20 16.17 L36.07 16.44 L36.93 17.85 L37.80 16.92 L38.67 18.29 L39.53 16.82 L40.40 17.23 L41.27 17.54 L42.13 16.92 L43.00 15.62 L43.87 16.07 L44.73 15.62 L45.60 16.51 L46.47 15.59 L47.33 15.32 L48.20 15.42 L49.07 15.21 L49.93 13.30 L50.80 12.27 L51.67 11.76 L52.53 9.50 L53.40 8.14 L54.27 5.95 L55.13 4.00 " /></svg>