<svg width="60" height="28" xmlns="http://www.w3.org/2000/svg"><path stroke="none" fill="#E8F0FE" d="M4.00 28.00 L4.00 15.17  L4.00 15.17 L4.87 14.46 L5.73 14.06 L6.60 13.61 L7.47 13.46 L8.33 13.19 L9.20 12.87 L10.07 12.34 L10.93 12.12 L11.80 11.70 L12.67 11.11 L13.53 10.49 L14.40 10.11 L15.27 9.54 L16.13 9.34 L17.00 9.23 L17.87 8.87 L18.73 9.13 L19.60 9.45 L20.47 9.71 L21.33 9.84 L22.20 9.34 L23.07 8.94 L23.93 8.61 L24.80 7.68 L25.67 6.38 L26.53 5.35 L27.40 4.07 L28.27 4.00 L29.13 4.01 L30.00 4.16 L30.87 5.07 L31.73 6.07 L32.60 7.17 L33.47 8.49 L34.33 9.00 L35.20 8.84 L36.07 8.73 L36.93 8.34 L37.80 7.88 L38.67 7.29 L39.53 6.93 L40.40 6.69 L41.27 6.79 L42.13 6.89 L43.00 6.77 L43.87 6.89 L44.73 6.97 L45.60 6.97 L46.47 6.95 L47.33 6.82 L48.20 6.70 L49.07 6.74 L49.93 6.73 L50.80 6.71 L51.67 6.66 L52.53 6.72 L53.40 6.72 L54.27 6.65 L55.13 6.58  L55.13 28.00 " /><path stroke="#4285F4" stroke-width="1" fill="none" d="M4.00 15.17  L4.00 15.17 L4.87 14.46 L5.73 14.06 L6.60 13.61 L7.47 13.46 L8.33 13.19 L9.20 12.87 L10.07 12.34 L10.93 12.12 L11.80 11.70 L12.67 11.11 L13.53 10.49 L14.40 10.11 L15.27 9.54 L16.13 9.34 L17.00 9.23 L17.87 8.87 L18.73 9.13 L19.60 9.45 L20.47 9.71 L21.33 9.84 L22.20 9.34 L23.07 8.94 L23.93 8.61 L24.80 7.68 L25.67 6.38 L26.53 5.35 L27.40 4.07 L28.27 4.00 L29.13 4.01 L30.00 4.16 L30.87 5.07 L31.73 6.07 L32.60 7.17 L33.47 8.49 L34.33 9.00 L35.20 8.84 L36.07 8.73 L36.93 8.34 L37.80 7.88 L38.67 7.29 L39.53 6.93 L40.40 6.69 L41.27 6.79 L42.13 6.89 L43.00 6.77 L43.87 6.89 L44.73 6.97 L45.60 6.97 L46.47 6.95 L47.33 6.82 L48.20 6.70 L49.07 6.74 L49.93 6.73 L50.80 6.71 L51.67 6.66 L52.53 6.72 L53.40 6.72 L54.27 6.65 L55.13 6.58 " /></svg>