<svg width="60" height="28" xmlns="http://www.w3.org/2000/svg"><path stroke="none" fill="#E8F0FE" d="M4.00 28.00 L4.00 16.50  L4.00 16.50 L4.87 19.00 L5.73 21.50 L6.60 19.00 L7.47 19.00 L8.33 19.00 L9.20 19.00 L10.07 16.50 L10.93 19.00 L11.80 19.00 L12.67 21.50 L13.53 21.50 L14.40 21.50 L15.27 21.50 L16.13 24.00 L17.00 24.00 L17.87 24.00 L18.73 24.00 L19.60 21.50 L20.47 21.50 L21.33 9.00 L22.20 9.00 L23.07 9.00 L23.93 9.00 L24.80 6.50 L25.67 9.00 L26.53 9.00 L27.40 21.50 L28.27 21.50 L29.13 21.50 L30.00 21.50 L30.87 19.00 L31.73 19.00 L32.60 19.00 L33.47 19.00 L34.33 19.00 L35.20 19.00 L36.07 19.00 L36.93 6.50 L37.80 6.50 L38.67 6.50 L39.53 6.50 L40.40 6.50 L41.27 6.50 L42.13 6.50 L43.00 16.50 L43.87 16.50 L44.73 16.50 L45.60 16.50 L46.47 16.50 L47.33 16.50 L48.20 16.50 L49.07 4.00 L49.93 4.00 L50.80 4.00 L51.67 4.00 L52.53 4.00 L53.40 4.00 L54.27 4.00 L55.13 24.00  L55.13 28.00 " /><path stroke="#4285F4" stroke-width="1" fill="none" d="M4.00 16.50  L4.00 16.50 L4.87 19.00 L5.73 21.50 L6.60 19.00 L7.47 19.00 L8.33 19.00 L9.20 19.00 L10.07 16.50 L10.93 19.00 L11.80 19.00 L12.67 21.50 L13.53 21.50 L14.40 21.50 L15.27 21.50 L16.13 24.00 L17.00 24.00 L17.87 24.00 L18.73 24.00 L19.60 21.50 L20.47 21.50 L21.33 9.00 L22.20 9.00 L23.07 9.00 L23.93 9.00 L24.80 6.50 L25.67 9.00 L26.53 9.00 L27.40 21.50 L28.27 21.50 L29.13 21.50 L30.00 21.50 L30.87 19.00 L31.73 19.00 L32.60 19.00 L33.47 19.00 L34.33 19.00 L35.20 19.00 L36.07 19.00 L36.93 6.50 L37.80 6.50 L38.67 6.50 L39.53 6.50 L40.40 6.50 L41.27 6.50 L42.13 6.50 L43.00 16.50 L43.87 16.50 L44.73 16.50 L45.60 16.50 L46.47 16.50 L47.33 16.50 L48.20 16.50 L49.07 4.00 L49.93 4.00 L50.80 4.00 L51.67 4.00 L52.53 4.00 L53.40 4.00 L54.27 4.00 L55.13 24.00 " /></svg>