<svg width="60" height="28" xmlns="http://www.w3.org/2000/svg"><path stroke="none" fill="#E8F0FE" d="M4.00 28.00 L4.00 23.33  L4.00 23.33 L4.87 23.25 L5.73 23.28 L6.60 23.31 L7.47 23.28 L8.33 23.30 L9.20 23.21 L10.07 23.12 L10.93 23.27 L11.80 23.19 L12.67 23.03 L13.53 22.95 L14.40 22.91 L15.27 22.94 L16.13 22.79 L17.00 22.83 L17.87 23.00 L18.73 22.91 L19.60 22.98 L20.47 23.03 L21.33 23.00 L22.20 22.97 L23.07 22.89 L23.93 22.48 L24.80 22.55 L25.67 22.34 L26.53 22.07 L27.40 22.12 L28.27 22.01 L29.13 21.77 L30.00 21.42 L30.87 21.10 L31.73 20.40 L32.60 20.77 L33.47 20.09 L34.33 20.15 L35.20 19.97 L36.07 19.46 L36.93 18.86 L37.80 18.79 L38.67 18.04 L39.53 18.07 L40.40 18.00 L41.27 17.71 L42.13 17.88 L43.00 18.01 L43.87 17.34 L44.73 17.05 L45.60 16.56 L46.47 16.04 L47.33 15.46 L48.20 14.38 L49.07 12.87 L49.93 12.38 L50.80 11.27 L51.67 10.30 L52.53 9.18 L53.40 7.70 L54.27 5.51 L55.13 4.00  L55.13 28.00 " /><path stroke="#4285F4" stroke-width="1" fill="none" d="M4.00 23.33  L4.00 23.33 L4.87 23.25 L5.73 23.28 L6.60 23.31 L7.47 23.28 L8.33 23.30 L9.20 23.21 L10.07 23.12 L10.93 23.27 L11.80 23.19 L12.67 23.03 L13.53 22.95 L14.40 22.91 L15.27 22.94 L16.13 22.79 L17.00 22.83 L17.87 23.00 L18.73 22.91 L19.60 22.98 L20.47 23.03 L21.33 23.00 L22.20 22.97 L23.07 22.89 L23.93 22.48 L24.80 22.55 L25.67 22.34 L26.53 22.07 L27.40 22.12 L28.27 22.01 L29.13 21.77 L30.00 21.42 L30.87 21.10 L31.73 20.40 L32.60 20.77 L33.47 20.09 L34.33 20.15 L35.20 19.97 L36.07 19.46 L36.93 18.86 L37.80 18.79 L38.67 18.04 L39.53 18.07 L40.40 18.00 L41.27 17.71 L42.13 17.88 L43.00 18.01 L43.87 17.34 L44.73 17.05 L45.60 16.56 L46.47 16.04 L47.33 15.46 L48.20 14.38 L49.07 12.87 L49.93 12.38 L50.80 11.27 L51.67 10.30 L52.53 9.18 L53.40 7.70 L54.27 5.51 L55.13 4.00 " /></svg>