<svg width="60" height="28" xmlns="http://www.w3.org/2000/svg"><path stroke="none" fill="#E8F0FE" d="M4.00 28.00 L4.00 14.20  L4.00 14.20 L4.87 13.60 L5.73 14.40 L6.60 14.20 L7.47 15.20 L8.33 15.20 L9.20 16.00 L10.07 17.60 L10.93 19.00 L11.80 16.40 L12.67 16.60 L13.53 16.40 L14.40 18.00 L15.27 18.60 L16.13 19.00 L17.00 19.40 L17.87 21.80 L18.73 21.00 L19.60 20.80 L20.47 20.40 L21.33 20.20 L22.20 20.40 L23.07 20.60 L23.93 20.60 L24.80 21.60 L25.67 21.80 L26.53 22.20 L27.40 22.00 L28.27 22.80 L29.13 22.80 L30.00 22.60 L30.87 22.60 L31.73 22.40 L32.60 22.20 L33.47 22.40 L34.33 21.00 L35.20 20.80 L36.07 20.60 L36.93 20.00 L37.80 19.60 L38.67 19.80 L39.53 18.40 L40.40 19.80 L41.27 17.20 L42.13 15.80 L43.00 16.20 L43.87 16.80 L44.73 16.60 L45.60 14.80 L46.47 10.40 L47.33 10.60 L48.20 9.80 L49.07 8.60 L49.93 8.60 L50.80 8.40 L51.67 8.00 L52.53 10.00 L53.40 8.60 L54.27 5.60 L55.13 4.00  L55.13 28.00 " /><path stroke="#4285F4" stroke-width="1" fill="none" d="M4.00 14.20  L4.00 14.20 L4.87 13.60 L5.73 14.40 L6.60 14.20 L7.47 15.20 L8.33 15.20 L9.20 16.00 L10.07 17.60 L10.93 19.00 L11.80 16.40 L12.67 16.60 L13.53 16.40 L14.40 18.00 L15.27 18.60 L16.13 19.00 L17.00 19.40 L17.87 21.80 L18.73 21.00 L19.60 20.80 L20.47 20.40 L21.33 20.20 L22.20 20.40 L23.07 20.60 L23.93 20.60 L24.80 21.60 L25.67 21.80 L26.53 22.20 L27.40 22.00 L28.27 22.80 L29.13 22.80 L30.00 22.60 L30.87 22.60 L31.73 22.40 L32.60 22.20 L33.47 22.40 L34.33 21.00 L35.20 20.80 L36.07 20.60 L36.93 20.00 L37.80 19.60 L38.67 19.80 L39.53 18.40 L40.40 19.80 L41.27 17.20 L42.13 15.80 L43.00 16.20 L43.87 16.80 L44.73 16.60 L45.60 14.80 L46.47 10.40 L47.33 10.60 L48.20 9.80 L49.07 8.60 L49.93 8.60 L50.80 8.40 L51.67 8.00 L52.53 10.00 L53.40 8.60 L54.27 5.60 L55.13 4.00 " /></svg>