<svg width="60" height="28" xmlns="http://www.w3.org/2000/svg"><path stroke="none" fill="#E8F0FE" d="M4.00 28.00 L4.00 16.67  L4.00 16.67 L4.87 16.45 L5.73 16.22 L6.60 16.01 L7.47 15.80 L8.33 15.66 L9.20 15.50 L10.07 15.11 L10.93 14.38 L11.80 13.84 L12.67 13.44 L13.53 13.05 L14.40 12.54 L15.27 12.22 L16.13 12.01 L17.00 12.27 L17.87 12.48 L18.73 12.73 L19.60 13.09 L20.47 13.65 L21.33 14.23 L22.20 14.92 L23.07 15.45 L23.93 15.79 L24.80 16.00 L25.67 16.05 L26.53 15.82 L27.40 15.61 L28.27 14.96 L29.13 13.99 L30.00 13.23 L30.87 12.27 L31.73 11.35 L32.60 10.35 L33.47 9.21 L34.33 8.35 L35.20 8.19 L36.07 7.43 L36.93 6.69 L37.80 6.06 L38.67 5.28 L39.53 4.62 L40.40 4.37 L41.27 4.00 L42.13 4.55 L43.00 5.27 L43.87 6.00 L44.73 7.16 L45.60 8.06 L46.47 8.29 L47.33 8.30 L48.20 7.91 L49.07 7.55 L49.93 6.75 L50.80 6.57 L51.67 6.56 L52.53 6.39 L53.40 6.26 L54.27 6.53 L55.13 6.59  L55.13 28.00 " /><path stroke="#4285F4" stroke-width="1" fill="none" d="M4.00 16.67  L4.00 16.67 L4.87 16.45 L5.73 16.22 L6.60 16.01 L7.47 15.80 L8.33 15.66 L9.20 15.50 L10.07 15.11 L10.93 14.38 L11.80 13.84 L12.67 13.44 L13.53 13.05 L14.40 12.54 L15.27 12.22 L16.13 12.01 L17.00 12.27 L17.87 12.48 L18.73 12.73 L19.60 13.09 L20.47 13.65 L21.33 14.23 L22.20 14.92 L23.07 15.45 L23.93 15.79 L24.80 16.00 L25.67 16.05 L26.53 15.82 L27.40 15.61 L28.27 14.96 L29.13 13.99 L30.00 13.23 L30.87 12.27 L31.73 11.35 L32.60 10.35 L33.47 9.21 L34.33 8.35 L35.20 8.19 L36.07 7.43 L36.93 6.69 L37.80 6.06 L38.67 5.28 L39.53 4.62 L40.40 4.37 L41.27 4.00 L42.13 4.55 L43.00 5.27 L43.87 6.00 L44.73 7.16 L45.60 8.06 L46.47 8.29 L47.33 8.30 L48.20 7.91 L49.07 7.55 L49.93 6.75 L50.80 6.57 L51.67 6.56 L52.53 6.39 L53.40 6.26 L54.27 6.53 L55.13 6.59 " /></svg>