<svg width="60" height="28" xmlns="http://www.w3.org/2000/svg"><path stroke="none" fill="#E8F0FE" d="M4.00 28.00 L4.00 17.17  L4.00 17.17 L4.87 18.11 L5.73 19.15 L6.60 18.38 L7.47 18.38 L8.33 19.67 L9.20 20.12 L10.07 20.51 L10.93 21.05 L11.80 20.60 L12.67 21.00 L13.53 20.50 L14.40 20.57 L15.27 21.11 L16.13 21.18 L17.00 21.25 L17.87 21.56 L18.73 21.59 L19.60 22.10 L20.47 22.17 L21.33 22.17 L22.20 22.27 L23.07 22.54 L23.93 22.02 L24.80 21.97 L25.67 21.81 L26.53 21.88 L27.40 21.88 L28.27 21.86 L29.13 21.57 L30.00 21.65 L30.87 21.83 L31.73 21.27 L32.60 21.05 L33.47 20.77 L34.33 20.53 L35.20 19.94 L36.07 19.72 L36.93 18.84 L37.80 19.56 L38.67 18.11 L39.53 17.96 L40.40 17.58 L41.27 17.39 L42.13 17.33 L43.00 16.88 L43.87 15.70 L44.73 16.27 L45.60 15.28 L46.47 14.96 L47.33 14.46 L48.20 15.50 L49.07 12.39 L49.93 10.47 L50.80 11.85 L51.67 9.28 L52.53 8.44 L53.40 7.27 L54.27 4.00 L55.13 5.56  L55.13 28.00 " /><path stroke="#4285F4" stroke-width="1" fill="none" d="M4.00 17.17  L4.00 17.17 L4.87 18.11 L5.73 19.15 L6.60 18.38 L7.47 18.38 L8.33 19.67 L9.20 20.12 L10.07 20.51 L10.93 21.05 L11.80 20.60 L12.67 21.00 L13.53 20.50 L14.40 20.57 L15.27 21.11 L16.13 21.18 L17.00 21.25 L17.87 21.56 L18.73 21.59 L19.60 22.10 L20.47 22.17 L21.33 22.17 L22.20 22.27 L23.07 22.54 L23.93 22.02 L24.80 21.97 L25.67 21.81 L26.53 21.88 L27.40 21.88 L28.27 21.86 L29.13 21.57 L30.00 21.65 L30.87 21.83 L31.73 21.27 L32.60 21.05 L33.47 20.77 L34.33 20.53 L35.20 19.94 L36.07 19.72 L36.93 18.84 L37.80 19.56 L38.67 18.11 L39.53 17.96 L40.40 17.58 L41.27 17.39 L42.13 17.33 L43.00 16.88 L43.87 15.70 L44.73 16.27 L45.60 15.28 L46.47 14.96 L47.33 14.46 L48.20 15.50 L49.07 12.39 L49.93 10.47 L50.80 11.85 L51.67 9.28 L52.53 8.44 L53.40 7.27 L54.27 4.00 L55.13 5.56 " /></svg>