<svg width="60" height="28" xmlns="http://www.w3.org/2000/svg"><path stroke="none" fill="#E8F0FE" d="M4.00 28.00 L4.00 21.90  L4.00 21.90 L4.87 21.53 L5.73 21.20 L6.60 21.38 L7.47 21.40 L8.33 20.89 L9.20 20.86 L10.07 20.59 L10.93 20.51 L11.80 20.45 L12.67 20.24 L13.53 19.86 L14.40 20.13 L15.27 19.90 L16.13 19.21 L17.00 19.09 L17.87 18.59 L18.73 18.35 L19.60 18.12 L20.47 17.52 L21.33 16.82 L22.20 16.29 L23.07 15.35 L23.93 15.48 L24.80 14.06 L25.67 13.94 L26.53 13.53 L27.40 13.57 L28.27 13.53 L29.13 13.57 L30.00 13.19 L30.87 13.81 L31.73 14.10 L32.60 14.76 L33.47 14.12 L34.33 14.15 L35.20 13.40 L36.07 12.64 L36.93 11.87 L37.80 10.97 L38.67 10.14 L39.53 9.83 L40.40 9.38 L41.27 9.57 L42.13 9.00 L43.00 8.67 L43.87 7.96 L44.73 6.64 L45.60 6.40 L46.47 5.60 L47.33 5.06 L48.20 5.21 L49.07 4.62 L49.93 4.70 L50.80 6.06 L51.67 5.53 L52.53 5.77 L53.40 5.00 L54.27 4.00 L55.13 4.00  L55.13 28.00 " /><path stroke="#4285F4" stroke-width="1" fill="none" d="M4.00 21.90  L4.00 21.90 L4.87 21.53 L5.73 21.20 L6.60 21.38 L7.47 21.40 L8.33 20.89 L9.20 20.86 L10.07 20.59 L10.93 20.51 L11.80 20.45 L12.67 20.24 L13.53 19.86 L14.40 20.13 L15.27 19.90 L16.13 19.21 L17.00 19.09 L17.87 18.59 L18.73 18.35 L19.60 18.12 L20.47 17.52 L21.33 16.82 L22.20 16.29 L23.07 15.35 L23.93 15.48 L24.80 14.06 L25.67 13.94 L26.53 13.53 L27.40 13.57 L28.27 13.53 L29.13 13.57 L30.00 13.19 L30.87 13.81 L31.73 14.10 L32.60 14.76 L33.47 14.12 L34.33 14.15 L35.20 13.40 L36.07 12.64 L36.93 11.87 L37.80 10.97 L38.67 10.14 L39.53 9.83 L40.40 9.38 L41.27 9.57 L42.13 9.00 L43.00 8.67 L43.87 7.96 L44.73 6.64 L45.60 6.40 L46.47 5.60 L47.33 5.06 L48.20 5.21 L49.07 4.62 L49.93 4.70 L50.80 6.06 L51.67 5.53 L52.53 5.77 L53.40 5.00 L54.27 4.00 L55.13 4.00 " /></svg>