<svg width="60" height="28" xmlns="http://www.w3.org/2000/svg"><path stroke="none" fill="#E8F0FE" d="M4.00 28.00 L4.00 21.42  L4.00 21.42 L4.87 21.69 L5.73 20.99 L6.60 21.38 L7.47 21.14 L8.33 21.14 L9.20 21.30 L10.07 22.28 L10.93 22.12 L11.80 22.12 L12.67 20.99 L13.53 20.95 L14.40 20.87 L15.27 21.03 L16.13 20.56 L17.00 20.52 L17.87 21.22 L18.73 22.12 L19.60 22.32 L20.47 21.81 L21.33 20.83 L22.20 20.63 L23.07 19.81 L23.93 18.91 L24.80 18.48 L25.67 18.25 L26.53 18.56 L27.40 18.72 L28.27 19.07 L29.13 19.26 L30.00 19.58 L30.87 19.69 L31.73 19.69 L32.60 19.30 L33.47 18.72 L34.33 17.54 L35.20 16.64 L36.07 16.02 L36.93 14.92 L37.80 13.24 L38.67 11.20 L39.53 9.40 L40.40 9.09 L41.27 8.23 L42.13 7.48 L43.00 9.36 L43.87 9.52 L44.73 8.15 L45.60 9.32 L46.47 8.66 L47.33 8.19 L48.20 7.13 L49.07 4.74 L49.93 4.00 L50.80 5.57 L51.67 4.90 L52.53 5.76 L53.40 5.60 L54.27 5.10 L55.13 4.86  L55.13 28.00 " /><path stroke="#4285F4" stroke-width="1" fill="none" d="M4.00 21.42  L4.00 21.42 L4.87 21.69 L5.73 20.99 L6.60 21.38 L7.47 21.14 L8.33 21.14 L9.20 21.30 L10.07 22.28 L10.93 22.12 L11.80 22.12 L12.67 20.99 L13.53 20.95 L14.40 20.87 L15.27 21.03 L16.13 20.56 L17.00 20.52 L17.87 21.22 L18.73 22.12 L19.60 22.32 L20.47 21.81 L21.33 20.83 L22.20 20.63 L23.07 19.81 L23.93 18.91 L24.80 18.48 L25.67 18.25 L26.53 18.56 L27.40 18.72 L28.27 19.07 L29.13 19.26 L30.00 19.58 L30.87 19.69 L31.73 19.69 L32.60 19.30 L33.47 18.72 L34.33 17.54 L35.20 16.64 L36.07 16.02 L36.93 14.92 L37.80 13.24 L38.67 11.20 L39.53 9.40 L40.40 9.09 L41.27 8.23 L42.13 7.48 L43.00 9.36 L43.87 9.52 L44.73 8.15 L45.60 9.32 L46.47 8.66 L47.33 8.19 L48.20 7.13 L49.07 4.74 L49.93 4.00 L50.80 5.57 L51.67 4.90 L52.53 5.76 L53.40 5.60 L54.27 5.10 L55.13 4.86 " /></svg>