<svg width="60" height="28" xmlns="http://www.w3.org/2000/svg"><path stroke="none" fill="#E8F0FE" d="M4.00 28.00 L4.00 14.40  L4.00 14.40 L4.87 14.06 L5.73 13.91 L6.60 13.57 L7.47 13.75 L8.33 13.15 L9.20 13.41 L10.07 14.21 L10.93 14.64 L11.80 15.69 L12.67 16.66 L13.53 16.87 L14.40 18.07 L15.27 18.66 L16.13 18.55 L17.00 18.66 L17.87 17.99 L18.73 18.13 L19.60 19.03 L20.47 18.88 L21.33 19.11 L22.20 19.87 L23.07 20.18 L23.93 20.63 L24.80 20.70 L25.67 20.70 L26.53 21.34 L27.40 21.45 L28.27 21.16 L29.13 20.82 L30.00 20.85 L30.87 20.72 L31.73 20.32 L32.60 19.86 L33.47 18.96 L34.33 18.82 L35.20 19.28 L36.07 19.24 L36.93 19.22 L37.80 18.97 L38.67 18.85 L39.53 19.64 L40.40 19.68 L41.27 19.26 L42.13 15.14 L43.00 13.87 L43.87 13.54 L44.73 12.63 L45.60 11.52 L46.47 7.13 L47.33 4.00 L48.20 6.16 L49.07 6.00 L49.93 5.67 L50.80 5.29 L51.67 4.66 L52.53 8.73 L53.40 9.59 L54.27 9.38 L55.13 6.82  L55.13 28.00 " /><path stroke="#4285F4" stroke-width="1" fill="none" d="M4.00 14.40  L4.00 14.40 L4.87 14.06 L5.73 13.91 L6.60 13.57 L7.47 13.75 L8.33 13.15 L9.20 13.41 L10.07 14.21 L10.93 14.64 L11.80 15.69 L12.67 16.66 L13.53 16.87 L14.40 18.07 L15.27 18.66 L16.13 18.55 L17.00 18.66 L17.87 17.99 L18.73 18.13 L19.60 19.03 L20.47 18.88 L21.33 19.11 L22.20 19.87 L23.07 20.18 L23.93 20.63 L24.80 20.70 L25.67 20.70 L26.53 21.34 L27.40 21.45 L28.27 21.16 L29.13 20.82 L30.00 20.85 L30.87 20.72 L31.73 20.32 L32.60 19.86 L33.47 18.96 L34.33 18.82 L35.20 19.28 L36.07 19.24 L36.93 19.22 L37.80 18.97 L38.67 18.85 L39.53 19.64 L40.40 19.68 L41.27 19.26 L42.13 15.14 L43.00 13.87 L43.87 13.54 L44.73 12.63 L45.60 11.52 L46.47 7.13 L47.33 4.00 L48.20 6.16 L49.07 6.00 L49.93 5.67 L50.80 5.29 L51.67 4.66 L52.53 8.73 L53.40 9.59 L54.27 9.38 L55.13 6.82 " /></svg>