<svg width="60" height="28" xmlns="http://www.w3.org/2000/svg"><path stroke="none" fill="#E8F0FE" d="M4.00 28.00 L4.00 12.92  L4.00 12.92 L4.87 10.15 L5.73 4.62 L6.60 8.00 L7.47 8.00 L8.33 7.08 L9.20 4.00 L10.07 6.15 L10.93 12.00 L11.80 19.38 L12.67 17.85 L13.53 17.85 L14.40 14.46 L15.27 17.54 L16.13 17.54 L17.00 16.92 L17.87 16.31 L18.73 17.85 L19.60 17.85 L20.47 22.77 L21.33 22.77 L22.20 22.77 L23.07 23.38 L23.93 19.38 L24.80 19.38 L25.67 19.38 L26.53 19.38 L27.40 19.38 L28.27 19.38 L29.13 19.38 L30.00 21.54 L30.87 21.54 L31.73 21.54 L32.60 21.54 L33.47 21.54 L34.33 21.54 L35.20 21.54 L36.07 24.00 L36.93 24.00 L37.80 24.00 L38.67 24.00 L39.53 24.00 L40.40 24.00 L41.27 19.69 L42.13 19.69 L43.00 18.46 L43.87 18.46 L44.73 18.46 L45.60 18.46 L46.47 18.46 L47.33 22.77 L48.20 22.77 L49.07 24.00 L49.93 24.00 L50.80 24.00 L51.67 24.00 L52.53 24.00 L53.40 24.00 L54.27 24.00 L55.13 24.00  L55.13 28.00 " /><path stroke="#4285F4" stroke-width="1" fill="none" d="M4.00 12.92  L4.00 12.92 L4.87 10.15 L5.73 4.62 L6.60 8.00 L7.47 8.00 L8.33 7.08 L9.20 4.00 L10.07 6.15 L10.93 12.00 L11.80 19.38 L12.67 17.85 L13.53 17.85 L14.40 14.46 L15.27 17.54 L16.13 17.54 L17.00 16.92 L17.87 16.31 L18.73 17.85 L19.60 17.85 L20.47 22.77 L21.33 22.77 L22.20 22.77 L23.07 23.38 L23.93 19.38 L24.80 19.38 L25.67 19.38 L26.53 19.38 L27.40 19.38 L28.27 19.38 L29.13 19.38 L30.00 21.54 L30.87 21.54 L31.73 21.54 L32.60 21.54 L33.47 21.54 L34.33 21.54 L35.20 21.54 L36.07 24.00 L36.93 24.00 L37.80 24.00 L38.67 24.00 L39.53 24.00 L40.40 24.00 L41.27 19.69 L42.13 19.69 L43.00 18.46 L43.87 18.46 L44.73 18.46 L45.60 18.46 L46.47 18.46 L47.33 22.77 L48.20 22.77 L49.07 24.00 L49.93 24.00 L50.80 24.00 L51.67 24.00 L52.53 24.00 L53.40 24.00 L54.27 24.00 L55.13 24.00 " /></svg>