<svg width="60" height="28" xmlns="http://www.w3.org/2000/svg"><path stroke="none" fill="#E8F0FE" d="M10.93 28.00 L10.93 20.41  L10.93 20.41 L11.80 22.21 L12.67 22.80 L13.53 23.10 L14.40 23.28 L15.27 23.40 L16.13 23.49 L17.00 24.00 L17.87 24.00 L18.73 23.49 L19.60 23.49 L20.47 23.49 L21.33 23.49 L22.20 23.49 L23.07 23.49 L23.93 23.49 L24.80 24.00 L25.67 24.00 L26.53 24.00 L27.40 24.00 L28.27 24.00 L29.13 22.97 L30.00 22.97 L30.87 22.97 L31.73 22.97 L32.60 22.97 L33.47 22.97 L34.33 22.97 L35.20 24.00 L36.07 24.00 L36.93 24.00 L37.80 24.00 L38.67 24.00 L39.53 24.00 L40.40 24.00 L41.27 24.00 L42.13 24.00 L43.00 24.00 L43.87 24.00 L44.73 24.00 L45.60 19.90 L46.47 17.33 L47.33 17.33 L48.20 15.79 L49.07 13.74 L49.93 13.74 L50.80 12.21 L51.67 16.31 L52.53 18.87 L53.40 14.77 L54.27 16.31 L55.13 4.00  L55.13 28.00 " /><path stroke="#4285F4" stroke-width="1" fill="none" d="M10.93 20.41  L10.93 20.41 L11.80 22.21 L12.67 22.80 L13.53 23.10 L14.40 23.28 L15.27 23.40 L16.13 23.49 L17.00 24.00 L17.87 24.00 L18.73 23.49 L19.60 23.49 L20.47 23.49 L21.33 23.49 L22.20 23.49 L23.07 23.49 L23.93 23.49 L24.80 24.00 L25.67 24.00 L26.53 24.00 L27.40 24.00 L28.27 24.00 L29.13 22.97 L30.00 22.97 L30.87 22.97 L31.73 22.97 L32.60 22.97 L33.47 22.97 L34.33 22.97 L35.20 24.00 L36.07 24.00 L36.93 24.00 L37.80 24.00 L38.67 24.00 L39.53 24.00 L40.40 24.00 L41.27 24.00 L42.13 24.00 L43.00 24.00 L43.87 24.00 L44.73 24.00 L45.60 19.90 L46.47 17.33 L47.33 17.33 L48.20 15.79 L49.07 13.74 L49.93 13.74 L50.80 12.21 L51.67 16.31 L52.53 18.87 L53.40 14.77 L54.27 16.31 L55.13 4.00 " /></svg>