<svg width="60" height="28" xmlns="http://www.w3.org/2000/svg"><path stroke="none" fill="#E8F0FE" d="M4.00 28.00 L4.00 9.20  L4.00 9.20 L4.87 9.98 L5.73 8.24 L6.60 8.24 L7.47 8.29 L8.33 8.00 L9.20 7.95 L10.07 7.86 L10.93 7.33 L11.80 6.84 L12.67 6.84 L13.53 6.65 L14.40 6.31 L15.27 6.36 L16.13 8.00 L17.00 6.94 L17.87 9.06 L18.73 9.06 L19.60 12.58 L20.47 15.66 L21.33 12.72 L22.20 13.93 L23.07 16.39 L23.93 12.72 L24.80 12.72 L25.67 8.48 L26.53 5.59 L27.40 7.90 L28.27 5.78 L29.13 4.00 L30.00 5.88 L30.87 5.88 L31.73 6.02 L32.60 6.75 L33.47 7.37 L34.33 8.24 L35.20 9.25 L36.07 9.11 L36.93 9.11 L37.80 10.02 L38.67 11.42 L39.53 10.80 L40.40 12.34 L41.27 12.24 L42.13 14.07 L43.00 14.07 L43.87 15.52 L44.73 15.13 L45.60 15.81 L46.47 15.47 L47.33 16.10 L48.20 16.34 L49.07 16.34 L49.93 18.07 L50.80 18.46 L51.67 19.57 L52.53 19.71 L53.40 20.92 L54.27 20.82 L55.13 20.82  L55.13 28.00 " /><path stroke="#4285F4" stroke-width="1" fill="none" d="M4.00 9.20  L4.00 9.20 L4.87 9.98 L5.73 8.24 L6.60 8.24 L7.47 8.29 L8.33 8.00 L9.20 7.95 L10.07 7.86 L10.93 7.33 L11.80 6.84 L12.67 6.84 L13.53 6.65 L14.40 6.31 L15.27 6.36 L16.13 8.00 L17.00 6.94 L17.87 9.06 L18.73 9.06 L19.60 12.58 L20.47 15.66 L21.33 12.72 L22.20 13.93 L23.07 16.39 L23.93 12.72 L24.80 12.72 L25.67 8.48 L26.53 5.59 L27.40 7.90 L28.27 5.78 L29.13 4.00 L30.00 5.88 L30.87 5.88 L31.73 6.02 L32.60 6.75 L33.47 7.37 L34.33 8.24 L35.20 9.25 L36.07 9.11 L36.93 9.11 L37.80 10.02 L38.67 11.42 L39.53 10.80 L40.40 12.34 L41.27 12.24 L42.13 14.07 L43.00 14.07 L43.87 15.52 L44.73 15.13 L45.60 15.81 L46.47 15.47 L47.33 16.10 L48.20 16.34 L49.07 16.34 L49.93 18.07 L50.80 18.46 L51.67 19.57 L52.53 19.71 L53.40 20.92 L54.27 20.82 L55.13 20.82 " /></svg>