<svg width="60" height="28" xmlns="http://www.w3.org/2000/svg"><path stroke="none" fill="#E8F0FE" d="M4.00 28.00 L4.00 22.87  L4.00 22.87 L4.87 22.87 L5.73 23.23 L6.60 23.23 L7.47 22.18 L8.33 21.26 L9.20 21.82 L10.07 21.82 L10.93 21.62 L11.80 20.75 L12.67 18.70 L13.53 19.95 L14.40 20.21 L15.27 19.98 L16.13 18.06 L17.00 18.26 L17.87 18.49 L18.73 19.44 L19.60 17.57 L20.47 16.91 L21.33 15.91 L22.20 17.83 L23.07 16.57 L23.93 15.83 L24.80 13.88 L25.67 15.75 L26.53 13.58 L27.40 13.32 L28.27 13.32 L29.13 11.50 L30.00 10.35 L30.87 9.22 L31.73 6.18 L32.60 8.05 L33.47 4.00 L34.33 4.00 L35.20 6.10 L36.07 4.64 L36.93 8.48 L37.80 11.53 L38.67 8.94 L39.53 14.47 L40.40 9.66 L41.27 6.69 L42.13 9.63 L43.00 9.97 L43.87 4.77 L44.73 8.99 L45.60 5.02 L46.47 7.59 L47.33 11.53 L48.20 7.64 L49.07 5.18 L49.93 10.38 L50.80 8.10 L51.67 7.35 L52.53 6.23 L53.40 6.23 L54.27 10.07 L55.13 9.20  L55.13 28.00 " /><path stroke="#4285F4" stroke-width="1" fill="none" d="M4.00 22.87  L4.00 22.87 L4.87 22.87 L5.73 23.23 L6.60 23.23 L7.47 22.18 L8.33 21.26 L9.20 21.82 L10.07 21.82 L10.93 21.62 L11.80 20.75 L12.67 18.70 L13.53 19.95 L14.40 20.21 L15.27 19.98 L16.13 18.06 L17.00 18.26 L17.87 18.49 L18.73 19.44 L19.60 17.57 L20.47 16.91 L21.33 15.91 L22.20 17.83 L23.07 16.57 L23.93 15.83 L24.80 13.88 L25.67 15.75 L26.53 13.58 L27.40 13.32 L28.27 13.32 L29.13 11.50 L30.00 10.35 L30.87 9.22 L31.73 6.18 L32.60 8.05 L33.47 4.00 L34.33 4.00 L35.20 6.10 L36.07 4.64 L36.93 8.48 L37.80 11.53 L38.67 8.94 L39.53 14.47 L40.40 9.66 L41.27 6.69 L42.13 9.63 L43.00 9.97 L43.87 4.77 L44.73 8.99 L45.60 5.02 L46.47 7.59 L47.33 11.53 L48.20 7.64 L49.07 5.18 L49.93 10.38 L50.80 8.10 L51.67 7.35 L52.53 6.23 L53.40 6.23 L54.27 10.07 L55.13 9.20 " /></svg>