<svg width="60" height="28" xmlns="http://www.w3.org/2000/svg"><path stroke="none" fill="#E8F0FE" d="M4.00 28.00 L4.00 19.57  L4.00 19.57 L4.87 19.32 L5.73 18.97 L6.60 18.68 L7.47 18.68 L8.33 18.75 L9.20 18.84 L10.07 18.83 L10.93 19.01 L11.80 19.00 L12.67 18.87 L13.53 18.53 L14.40 17.85 L15.27 17.11 L16.13 16.43 L17.00 15.73 L17.87 15.30 L18.73 14.87 L19.60 14.56 L20.47 14.44 L21.33 14.14 L22.20 13.50 L23.07 12.58 L23.93 11.42 L24.80 10.00 L25.67 8.73 L26.53 8.08 L27.40 7.77 L28.27 7.72 L29.13 7.62 L30.00 7.38 L30.87 7.51 L31.73 7.57 L32.60 7.15 L33.47 6.46 L34.33 5.94 L35.20 5.52 L36.07 5.20 L36.93 4.92 L37.80 4.33 L38.67 4.00 L39.53 4.17 L40.40 4.57 L41.27 4.22 L42.13 4.45 L43.00 4.71 L43.87 4.92 L44.73 5.35 L45.60 5.24 L46.47 4.61 L47.33 4.88 L48.20 5.56 L49.07 5.94 L49.93 5.96 L50.80 5.55 L51.67 5.40 L52.53 5.56 L53.40 5.94 L54.27 5.66 L55.13 5.74  L55.13 28.00 " /><path stroke="#4285F4" stroke-width="1" fill="none" d="M4.00 19.57  L4.00 19.57 L4.87 19.32 L5.73 18.97 L6.60 18.68 L7.47 18.68 L8.33 18.75 L9.20 18.84 L10.07 18.83 L10.93 19.01 L11.80 19.00 L12.67 18.87 L13.53 18.53 L14.40 17.85 L15.27 17.11 L16.13 16.43 L17.00 15.73 L17.87 15.30 L18.73 14.87 L19.60 14.56 L20.47 14.44 L21.33 14.14 L22.20 13.50 L23.07 12.58 L23.93 11.42 L24.80 10.00 L25.67 8.73 L26.53 8.08 L27.40 7.77 L28.27 7.72 L29.13 7.62 L30.00 7.38 L30.87 7.51 L31.73 7.57 L32.60 7.15 L33.47 6.46 L34.33 5.94 L35.20 5.52 L36.07 5.20 L36.93 4.92 L37.80 4.33 L38.67 4.00 L39.53 4.17 L40.40 4.57 L41.27 4.22 L42.13 4.45 L43.00 4.71 L43.87 4.92 L44.73 5.35 L45.60 5.24 L46.47 4.61 L47.33 4.88 L48.20 5.56 L49.07 5.94 L49.93 5.96 L50.80 5.55 L51.67 5.40 L52.53 5.56 L53.40 5.94 L54.27 5.66 L55.13 5.74 " /></svg>