<svg width="60" height="28" xmlns="http://www.w3.org/2000/svg"><path stroke="none" fill="#E8F0FE" d="M4.00 28.00 L4.00 21.19  L4.00 21.19 L4.87 21.06 L5.73 20.96 L6.60 20.74 L7.47 20.77 L8.33 20.66 L9.20 20.64 L10.07 20.56 L10.93 20.47 L11.80 20.25 L12.67 20.11 L13.53 19.92 L14.40 19.64 L15.27 19.39 L16.13 19.11 L17.00 18.75 L17.87 18.51 L18.73 18.28 L19.60 18.07 L20.47 17.96 L21.33 17.83 L22.20 17.65 L23.07 17.47 L23.93 17.26 L24.80 17.07 L25.67 16.85 L26.53 16.51 L27.40 16.14 L28.27 15.82 L29.13 15.56 L30.00 15.35 L30.87 15.14 L31.73 14.89 L32.60 14.75 L33.47 14.66 L34.33 14.51 L35.20 14.30 L36.07 14.03 L36.93 13.83 L37.80 13.74 L38.67 13.61 L39.53 13.22 L40.40 12.87 L41.27 12.46 L42.13 11.99 L43.00 11.54 L43.87 10.97 L44.73 10.30 L45.60 9.76 L46.47 9.26 L47.33 8.72 L48.20 8.12 L49.07 7.50 L49.93 7.01 L50.80 6.65 L51.67 6.36 L52.53 5.87 L53.40 5.31 L54.27 4.64 L55.13 4.00  L55.13 28.00 " /><path stroke="#4285F4" stroke-width="1" fill="none" d="M4.00 21.19  L4.00 21.19 L4.87 21.06 L5.73 20.96 L6.60 20.74 L7.47 20.77 L8.33 20.66 L9.20 20.64 L10.07 20.56 L10.93 20.47 L11.80 20.25 L12.67 20.11 L13.53 19.92 L14.40 19.64 L15.27 19.39 L16.13 19.11 L17.00 18.75 L17.87 18.51 L18.73 18.28 L19.60 18.07 L20.47 17.96 L21.33 17.83 L22.20 17.65 L23.07 17.47 L23.93 17.26 L24.80 17.07 L25.67 16.85 L26.53 16.51 L27.40 16.14 L28.27 15.82 L29.13 15.56 L30.00 15.35 L30.87 15.14 L31.73 14.89 L32.60 14.75 L33.47 14.66 L34.33 14.51 L35.20 14.30 L36.07 14.03 L36.93 13.83 L37.80 13.74 L38.67 13.61 L39.53 13.22 L40.40 12.87 L41.27 12.46 L42.13 11.99 L43.00 11.54 L43.87 10.97 L44.73 10.30 L45.60 9.76 L46.47 9.26 L47.33 8.72 L48.20 8.12 L49.07 7.50 L49.93 7.01 L50.80 6.65 L51.67 6.36 L52.53 5.87 L53.40 5.31 L54.27 4.64 L55.13 4.00 " /></svg>