<svg width="60" height="28" xmlns="http://www.w3.org/2000/svg"><path stroke="none" fill="#E8F0FE" d="M4.00 28.00 L4.00 21.50  L4.00 21.50 L4.87 21.50 L5.73 21.50 L6.60 20.50 L7.47 20.50 L8.33 20.50 L9.20 20.50 L10.07 19.50 L10.93 20.50 L11.80 20.00 L12.67 17.50 L13.53 17.50 L14.40 17.50 L15.27 17.50 L16.13 19.00 L17.00 11.00 L17.87 11.50 L18.73 10.00 L19.60 6.50 L20.47 6.50 L21.33 6.50 L22.20 4.00 L23.07 11.00 L23.93 9.50 L24.80 14.50 L25.67 18.00 L26.53 18.00 L27.40 18.00 L28.27 16.00 L29.13 17.00 L30.00 16.00 L30.87 14.00 L31.73 12.50 L32.60 12.50 L33.47 12.50 L34.33 13.50 L35.20 11.50 L36.07 12.00 L36.93 11.00 L37.80 12.50 L38.67 12.50 L39.53 12.50 L40.40 16.00 L41.27 15.50 L42.13 17.50 L43.00 20.50 L43.87 20.00 L44.73 20.00 L45.60 20.00 L46.47 20.00 L47.33 23.00 L48.20 22.50 L49.07 22.50 L49.93 23.50 L50.80 23.50 L51.67 23.50 L52.53 22.00 L53.40 21.50 L54.27 21.50 L55.13 21.50  L55.13 28.00 " /><path stroke="#4285F4" stroke-width="1" fill="none" d="M4.00 21.50  L4.00 21.50 L4.87 21.50 L5.73 21.50 L6.60 20.50 L7.47 20.50 L8.33 20.50 L9.20 20.50 L10.07 19.50 L10.93 20.50 L11.80 20.00 L12.67 17.50 L13.53 17.50 L14.40 17.50 L15.27 17.50 L16.13 19.00 L17.00 11.00 L17.87 11.50 L18.73 10.00 L19.60 6.50 L20.47 6.50 L21.33 6.50 L22.20 4.00 L23.07 11.00 L23.93 9.50 L24.80 14.50 L25.67 18.00 L26.53 18.00 L27.40 18.00 L28.27 16.00 L29.13 17.00 L30.00 16.00 L30.87 14.00 L31.73 12.50 L32.60 12.50 L33.47 12.50 L34.33 13.50 L35.20 11.50 L36.07 12.00 L36.93 11.00 L37.80 12.50 L38.67 12.50 L39.53 12.50 L40.40 16.00 L41.27 15.50 L42.13 17.50 L43.00 20.50 L43.87 20.00 L44.73 20.00 L45.60 20.00 L46.47 20.00 L47.33 23.00 L48.20 22.50 L49.07 22.50 L49.93 23.50 L50.80 23.50 L51.67 23.50 L52.53 22.00 L53.40 21.50 L54.27 21.50 L55.13 21.50 " /></svg>