<svg width="60" height="28" xmlns="http://www.w3.org/2000/svg"><path stroke="none" fill="#E8F0FE" d="M4.00 28.00 L4.00 4.00  L4.00 4.00 L4.87 5.67 L5.73 6.88 L6.60 7.86 L7.47 7.19 L8.33 8.33 L9.20 9.16 L10.07 10.27 L10.93 10.69 L11.80 10.95 L12.67 11.55 L13.53 12.76 L14.40 13.22 L15.27 13.94 L16.13 14.22 L17.00 14.64 L17.87 14.93 L18.73 15.24 L19.60 16.10 L20.47 16.26 L21.33 16.36 L22.20 16.64 L23.07 17.16 L23.93 17.57 L24.80 17.77 L25.67 17.93 L26.53 18.47 L27.40 19.32 L28.27 19.32 L29.13 19.62 L30.00 19.90 L30.87 19.73 L31.73 19.81 L32.60 20.05 L33.47 19.64 L34.33 20.36 L35.20 20.21 L36.07 19.92 L36.93 19.88 L37.80 20.03 L38.67 19.77 L39.53 19.87 L40.40 20.50 L41.27 20.67 L42.13 20.90 L43.00 21.07 L43.87 21.27 L44.73 20.76 L45.60 20.83 L46.47 20.00 L47.33 20.19 L48.20 20.29 L49.07 20.48 L49.93 20.42 L50.80 21.23 L51.67 21.43 L52.53 21.49 L53.40 21.37 L54.27 21.33 L55.13 21.17  L55.13 28.00 " /><path stroke="#4285F4" stroke-width="1" fill="none" d="M4.00 4.00  L4.00 4.00 L4.87 5.67 L5.73 6.88 L6.60 7.86 L7.47 7.19 L8.33 8.33 L9.20 9.16 L10.07 10.27 L10.93 10.69 L11.80 10.95 L12.67 11.55 L13.53 12.76 L14.40 13.22 L15.27 13.94 L16.13 14.22 L17.00 14.64 L17.87 14.93 L18.73 15.24 L19.60 16.10 L20.47 16.26 L21.33 16.36 L22.20 16.64 L23.07 17.16 L23.93 17.57 L24.80 17.77 L25.67 17.93 L26.53 18.47 L27.40 19.32 L28.27 19.32 L29.13 19.62 L30.00 19.90 L30.87 19.73 L31.73 19.81 L32.60 20.05 L33.47 19.64 L34.33 20.36 L35.20 20.21 L36.07 19.92 L36.93 19.88 L37.80 20.03 L38.67 19.77 L39.53 19.87 L40.40 20.50 L41.27 20.67 L42.13 20.90 L43.00 21.07 L43.87 21.27 L44.73 20.76 L45.60 20.83 L46.47 20.00 L47.33 20.19 L48.20 20.29 L49.07 20.48 L49.93 20.42 L50.80 21.23 L51.67 21.43 L52.53 21.49 L53.40 21.37 L54.27 21.33 L55.13 21.17 " /></svg>