<svg width="60" height="28" xmlns="http://www.w3.org/2000/svg"><path stroke="none" fill="#E8F0FE" d="M4.00 28.00 L4.00 4.58  L4.00 4.58 L4.87 6.13 L5.73 6.26 L6.60 5.78 L7.47 5.17 L8.33 4.58 L9.20 4.54 L10.07 4.00 L10.93 4.43 L11.80 6.46 L12.67 7.90 L13.53 9.36 L14.40 10.55 L15.27 11.09 L16.13 11.69 L17.00 11.76 L17.87 12.09 L18.73 12.58 L19.60 12.86 L20.47 12.92 L21.33 13.09 L22.20 13.82 L23.07 14.16 L23.93 14.13 L24.80 14.52 L25.67 15.58 L26.53 16.12 L27.40 16.81 L28.27 16.91 L29.13 17.31 L30.00 18.39 L30.87 18.83 L31.73 18.58 L32.60 18.83 L33.47 18.92 L34.33 18.97 L35.20 18.59 L36.07 18.23 L36.93 18.42 L37.80 18.83 L38.67 19.09 L39.53 19.40 L40.40 19.61 L41.27 19.87 L42.13 20.10 L43.00 19.98 L43.87 20.13 L44.73 20.81 L45.60 21.25 L46.47 19.99 L47.33 20.00 L48.20 19.97 L49.07 20.15 L49.93 19.97 L50.80 19.04 L51.67 18.64 L52.53 19.72 L53.40 19.72 L54.27 19.60 L55.13 19.52  L55.13 28.00 " /><path stroke="#4285F4" stroke-width="1" fill="none" d="M4.00 4.58  L4.00 4.58 L4.87 6.13 L5.73 6.26 L6.60 5.78 L7.47 5.17 L8.33 4.58 L9.20 4.54 L10.07 4.00 L10.93 4.43 L11.80 6.46 L12.67 7.90 L13.53 9.36 L14.40 10.55 L15.27 11.09 L16.13 11.69 L17.00 11.76 L17.87 12.09 L18.73 12.58 L19.60 12.86 L20.47 12.92 L21.33 13.09 L22.20 13.82 L23.07 14.16 L23.93 14.13 L24.80 14.52 L25.67 15.58 L26.53 16.12 L27.40 16.81 L28.27 16.91 L29.13 17.31 L30.00 18.39 L30.87 18.83 L31.73 18.58 L32.60 18.83 L33.47 18.92 L34.33 18.97 L35.20 18.59 L36.07 18.23 L36.93 18.42 L37.80 18.83 L38.67 19.09 L39.53 19.40 L40.40 19.61 L41.27 19.87 L42.13 20.10 L43.00 19.98 L43.87 20.13 L44.73 20.81 L45.60 21.25 L46.47 19.99 L47.33 20.00 L48.20 19.97 L49.07 20.15 L49.93 19.97 L50.80 19.04 L51.67 18.64 L52.53 19.72 L53.40 19.72 L54.27 19.60 L55.13 19.52 " /></svg>