<svg width="60" height="28" xmlns="http://www.w3.org/2000/svg"><path stroke="none" fill="#E8F0FE" d="M4.00 28.00 L4.00 13.74  L4.00 13.74 L4.87 13.92 L5.73 14.19 L6.60 14.39 L7.47 14.43 L8.33 14.68 L9.20 14.72 L10.07 14.82 L10.93 14.99 L11.80 15.04 L12.67 14.85 L13.53 14.95 L14.40 14.85 L15.27 14.95 L16.13 15.13 L17.00 15.24 L17.87 15.21 L18.73 15.35 L19.60 15.52 L20.47 15.74 L21.33 15.85 L22.20 15.77 L23.07 15.85 L23.93 15.77 L24.80 15.91 L25.67 15.72 L26.53 15.52 L27.40 15.63 L28.27 15.65 L29.13 15.68 L30.00 15.86 L30.87 15.84 L31.73 16.01 L32.60 16.12 L33.47 16.30 L34.33 16.23 L35.20 15.95 L36.07 15.79 L36.93 15.68 L37.80 15.34 L38.67 15.15 L39.53 14.62 L40.40 14.25 L41.27 13.90 L42.13 13.50 L43.00 13.03 L43.87 12.44 L44.73 11.62 L45.60 10.94 L46.47 10.15 L47.33 9.49 L48.20 8.76 L49.07 8.20 L49.93 7.59 L50.80 6.75 L51.67 5.84 L52.53 5.12 L53.40 4.73 L54.27 4.59 L55.13 4.00  L55.13 28.00 " /><path stroke="#4285F4" stroke-width="1" fill="none" d="M4.00 13.74  L4.00 13.74 L4.87 13.92 L5.73 14.19 L6.60 14.39 L7.47 14.43 L8.33 14.68 L9.20 14.72 L10.07 14.82 L10.93 14.99 L11.80 15.04 L12.67 14.85 L13.53 14.95 L14.40 14.85 L15.27 14.95 L16.13 15.13 L17.00 15.24 L17.87 15.21 L18.73 15.35 L19.60 15.52 L20.47 15.74 L21.33 15.85 L22.20 15.77 L23.07 15.85 L23.93 15.77 L24.80 15.91 L25.67 15.72 L26.53 15.52 L27.40 15.63 L28.27 15.65 L29.13 15.68 L30.00 15.86 L30.87 15.84 L31.73 16.01 L32.60 16.12 L33.47 16.30 L34.33 16.23 L35.20 15.95 L36.07 15.79 L36.93 15.68 L37.80 15.34 L38.67 15.15 L39.53 14.62 L40.40 14.25 L41.27 13.90 L42.13 13.50 L43.00 13.03 L43.87 12.44 L44.73 11.62 L45.60 10.94 L46.47 10.15 L47.33 9.49 L48.20 8.76 L49.07 8.20 L49.93 7.59 L50.80 6.75 L51.67 5.84 L52.53 5.12 L53.40 4.73 L54.27 4.59 L55.13 4.00 " /></svg>