<svg width="60" height="28" xmlns="http://www.w3.org/2000/svg"><path stroke="none" fill="#E8F0FE" d="M4.00 28.00 L4.00 19.98  L4.00 19.98 L4.87 19.57 L5.73 19.42 L6.60 19.49 L7.47 19.32 L8.33 19.26 L9.20 18.95 L10.07 18.58 L10.93 18.25 L11.80 18.17 L12.67 17.61 L13.53 17.00 L14.40 16.36 L15.27 16.02 L16.13 15.62 L17.00 15.50 L17.87 14.91 L18.73 15.02 L19.60 15.10 L20.47 15.05 L21.33 14.46 L22.20 14.01 L23.07 12.76 L23.93 12.72 L24.80 12.72 L25.67 11.78 L26.53 11.19 L27.40 10.85 L28.27 10.56 L29.13 11.02 L30.00 10.83 L30.87 10.53 L31.73 10.30 L32.60 9.98 L33.47 10.02 L34.33 10.38 L35.20 10.78 L36.07 10.91 L36.93 10.54 L37.80 10.33 L38.67 10.38 L39.53 10.95 L40.40 8.81 L41.27 7.85 L42.13 7.82 L43.00 7.76 L43.87 7.43 L44.73 6.64 L45.60 5.40 L46.47 5.99 L47.33 5.69 L48.20 4.72 L49.07 4.52 L49.93 4.94 L50.80 4.64 L51.67 4.00 L52.53 4.35 L53.40 4.40 L54.27 4.73 L55.13 5.02  L55.13 28.00 " /><path stroke="#4285F4" stroke-width="1" fill="none" d="M4.00 19.98  L4.00 19.98 L4.87 19.57 L5.73 19.42 L6.60 19.49 L7.47 19.32 L8.33 19.26 L9.20 18.95 L10.07 18.58 L10.93 18.25 L11.80 18.17 L12.67 17.61 L13.53 17.00 L14.40 16.36 L15.27 16.02 L16.13 15.62 L17.00 15.50 L17.87 14.91 L18.73 15.02 L19.60 15.10 L20.47 15.05 L21.33 14.46 L22.20 14.01 L23.07 12.76 L23.93 12.72 L24.80 12.72 L25.67 11.78 L26.53 11.19 L27.40 10.85 L28.27 10.56 L29.13 11.02 L30.00 10.83 L30.87 10.53 L31.73 10.30 L32.60 9.98 L33.47 10.02 L34.33 10.38 L35.20 10.78 L36.07 10.91 L36.93 10.54 L37.80 10.33 L38.67 10.38 L39.53 10.95 L40.40 8.81 L41.27 7.85 L42.13 7.82 L43.00 7.76 L43.87 7.43 L44.73 6.64 L45.60 5.40 L46.47 5.99 L47.33 5.69 L48.20 4.72 L49.07 4.52 L49.93 4.94 L50.80 4.64 L51.67 4.00 L52.53 4.35 L53.40 4.40 L54.27 4.73 L55.13 5.02 " /></svg>