<svg width="60" height="28" xmlns="http://www.w3.org/2000/svg"><path stroke="none" fill="#E8F0FE" d="M4.00 28.00 L4.00 12.50  L4.00 12.50 L4.87 11.48 L5.73 11.30 L6.60 12.02 L7.47 12.20 L8.33 14.09 L9.20 10.02 L10.07 8.86 L10.93 8.73 L11.80 8.16 L12.67 6.75 L13.53 5.93 L14.40 6.48 L15.27 9.05 L16.13 9.86 L17.00 10.16 L17.87 9.77 L18.73 10.39 L19.60 11.57 L20.47 11.11 L21.33 10.68 L22.20 11.64 L23.07 11.75 L23.93 11.89 L24.80 12.18 L25.67 11.30 L26.53 10.41 L27.40 10.16 L28.27 8.66 L29.13 8.57 L30.00 8.70 L30.87 7.50 L31.73 7.77 L32.60 8.48 L33.47 8.30 L34.33 8.55 L35.20 7.91 L36.07 7.23 L36.93 8.18 L37.80 7.02 L38.67 6.68 L39.53 9.00 L40.40 7.39 L41.27 7.43 L42.13 7.73 L43.00 6.09 L43.87 6.11 L44.73 5.86 L45.60 4.00 L46.47 6.11 L47.33 6.73 L48.20 6.77 L49.07 7.75 L49.93 8.64 L50.80 8.14 L51.67 7.45 L52.53 6.75 L53.40 5.91 L54.27 5.34 L55.13 5.59  L55.13 28.00 " /><path stroke="#4285F4" stroke-width="1" fill="none" d="M4.00 12.50  L4.00 12.50 L4.87 11.48 L5.73 11.30 L6.60 12.02 L7.47 12.20 L8.33 14.09 L9.20 10.02 L10.07 8.86 L10.93 8.73 L11.80 8.16 L12.67 6.75 L13.53 5.93 L14.40 6.48 L15.27 9.05 L16.13 9.86 L17.00 10.16 L17.87 9.77 L18.73 10.39 L19.60 11.57 L20.47 11.11 L21.33 10.68 L22.20 11.64 L23.07 11.75 L23.93 11.89 L24.80 12.18 L25.67 11.30 L26.53 10.41 L27.40 10.16 L28.27 8.66 L29.13 8.57 L30.00 8.70 L30.87 7.50 L31.73 7.77 L32.60 8.48 L33.47 8.30 L34.33 8.55 L35.20 7.91 L36.07 7.23 L36.93 8.18 L37.80 7.02 L38.67 6.68 L39.53 9.00 L40.40 7.39 L41.27 7.43 L42.13 7.73 L43.00 6.09 L43.87 6.11 L44.73 5.86 L45.60 4.00 L46.47 6.11 L47.33 6.73 L48.20 6.77 L49.07 7.75 L49.93 8.64 L50.80 8.14 L51.67 7.45 L52.53 6.75 L53.40 5.91 L54.27 5.34 L55.13 5.59 " /></svg>