<svg width="60" height="28" xmlns="http://www.w3.org/2000/svg"><path stroke="none" fill="#E8F0FE" d="M4.00 28.00 L4.00 7.52  L4.00 7.52 L4.87 7.93 L5.73 7.62 L6.60 4.00 L7.47 4.97 L8.33 4.87 L9.20 5.84 L10.07 7.67 L10.93 5.84 L11.80 5.22 L12.67 7.47 L13.53 7.72 L14.40 8.23 L15.27 7.47 L16.13 7.06 L17.00 9.51 L17.87 10.58 L18.73 11.56 L19.60 9.42 L20.47 9.77 L21.33 11.20 L22.20 13.88 L23.07 13.52 L23.93 13.40 L24.80 12.67 L25.67 9.51 L26.53 7.42 L27.40 6.04 L28.27 6.24 L29.13 4.20 L30.00 4.61 L30.87 4.00 L31.73 9.14 L32.60 8.50 L33.47 10.50 L34.33 7.36 L35.20 11.00 L36.07 10.50 L36.93 11.92 L37.80 12.83 L38.67 15.89 L39.53 15.94 L40.40 17.93 L41.27 16.70 L42.13 17.57 L43.00 17.78 L43.87 17.69 L44.73 16.62 L45.60 16.92 L46.47 16.74 L47.33 16.56 L48.20 16.14 L49.07 15.90 L49.93 15.90 L50.80 16.50 L51.67 15.01 L52.53 13.52 L53.40 15.55 L54.27 15.96 L55.13 15.36  L55.13 28.00 " /><path stroke="#4285F4" stroke-width="1" fill="none" d="M4.00 7.52  L4.00 7.52 L4.87 7.93 L5.73 7.62 L6.60 4.00 L7.47 4.97 L8.33 4.87 L9.20 5.84 L10.07 7.67 L10.93 5.84 L11.80 5.22 L12.67 7.47 L13.53 7.72 L14.40 8.23 L15.27 7.47 L16.13 7.06 L17.00 9.51 L17.87 10.58 L18.73 11.56 L19.60 9.42 L20.47 9.77 L21.33 11.20 L22.20 13.88 L23.07 13.52 L23.93 13.40 L24.80 12.67 L25.67 9.51 L26.53 7.42 L27.40 6.04 L28.27 6.24 L29.13 4.20 L30.00 4.61 L30.87 4.00 L31.73 9.14 L32.60 8.50 L33.47 10.50 L34.33 7.36 L35.20 11.00 L36.07 10.50 L36.93 11.92 L37.80 12.83 L38.67 15.89 L39.53 15.94 L40.40 17.93 L41.27 16.70 L42.13 17.57 L43.00 17.78 L43.87 17.69 L44.73 16.62 L45.60 16.92 L46.47 16.74 L47.33 16.56 L48.20 16.14 L49.07 15.90 L49.93 15.90 L50.80 16.50 L51.67 15.01 L52.53 13.52 L53.40 15.55 L54.27 15.96 L55.13 15.36 " /></svg>