<svg width="60" height="28" xmlns="http://www.w3.org/2000/svg"><path stroke="none" fill="#E8F0FE" d="M4.00 28.00 L4.00 16.40  L4.00 16.40 L4.87 16.41 L5.73 15.55 L6.60 15.04 L7.47 12.95 L8.33 12.04 L9.20 10.66 L10.07 9.86 L10.93 7.87 L11.80 7.14 L12.67 5.57 L13.53 5.62 L14.40 4.89 L15.27 4.65 L16.13 4.49 L17.00 4.21 L17.87 4.00 L18.73 4.13 L19.60 4.75 L20.47 5.28 L21.33 6.66 L22.20 7.00 L23.07 7.58 L23.93 7.23 L24.80 6.91 L25.67 6.87 L26.53 6.71 L27.40 5.88 L28.27 5.83 L29.13 6.67 L30.00 7.71 L30.87 9.27 L31.73 9.67 L32.60 9.84 L33.47 10.60 L34.33 10.68 L35.20 10.54 L36.07 11.15 L36.93 11.07 L37.80 11.85 L38.67 12.30 L39.53 12.61 L40.40 12.93 L41.27 13.13 L42.13 12.88 L43.00 13.02 L43.87 12.87 L44.73 12.48 L45.60 11.84 L46.47 11.03 L47.33 9.94 L48.20 9.01 L49.07 8.35 L49.93 8.21 L50.80 8.39 L51.67 8.60 L52.53 8.90 L53.40 8.87 L54.27 9.18 L55.13 9.35  L55.13 28.00 " /><path stroke="#4285F4" stroke-width="1" fill="none" d="M4.00 16.40  L4.00 16.40 L4.87 16.41 L5.73 15.55 L6.60 15.04 L7.47 12.95 L8.33 12.04 L9.20 10.66 L10.07 9.86 L10.93 7.87 L11.80 7.14 L12.67 5.57 L13.53 5.62 L14.40 4.89 L15.27 4.65 L16.13 4.49 L17.00 4.21 L17.87 4.00 L18.73 4.13 L19.60 4.75 L20.47 5.28 L21.33 6.66 L22.20 7.00 L23.07 7.58 L23.93 7.23 L24.80 6.91 L25.67 6.87 L26.53 6.71 L27.40 5.88 L28.27 5.83 L29.13 6.67 L30.00 7.71 L30.87 9.27 L31.73 9.67 L32.60 9.84 L33.47 10.60 L34.33 10.68 L35.20 10.54 L36.07 11.15 L36.93 11.07 L37.80 11.85 L38.67 12.30 L39.53 12.61 L40.40 12.93 L41.27 13.13 L42.13 12.88 L43.00 13.02 L43.87 12.87 L44.73 12.48 L45.60 11.84 L46.47 11.03 L47.33 9.94 L48.20 9.01 L49.07 8.35 L49.93 8.21 L50.80 8.39 L51.67 8.60 L52.53 8.90 L53.40 8.87 L54.27 9.18 L55.13 9.35 " /></svg>