<svg width="60" height="28" xmlns="http://www.w3.org/2000/svg"><path stroke="none" fill="#E8F0FE" d="M4.00 28.00 L4.00 10.69  L4.00 10.69 L4.87 10.75 L5.73 8.79 L6.60 6.41 L7.47 5.75 L8.33 6.90 L9.20 6.45 L10.07 8.52 L10.93 11.27 L11.80 13.56 L12.67 12.86 L13.53 12.45 L14.40 11.86 L15.27 11.94 L16.13 11.87 L17.00 11.36 L17.87 11.17 L18.73 10.82 L19.60 11.40 L20.47 11.47 L21.33 11.50 L22.20 11.05 L23.07 10.63 L23.93 10.14 L24.80 10.25 L25.67 9.10 L26.53 8.83 L27.40 9.02 L28.27 8.37 L29.13 8.16 L30.00 7.94 L30.87 6.95 L31.73 6.60 L32.60 6.66 L33.47 4.87 L34.33 5.44 L35.20 5.60 L36.07 6.45 L36.93 7.24 L37.80 8.15 L38.67 6.93 L39.53 7.89 L40.40 7.56 L41.27 6.71 L42.13 5.87 L43.00 5.13 L43.87 4.61 L44.73 5.30 L45.60 4.94 L46.47 4.70 L47.33 5.54 L48.20 4.94 L49.07 5.37 L49.93 4.06 L50.80 4.00 L51.67 4.92 L52.53 5.35 L53.40 5.21 L54.27 5.83 L55.13 5.11  L55.13 28.00 " /><path stroke="#4285F4" stroke-width="1" fill="none" d="M4.00 10.69  L4.00 10.69 L4.87 10.75 L5.73 8.79 L6.60 6.41 L7.47 5.75 L8.33 6.90 L9.20 6.45 L10.07 8.52 L10.93 11.27 L11.80 13.56 L12.67 12.86 L13.53 12.45 L14.40 11.86 L15.27 11.94 L16.13 11.87 L17.00 11.36 L17.87 11.17 L18.73 10.82 L19.60 11.40 L20.47 11.47 L21.33 11.50 L22.20 11.05 L23.07 10.63 L23.93 10.14 L24.80 10.25 L25.67 9.10 L26.53 8.83 L27.40 9.02 L28.27 8.37 L29.13 8.16 L30.00 7.94 L30.87 6.95 L31.73 6.60 L32.60 6.66 L33.47 4.87 L34.33 5.44 L35.20 5.60 L36.07 6.45 L36.93 7.24 L37.80 8.15 L38.67 6.93 L39.53 7.89 L40.40 7.56 L41.27 6.71 L42.13 5.87 L43.00 5.13 L43.87 4.61 L44.73 5.30 L45.60 4.94 L46.47 4.70 L47.33 5.54 L48.20 4.94 L49.07 5.37 L49.93 4.06 L50.80 4.00 L51.67 4.92 L52.53 5.35 L53.40 5.21 L54.27 5.83 L55.13 5.11 " /></svg>