<svg width="60" height="28" xmlns="http://www.w3.org/2000/svg"><path stroke="none" fill="#E8F0FE" d="M4.00 28.00 L4.00 19.68  L4.00 19.68 L4.87 20.21 L5.73 21.53 L6.60 21.89 L7.47 21.80 L8.33 21.80 L9.20 21.89 L10.07 21.80 L10.93 22.33 L11.80 22.59 L12.67 22.77 L13.53 23.21 L14.40 23.30 L15.27 22.94 L16.13 22.06 L17.00 21.62 L17.87 21.09 L18.73 21.00 L19.60 20.83 L20.47 20.92 L21.33 20.56 L22.20 21.27 L23.07 21.18 L23.93 21.44 L24.80 21.00 L25.67 21.00 L26.53 20.21 L27.40 20.39 L28.27 20.04 L29.13 19.51 L30.00 18.63 L30.87 18.27 L31.73 17.66 L32.60 17.92 L33.47 17.48 L34.33 17.04 L35.20 17.04 L36.07 16.60 L36.93 16.07 L37.80 14.31 L38.67 11.40 L39.53 9.81 L40.40 8.76 L41.27 9.64 L42.13 10.61 L43.00 10.70 L43.87 9.81 L44.73 11.14 L45.60 8.58 L46.47 9.73 L47.33 7.17 L48.20 6.03 L49.07 6.64 L49.93 8.49 L50.80 8.85 L51.67 5.15 L52.53 4.00 L53.40 5.32 L54.27 5.23 L55.13 4.35  L55.13 28.00 " /><path stroke="#4285F4" stroke-width="1" fill="none" d="M4.00 19.68  L4.00 19.68 L4.87 20.21 L5.73 21.53 L6.60 21.89 L7.47 21.80 L8.33 21.80 L9.20 21.89 L10.07 21.80 L10.93 22.33 L11.80 22.59 L12.67 22.77 L13.53 23.21 L14.40 23.30 L15.27 22.94 L16.13 22.06 L17.00 21.62 L17.87 21.09 L18.73 21.00 L19.60 20.83 L20.47 20.92 L21.33 20.56 L22.20 21.27 L23.07 21.18 L23.93 21.44 L24.80 21.00 L25.67 21.00 L26.53 20.21 L27.40 20.39 L28.27 20.04 L29.13 19.51 L30.00 18.63 L30.87 18.27 L31.73 17.66 L32.60 17.92 L33.47 17.48 L34.33 17.04 L35.20 17.04 L36.07 16.60 L36.93 16.07 L37.80 14.31 L38.67 11.40 L39.53 9.81 L40.40 8.76 L41.27 9.64 L42.13 10.61 L43.00 10.70 L43.87 9.81 L44.73 11.14 L45.60 8.58 L46.47 9.73 L47.33 7.17 L48.20 6.03 L49.07 6.64 L49.93 8.49 L50.80 8.85 L51.67 5.15 L52.53 4.00 L53.40 5.32 L54.27 5.23 L55.13 4.35 " /></svg>