<svg width="60" height="28" xmlns="http://www.w3.org/2000/svg"><path stroke="none" fill="#E8F0FE" d="M4.00 28.00 L4.00 24.00  L4.00 24.00 L4.87 24.00 L5.73 24.00 L6.60 24.00 L7.47 24.00 L8.33 24.00 L9.20 24.00 L10.07 24.00 L10.93 24.00 L11.80 24.00 L12.67 24.00 L13.53 24.00 L14.40 24.00 L15.27 24.00 L16.13 24.00 L17.00 24.00 L17.87 24.00 L18.73 24.00 L19.60 24.00 L20.47 24.00 L21.33 24.00 L22.20 24.00 L23.07 24.00 L23.93 24.00 L24.80 24.00 L25.67 24.00 L26.53 21.14 L27.40 21.14 L28.27 21.14 L29.13 21.14 L30.00 21.14 L30.87 21.14 L31.73 21.14 L32.60 24.00 L33.47 24.00 L34.33 24.00 L35.20 24.00 L36.07 24.00 L36.93 24.00 L37.80 24.00 L38.67 24.00 L39.53 6.86 L40.40 6.86 L41.27 6.86 L42.13 6.86 L43.00 6.86 L43.87 6.86 L44.73 6.86 L45.60 24.00 L46.47 24.00 L47.33 24.00 L48.20 24.00 L49.07 24.00 L49.93 21.14 L50.80 15.43 L51.67 15.43 L52.53 4.00 L53.40 4.00 L54.27 4.00 L55.13 4.00  L55.13 28.00 " /><path stroke="#4285F4" stroke-width="1" fill="none" d="M4.00 24.00  L4.00 24.00 L4.87 24.00 L5.73 24.00 L6.60 24.00 L7.47 24.00 L8.33 24.00 L9.20 24.00 L10.07 24.00 L10.93 24.00 L11.80 24.00 L12.67 24.00 L13.53 24.00 L14.40 24.00 L15.27 24.00 L16.13 24.00 L17.00 24.00 L17.87 24.00 L18.73 24.00 L19.60 24.00 L20.47 24.00 L21.33 24.00 L22.20 24.00 L23.07 24.00 L23.93 24.00 L24.80 24.00 L25.67 24.00 L26.53 21.14 L27.40 21.14 L28.27 21.14 L29.13 21.14 L30.00 21.14 L30.87 21.14 L31.73 21.14 L32.60 24.00 L33.47 24.00 L34.33 24.00 L35.20 24.00 L36.07 24.00 L36.93 24.00 L37.80 24.00 L38.67 24.00 L39.53 6.86 L40.40 6.86 L41.27 6.86 L42.13 6.86 L43.00 6.86 L43.87 6.86 L44.73 6.86 L45.60 24.00 L46.47 24.00 L47.33 24.00 L48.20 24.00 L49.07 24.00 L49.93 21.14 L50.80 15.43 L51.67 15.43 L52.53 4.00 L53.40 4.00 L54.27 4.00 L55.13 4.00 " /></svg>