<svg width="60" height="28" xmlns="http://www.w3.org/2000/svg"><path stroke="none" fill="#E8F0FE" d="M4.00 28.00 L4.00 17.58  L4.00 17.58 L4.87 17.58 L5.73 17.58 L6.60 17.58 L7.47 17.58 L8.33 17.58 L9.20 17.58 L10.07 19.70 L10.93 16.54 L11.80 15.97 L12.67 15.97 L13.53 10.99 L14.40 9.49 L15.27 4.00 L16.13 4.93 L17.00 7.42 L17.87 5.04 L18.73 5.04 L19.60 5.71 L20.47 7.21 L21.33 12.70 L22.20 16.07 L23.07 16.75 L23.93 19.70 L24.80 19.70 L25.67 24.00 L26.53 24.00 L27.40 24.00 L28.27 24.00 L29.13 24.00 L30.00 24.00 L30.87 24.00 L31.73 24.00 L32.60 24.00 L33.47 24.00 L34.33 24.00 L35.20 24.00 L36.07 24.00 L36.93 24.00 L37.80 24.00 L38.67 24.00 L39.53 24.00 L40.40 24.00 L41.27 24.00 L42.13 24.00 L43.00 24.00 L43.87 24.00 L44.73 24.00 L45.60 24.00 L46.47 24.00 L47.33 24.00 L48.20 24.00 L49.07 24.00 L49.93 24.00 L50.80 24.00 L51.67 24.00 L52.53 24.00 L53.40 24.00 L54.27 24.00 L55.13 24.00  L55.13 28.00 " /><path stroke="#4285F4" stroke-width="1" fill="none" d="M4.00 17.58  L4.00 17.58 L4.87 17.58 L5.73 17.58 L6.60 17.58 L7.47 17.58 L8.33 17.58 L9.20 17.58 L10.07 19.70 L10.93 16.54 L11.80 15.97 L12.67 15.97 L13.53 10.99 L14.40 9.49 L15.27 4.00 L16.13 4.93 L17.00 7.42 L17.87 5.04 L18.73 5.04 L19.60 5.71 L20.47 7.21 L21.33 12.70 L22.20 16.07 L23.07 16.75 L23.93 19.70 L24.80 19.70 L25.67 24.00 L26.53 24.00 L27.40 24.00 L28.27 24.00 L29.13 24.00 L30.00 24.00 L30.87 24.00 L31.73 24.00 L32.60 24.00 L33.47 24.00 L34.33 24.00 L35.20 24.00 L36.07 24.00 L36.93 24.00 L37.80 24.00 L38.67 24.00 L39.53 24.00 L40.40 24.00 L41.27 24.00 L42.13 24.00 L43.00 24.00 L43.87 24.00 L44.73 24.00 L45.60 24.00 L46.47 24.00 L47.33 24.00 L48.20 24.00 L49.07 24.00 L49.93 24.00 L50.80 24.00 L51.67 24.00 L52.53 24.00 L53.40 24.00 L54.27 24.00 L55.13 24.00 " /></svg>