<svg width="60" height="28" xmlns="http://www.w3.org/2000/svg"><path stroke="none" fill="#E8F0FE" d="M4.00 28.00 L4.00 22.40  L4.00 22.40 L4.87 22.40 L5.73 22.40 L6.60 22.40 L7.47 24.00 L8.33 24.00 L9.20 24.00 L10.07 20.80 L10.93 20.80 L11.80 20.80 L12.67 20.80 L13.53 20.80 L14.40 14.80 L15.27 14.80 L16.13 18.00 L17.00 18.00 L17.87 18.00 L18.73 18.00 L19.60 18.00 L20.47 24.00 L21.33 24.00 L22.20 24.00 L23.07 24.00 L23.93 24.00 L24.80 24.00 L25.67 24.00 L26.53 15.60 L27.40 15.60 L28.27 15.60 L29.13 15.60 L30.00 15.60 L30.87 15.60 L31.73 7.60 L32.60 16.00 L33.47 16.00 L34.33 16.00 L35.20 16.00 L36.07 11.60 L36.93 11.60 L37.80 19.60 L38.67 19.60 L39.53 15.60 L40.40 15.60 L41.27 15.60 L42.13 20.00 L43.00 20.00 L43.87 4.00 L44.73 4.00 L45.60 8.00 L46.47 8.00 L47.33 8.00 L48.20 8.00 L49.07 8.00 L49.93 24.00 L50.80 13.60 L51.67 13.60 L52.53 13.60 L53.40 13.60 L54.27 13.60 L55.13 5.20  L55.13 28.00 " /><path stroke="#4285F4" stroke-width="1" fill="none" d="M4.00 22.40  L4.00 22.40 L4.87 22.40 L5.73 22.40 L6.60 22.40 L7.47 24.00 L8.33 24.00 L9.20 24.00 L10.07 20.80 L10.93 20.80 L11.80 20.80 L12.67 20.80 L13.53 20.80 L14.40 14.80 L15.27 14.80 L16.13 18.00 L17.00 18.00 L17.87 18.00 L18.73 18.00 L19.60 18.00 L20.47 24.00 L21.33 24.00 L22.20 24.00 L23.07 24.00 L23.93 24.00 L24.80 24.00 L25.67 24.00 L26.53 15.60 L27.40 15.60 L28.27 15.60 L29.13 15.60 L30.00 15.60 L30.87 15.60 L31.73 7.60 L32.60 16.00 L33.47 16.00 L34.33 16.00 L35.20 16.00 L36.07 11.60 L36.93 11.60 L37.80 19.60 L38.67 19.60 L39.53 15.60 L40.40 15.60 L41.27 15.60 L42.13 20.00 L43.00 20.00 L43.87 4.00 L44.73 4.00 L45.60 8.00 L46.47 8.00 L47.33 8.00 L48.20 8.00 L49.07 8.00 L49.93 24.00 L50.80 13.60 L51.67 13.60 L52.53 13.60 L53.40 13.60 L54.27 13.60 L55.13 5.20 " /></svg>