<svg width="60" height="28" xmlns="http://www.w3.org/2000/svg"><path stroke="none" fill="#E8F0FE" d="M4.00 28.00 L4.00 13.38  L4.00 13.38 L4.87 5.04 L5.73 5.04 L6.60 5.87 L7.47 4.00 L8.33 5.46 L9.20 5.67 L10.07 7.96 L10.93 14.83 L11.80 16.29 L12.67 14.83 L13.53 16.92 L14.40 14.62 L15.27 16.50 L16.13 15.67 L17.00 16.50 L17.87 15.88 L18.73 16.92 L19.60 13.79 L20.47 16.50 L21.33 14.62 L22.20 15.88 L23.07 16.50 L23.93 16.71 L24.80 17.12 L25.67 19.42 L26.53 13.79 L27.40 15.25 L28.27 15.88 L29.13 15.88 L30.00 16.08 L30.87 16.08 L31.73 16.71 L32.60 22.54 L33.47 22.54 L34.33 22.54 L35.20 22.54 L36.07 22.75 L36.93 22.54 L37.80 23.17 L38.67 22.75 L39.53 23.17 L40.40 23.17 L41.27 22.33 L42.13 22.33 L43.00 22.12 L43.87 22.12 L44.73 22.54 L45.60 22.12 L46.47 22.33 L47.33 16.71 L48.20 16.71 L49.07 17.12 L49.93 12.96 L50.80 11.92 L51.67 12.33 L52.53 11.71 L53.40 18.17 L54.27 17.12 L55.13 14.42  L55.13 28.00 " /><path stroke="#4285F4" stroke-width="1" fill="none" d="M4.00 13.38  L4.00 13.38 L4.87 5.04 L5.73 5.04 L6.60 5.87 L7.47 4.00 L8.33 5.46 L9.20 5.67 L10.07 7.96 L10.93 14.83 L11.80 16.29 L12.67 14.83 L13.53 16.92 L14.40 14.62 L15.27 16.50 L16.13 15.67 L17.00 16.50 L17.87 15.88 L18.73 16.92 L19.60 13.79 L20.47 16.50 L21.33 14.62 L22.20 15.88 L23.07 16.50 L23.93 16.71 L24.80 17.12 L25.67 19.42 L26.53 13.79 L27.40 15.25 L28.27 15.88 L29.13 15.88 L30.00 16.08 L30.87 16.08 L31.73 16.71 L32.60 22.54 L33.47 22.54 L34.33 22.54 L35.20 22.54 L36.07 22.75 L36.93 22.54 L37.80 23.17 L38.67 22.75 L39.53 23.17 L40.40 23.17 L41.27 22.33 L42.13 22.33 L43.00 22.12 L43.87 22.12 L44.73 22.54 L45.60 22.12 L46.47 22.33 L47.33 16.71 L48.20 16.71 L49.07 17.12 L49.93 12.96 L50.80 11.92 L51.67 12.33 L52.53 11.71 L53.40 18.17 L54.27 17.12 L55.13 14.42 " /></svg>